<?xml version="1.0" encoding="utf-8"?><svg xmlns="http://www.w3.org/2000/svg" xmlns:xlink="http://www.w3.org/1999/xlink"><symbol viewBox="0 0 18 14" id="icon-check" xmlns="http://www.w3.org/2000/svg"><path fill="none" stroke="#FFF" stroke-width="2" d="M1 7.644l4.7 4.73L17 1"/></symbol><symbol viewBox="0 0 36 36" id="icon-dots" xmlns="http://www.w3.org/2000/svg"><path d="M8 16c-1.103 0-2 .897-2 2s.897 2 2 2 2-.897 2-2-.897-2-2-2m0 6c-2.206 0-4-1.794-4-4s1.794-4 4-4 4 1.794 4 4-1.794 4-4 4m10-6c-1.103 0-2 .897-2 2s.897 2 2 2 2-.897 2-2-.897-2-2-2m0 6c-2.206 0-4-1.794-4-4s1.794-4 4-4 4 1.794 4 4-1.794 4-4 4m10-6c-1.103 0-2 .897-2 2s.897 2 2 2 2-.897 2-2-.897-2-2-2m0 6c-2.206 0-4-1.794-4-4s1.794-4 4-4 4 1.794 4 4-1.794 4-4 4M8 26c-1.103 0-2 .897-2 2s.897 2 2 2 2-.897 2-2-.897-2-2-2m0 6c-2.206 0-4-1.794-4-4s1.794-4 4-4 4 1.794 4 4-1.794 4-4 4m10-6c-1.103 0-2 .897-2 2s.897 2 2 2 2-.897 2-2-.897-2-2-2m0 6c-2.206 0-4-1.794-4-4s1.794-4 4-4 4 1.794 4 4-1.794 4-4 4m10-6c-1.103 0-2 .897-2 2s.897 2 2 2 2-.897 2-2-.897-2-2-2m0 6c-2.206 0-4-1.794-4-4s1.794-4 4-4 4 1.794 4 4-1.794 4-4 4M8 6c-1.103 0-2 .897-2 2s.897 2 2 2 2-.897 2-2-.897-2-2-2m0 6c-2.206 0-4-1.794-4-4s1.794-4 4-4 4 1.794 4 4-1.794 4-4 4m10-6c-1.103 0-2 .897-2 2s.897 2 2 2 2-.897 2-2-.897-2-2-2m0 6c-2.206 0-4-1.794-4-4s1.794-4 4-4 4 1.794 4 4-1.794 4-4 4m10-6c-1.103 0-2 .897-2 2s.897 2 2 2 2-.897 2-2-.897-2-2-2m0 6c-2.206 0-4-1.794-4-4s1.794-4 4-4 4 1.794 4 4-1.794 4-4 4" fill-rule="evenodd"/></symbol><symbol viewBox="0 0 36 36" id="icon-menu" xmlns="http://www.w3.org/2000/svg"><path d="M6 7a1 1 0 0 0 0 2h24a1 1 0 0 0 0-2H6zm24 4H6c-1.654 0-3-1.346-3-3s1.346-3 3-3h24c1.654 0 3 1.346 3 3s-1.346 3-3 3zM6 17a1 1 0 0 0 0 2h24a1 1 0 0 0 0-2H6zm24 4H6c-1.654 0-3-1.346-3-3s1.346-3 3-3h24c1.654 0 3 1.346 3 3s-1.346 3-3 3zM6 27a1 1 0 0 0 0 2h24a1 1 0 0 0 0-2H6zm24 4H6c-1.654 0-3-1.346-3-3s1.346-3 3-3h24c1.654 0 3 1.346 3 3s-1.346 3-3 3z" fill-rule="evenodd"/></symbol><symbol viewBox="0 0 36 36" id="icon-plone" xmlns="http://www.w3.org/2000/svg"><g fill-rule="evenodd"><path d="M18.5 30C12.159 30 7 24.841 7 18.5S12.159 7 18.5 7 30 12.159 30 18.5 24.841 30 18.5 30m0-26C10.505 4 4 10.505 4 18.5S10.505 33 18.5 33 33 26.495 33 18.5 26.495 4 18.5 4"/><path d="M16.5 15.5a3 3 0 1 0 0-6 3 3 0 0 0 0 6m0 6a3 3 0 1 0 0 6 3 3 0 0 0 0-6m6-6a3 3 0 1 0 0 6 3 3 0 0 0 0-6"/></g></symbol><symbol id="icon-ui-hide" viewBox="0 0 64 64" xmlns="http://www.w3.org/2000/svg"><style>.aest3{fill:none;stroke:#4a4a4a;stroke-width:2;stroke-miterlimit:10}</style><path d="M54.094 32S44.202 45.824 32 45.824 9.906 32 9.906 32 19.798 18.176 32 18.176 54.094 32 54.094 32z" class="aest3"/><circle cx="32" cy="32" r="13.824" class="aest3"/><circle cx="32" cy="32" r="3.206" fill="#4a4a4a"/><path d="M11.02 47.437l41.96-30.874" class="aest3"/></symbol><symbol viewBox="0 0 512 512" id="icon-ui-link" xmlns="http://www.w3.org/2000/svg"><path d="M280 341.1l-1.2.1c-3.6.4-7 2-9.6 4.5l-64.6 64.6c-13.7 13.7-32 21.2-51.5 21.2s-37.8-7.5-51.5-21.2c-13.7-13.7-21.2-32-21.2-51.5s7.5-37.8 21.2-51.5l68.6-68.6c3.5-3.5 7.3-6.6 11.4-9.3 4.6-3 9.6-5.6 14.8-7.5 4.8-1.8 9.9-3 15-3.7 3.4-.5 6.9-.7 10.2-.7 1.4 0 2.8.1 4.6.2 17.7 1.1 34.4 8.6 46.8 21 7.7 7.7 13.6 17.1 17.1 27.3 2.8 8 11.2 12.5 19.3 10.1.1 0 .2-.1.3-.1.1 0 .2 0 .2-.1 8.1-2.5 12.8-11 10.5-19.1-4.4-15.6-12.2-28.7-24.6-41-15.6-15.6-35.9-25.8-57.6-29.3-1.9-.3-3.8-.6-5.7-.8-3.7-.4-7.4-.6-11.1-.6-2.6 0-5.2.1-7.7.3-5.4.4-10.8 1.2-16.2 2.5-1.1.2-2.1.5-3.2.8-6.7 1.8-13.3 4.2-19.5 7.3-10.3 5.1-19.6 11.7-27.7 19.9l-68.6 68.6C58.9 304.4 48 330.8 48 359c0 28.2 10.9 54.6 30.7 74.4C98.5 453.1 124.9 464 153 464c28.2 0 54.6-10.9 74.4-30.7l65.3-65.3c10.4-10.5 2-28.3-12.7-26.9z"/><path d="M433.3 78.7C413.5 58.9 387.1 48 359 48s-54.6 10.9-74.4 30.7l-63.7 63.7c-9.7 9.7-3.6 26.3 10.1 27.4 4.7.4 9.3-1.3 12.7-4.6l63.8-63.6c13.7-13.7 32-21.2 51.5-21.2s37.8 7.5 51.5 21.2c13.7 13.7 21.2 32 21.2 51.5s-7.5 37.8-21.2 51.5l-68.6 68.6c-3.5 3.5-7.3 6.6-11.4 9.3-4.6 3-9.6 5.6-14.8 7.5-4.8 1.8-9.9 3-15 3.7-3.4.5-6.9.7-10.2.7-1.4 0-2.9-.1-4.6-.2-17.7-1.1-34.4-8.6-46.8-21-7.3-7.3-12.8-16-16.4-25.5-2.9-7.7-11.1-11.9-19.1-9.8-8.9 2.3-14.1 11.7-11.3 20.5 4.5 14 12.1 25.9 23.7 37.5l.2.2c16.9 16.9 39.4 27.6 63.3 30.1 3.7.4 7.4.6 11.1.6 2.6 0 5.2-.1 7.8-.3 6.5-.5 13-1.6 19.3-3.2 6.7-1.8 13.3-4.2 19.5-7.3 10.3-5.1 19.6-11.7 27.7-19.9l68.6-68.6c19.8-19.8 30.7-46.2 30.7-74.4s-11.1-54.6-30.9-74.4z"/></symbol><symbol id="icon-ui-pen" viewBox="0 0 64 64" xmlns="http://www.w3.org/2000/svg"><style>.agst7{fill-rule:evenodd;clip-rule:evenodd;fill:none;stroke:currentColor;stroke-width:2;stroke-miterlimit:10}</style><path d="M27.925 46.229L17.771 36.075m27.047-6.739L34.664 19.182l4.979-4.979a4.22 4.22 0 0 1 5.966 0l4.188 4.188a4.22 4.22 0 0 1 0 5.966l-4.979 4.979z" class="agst7"/><path d="M27.925 46.229l-14.957 4.803 4.803-14.957 16.893-16.893 10.154 10.154-16.893 16.893zm-12.316-3.423l5.585 5.585" class="agst7"/></symbol><symbol id="icon-ui-plus" viewBox="0 0 64 64" xmlns="http://www.w3.org/2000/svg"><style>.ahst3{fill:none;stroke:#4a4a4a;stroke-width:2;stroke-miterlimit:10}</style><path d="M14.157 32h35.686M32 14.157v35.686" class="ahst3"/></symbol><symbol id="icon-ui-plus-sign" viewBox="0 0 64 64" xmlns="http://www.w3.org/2000/svg"><style>.aist4{fill-rule:evenodd;clip-rule:evenodd;fill:none;stroke:#4a4a4a;stroke-width:2;stroke-miterlimit:10}</style><circle cx="32" cy="32" r="19.677" fill="none" stroke="#4a4a4a" stroke-miterlimit="10" stroke-width="2"/><path d="M23.337 32h17.326M32 23.337v17.326" class="aist4"/></symbol><symbol id="icon-ui-see" viewBox="0 0 64 64" xmlns="http://www.w3.org/2000/svg"><style>.ajst3{fill:none;stroke:#4a4a4a;stroke-width:2;stroke-miterlimit:10}</style><path d="M54.094 32S44.202 45.824 32 45.824 9.906 32 9.906 32 19.798 18.176 32 18.176 54.094 32 54.094 32z" class="ajst3"/><circle cx="32" cy="32" r="13.824" class="ajst3"/><circle cx="32" cy="32" r="3.206" fill="#4a4a4a"/></symbol><symbol class="ako-icon--svg" id="icon-ui-tile" viewBox="0 0 64 64" xmlns="http://www.w3.org/2000/svg"><style>.ako-icon__tile--path{fill:none;stroke:currentColor;stroke-width:2;stroke-miterlimit:10}</style><path d="M13 13h16.215v16.858H13zm21.785 0H51v16.858H34.785zM13 34.142h16.215V51H13zm21.785 0H51V51H34.785z" class="ako-icon__tile--path"/></symbol><symbol viewBox="0 0 64 64" id="icon-widget-text-block" xmlns="http://www.w3.org/2000/svg"><path fill="none" stroke="currentColor" stroke-linecap="round" stroke-miterlimit="10" stroke-width="2" d="M49.29 11.052H14.71v7.773h13.728v34.123h7.772V18.825h13.08z"/></symbol><symbol class="amicon--add" viewBox="0 0 512 512" id="ui--add" xmlns="http://www.w3.org/2000/svg"><path d="M368.5 240H272v-96.5c0-8.8-7.2-16-16-16s-16 7.2-16 16V240h-96.5c-8.8 0-16 7.2-16 16 0 4.4 1.8 8.4 4.7 11.3 2.9 2.9 6.9 4.7 11.3 4.7H240v96.5c0 4.4 1.8 8.4 4.7 11.3 2.9 2.9 6.9 4.7 11.3 4.7 8.8 0 16-7.2 16-16V272h96.5c8.8 0 16-7.2 16-16s-7.2-16-16-16z"/></symbol><symbol viewBox="0 0 512 512" id="ui--calendar" xmlns="http://www.w3.org/2000/svg"><path d="M424 96h-40v24c0 4.4-3.6 8-8 8h-16c-4.4 0-8-3.6-8-8V96H160v24c0 4.4-3.6 8-8 8h-16c-4.4 0-8-3.6-8-8V96H88c-22 0-40 18-40 40v272c0 22 18 40 40 40h336c22 0 40-18 40-40V136c0-22-18-40-40-40zm8 300c0 11-9 20-20 20H100c-11 0-20-9-20-20V216c0-4.4 3.6-8 8-8h336c4.4 0 8 3.6 8 8v180zM160 72c0-4.4-3.6-8-8-8h-16c-4.4 0-8 3.6-8 8v24h32V72zm224 0c0-4.4-3.6-8-8-8h-16c-4.4 0-8 3.6-8 8v24h32V72z"/></symbol><symbol viewBox="0 0 512 512" id="ui--check" xmlns="http://www.w3.org/2000/svg"><path d="M362.6 192.9L345 174.8c-.7-.8-1.8-1.2-2.8-1.2-1.1 0-2.1.4-2.8 1.2l-122 122.9-44.4-44.4c-.8-.8-1.8-1.2-2.8-1.2-1 0-2 .4-2.8 1.2l-17.8 17.8c-1.6 1.6-1.6 4.1 0 5.7l56 56c3.6 3.6 8 5.7 11.7 5.7 5.3 0 9.9-3.9 11.6-5.5h.1l133.7-134.4c1.4-1.7 1.4-4.2-.1-5.7z"/><path d="M256 76c48.1 0 93.3 18.7 127.3 52.7S436 207.9 436 256s-18.7 93.3-52.7 127.3S304.1 436 256 436c-48.1 0-93.3-18.7-127.3-52.7S76 304.1 76 256s18.7-93.3 52.7-127.3S207.9 76 256 76m0-28C141.1 48 48 141.1 48 256s93.1 208 208 208 208-93.1 208-208S370.9 48 256 48z"/></symbol><symbol class="apicon--chevron" viewBox="0 0 36 36" id="ui--chevron" xmlns="http://www.w3.org/2000/svg"><path fill-rule="evenodd" d="M14.707 26.707l-1.414-1.414L20.586 18l-7.293-7.293 1.414-1.414L23.414 18z"/></symbol><symbol class="aqicon--chevron-left" viewBox="0 0 512 512" id="ui--chevron-left" xmlns="http://www.w3.org/2000/svg"><path d="M217.9 256L345 129c9.4-9.4 9.4-24.6 0-33.9-9.4-9.4-24.6-9.3-34 0L167 239c-9.1 9.1-9.3 23.7-.7 33.1L310.9 417c4.7 4.7 10.9 7 17 7s12.3-2.3 17-7c9.4-9.4 9.4-24.6 0-33.9L217.9 256z"/></symbol><symbol class="arapp-nav__toggle-icon" viewBox="0 0 36 36" id="ui--close" xmlns="http://www.w3.org/2000/svg"><path fill-rule="evenodd" d="M27.899 9.515l-1.414-1.414L18 16.586 9.514 8.101 8.1 9.515 16.586 18 8.1 26.486 9.514 27.9 18 19.414l8.485 8.486 1.414-1.414L19.414 18z"/></symbol><symbol viewBox="0 0 36 36" id="ui--dots" xmlns="http://www.w3.org/2000/svg"><path d="M8 16c-1.103 0-2 .897-2 2s.897 2 2 2 2-.897 2-2-.897-2-2-2m0 6c-2.206 0-4-1.794-4-4s1.794-4 4-4 4 1.794 4 4-1.794 4-4 4m10-6c-1.103 0-2 .897-2 2s.897 2 2 2 2-.897 2-2-.897-2-2-2m0 6c-2.206 0-4-1.794-4-4s1.794-4 4-4 4 1.794 4 4-1.794 4-4 4m10-6c-1.103 0-2 .897-2 2s.897 2 2 2 2-.897 2-2-.897-2-2-2m0 6c-2.206 0-4-1.794-4-4s1.794-4 4-4 4 1.794 4 4-1.794 4-4 4M8 26c-1.103 0-2 .897-2 2s.897 2 2 2 2-.897 2-2-.897-2-2-2m0 6c-2.206 0-4-1.794-4-4s1.794-4 4-4 4 1.794 4 4-1.794 4-4 4m10-6c-1.103 0-2 .897-2 2s.897 2 2 2 2-.897 2-2-.897-2-2-2m0 6c-2.206 0-4-1.794-4-4s1.794-4 4-4 4 1.794 4 4-1.794 4-4 4m10-6c-1.103 0-2 .897-2 2s.897 2 2 2 2-.897 2-2-.897-2-2-2m0 6c-2.206 0-4-1.794-4-4s1.794-4 4-4 4 1.794 4 4-1.794 4-4 4M8 6c-1.103 0-2 .897-2 2s.897 2 2 2 2-.897 2-2-.897-2-2-2m0 6c-2.206 0-4-1.794-4-4s1.794-4 4-4 4 1.794 4 4-1.794 4-4 4m10-6c-1.103 0-2 .897-2 2s.897 2 2 2 2-.897 2-2-.897-2-2-2m0 6c-2.206 0-4-1.794-4-4s1.794-4 4-4 4 1.794 4 4-1.794 4-4 4m10-6c-1.103 0-2 .897-2 2s.897 2 2 2 2-.897 2-2-.897-2-2-2m0 6c-2.206 0-4-1.794-4-4s1.794-4 4-4 4 1.794 4 4-1.794 4-4 4" fill-rule="evenodd"/></symbol><symbol class="aticon--minus" id="ui--minus" viewBox="0 0 64 64" xmlns="http://www.w3.org/2000/svg"><style/><path fill="none" stroke="currentColor" stroke-miterlimit="10" stroke-width="2" d="M14.157 32h35.686"/></symbol><symbol viewBox="0 0 36 36" id="ui--pen" xmlns="http://www.w3.org/2000/svg"><path fill-rule="evenodd" d="M11.934 27H9v-2.723l10.931-10.879 2.855 2.776L11.934 27zm14.45-20.001l2.828 2.828-4.985 4.986-2.829-2.829 4.986-4.985zm2.551 5.933l1.691-1.691c.78-.78.78-2.048 0-2.828l-2.829-2.829c-.755-.755-2.125-.756-2.88 0L7 23.449v4.031l-1.76 1.813 1.441 1.361L8.31 29h4.453l14.76-14.706 1.48 1.507-4.588 4.6 1.414 1.421 4.587-4.584c.377-.377.585-.877.585-1.412 0-.536-.208-1.037-.585-1.414l-1.48-1.48z"/></symbol><symbol class="avicon--people" viewBox="0 0 512 512" id="ui--people" xmlns="http://www.w3.org/2000/svg"><path d="M349.1 334.7c-11.2-4-29.5-4.2-37.6-7.3-5.6-2.2-14.5-4.6-17.4-8.1-2.9-3.5-2.9-28.5-2.9-28.5s7-6.6 9.9-14c2.9-7.3 4.8-27.5 4.8-27.5s6.6 2.8 9.2-10.4c2.2-11.4 6.4-17.4 5.3-25.8-1.2-8.4-5.8-6.4-5.8-6.4s5.8-8.5 5.8-37.4c0-29.8-22.5-59.1-64.6-59.1-42 0-64.7 29.4-64.7 59.1 0 28.9 5.7 37.4 5.7 37.4s-4.7-2-5.8 6.4c-1.2 8.4 3 14.4 5.3 25.8 2.6 13.3 9.2 10.4 9.2 10.4s1.9 20.1 4.8 27.5c2.9 7.4 9.9 14 9.9 14s0 25-2.9 28.5-11.8 5.9-17.4 8c-8 3.1-26.3 3.5-37.6 7.5-11.2 4-45.8 22.2-45.8 67.2h278.3c.1-45.1-34.5-63.3-45.7-67.3z"/><path d="M140 286s23.9-.8 33.4-9.3c-15.5-23.5-7.1-50.9-10.3-76.5-3.2-25.5-17.7-40.8-46.7-40.8h-.4c-28 0-43.1 15.2-46.3 40.8-3.2 25.5 5.7 56-10.2 76.5C69 285.3 93 285 93 285s1 14.4-1 16.8c-2 2.4-7.9 4.7-12 5.5-8.8 1.9-18.1 4.5-25.9 7.2-7.8 2.7-22.6 17.2-22.6 37.2h80.3c2.2-8 17.3-22.3 32-29.8 9-4.6 17.9-4.3 24.7-5.2 0 0 3.8-6-8.7-8.3 0 0-17.2-4.3-19.2-6.7-1.9-2.2-.6-15.7-.6-15.7zm232 0s-23.9-.8-33.4-9.3c15.5-23.5 7.1-50.9 10.3-76.5 3.2-25.5 17.7-40.8 46.7-40.8h.4c28 0 43.1 15.2 46.3 40.8 3.2 25.5-5.7 56 10.2 76.5-9.5 8.6-33.5 8.3-33.5 8.3s-1 14.4 1 16.8c2 2.4 7.9 4.7 12 5.5 8.8 1.9 18.1 4.5 25.9 7.2 7.8 2.7 22.6 17.2 22.6 37.2h-80.3c-2.2-8-17.3-22.3-32-29.8-9-4.6-17.9-4.3-24.7-5.2 0 0-3.8-6 8.7-8.3 0 0 17.2-4.3 19.2-6.7 1.9-2.2.6-15.7.6-15.7z"/></symbol><symbol class="awicon--plus" id="ui--plus" viewBox="0 0 64 64" xmlns="http://www.w3.org/2000/svg"><style>.awicon-plus__path{fill:currentColor;stroke:currentColor;stroke-width:2;stroke-miterlimit:10}</style><path d="M14.157 32h35.686M32 14.157v35.686" class="awicon-plus__path"/></symbol><symbol class="axicon--remove" viewBox="0 0 512 512" id="ui--remove" xmlns="http://www.w3.org/2000/svg"><path d="M368.5 240h-225c-8.8 0-16 7.2-16 16 0 4.4 1.8 8.4 4.7 11.3 2.9 2.9 6.9 4.7 11.3 4.7h225c8.8 0 16-7.2 16-16s-7.2-16-16-16z"/></symbol><symbol viewBox="0 0 512 512" id="ui--timer" xmlns="http://www.w3.org/2000/svg"><path d="M256 456c-110.3 0-200-89.7-200-200 0-54.8 21.7-105.9 61.2-144 6.4-6.2 16.6-6 22.7.4 6.2 6.4 6 16.6-.4 22.7-33.1 32-51.3 74.9-51.3 120.9 0 92.5 75.3 167.8 167.8 167.8S423.8 348.5 423.8 256c0-87.1-66.7-159-151.8-167.1v62.6c0 8.9-7.2 16.1-16.1 16.1s-16.1-7.2-16.1-16.1V72.1c0-8.9 7.2-16.1 16.1-16.1 110.3 0 200 89.7 200 200S366.3 456 256 456z"/><path d="M175.9 161.9l99.5 71.5c13.5 9.7 16.7 28.5 7 42s-28.5 16.7-42 7c-2.8-2-5.2-4.4-7-7l-71.5-99.5c-3.2-4.5-2.2-10.8 2.3-14 3.6-2.6 8.3-2.4 11.7 0z"/></symbol><symbol viewBox="0 0 36 36" id="ui--warning" xmlns="http://www.w3.org/2000/svg"><g fill-rule="evenodd"><path d="M6.714 29h22.572L18 9.032 6.714 29zm26 2H3.286L18 4.968 32.714 31z"/><path d="M19.5 26a1.5 1.5 0 1 1-3.001-.001A1.5 1.5 0 0 1 19.5 26zM17 23h2v-9h-2z"/></g></symbol><symbol viewBox="0 0 64 64" id="widget--text-block" xmlns="http://www.w3.org/2000/svg"><path fill="none" stroke="currentColor" stroke-linecap="round" stroke-miterlimit="10" stroke-width="2" d="M49.29 11.052H14.71v7.773h13.728v34.123h7.772V18.825h13.08z"/></symbol></svg>