<?xml version="1.0" encoding="utf-8"?><svg xmlns="http://www.w3.org/2000/svg" xmlns:xlink="http://www.w3.org/1999/xlink"><symbol viewBox="0 0 18 14" id="icon-check" xmlns="http://www.w3.org/2000/svg"><path fill="none" stroke="#FFF" stroke-width="2" d="M1 7.644l4.7 4.73L17 1"/></symbol><symbol viewBox="0 0 36 36" id="icon-dots" xmlns="http://www.w3.org/2000/svg"><path d="M8 16c-1.103 0-2 .897-2 2s.897 2 2 2 2-.897 2-2-.897-2-2-2m0 6c-2.206 0-4-1.794-4-4s1.794-4 4-4 4 1.794 4 4-1.794 4-4 4m10-6c-1.103 0-2 .897-2 2s.897 2 2 2 2-.897 2-2-.897-2-2-2m0 6c-2.206 0-4-1.794-4-4s1.794-4 4-4 4 1.794 4 4-1.794 4-4 4m10-6c-1.103 0-2 .897-2 2s.897 2 2 2 2-.897 2-2-.897-2-2-2m0 6c-2.206 0-4-1.794-4-4s1.794-4 4-4 4 1.794 4 4-1.794 4-4 4M8 26c-1.103 0-2 .897-2 2s.897 2 2 2 2-.897 2-2-.897-2-2-2m0 6c-2.206 0-4-1.794-4-4s1.794-4 4-4 4 1.794 4 4-1.794 4-4 4m10-6c-1.103 0-2 .897-2 2s.897 2 2 2 2-.897 2-2-.897-2-2-2m0 6c-2.206 0-4-1.794-4-4s1.794-4 4-4 4 1.794 4 4-1.794 4-4 4m10-6c-1.103 0-2 .897-2 2s.897 2 2 2 2-.897 2-2-.897-2-2-2m0 6c-2.206 0-4-1.794-4-4s1.794-4 4-4 4 1.794 4 4-1.794 4-4 4M8 6c-1.103 0-2 .897-2 2s.897 2 2 2 2-.897 2-2-.897-2-2-2m0 6c-2.206 0-4-1.794-4-4s1.794-4 4-4 4 1.794 4 4-1.794 4-4 4m10-6c-1.103 0-2 .897-2 2s.897 2 2 2 2-.897 2-2-.897-2-2-2m0 6c-2.206 0-4-1.794-4-4s1.794-4 4-4 4 1.794 4 4-1.794 4-4 4m10-6c-1.103 0-2 .897-2 2s.897 2 2 2 2-.897 2-2-.897-2-2-2m0 6c-2.206 0-4-1.794-4-4s1.794-4 4-4 4 1.794 4 4-1.794 4-4 4" fill-rule="evenodd"/></symbol><symbol viewBox="0 0 36 36" id="icon-menu" xmlns="http://www.w3.org/2000/svg"><path d="M6 7a1 1 0 0 0 0 2h24a1 1 0 0 0 0-2H6zm24 4H6c-1.654 0-3-1.346-3-3s1.346-3 3-3h24c1.654 0 3 1.346 3 3s-1.346 3-3 3zM6 17a1 1 0 0 0 0 2h24a1 1 0 0 0 0-2H6zm24 4H6c-1.654 0-3-1.346-3-3s1.346-3 3-3h24c1.654 0 3 1.346 3 3s-1.346 3-3 3zM6 27a1 1 0 0 0 0 2h24a1 1 0 0 0 0-2H6zm24 4H6c-1.654 0-3-1.346-3-3s1.346-3 3-3h24c1.654 0 3 1.346 3 3s-1.346 3-3 3z" fill-rule="evenodd"/></symbol><symbol viewBox="0 0 36 36" id="icon-plone" xmlns="http://www.w3.org/2000/svg"><g fill-rule="evenodd"><path d="M18.5 30C12.159 30 7 24.841 7 18.5S12.159 7 18.5 7 30 12.159 30 18.5 24.841 30 18.5 30m0-26C10.505 4 4 10.505 4 18.5S10.505 33 18.5 33 33 26.495 33 18.5 26.495 4 18.5 4"/><path d="M16.5 15.5a3 3 0 1 0 0-6 3 3 0 0 0 0 6m0 6a3 3 0 1 0 0 6 3 3 0 0 0 0-6m6-6a3 3 0 1 0 0 6 3 3 0 0 0 0-6"/></g></symbol><symbol id="icon-ui-link" xml:space="preserve" viewBox="0 0 64 64" xmlns="http://www.w3.org/2000/svg"><style>.est3{fill:none;stroke:#4a4a4a;stroke-width:2;stroke-miterlimit:10}</style><path class="est3" d="M32.077 32.077a9.339 9.339 0 0 1 0-13.207l3.551-3.551a9.339 9.339 0 0 1 13.207 13.207l-3.551 3.551a9.339 9.339 0 0 1-13.207 0z"/><path class="est3" d="M15.166 48.68a9.339 9.339 0 0 1 0-13.207l3.551-3.551a9.339 9.339 0 0 1 13.207 13.207l-3.551 3.551a9.339 9.339 0 0 1-13.207 0zM23.252 40.905L40.15 24.007"/></symbol><symbol viewBox="0 0 36 36" id="icon-warning" xmlns="http://www.w3.org/2000/svg"><g fill-rule="evenodd"><path d="M6.714 29h22.572L18 9.032 6.714 29zm26 2H3.286L18 4.968 32.714 31z"/><path d="M19.5 26a1.5 1.5 0 1 1-3.001-.001A1.5 1.5 0 0 1 19.5 26zM17 23h2v-9h-2z"/></g></symbol></svg>