<?xml version="1.0" encoding="utf-8"?><svg xmlns="http://www.w3.org/2000/svg" xmlns:xlink="http://www.w3.org/1999/xlink"><symbol viewBox="0 0 18 14" id="icon-check" xmlns="http://www.w3.org/2000/svg"><path fill="none" stroke="#FFF" stroke-width="2" d="M1 7.644l4.7 4.73L17 1"/></symbol><symbol viewBox="0 0 36 36" id="icon-dots" xmlns="http://www.w3.org/2000/svg"><path d="M8 16c-1.103 0-2 .897-2 2s.897 2 2 2 2-.897 2-2-.897-2-2-2m0 6c-2.206 0-4-1.794-4-4s1.794-4 4-4 4 1.794 4 4-1.794 4-4 4m10-6c-1.103 0-2 .897-2 2s.897 2 2 2 2-.897 2-2-.897-2-2-2m0 6c-2.206 0-4-1.794-4-4s1.794-4 4-4 4 1.794 4 4-1.794 4-4 4m10-6c-1.103 0-2 .897-2 2s.897 2 2 2 2-.897 2-2-.897-2-2-2m0 6c-2.206 0-4-1.794-4-4s1.794-4 4-4 4 1.794 4 4-1.794 4-4 4M8 26c-1.103 0-2 .897-2 2s.897 2 2 2 2-.897 2-2-.897-2-2-2m0 6c-2.206 0-4-1.794-4-4s1.794-4 4-4 4 1.794 4 4-1.794 4-4 4m10-6c-1.103 0-2 .897-2 2s.897 2 2 2 2-.897 2-2-.897-2-2-2m0 6c-2.206 0-4-1.794-4-4s1.794-4 4-4 4 1.794 4 4-1.794 4-4 4m10-6c-1.103 0-2 .897-2 2s.897 2 2 2 2-.897 2-2-.897-2-2-2m0 6c-2.206 0-4-1.794-4-4s1.794-4 4-4 4 1.794 4 4-1.794 4-4 4M8 6c-1.103 0-2 .897-2 2s.897 2 2 2 2-.897 2-2-.897-2-2-2m0 6c-2.206 0-4-1.794-4-4s1.794-4 4-4 4 1.794 4 4-1.794 4-4 4m10-6c-1.103 0-2 .897-2 2s.897 2 2 2 2-.897 2-2-.897-2-2-2m0 6c-2.206 0-4-1.794-4-4s1.794-4 4-4 4 1.794 4 4-1.794 4-4 4m10-6c-1.103 0-2 .897-2 2s.897 2 2 2 2-.897 2-2-.897-2-2-2m0 6c-2.206 0-4-1.794-4-4s1.794-4 4-4 4 1.794 4 4-1.794 4-4 4" fill-rule="evenodd"/></symbol><symbol viewBox="0 0 36 36" id="icon-menu" xmlns="http://www.w3.org/2000/svg"><path d="M6 7a1 1 0 0 0 0 2h24a1 1 0 0 0 0-2H6zm24 4H6c-1.654 0-3-1.346-3-3s1.346-3 3-3h24c1.654 0 3 1.346 3 3s-1.346 3-3 3zM6 17a1 1 0 0 0 0 2h24a1 1 0 0 0 0-2H6zm24 4H6c-1.654 0-3-1.346-3-3s1.346-3 3-3h24c1.654 0 3 1.346 3 3s-1.346 3-3 3zM6 27a1 1 0 0 0 0 2h24a1 1 0 0 0 0-2H6zm24 4H6c-1.654 0-3-1.346-3-3s1.346-3 3-3h24c1.654 0 3 1.346 3 3s-1.346 3-3 3z" fill-rule="evenodd"/></symbol><symbol viewBox="0 0 36 36" id="icon-plone" xmlns="http://www.w3.org/2000/svg"><g fill-rule="evenodd"><path d="M18.5 30C12.159 30 7 24.841 7 18.5S12.159 7 18.5 7 30 12.159 30 18.5 24.841 30 18.5 30m0-26C10.505 4 4 10.505 4 18.5S10.505 33 18.5 33 33 26.495 33 18.5 26.495 4 18.5 4"/><path d="M16.5 15.5a3 3 0 1 0 0-6 3 3 0 0 0 0 6m0 6a3 3 0 1 0 0 6 3 3 0 0 0 0-6m6-6a3 3 0 1 0 0 6 3 3 0 0 0 0-6"/></g></symbol><symbol id="icon-ui-hide" viewBox="0 0 64 64" xmlns="http://www.w3.org/2000/svg"><style>.est3{fill:none;stroke:#4a4a4a;stroke-width:2;stroke-miterlimit:10}</style><path d="M54.094 32S44.202 45.824 32 45.824 9.906 32 9.906 32 19.798 18.176 32 18.176 54.094 32 54.094 32z" class="est3"/><circle cx="32" cy="32" r="13.824" class="est3"/><circle cx="32" cy="32" r="3.206" fill="#4a4a4a"/><path d="M11.02 47.437l41.96-30.874" class="est3"/></symbol><symbol id="icon-ui-link" viewBox="0 0 64 64" xmlns="http://www.w3.org/2000/svg"><style>.fst3{fill:none;stroke:#4a4a4a;stroke-width:2;stroke-miterlimit:10}</style><path d="M32.077 32.077a9.339 9.339 0 0 1 0-13.207l3.551-3.551a9.339 9.339 0 0 1 13.207 13.207l-3.551 3.551a9.339 9.339 0 0 1-13.207 0z" class="fst3"/><path d="M15.166 48.68a9.339 9.339 0 0 1 0-13.207l3.551-3.551a9.339 9.339 0 0 1 13.207 13.207l-3.551 3.551a9.339 9.339 0 0 1-13.207 0zm8.086-7.775L40.15 24.007" class="fst3"/></symbol><symbol id="icon-ui-pen" viewBox="0 0 64 64" xmlns="http://www.w3.org/2000/svg"><style>.gst7{fill-rule:evenodd;clip-rule:evenodd;fill:none;stroke:currentColor;stroke-width:2;stroke-miterlimit:10}</style><path d="M27.925 46.229L17.771 36.075m27.047-6.739L34.664 19.182l4.979-4.979a4.22 4.22 0 0 1 5.966 0l4.188 4.188a4.22 4.22 0 0 1 0 5.966l-4.979 4.979z" class="gst7"/><path d="M27.925 46.229l-14.957 4.803 4.803-14.957 16.893-16.893 10.154 10.154-16.893 16.893zm-12.316-3.423l5.585 5.585" class="gst7"/></symbol><symbol id="icon-ui-plus" viewBox="0 0 64 64" xmlns="http://www.w3.org/2000/svg"><style>.hst3{fill:none;stroke:#4a4a4a;stroke-width:2;stroke-miterlimit:10}</style><path d="M14.157 32h35.686M32 14.157v35.686" class="hst3"/></symbol><symbol id="icon-ui-plus-sign" viewBox="0 0 64 64" xmlns="http://www.w3.org/2000/svg"><style>.ist4{fill-rule:evenodd;clip-rule:evenodd;fill:none;stroke:#4a4a4a;stroke-width:2;stroke-miterlimit:10}</style><circle cx="32" cy="32" r="19.677" fill="none" stroke="#4a4a4a" stroke-miterlimit="10" stroke-width="2"/><path d="M23.337 32h17.326M32 23.337v17.326" class="ist4"/></symbol><symbol id="icon-ui-see" viewBox="0 0 64 64" xmlns="http://www.w3.org/2000/svg"><style>.jst3{fill:none;stroke:#4a4a4a;stroke-width:2;stroke-miterlimit:10}</style><path d="M54.094 32S44.202 45.824 32 45.824 9.906 32 9.906 32 19.798 18.176 32 18.176 54.094 32 54.094 32z" class="jst3"/><circle cx="32" cy="32" r="13.824" class="jst3"/><circle cx="32" cy="32" r="3.206" fill="#4a4a4a"/></symbol><symbol class="ko-icon--svg" id="icon-ui-tile" viewBox="0 0 64 64" xmlns="http://www.w3.org/2000/svg"><style>.ko-icon__tile--path{fill:none;stroke:currentColor;stroke-width:2;stroke-miterlimit:10}</style><path d="M13 13h16.215v16.858H13zm21.785 0H51v16.858H34.785zM13 34.142h16.215V51H13zm21.785 0H51V51H34.785z" class="ko-icon__tile--path"/></symbol><symbol viewBox="0 0 64 64" id="icon-widget-text-block" xmlns="http://www.w3.org/2000/svg"><path fill="none" stroke="currentColor" stroke-linecap="round" stroke-miterlimit="10" stroke-width="2" d="M49.29 11.052H14.71v7.773h13.728v34.123h7.772V18.825h13.08z"/></symbol><symbol class="micon--chevron" viewBox="0 0 36 36" id="ui--chevron" xmlns="http://www.w3.org/2000/svg"><path fill-rule="evenodd" d="M14.707 26.707l-1.414-1.414L20.586 18l-7.293-7.293 1.414-1.414L23.414 18z"/></symbol><symbol class="nicon--chevron-left" viewBox="0 0 512 512" id="ui--chevron-left" xmlns="http://www.w3.org/2000/svg"><path d="M217.9 256L345 129c9.4-9.4 9.4-24.6 0-33.9-9.4-9.4-24.6-9.3-34 0L167 239c-9.1 9.1-9.3 23.7-.7 33.1L310.9 417c4.7 4.7 10.9 7 17 7s12.3-2.3 17-7c9.4-9.4 9.4-24.6 0-33.9L217.9 256z"/></symbol><symbol class="oapp-nav__toggle-icon" viewBox="0 0 36 36" id="ui--close" xmlns="http://www.w3.org/2000/svg"><path fill-rule="evenodd" d="M27.9.515l-1.415 7.586L18 16.586 9.514 8.101 8.1 9.515 16.586 18 8.1 26.486 9.514 27.9 18 19.414l8.485 8.486 1.414-1.414L19.414 18z"/></symbol><symbol viewBox="0 0 36 36" id="ui--dots" xmlns="http://www.w3.org/2000/svg"><path d="M8 16c-1.103 0-2 .897-2 2s.897 2 2 2 2-.897 2-2-.897-2-2-2m0 6c-2.206 0-4-1.794-4-4s1.794-4 4-4 4 1.794 4 4-1.794 4-4 4m10-6c-1.103 0-2 .897-2 2s.897 2 2 2 2-.897 2-2-.897-2-2-2m0 6c-2.206 0-4-1.794-4-4s1.794-4 4-4 4 1.794 4 4-1.794 4-4 4m10-6c-1.103 0-2 .897-2 2s.897 2 2 2 2-.897 2-2-.897-2-2-2m0 6c-2.206 0-4-1.794-4-4s1.794-4 4-4 4 1.794 4 4-1.794 4-4 4M8 26c-1.103 0-2 .897-2 2s.897 2 2 2 2-.897 2-2-.897-2-2-2m0 6c-2.206 0-4-1.794-4-4s1.794-4 4-4 4 1.794 4 4-1.794 4-4 4m10-6c-1.103 0-2 .897-2 2s.897 2 2 2 2-.897 2-2-.897-2-2-2m0 6c-2.206 0-4-1.794-4-4s1.794-4 4-4 4 1.794 4 4-1.794 4-4 4m10-6c-1.103 0-2 .897-2 2s.897 2 2 2 2-.897 2-2-.897-2-2-2m0 6c-2.206 0-4-1.794-4-4s1.794-4 4-4 4 1.794 4 4-1.794 4-4 4M8 6c-1.103 0-2 .897-2 2s.897 2 2 2 2-.897 2-2-.897-2-2-2m0 6c-2.206 0-4-1.794-4-4s1.794-4 4-4 4 1.794 4 4-1.794 4-4 4m10-6c-1.103 0-2 .897-2 2s.897 2 2 2 2-.897 2-2-.897-2-2-2m0 6c-2.206 0-4-1.794-4-4s1.794-4 4-4 4 1.794 4 4-1.794 4-4 4m10-6c-1.103 0-2 .897-2 2s.897 2 2 2 2-.897 2-2-.897-2-2-2m0 6c-2.206 0-4-1.794-4-4s1.794-4 4-4 4 1.794 4 4-1.794 4-4 4" fill-rule="evenodd"/></symbol><symbol viewBox="0 0 36 36" id="ui--warning" xmlns="http://www.w3.org/2000/svg"><g fill-rule="evenodd"><path d="M6.714 29h22.572L18 9.032 6.714 29zm26 2H3.286L18 4.968 32.714 31z"/><path d="M19.5 26a1.5 1.5 0 1 1-3.001-.001A1.5 1.5 0 0 1 19.5 26zM17 23h2v-9h-2z"/></g></symbol><symbol viewBox="0 0 64 64" id="widget--text-block" xmlns="http://www.w3.org/2000/svg"><path fill="none" stroke="currentColor" stroke-linecap="round" stroke-miterlimit="10" stroke-width="2" d="M49.29 11.052H14.71v7.773h13.728v34.123h7.772V18.825h13.08z"/></symbol></svg>