<?xml version="1.0" encoding="utf-8"?>
<!-- Generator: Adobe Illustrator 15.0.0, SVG Export Plug-In . SVG Version: 6.00 Build 0)  -->
<svg version="1.2" baseProfile="tiny" id="pro_philosophia_x5F_Logo_x5F_cmyk_x5F_Typo_kein_Pfad"
	 xmlns="http://www.w3.org/2000/svg" xmlns:xlink="http://www.w3.org/1999/xlink" x="0px" y="0px" width="566.93px"
	 height="283.46px" viewBox="0 0 566.93 283.46" overflow="inherit" xml:space="preserve">
<g>
	<path fill="#1D2362" d="M246.805,118.204c-1.084,0-2.314-0.586-3.955-2.051v7.236l-2.051,0.293v-20.566h1.67l0.234,2.021
		c1.992-1.699,3.135-2.197,4.395-2.197c2.725,0,4.395,3.018,4.395,7.559C251.492,115.479,249.441,118.204,246.805,118.204z
		 M246.541,104.815c-0.938,0-2.168,0.645-3.691,2.08v7.383c1.494,1.406,2.695,2.08,3.516,2.08c1.787,0,3.076-2.314,3.076-5.771
		C249.441,107.159,248.357,104.815,246.541,104.815z"/>
	<path fill="#1D2362" d="M260.37,104.991c-1.318,0-2.021,0.557-3.516,2.08v10.986h-2.051v-14.941h1.699l0.234,2.168
		c2.021-2.168,2.666-2.344,3.779-2.344h0.645v2.051H260.37z"/>
	<path fill="#1D2362" d="M268.164,118.204h-0.088c-4.189,0-5.889-2.578-5.889-7.559c0-4.6,1.846-7.705,5.977-7.705h0.088
		c3.926,0,5.742,2.432,5.742,7.588C273.994,114.894,272.354,118.204,268.164,118.204z M268.105,104.757
		c-2.783,0-3.867,2.373-3.867,5.859c0,3.311,0.967,5.801,3.867,5.801c2.812,0,3.809-2.49,3.809-5.83
		S270.947,104.757,268.105,104.757z"/>
	<path fill="#1D2362" d="M287.467,118.204c-1.084,0-2.314-0.586-3.955-2.051v7.236l-2.051,0.293v-20.566h1.67l0.234,2.021
		c1.992-1.699,3.135-2.197,4.395-2.197c2.725,0,4.395,3.018,4.395,7.559C292.154,115.479,290.104,118.204,287.467,118.204z
		 M287.203,104.815c-0.938,0-2.168,0.645-3.691,2.08v7.383c1.494,1.406,2.695,2.08,3.516,2.08c1.787,0,3.076-2.314,3.076-5.771
		C290.104,107.159,289.02,104.815,287.203,104.815z"/>
	<path fill="#1D2362" d="M303.728,118.058V108.8c0-2.08-0.732-3.984-2.432-3.984c-0.996,0-2.256,0.615-3.779,2.051v11.191h-2.051
		V96.964l2.051-0.293v8.35c1.816-1.523,2.988-2.08,4.424-2.08c2.314,0,3.838,2.051,3.838,5.273v9.844H303.728z"/>
	<path fill="#1D2362" d="M309.793,99.63v-2.695h2.051v2.695H309.793z M309.793,118.058v-14.941h2.051v14.941H309.793z"/>
	<path fill="#1D2362" d="M315.888,118.058V96.964l2.051-0.293v21.387H315.888z"/>
	<path fill="#1D2362" d="M327.226,118.204h-0.088c-4.189,0-5.889-2.578-5.889-7.559c0-4.6,1.846-7.705,5.977-7.705h0.088
		c3.926,0,5.742,2.432,5.742,7.588C333.056,114.894,331.415,118.204,327.226,118.204z M327.167,104.757
		c-2.783,0-3.867,2.373-3.867,5.859c0,3.311,0.967,5.801,3.867,5.801c2.812,0,3.809-2.49,3.809-5.83
		S330.009,104.757,327.167,104.757z"/>
	<path fill="#1D2362" d="M338.975,118.204c-1.494,0-2.637-0.381-3.75-1.025l0.703-1.582c1.084,0.586,2.021,0.85,2.988,0.85
		c1.787,0,2.461-0.938,2.461-2.021c0-1.201-0.41-1.875-2.754-3.252c-2.578-1.465-3.34-2.695-3.34-4.453
		c0-2.227,1.758-3.779,4.189-3.779c1.318,0,2.52,0.381,3.516,0.938l-0.645,1.553c-0.791-0.381-1.816-0.762-2.812-0.762
		c-1.465,0-2.197,0.791-2.197,1.875c0,1.201,0.41,1.758,2.812,3.135c2.578,1.523,3.311,2.812,3.311,4.541
		C343.457,116.739,341.758,118.204,338.975,118.204z"/>
	<path fill="#1D2362" d="M351.665,118.204h-0.088c-4.189,0-5.889-2.578-5.889-7.559c0-4.6,1.846-7.705,5.977-7.705h0.088
		c3.926,0,5.742,2.432,5.742,7.588C357.495,114.894,355.854,118.204,351.665,118.204z M351.606,104.757
		c-2.783,0-3.867,2.373-3.867,5.859c0,3.311,0.967,5.801,3.867,5.801c2.812,0,3.809-2.49,3.809-5.83
		S354.448,104.757,351.606,104.757z"/>
	<path fill="#1D2362" d="M366.783,118.204c-1.084,0-2.314-0.586-3.955-2.051v7.236l-2.051,0.293v-20.566h1.67l0.234,2.021
		c1.992-1.699,3.135-2.197,4.395-2.197c2.725,0,4.395,3.018,4.395,7.559C371.471,115.479,369.42,118.204,366.783,118.204z
		 M366.52,104.815c-0.938,0-2.168,0.645-3.691,2.08v7.383c1.494,1.406,2.695,2.08,3.516,2.08c1.787,0,3.076-2.314,3.076-5.771
		C369.42,107.159,368.336,104.815,366.52,104.815z"/>
	<path fill="#1D2362" d="M383.045,118.058V108.8c0-2.08-0.732-3.984-2.432-3.984c-0.996,0-2.256,0.615-3.779,2.051v11.191h-2.051
		V96.964l2.051-0.293v8.35c1.816-1.523,2.988-2.08,4.424-2.08c2.314,0,3.838,2.051,3.838,5.273v9.844H383.045z"/>
	<path fill="#1D2362" d="M389.11,99.63v-2.695h2.051v2.695H389.11z M389.11,118.058v-14.941h2.051v14.941H389.11z"/>
	<path fill="#1D2362" d="M403.524,118.058l-0.264-2.021c-1.992,1.699-3.105,2.168-4.395,2.168c-2.725,0-4.395-2.988-4.395-7.529
		c0-4.98,2.051-7.734,4.717-7.734c1.084,0,2.227,0.557,4.072,2.197l0.264-2.021h1.641v14.941H403.524z M403.114,106.896
		c-1.523-1.436-2.666-2.08-3.516-2.08c-1.758,0-3.047,2.314-3.047,5.771c0,3.428,1.055,5.771,2.9,5.771
		c0.908,0,2.139-0.645,3.662-2.08V106.896z"/>
	<path fill="#1D2362" d="M417.993,118.204c-3.633,0-5.332-2.051-5.332-7.529s2.227-7.734,5.625-7.734
		c3.105,0,5.068,2.549,5.068,6.387c0,0.527-0.029,1.318-0.088,1.787h-8.584c0,3.691,1.143,5.303,3.721,5.303
		c0.967,0,2.783-0.264,4.189-0.674l0.41,1.436C421.216,117.882,419.634,118.204,417.993,118.204z M421.333,109.181
		c0-2.373-0.791-4.6-3.252-4.6c-2.52,0-3.398,2.607-3.398,4.834v0.029h6.65V109.181z"/>
	<path fill="#1D2362" d="M426.203,118.058v-3.105h2.344v3.105H426.203z"/>
	<path fill="#1D2362" d="M437.512,118.058h-2.812l-5.596-19.746h2.314l4.307,15.557l0.469,2.08l0.469-2.109l4.248-15.527h2.256
		L437.512,118.058z"/>
	<path fill="#1D2362" d="M441.409,118.058v-3.105h2.344v3.105H441.409z"/>
</g>
<g>
	<path fill="#1D2362" d="M242.4,153.427v4.701h4.021v1.24H242.4v6.302h-1.48v-13.483h5.821v1.24H242.4z"/>
	<path fill="#1D2362" d="M252.801,156.748c-0.9,0-1.381,0.38-2.4,1.421v7.501H249v-10.202h1.16l0.16,1.48
		c1.38-1.48,1.82-1.601,2.58-1.601h0.44v1.4H252.801z"/>
	<path fill="#1D2362" d="M257.938,165.771c-2.48,0-3.641-1.4-3.641-5.142s1.521-5.281,3.841-5.281c2.12,0,3.461,1.74,3.461,4.36
		c0,0.361-0.021,0.9-0.061,1.221h-5.861c0,2.521,0.78,3.621,2.541,3.621c0.66,0,1.9-0.18,2.86-0.461l0.28,0.98
		C260.139,165.55,259.059,165.771,257.938,165.771z M260.219,159.608c0-1.62-0.54-3.141-2.221-3.141c-1.72,0-2.32,1.781-2.32,3.301
		v0.02h4.541V159.608z"/>
	<path fill="#1D2362" d="M265.458,155.468v6.321c0,1.421,0.48,2.721,1.641,2.721c0.7,0,1.561-0.44,2.601-1.4v-7.642h1.4v10.202
		h-1.141l-0.18-1.38c-1.36,1.16-2.12,1.48-3.101,1.48c-1.58,0-2.621-1.381-2.621-3.582v-6.721H265.458z"/>
	<path fill="#1D2362" d="M279.698,165.67v-6.321c0-1.42-0.5-2.721-1.66-2.721c-0.68,0-1.54,0.42-2.58,1.4v7.642h-1.4v-10.202h1.14
		l0.16,1.381c1.36-1.16,2.141-1.501,3.121-1.501c1.58,0,2.62,1.4,2.62,3.601v6.722H279.698z"/>
	<path fill="#1D2362" d="M289.719,165.67l-0.18-1.38c-1.36,1.16-2.12,1.48-3.001,1.48c-1.86,0-3-2.041-3-5.142
		c0-3.401,1.4-5.281,3.221-5.281c0.72,0,1.54,0.4,2.681,1.421v-5.502l1.4-0.199v14.603H289.719z M289.439,158.048
		c-1.041-0.98-1.82-1.42-2.401-1.42c-1.2,0-2.08,1.58-2.08,3.941c0,2.34,0.721,3.94,1.98,3.94c0.62,0,1.46-0.44,2.501-1.421V158.048
		z"/>
	<path fill="#1D2362" d="M296.958,165.771c-2.48,0-3.641-1.4-3.641-5.142s1.521-5.281,3.841-5.281c2.12,0,3.461,1.74,3.461,4.36
		c0,0.361-0.021,0.9-0.061,1.221h-5.861c0,2.521,0.78,3.621,2.541,3.621c0.66,0,1.9-0.18,2.86-0.461l0.28,0.98
		C299.158,165.55,298.078,165.771,296.958,165.771z M299.238,159.608c0-1.62-0.54-3.141-2.221-3.141c-1.72,0-2.32,1.781-2.32,3.301
		v0.02h4.541V159.608z"/>
	<path fill="#1D2362" d="M307.901,155.468v6.321c0,1.421,0.48,2.721,1.641,2.721c0.7,0,1.561-0.44,2.601-1.4v-7.642h1.4v10.202
		h-1.141l-0.18-1.38c-1.36,1.16-2.12,1.48-3.101,1.48c-1.58,0-2.621-1.381-2.621-3.582v-6.721H307.901z"/>
	<path fill="#1D2362" d="M322.142,165.67v-6.321c0-1.42-0.5-2.721-1.66-2.721c-0.68,0-1.54,0.42-2.58,1.4v7.642h-1.4v-10.202h1.14
		l0.16,1.381c1.36-1.16,2.141-1.501,3.121-1.501c1.58,0,2.62,1.4,2.62,3.601v6.722H322.142z"/>
	<path fill="#1D2362" d="M332.162,165.67l-0.18-1.38c-1.36,1.16-2.12,1.48-3.001,1.48c-1.86,0-3-2.041-3-5.142
		c0-3.401,1.4-5.281,3.221-5.281c0.72,0,1.54,0.4,2.681,1.421v-5.502l1.4-0.199v14.603H332.162z M331.883,158.048
		c-1.041-0.98-1.82-1.42-2.401-1.42c-1.2,0-2.08,1.58-2.08,3.941c0,2.34,0.721,3.94,1.98,3.94c0.62,0,1.46-0.44,2.501-1.421V158.048
		z"/>
	<path fill="#1D2362" d="M346.626,165.67l-0.84-2.96h-4.941l-0.8,2.96h-1.48l3.82-13.483h2.001l3.78,13.483H346.626z
		 M343.325,153.688h-0.02l-2.161,7.802h4.361L343.325,153.688z"/>
	<path fill="#1D2362" d="M350.024,165.67v-14.403l1.4-0.199v14.603H350.024z"/>
	<path fill="#1D2362" d="M355.765,155.468v6.321c0,1.421,0.48,2.721,1.641,2.721c0.7,0,1.561-0.44,2.601-1.4v-7.642h1.4v10.202
		h-1.141l-0.18-1.38c-1.36,1.16-2.12,1.48-3.101,1.48c-1.58,0-2.621-1.381-2.621-3.582v-6.721H355.765z"/>
	<path fill="#1D2362" d="M375.486,165.67v-6.321c0-1.42-0.46-2.721-1.62-2.721c-0.7,0-1.521,0.42-2.561,1.4v7.642h-1.381v-6.321
		c0-1.42-0.439-2.721-1.62-2.721c-0.68,0-1.521,0.42-2.54,1.4v7.642h-1.4v-10.202h1.14l0.141,1.36c1.34-1.16,2.12-1.48,3.101-1.48
		c1.061,0,1.84,0.64,2.261,1.681c1.46-1.32,2.32-1.681,3.301-1.681c1.58,0,2.58,1.4,2.58,3.601v6.722H375.486z"/>
	<path fill="#1D2362" d="M385.484,165.67v-6.321c0-1.42-0.5-2.721-1.66-2.721c-0.68,0-1.54,0.42-2.58,1.4v7.642h-1.4v-10.202h1.14
		l0.16,1.381c1.36-1.16,2.141-1.501,3.121-1.501c1.58,0,2.62,1.4,2.62,3.601v6.722H385.484z"/>
	<path fill="#1D2362" d="M389.824,153.087v-1.84h1.4v1.84H389.824z M389.824,165.67v-10.202h1.4v10.202H389.824z"/>
	<path fill="#1D2362" d="M403.288,165.67l-0.18-1.38c-1.36,1.16-2.12,1.48-3.001,1.48c-1.86,0-3-2.041-3-5.142
		c0-3.401,1.4-5.281,3.221-5.281c0.72,0,1.54,0.4,2.681,1.421v-5.502l1.4-0.199v14.603H403.288z M403.009,158.048
		c-1.041-0.98-1.82-1.42-2.4-1.42c-1.201,0-2.081,1.58-2.081,3.941c0,2.34,0.721,3.94,1.98,3.94c0.62,0,1.46-0.44,2.501-1.421
		V158.048z"/>
	<path fill="#1D2362" d="M410.528,165.771c-2.48,0-3.641-1.4-3.641-5.142s1.521-5.281,3.841-5.281c2.12,0,3.461,1.74,3.461,4.36
		c0,0.361-0.021,0.9-0.061,1.221h-5.861c0,2.521,0.78,3.621,2.541,3.621c0.66,0,1.9-0.18,2.86-0.461l0.28,0.98
		C412.729,165.55,411.648,165.771,410.528,165.771z M412.809,159.608c0-1.62-0.54-3.141-2.221-3.141c-1.72,0-2.32,1.781-2.32,3.301
		v0.02h4.541V159.608z"/>
	<path fill="#1D2362" d="M420.468,156.748c-0.9,0-1.381,0.38-2.4,1.421v7.501h-1.4v-10.202h1.16l0.16,1.48
		c1.38-1.48,1.82-1.601,2.58-1.601h0.44v1.4H420.468z"/>
	<path fill="#1D2362" d="M248.162,186.67v-6.341H242.4v6.341h-1.48v-13.483h1.48v5.882h5.761v-5.882h1.46v13.483H248.162z"/>
	<path fill="#1D2362" d="M256.281,186.771h-0.061c-2.86,0-4.021-1.761-4.021-5.162c0-3.141,1.26-5.261,4.081-5.261h0.06
		c2.681,0,3.921,1.661,3.921,5.181C260.262,184.509,259.142,186.771,256.281,186.771z M256.241,177.588
		c-1.9,0-2.641,1.62-2.641,4.001c0,2.26,0.66,3.961,2.641,3.961c1.92,0,2.601-1.701,2.601-3.98
		C258.842,179.288,258.182,177.588,256.241,177.588z"/>
	<path fill="#1D2362" d="M268.401,185.89c-0.74,0.54-1.641,0.881-2.721,0.881c-1.78,0-3.48-1.001-3.48-5.102
		c0-3.641,1.521-5.321,3.721-5.321c0.88,0,1.7,0.32,2.38,0.82l-0.46,1.08c-0.54-0.38-1.14-0.64-1.82-0.64c-1.36,0-2.38,1-2.38,3.961
		c0,2.98,1.08,3.92,2.26,3.92c0.78,0,1.381-0.24,2.061-0.64L268.401,185.89z"/>
	<path fill="#1D2362" d="M275.82,186.67v-6.321c0-1.42-0.5-2.721-1.66-2.721c-0.68,0-1.54,0.42-2.58,1.4v7.642h-1.4v-14.403
		l1.4-0.199v5.701c1.24-1.041,2.04-1.421,3.021-1.421c1.58,0,2.62,1.4,2.62,3.601v6.722H275.82z"/>
	<path fill="#1D2362" d="M281.96,186.771c-1.02,0-1.8-0.261-2.561-0.701l0.48-1.08c0.74,0.4,1.38,0.58,2.04,0.58
		c1.221,0,1.681-0.64,1.681-1.38c0-0.82-0.28-1.28-1.88-2.221c-1.761-1-2.281-1.841-2.281-3.04c0-1.521,1.2-2.581,2.861-2.581
		c0.899,0,1.72,0.261,2.4,0.64l-0.44,1.061c-0.54-0.26-1.24-0.52-1.92-0.52c-1.001,0-1.501,0.539-1.501,1.279
		c0,0.82,0.28,1.201,1.921,2.141c1.76,1.041,2.261,1.921,2.261,3.102C285.021,185.77,283.86,186.771,281.96,186.771z"/>
	<path fill="#1D2362" d="M292.943,185.89c-0.74,0.54-1.641,0.881-2.721,0.881c-1.78,0-3.48-1.001-3.48-5.102
		c0-3.641,1.521-5.321,3.721-5.321c0.88,0,1.7,0.32,2.38,0.82l-0.46,1.08c-0.54-0.38-1.14-0.64-1.82-0.64c-1.36,0-2.38,1-2.38,3.961
		c0,2.98,1.08,3.92,2.26,3.92c0.78,0,1.381-0.24,2.061-0.64L292.943,185.89z"/>
	<path fill="#1D2362" d="M300.362,186.67v-6.321c0-1.42-0.5-2.721-1.66-2.721c-0.68,0-1.54,0.42-2.58,1.4v7.642h-1.4v-14.403
		l1.4-0.199v5.701c1.24-1.041,2.04-1.421,3.021-1.421c1.58,0,2.62,1.4,2.62,3.601v6.722H300.362z"/>
	<path fill="#1D2362" d="M306.082,176.468v6.321c0,1.421,0.48,2.721,1.641,2.721c0.7,0,1.561-0.44,2.601-1.4v-7.642h1.4v10.202
		h-1.141l-0.18-1.38c-1.36,1.16-2.12,1.48-3.101,1.48c-1.58,0-2.621-1.381-2.621-3.582v-6.721H306.082z"/>
	<path fill="#1D2362" d="M314.682,186.67v-14.403l1.4-0.199v14.603H314.682z"/>
	<path fill="#1D2362" d="M322.182,186.771c-2.48,0-3.641-1.4-3.641-5.142s1.521-5.281,3.841-5.281c2.12,0,3.461,1.74,3.461,4.36
		c0,0.361-0.021,0.9-0.061,1.221h-5.861c0,2.521,0.78,3.621,2.541,3.621c0.66,0,1.9-0.18,2.86-0.461l0.28,0.98
		C324.382,186.55,323.302,186.771,322.182,186.771z M324.462,180.608c0-1.62-0.54-3.141-2.221-3.141c-1.72,0-2.32,1.781-2.32,3.301
		v0.02h4.541V180.608z"/>
	<path fill="#1D2362" d="M336.086,173.308c-0.26-0.041-0.72-0.08-1-0.08c-1.021,0-1.38,0.64-1.38,1.8v1.44h2.04v1.141h-2.04v9.062
		h-1.4v-9.062h-1.641v-1.141h1.641v-1.4c0-1.961,0.84-3,2.66-3c0.521,0,0.9,0.06,1.24,0.14L336.086,173.308z"/>
	<path fill="#1D2362" d="M338.703,176.468v6.321c0,1.421,0.48,2.721,1.641,2.721c0.7,0,1.561-0.44,2.601-1.4v-7.642h1.4v10.202
		h-1.141l-0.18-1.38c-1.36,1.16-2.12,1.48-3.101,1.48c-1.58,0-2.621-1.381-2.621-3.582v-6.721H338.703z M338.304,174.048v-1.701h1.3
		v1.701H338.304z M341.884,174.048v-1.701h1.301v1.701H341.884z"/>
	<path fill="#1D2362" d="M351.104,177.748c-0.9,0-1.381,0.38-2.4,1.421v7.501h-1.4v-10.202h1.16l0.16,1.48
		c1.38-1.48,1.82-1.601,2.58-1.601h0.44v1.4H351.104z"/>
	<path fill="#1D2362" d="M360.527,181.608c-0.561,0-1.12,0-1.681-0.02v5.081h-1.48v-13.463c1.021-0.04,2.32-0.04,3.381-0.04
		c3.121,0,4.381,1.521,4.381,4.182C365.128,179.889,363.588,181.608,360.527,181.608z M360.587,174.407c-0.54,0-1.28,0.02-1.74,0.04
		v5.882c0.4,0.02,0.9,0.06,1.7,0.06c2.301,0,3.061-1.2,3.061-2.981C363.607,175.548,363.008,174.407,360.587,174.407z"/>
	<path fill="#1D2362" d="M372.927,186.67v-6.321c0-1.42-0.5-2.721-1.66-2.721c-0.68,0-1.54,0.42-2.58,1.4v7.642h-1.4v-14.403
		l1.4-0.199v5.701c1.24-1.041,2.04-1.421,3.021-1.421c1.58,0,2.62,1.4,2.62,3.601v6.722H372.927z"/>
	<path fill="#1D2362" d="M377.267,174.087v-1.84h1.4v1.84H377.267z M377.267,186.67v-10.202h1.4v10.202H377.267z"/>
	<path fill="#1D2362" d="M381.626,186.67v-14.403l1.4-0.199v14.603H381.626z"/>
	<path fill="#1D2362" d="M389.566,186.771h-0.061c-2.86,0-4.021-1.761-4.021-5.162c0-3.141,1.26-5.261,4.081-5.261h0.06
		c2.681,0,3.921,1.661,3.921,5.181C393.547,184.509,392.427,186.771,389.566,186.771z M389.526,177.588
		c-1.9,0-2.641,1.62-2.641,4.001c0,2.26,0.66,3.961,2.641,3.961c1.92,0,2.601-1.701,2.601-3.98
		C392.127,179.288,391.467,177.588,389.526,177.588z"/>
	<path fill="#1D2362" d="M397.785,186.771c-1.02,0-1.8-0.261-2.561-0.701l0.48-1.08c0.74,0.4,1.38,0.58,2.04,0.58
		c1.221,0,1.681-0.64,1.681-1.38c0-0.82-0.28-1.28-1.88-2.221c-1.761-1-2.281-1.841-2.281-3.04c0-1.521,1.2-2.581,2.861-2.581
		c0.899,0,1.72,0.261,2.4,0.64l-0.44,1.061c-0.54-0.26-1.24-0.52-1.92-0.52c-1.001,0-1.501,0.539-1.501,1.279
		c0,0.82,0.28,1.201,1.921,2.141c1.76,1.041,2.261,1.921,2.261,3.102C400.847,185.77,399.686,186.771,397.785,186.771z"/>
	<path fill="#1D2362" d="M406.649,186.771h-0.061c-2.86,0-4.021-1.761-4.021-5.162c0-3.141,1.26-5.261,4.081-5.261h0.06
		c2.681,0,3.921,1.661,3.921,5.181C410.63,184.509,409.51,186.771,406.649,186.771z M406.609,177.588c-1.9,0-2.641,1.62-2.641,4.001
		c0,2.26,0.66,3.961,2.641,3.961c1.92,0,2.601-1.701,2.601-3.98C409.21,179.288,408.55,177.588,406.609,177.588z"/>
	<path fill="#1D2362" d="M417.169,186.771c-0.74,0-1.58-0.4-2.7-1.4v4.94l-1.4,0.2v-14.043h1.14l0.16,1.381
		c1.36-1.16,2.141-1.501,3.001-1.501c1.86,0,3.001,2.061,3.001,5.161C420.37,184.909,418.97,186.771,417.169,186.771z
		 M416.989,177.628c-0.641,0-1.48,0.439-2.521,1.42v5.041c1.02,0.961,1.84,1.421,2.4,1.421c1.22,0,2.101-1.581,2.101-3.94
		C418.97,179.229,418.229,177.628,416.989,177.628z"/>
	<path fill="#1D2362" d="M428.469,186.67v-6.321c0-1.42-0.5-2.721-1.66-2.721c-0.68,0-1.54,0.42-2.58,1.4v7.642h-1.4v-14.403
		l1.4-0.199v5.701c1.24-1.041,2.04-1.421,3.021-1.421c1.58,0,2.62,1.4,2.62,3.601v6.722H428.469z"/>
	<path fill="#1D2362" d="M432.808,174.087v-1.84h1.4v1.84H432.808z M432.808,186.67v-10.202h1.4v10.202H432.808z"/>
	<path fill="#1D2362" d="M440.308,186.771c-2.48,0-3.641-1.4-3.641-5.142s1.521-5.281,3.841-5.281c2.12,0,3.461,1.74,3.461,4.36
		c0,0.361-0.021,0.9-0.061,1.221h-5.861c0,2.521,0.78,3.621,2.541,3.621c0.66,0,1.9-0.18,2.86-0.461l0.28,0.98
		C442.508,186.55,441.428,186.771,440.308,186.771z M442.588,180.608c0-1.62-0.54-3.141-2.221-3.141c-1.72,0-2.32,1.781-2.32,3.301
		v0.02h4.541V180.608z"/>
</g>
<image width="375" height="375" xlink:href="A42508C5.png"  transform="matrix(0.24 0 0 0.24 135.2427 96.8623)">
</image>
<rect x="135.167" y="96.921" fill="#FFCD1C" width="89.875" height="89.74"/>
<g>
	<path fill="#1D2362" d="M221.191,174.926c0.256-15.659-19.078-12.855-19.18-21.834c-0.041-3.513,2.652-5.763,7.346-5.813
		c3.164-0.033,5.457,0.357,8.824,1.835l0.92-5.813c-2.295-0.918-6.021-1.632-10.152-1.582c-8.049,0.097-13.773,4.924-13.723,11.886
		c0.102,13.926,19.221,11.312,19.188,20.992c-0.016,4.579-4.266,7.595-9.139,7.319c-3.316-0.188-5.561-0.769-8.877-2.147
		l-0.662,5.923c1.148,0.359,2.242,0.688,3.346,0.971h12.65C217.09,185.036,221.092,181.116,221.191,174.926z"/>
	<polygon fill="#1D2362" points="219.02,137.096 192.336,137.096 192.336,132.299 191.332,132.299 191.332,137.096 141.305,137.096 
		141.305,138.101 191.332,138.101 191.332,186.661 192.336,186.661 192.336,138.101 219.02,138.101 	"/>
	<rect x="141.27" y="142.466" fill="#1D2362" width="6.406" height="44.195"/>
	<polygon fill="#1D2362" points="181.29,142.466 181.29,160.94 159.926,160.94 159.926,142.466 153.52,142.466 153.52,186.661 
		159.926,186.661 159.926,166.478 181.29,166.478 181.29,186.661 187.695,186.661 187.695,142.466 	"/>
</g>
</svg>
