<?xml version="1.0" standalone="no"?>
<!DOCTYPE svg PUBLIC "-//W3C//DTD SVG 20010904//EN"
 "http://www.w3.org/TR/2001/REC-SVG-20010904/DTD/svg10.dtd">
<svg version="1.0" xmlns="http://www.w3.org/2000/svg"
 width="310.000000pt" height="310.000000pt" viewBox="0 0 310.000000 310.000000"
 preserveAspectRatio="xMidYMid meet">
<metadata>
Created by potrace 1.11, written by Peter Selinger 2001-2013
</metadata>
<g transform="translate(0.000000,310.000000) scale(0.100000,-0.100000)"
fill="#000000" stroke="none">
<path d="M1930 1805 l0 -85 -875 0 c-868 0 -875 0 -875 -20 0 -20 7 -20 875
-20 l875 0 0 -840 c0 -833 0 -840 20 -840 20 0 20 7 20 840 l0 840 465 0 c458
0 465 0 465 20 0 20 -7 20 -465 20 l-465 0 0 85 c0 78 -2 85 -20 85 -18 0 -20
-7 -20 -85z"/>
<path d="M2414 1545 c-213 -46 -345 -200 -345 -400 0 -89 20 -154 67 -222 50
-72 127 -125 319 -219 187 -92 252 -146 274 -226 35 -124 -42 -247 -181 -294
-77 -25 -226 -15 -345 23 -67 23 -93 27 -97 18 -2 -7 -7 -53 -11 -103 l-7 -90
57 -16 c47 -14 96 -16 293 -14 l237 3 59 30 c244 123 318 417 164 650 -44 66
-127 124 -308 215 -185 93 -233 126 -261 181 -23 47 -27 124 -8 161 23 45 73
88 123 105 83 29 229 23 339 -14 100 -34 87 -43 106 78 16 99 17 97 -41 113
-127 36 -322 45 -434 21z"/>
<path d="M180 765 l0 -765 110 0 110 0 0 765 0 765 -110 0 -110 0 0 -765z"/>
<path d="M610 765 l0 -765 110 0 110 0 0 350 0 350 375 0 375 0 0 -350 0 -350
110 0 110 0 0 765 0 765 -110 0 -110 0 -2 -317 -3 -318 -370 0 -370 0 -3 318
-2 317 -110 0 -110 0 0 -765z"/>
</g>
</svg>
