<?xml version="1.0" encoding="utf-8"?>
<!-- Generator: Adobe Illustrator 23.0.1, SVG Export Plug-In . SVG Version: 6.00 Build 0)  -->
<svg version="1.2" baseProfile="tiny" id="Check_1_"
	 xmlns="http://www.w3.org/2000/svg" xmlns:xlink="http://www.w3.org/1999/xlink" x="0px" y="0px" viewBox="0 0 314.063 314.064"
	 xml:space="preserve">
<path fill="#FFFFFF" d="M293.001,78.528C249.646,3.433,153.618-22.298,78.529,21.066C3.434,64.416-22.298,160.44,21.066,235.532
	c43.35,75.095,139.375,100.83,214.465,57.47C310.626,249.638,336.371,153.618,293.001,78.528z M219.833,265.799
	c-60.066,34.692-136.894,14.106-171.576-45.973C13.568,159.759,34.161,82.933,94.23,48.258
	c60.07-34.69,136.893-14.106,171.578,45.971C300.493,154.305,279.906,231.115,219.833,265.799z"/>
<polygon fill-rule="evenodd" fill="#FFFFFF" points="192.52,63.971 209.2,79.038 123.167,156.752 209.2,234.465 192.52,249.532 
	89.806,156.752 "/>
<g>
</g>
<g>
</g>
<g>
</g>
<g>
</g>
<g>
</g>
<g>
</g>
</svg>
