<svg xmlns="http://www.w3.org/2000/svg" viewBox="0 0 485.2 485.2"><path d="M60.7 75.8V15.2C60.7 6.8 67.4 0 75.8 0 84.2 0 91 6.8 91 15.2v60.7C91 84.2 84.2 91 75.8 91c-8.4 0-15.1-6.8-15.1-15.2zM318.4 91c8.4 0 15.2-6.8 15.2-15.2V15.2c0-8.4-6.8-15.2-15.2-15.2-8.4 0-15.2 6.8-15.2 15.2v60.7c.1 8.3 6.8 15.1 15.2 15.1zm166.8 272.9c0 67-54.3 121.3-121.3 121.3s-121.3-54.3-121.3-121.3 54.3-121.3 121.3-121.3 121.3 54.3 121.3 121.3zm-30.3 0c0-50.2-40.8-91-91-91s-91 40.8-91 91 40.8 91 91 91 91-40.8 91-91zM121.3 182H60.7v60.7h60.7V182zM60.7 333.6h60.7v-60.7H60.7v60.7zm90.9-91h60.7V182h-60.7v60.6zm0 91h60.7v-60.7h-60.7v60.7zM30.3 360.9V151.6h333.6v60.7h30.3V94c0-18.4-14.7-33.3-32.8-33.3h-12.6v15.2c0 16.7-13.6 30.3-30.3 30.3-16.7 0-30.3-13.6-30.3-30.3V60.7h-182v15.2c0 16.7-13.6 30.3-30.3 30.3-16.7 0-30.3-13.6-30.3-30.3V60.7H32.9C14.7 60.7 0 75.6 0 94v266.9c0 18.4 14.7 33.3 32.9 33.3h179.4v-30.3H32.9c-1.4 0-2.6-1.4-2.6-3zm273-118.3V182h-60.6v60.7h60.6zm106.1 121.3h-45.5v-45.5c0-8.4-6.8-15.2-15.2-15.2s-15.2 6.8-15.2 15.2v60.7c0 8.4 6.8 15.2 15.2 15.2h60.7c8.4 0 15.2-6.8 15.2-15.2 0-8.4-6.8-15.2-15.2-15.2z"/></svg>