<svg xmlns="http://www.w3.org/2000/svg" viewBox="0 0 512 512"><path d="M467.3 16.8H221.5c-6.1 0-11.1 5-11.1 11.1v86.5l12.3-7.6c3.1-1.9 6.5-3.3 9.9-4V39h223.7v160H232.5v-25.9l-22.2 13.8v23.2c0 6.1 5 11.1 11.1 11.1h245.9c6.1 0 11.1-5 11.1-11.1V27.9c0-6.2-5-11.1-11.1-11.1z"/><path d="M306 78.4c-2.9-3.7-8.3-4.3-12-1.4l-38.2 30.1c3.6 2.4 6.8 5.6 9.3 9.5.7 1.1 1.3 2.3 1.8 3.4l37.7-29.7c3.7-2.9 4.3-8.2 1.4-11.9z"/><circle cx="121.5" cy="31.9" r="31.9"/><path d="M252 124.7c-4.5-7.2-14-9.5-21.2-5l-31.2 19.4c-.1-25.9-.1-12.1-.1-28.8C199.3 90.3 183 74 163 74h-15.2c-13 33.6-8.8 21.1-19.8 49.6l4.6-20.1c.3-1.5.1-3.1-.7-4.4l-6.3-11.4 5.6-10.1c.8-1.5-.3-3.4-2-3.4h-15.3c-1.7 0-2.8 1.8-2 3.4l5.6 10.1-6.3 11.4c-.7 1.3-1 2.9-.7 4.3l4 20.2C112.3 118 97.4 79.3 95.4 74H80.1c-20 0-36.4 16.3-36.5 36.3L43 223.5c0 8.5 6.8 15.4 15.3 15.5h.1c8.5 0 15.4-6.8 15.4-15.3l.6-113.2v-.1c0-1.7 1.4-3 3.1-3 1.7 0 3 1.4 3 3.1v160.4c14.1-.6 27.2 4.5 37 13.4v-62.6h8v71.8c5.6 8.3 8.9 18.2 8.9 29 0 9.8-2.7 18.9-7.5 26.7 4.9 0 9.6.7 14.1 1.9 6.1-5.3 13.4-9.2 21.4-11.1 0-279.3-.3-106.6-.3-229.4 0-1.8 1.4-3.2 3.2-3.2 1.8 0 3.2 1.4 3.2 3.2.1 10.8.2 44.6.3 56.4 0 5.6 3.1 10.7 8 13.4 4.9 2.7 10.8 2.6 15.6-.4l54.6-33.9c7.3-4.6 9.5-14.1 5-21.4z"/><circle cx="429.2" cy="322.8" r="33.8"/><path d="M511.5 405.8c-.1-21.2-17.4-38.4-38.6-38.4h-84.8c3.6 7.1 5.7 15.1 5.7 23.5 0 9-2.4 18.4-7.5 26.8 18.9.8 35.5 10.9 45.1 25.9H472v-37.4c0-1.8 1.5-3.4 3.3-3.4s3.4 1.3 3.5 3.2l.2 37.7h32.6l-.1-37.9zM290.5 391c0-8.6 2.1-16.8 5.9-23.9h-75.3c3.5 6.9 5.4 14.8 5.4 23 0 9.7-2.7 18.9-7.5 26.7 15.6.1 29.9 6.5 40.3 17.3 10.1-9.8 23.8-15.9 38.8-16-5.2-8.5-7.6-18-7.6-27.1zM264.8 288.7c-18.7 0-33.8 15.1-33.8 33.8 0 18.6 15.1 33.8 33.8 33.8 18.5 0 33.8-15 33.8-33.8 0-18.7-15.1-33.8-33.8-33.8zM123.2 390.1c0-8.3 2-16.1 5.4-23-1.5-.1 4.7 0-89.5 0C18 367.1.6 384.2.5 405.5l-.2 38.2h32.6l.2-38c0-1.9 1.5-3.4 3.4-3.4s3.4 1.5 3.4 3.4v38h45.7c9.9-15.8 26.8-25.6 45.2-26.4-4.8-8.1-7.6-17.4-7.6-27.2zM82.8 288.7c-18.7 0-33.8 15.1-33.8 33.8 0 18.6 15 33.8 33.8 33.8 18.5 0 33.8-15 33.8-33.8 0-18.7-15.1-33.8-33.8-33.8zM422.5 473.8c-.1-21.2-17.4-38.4-38.6-38.4h-85.5c-21.2 0-39.6 17.2-39.7 38.4l-.3-.9c-.1-21.1-17.3-38.4-38.6-38.4h-85.5c-21.2 0-39.6 17.2-39.7 38.4l-.2 39.1H127l.2-38.9c0-1.6 1.3-2.9 2.9-2.9s2.9 1.3 2.9 2.9V512h86.4v-38.9c0-1.7 1.4-3.1 3.1-3.1 1.7 0 3.1 1.4 3.2 3.1l.3 38.9h65.1l.2-38c0-1.6 1.3-2.9 2.9-2.9s2.9 1.3 2.9 2.9v38h86.4v-38c0-1.7 1.4-3.1 3.1-3.1 1.7 0 3.1 1.4 3.2 3.1l.2 38h32.6l-.1-38.2z"/><circle cx="175.9" cy="389.9" r="34.2"/><circle cx="342.1" cy="390.8" r="34.2"/></svg>