<svg xmlns="http://www.w3.org/2000/svg" viewBox="0 0 96.5 93.6"><path d="M88.4 5.5H68.9V3c0-1.4-1.1-2.5-2.5-2.5S63.9 1.6 63.9 3v2.5H44.4c-3.9 0-7.2 3.2-7.2 7.2v14.7c.5.6 1 1.3 1.4 1.8.3.4.9 1.2 1.3 1.7.6.2 1.4.3 2.3.5V12.6c0-1.2.9-2.1 2.1-2.1h44c1.2 0 2.1.9 2.1 2.1v36.2c0 1.2-.9 2.1-2.1 2.1h-44c-1.2 0-2.1-1-2.1-2.1v-1.3c-1.5-.2-3.3-.5-5-.9v2.2c0 3.9 3.2 7.2 7.2 7.2h19.5v24.2L54.3 88c-1.1.9-1.2 2.5-.4 3.5.5.6 1.2.9 2 .9.6 0 1.1-.2 1.6-.6l9-7.3 9 7.3c.5.4 1 .6 1.6.6.7 0 1.5-.3 2-.9.9-1.1.7-2.7-.4-3.5l-9.6-7.8V55.9h19.5c3.9 0 7.2-3.2 7.2-7.2V12.6c-.2-3.9-3.4-7.1-7.4-7.1z"/><path d="M29.3 36.2c1.7 2.2 3.2 4.2 5.2 5 4 1.8 11.1 2.3 11.9 2.4 2.1.1 3.9-1.4 4.1-3.5.2-2.1-1.4-3.9-3.5-4.1-2.5-.2-7.3-.9-9.3-1.7-.5-.3-1.6-1.8-2.4-2.8-2.6-3.5-5.9-7.8-10.7-7.8H14.4C7 23.7 2.8 33.1 1.9 36.4 1.2 39 .7 47.4.6 49.9c-.1 2.1 1.5 3.9 3.6 4h.2c2 0 3.7-1.6 3.8-3.6.2-4.8.7-10.6 1.1-11.9.3-1 .9-2.3 1.6-3.5l.2 18.4-4.8 34.8c-.3 2.4 1.3 4.6 3.8 5 2.4.3 4.6-1.3 5-3.8l4.5-32 4.5 32c.3 2.2 2.2 3.8 4.4 3.8h.6c2.4-.3 4.1-2.6 3.8-5L28 53.3l.2-18.5c.4.5.8 1.1 1.1 1.4z"/><circle cx="19.5" cy="12.2" r="8.8"/><path d="M63.7 33.5L56 31.2v5.2c0 1 .6 1.8 1.5 2.1l3.4 1c3.7 1.1 7.6 1.1 11.3 0l3.4-1c.9-.3 1.5-1.1 1.5-2.1v-5.3l-7.9 2.4c-.9.3-1.8.4-2.7.4-1 0-1.9-.1-2.8-.4z"/><path d="M82 27.3c.9-.3.9-1.6 0-1.9l-13.5-4c-1.4-.4-2.8-.4-4.1 0l-13.5 4c-.9.3-.9 1.6 0 1.9l13.5 4c1.4.4 2.8.4 4.1 0l11.6-3.5v3.1c-.2.1-.4.4-.4.7v.8c0 .3.2.6.4.7l-.7 1.7c-.1.2.1.5.3.5l.7.1h.5l.7-.1c.2 0 .4-.3.3-.5l-.7-1.7c.3-.1.4-.4.4-.7v-.8c0-.3-.2-.5-.4-.7v-3.4l.8-.2z"/></svg>