<svg id="Weiterbildung" xmlns="http://www.w3.org/2000/svg" viewBox="0 0 485.2 485.2"><style>.st0{fill:#1d2362}</style><g id="_x30_3"><path class="st0" d="M224.9 410.1c-.3 0-.6 0-.9-.1-78-8.4-140.8-71.2-149.2-149.2-.3-2.8.8-5.5 2.8-7.3 2.1-1.8 4.9-2.5 7.6-1.9l114.6 27c3.2.7 5.6 3.2 6.4 6.4l4.2 17.6 22.9 97c.6 2.7-.1 5.5-1.9 7.6-1.7 1.8-4 2.9-6.5 2.9zm-131.3-139c11.6 60.4 59.7 108.5 120.1 120.1L190.8 294l-97.2-22.9zM83.3 233.7c-2.1 0-4.1-.7-5.7-2.1-2.1-1.8-3.1-4.6-2.8-7.3C83.2 146.2 146 83.4 224 75c2.7-.3 5.5.8 7.3 2.8 1.8 2.1 2.6 4.9 1.9 7.6l-27 114.6c-.7 3.2-3.2 5.6-6.4 6.4l-114.6 27c-.6.2-1.3.3-1.9.3zM213.7 93.8c-60.4 11.6-108.5 59.7-120.1 120.1l97.2-22.9 22.9-97.2zM242.3 261.1c-10.3 0-18.6-8.3-18.6-18.6s8.3-18.6 18.6-18.6c10.2 0 18.5 8.3 18.5 18.6s-8.3 18.6-18.5 18.6zm0-20.1c-.8 0-1.5.7-1.5 1.5 0 1.6 2.9 1.6 2.9 0 0-.8-.6-1.5-1.4-1.5zM259.6 410.1c-2.4 0-4.8-1-6.4-2.9-1.8-2.1-2.6-4.9-1.9-7.6l27-114.6c.7-3.2 3.2-5.6 6.4-6.4l17.6-4.2 97-22.9c2.7-.6 5.5.1 7.6 1.9 2.1 1.8 3.1 4.6 2.8 7.3-8.4 78.1-71.2 140.8-149.3 149.3-.2.1-.5.1-.8.1zM293.8 294l-22.9 97.2c60.4-11.6 108.5-59.7 120.1-120.1L293.8 294zM401.3 233.7c-.7 0-1.3-.1-2-.2l-114.6-27c-3.2-.7-5.6-3.2-6.4-6.4l-27-114.6c-.6-2.7.1-5.5 1.9-7.6s4.6-3.1 7.3-2.8c78.1 8.4 140.8 71.2 149.3 149.3.3 2.8-.8 5.5-2.8 7.3-1.6 1.3-3.6 2-5.7 2zM293.8 191l97.2 22.9c-11.6-60.4-59.7-108.5-120.1-120.1l20 84.6 2.9 12.6z"/><path class="st0" d="M144.9 348.4c-2.2 0-4.4-.9-6.1-2.5-2.8-2.8-3.3-7.2-1.2-10.6l35.3-57.1c1.9-3.1 5.7-4.7 9.2-3.8l17.7 4.2c3.2.7 5.6 3.2 6.4 6.4l4.2 17.6c.8 3.6-.7 7.3-3.8 9.3l-57.2 35.3c-1.4.8-3 1.2-4.5 1.2zm39.3-55.9l-13 21 21.1-13-1.5-6.5-6.6-1.5zM180.2 210.8c-2.9 0-5.7-1.5-7.3-4.1l-35.3-57.1c-2.1-3.4-1.6-7.7 1.2-10.6 2.8-2.8 7.2-3.3 10.5-1.2l57.2 35.3c3.1 1.9 4.7 5.7 3.8 9.3l-4.2 17.6c-.7 3.2-3.2 5.6-6.4 6.4l-17.7 4.2c-.5.2-1.1.2-1.8.2zm-9-39.3l13 21 6.5-1.5 1.5-6.5-21-13zM242.3 261.1c-10.3 0-18.6-8.3-18.6-18.6s8.3-18.6 18.6-18.6c10.2 0 18.5 8.3 18.5 18.6s-8.3 18.6-18.5 18.6zm0-20.1c-.8 0-1.5.7-1.5 1.5 0 1.6 2.9 1.6 2.9 0 0-.8-.6-1.5-1.4-1.5zM339.6 348.4c-1.5 0-3.1-.4-4.5-1.3L278 311.9c-3.1-1.9-4.7-5.7-3.8-9.2l4.2-17.7c.7-3.2 3.2-5.6 6.4-6.4l17.6-4.2c3.6-.8 7.3.7 9.2 3.8l35.3 57.1c2.1 3.4 1.6 7.7-1.2 10.6-1.7 1.6-3.9 2.5-6.1 2.5zm-47.4-47.9l21 13-13-21-6.5 1.5-1.5 6.5zM304.3 210.8c-.7 0-1.3-.1-2-.2l-17.6-4.2c-3.2-.7-5.6-3.2-6.4-6.4l-4.2-17.7c-.8-3.6.7-7.3 3.8-9.2l57.1-35.3c3.4-2.1 7.8-1.6 10.5 1.2 2.8 2.8 3.3 7.2 1.2 10.6l-35.3 57.1c-1.4 2.6-4.2 4.1-7.1 4.1zM293.8 191l6.5 1.5 13-21-21 13 1.5 6.5z"/><path class="st0" d="M242.3 483.5c-4 0-7.4-2.7-8.3-6.6L190.8 294 7.9 250.8c-3.9-.9-6.6-4.4-6.6-8.3s2.7-7.4 6.6-8.3L190.8 191 234 8.1c.9-3.9 4.4-6.6 8.3-6.6s7.4 2.7 8.3 6.6L293.8 191l109.5 25.8 73.4 17.3c3.9.9 6.6 4.4 6.6 8.3s-2.7 7.4-6.6 8.3L293.8 294l-43.2 182.9c-.9 3.9-4.4 6.6-8.3 6.6zm-195.2-241l152.8 36.1c3.2.7 5.6 3.2 6.4 6.4l36.1 152.8L278.5 285c.7-3.2 3.2-5.6 6.4-6.4l152.8-36.1-152.8-36.1c-3.2-.7-5.6-3.2-6.4-6.4L242.3 47.3l-36.1 152.8c-.7 3.2-3.2 5.6-6.4 6.4l-152.7 36zm195.2 18.6c-10.3 0-18.6-8.3-18.6-18.6s8.3-18.6 18.6-18.6c10.2 0 18.5 8.3 18.5 18.6s-8.3 18.6-18.5 18.6zm0-20.1c-.8 0-1.5.7-1.5 1.5 0 1.6 2.9 1.6 2.9 0 0-.8-.6-1.5-1.4-1.5z"/><path class="st0" d="M242.3 261.1c-10.3 0-18.6-8.3-18.6-18.6s8.3-18.6 18.6-18.6c10.2 0 18.5 8.3 18.5 18.6s-8.3 18.6-18.5 18.6zm0-20.1c-.8 0-1.5.7-1.5 1.5 0 1.6 2.9 1.6 2.9 0 0-.8-.6-1.5-1.4-1.5z"/><path class="st0" d="M242.3 261.1c-10.3 0-18.6-8.3-18.6-18.6s8.3-18.6 18.6-18.6c10.2 0 18.5 8.3 18.5 18.6s-8.3 18.6-18.5 18.6zm0-20.1c-.8 0-1.5.7-1.5 1.5 0 1.6 2.9 1.6 2.9 0 0-.8-.6-1.5-1.4-1.5z"/></g></svg>