<svg id="Studiendownloads" xmlns="http://www.w3.org/2000/svg" viewBox="0 0 485.2 485.2"><style>.st0{fill:#1d2362}</style><g id="_x30_6"><path class="st0" d="M295.9 457.3H92.1c-17.9 0-32.4-14.5-32.4-32.4V38.7c0-17.9 14.5-32.4 32.4-32.4h298c17.9 0 32.4 14.5 32.4 32.4v170.7c0 5.5-4.5 9.9-9.9 9.9-5.5 0-9.9-4.5-9.9-9.9V38.7c0-6.9-5.6-12.5-12.5-12.5h-298c-6.9 0-12.5 5.6-12.5 12.5V425c0 6.9 5.6 12.5 12.5 12.5H296c5.5 0 9.9 4.5 9.9 9.9s-4.5 9.9-10 9.9z"/><path class="st0" d="M295.2 356.9h-168c-5.5 0-9.9-4.5-9.9-9.9s4.5-9.9 9.9-9.9h168c5.5 0 9.9 4.5 9.9 9.9s-4.5 9.9-9.9 9.9zM295.2 280.1h-168c-5.5 0-9.9-4.5-9.9-9.9s4.5-9.9 9.9-9.9h168c5.5 0 9.9 4.5 9.9 9.9s-4.5 9.9-9.9 9.9zM355 203.4H127.2c-5.5 0-9.9-4.5-9.9-9.9 0-5.5 4.5-9.9 9.9-9.9H355c5.5 0 9.9 4.5 9.9 9.9 0 5.5-4.4 9.9-9.9 9.9zM355 126.7H127.2c-5.5 0-9.9-4.5-9.9-9.9s4.5-9.9 9.9-9.9H355c5.5 0 9.9 4.5 9.9 9.9s-4.4 9.9-9.9 9.9zM384.4 479.6c-.5 0-1 0-1.5-.1-3 .4-6.2-.5-8.5-2.8l-41.1-41.1c-3.9-3.9-3.9-10.2 0-14.1 3.9-3.9 10.2-3.9 14.1 0l27 27V263.9c0-5.5 4.5-9.9 9.9-9.9s9.9 4.5 9.9 9.9V444l24.3-22.7c4-3.7 10.2-3.5 13.9.4 3.8 3.9 3.7 10.1-.1 13.9l-41.1 41.1c-1.6 1.9-4.2 2.9-6.8 2.9z"/></g></svg>