<svg id="Studienberatung_1_" xmlns="http://www.w3.org/2000/svg" viewBox="0 0 485.2 485.2"><style>.st0{fill:#1d2362}</style><g id="_x30_1"><path class="st0" d="M475.4 448c-1.1 0-2.1-.2-3.2-.6l-108.7-39.5c-25.5 9-52.7 13.5-80.9 13.5-47.9 0-93.9-13.6-129.7-38.2-1.2-.8-2.5-1.8-3.8-2.7l-1.5-1.1c-5.1-3.8-9.3-7.2-12.9-10.6-3.3-3-4-7.9-1.7-11.7 2.3-3.8 6.9-5.5 11.1-4 26.8 9.4 55.4 14.2 84.9 14.2 50.4 0 98.9-14.2 136.6-40.1 1.8-1.3 3.6-2.6 5.5-4 40.3-29.8 62.6-69.8 62.6-112.7 0-7-.6-13.9-1.8-20.5-.8-4.2 1.4-8.4 5.3-10.1 3.9-1.8 8.5-.7 11.1 2.6 20.4 24.9 31.2 53.9 31.2 83.8 0 35.5-15.4 69.8-43.4 97.2l46.9 69.8c2.3 3.4 2.1 7.8-.4 11-1.6 2.5-4.4 3.7-7.2 3.7zm-111.9-59.3c1.1 0 2.2.2 3.2.6l84.9 30.9-35.4-52.6c-2.6-3.9-2-9.1 1.5-12.2 27.8-24.7 43.1-56.2 43.1-88.8 0-14.7-3.1-29.1-9.1-42.9-4 44-28.3 84.4-69.6 114.8-2 1.5-4 2.9-5.9 4.3-40.8 28.1-93.1 43.5-147.3 43.5-12.7 0-25.2-.8-37.5-2.5 27.3 12.4 58.7 19.1 91 19.1 27.1 0 53.2-4.6 77.6-13.6 1.3-.4 2.4-.6 3.5-.6z"/><path class="st0" d="M9.3 416.4c-2.8 0-5.6-1.3-7.4-3.6-2.5-3.2-2.7-7.6-.4-11l54.2-80.4c-32.3-31.1-50-70.1-50-110.6 0-55.9 32.7-107.2 89.7-140.6 3.4-2 6.9-4 10.6-5.9 36.5-18.9 79-29 123-29 111.4 0 206.5 65.3 221.3 151.8 1.4 7.5 2.1 15.5 2.1 23.7 0 49-24.9 94.3-70.1 127.7-2 1.5-4 2.9-5.9 4.3-40.8 28.1-93.1 43.5-147.3 43.5-31.6 0-62.3-5.1-91.1-15.3-.3-.1-.7-.2-1-.3L12.5 415.8c-1 .4-2.1.6-3.2.6zM229.1 53.9c-41 0-80.6 9.3-114.4 26.9-3.3 1.7-6.5 3.5-9.6 5.4-51.2 30-80.6 75.4-80.6 124.6 0 37.5 17.6 73.8 49.7 102.2 3.5 3.1 4.2 8.3 1.6 12.2l-42.6 63.3 100.6-36.6c2.1-.7 4.3-.8 6.4 0 1.2.5 2.6.9 3.8 1.3 27.1 9.5 55.7 14.3 85.2 14.3 50.4 0 98.9-14.2 136.6-40.1 1.8-1.3 3.6-2.6 5.5-4 40.3-29.8 62.6-69.8 62.6-112.7 0-7-.6-13.9-1.8-20.5-13.4-77.7-100.6-136.3-203-136.3z"/></g></svg>