<svg id="Vorlesungsverzeichnis" xmlns="http://www.w3.org/2000/svg" viewBox="0 0 485.2 485.2"><style>.st0{fill:#1d2362}</style><g id="_x30_5"><path class="st0" d="M471.9 404.6H106.2c-5.9 0-10.6-4.8-10.6-10.6s4.8-10.6 10.6-10.6h365.6c5.9 0 10.6 4.8 10.6 10.6s-4.7 10.6-10.5 10.6zM471.9 299.2H106.2c-5.9 0-10.6-4.8-10.6-10.6s4.8-10.6 10.6-10.6h365.6c5.9 0 10.6 4.8 10.6 10.6s-4.7 10.6-10.5 10.6zM471.9 193.8H106.2c-5.9 0-10.6-4.8-10.6-10.6s4.8-10.6 10.6-10.6h365.6c5.9 0 10.6 4.8 10.6 10.6s-4.7 10.6-10.5 10.6zM471.9 88.4H106.2c-5.9 0-10.6-4.8-10.6-10.6 0-5.9 4.8-10.6 10.6-10.6h365.6c5.9 0 10.6 4.8 10.6 10.6.1 5.9-4.7 10.6-10.5 10.6zM39.4 404.6H14.1c-5.9 0-10.6-4.8-10.6-10.6s4.8-10.6 10.6-10.6h25.3c5.9 0 10.6 4.8 10.6 10.6s-4.8 10.6-10.6 10.6zM39.4 299.2H14.1c-5.9 0-10.6-4.8-10.6-10.6S8.3 278 14.1 278h25.3c5.9 0 10.6 4.8 10.6 10.6s-4.8 10.6-10.6 10.6zM39.4 193.8H14.1c-5.9 0-10.6-4.8-10.6-10.6s4.8-10.6 10.6-10.6h25.3c5.9 0 10.6 4.8 10.6 10.6s-4.8 10.6-10.6 10.6zM39.4 88.4H14.1c-5.9 0-10.6-4.8-10.6-10.6 0-5.9 4.8-10.6 10.6-10.6h25.3C45.3 67.2 50 72 50 77.8c0 5.9-4.8 10.6-10.6 10.6z"/></g></svg>