<svg id="Forschungsprojekte" xmlns="http://www.w3.org/2000/svg" viewBox="0 0 485.2 485.2"><style>.st0{fill:#1d2362}</style><g id="_x30_8"><path class="st0" d="M148.8 278.2c-8 0-15.9-3.2-21.8-9.3-2.1-2.2-4-4.8-5.4-7.5l-35.9-74.1c-1.6-3.5-2.4-6.5-2.7-9.5-1.8-12.6 4.9-25.2 16.7-30.9l83.7-40.6c3-1.5 6.5-1.4 9.4.2 2.9 1.6 4.9 4.4 5.4 7.7.2 1.1.5 2.1.9 3.1l47.7 98.3c.6 1.1 1.1 1.8 1.4 2.1 2.5 2.4 3.6 5.8 3.1 9.1-.5 3.4-2.7 6.3-5.7 7.7l-83.7 40.6c-4.2 2.1-8.7 3.1-13.1 3.1zm33.5-148.1l-73.4 35.6c-3.6 1.8-5.8 5.7-5.2 9.7.1 1.2.4 2.1.9 3.2l35.6 73.5c.4.7 1 1.7 1.8 2.4 2.8 2.9 7.2 3.7 10.9 2l73.4-35.6-44-90.8z"/><path class="st0" d="M67.2 285.3c-3.4 0-6.7-.6-10-1.7-7.7-2.7-13.8-8.1-17.3-15.4l-10-21.6c-7.2-14.8-.9-33 14.1-40.3l48.5-23c5.2-2.5 11.4-.2 13.8 4.9 2.5 5.2.2 11.4-4.9 13.8L53 224.9c-2.2 1.1-3.9 3-4.7 5.4s-.7 5 .4 7.2l10.1 21.6c1 2.1 2.9 3.8 5.3 4.6 2.4.8 5 .7 7.2-.4l48.5-23.6c5.2-2.5 11.4-.4 13.9 4.8s.4 11.4-4.8 13.9L80.3 282c-4.2 2.3-8.6 3.3-13.1 3.3zM255.5 241.8c-8 0-16-3.2-21.8-9.3-1.9-1.8-3.9-4.5-5.4-7.6l-47.8-98.6c-1.4-3-2.2-5.9-2.7-9-1.7-13.1 5-25.7 16.7-31.4L355.6 7.7c7.2-3.5 15.4-4 23-1.4 7.7 2.6 13.9 8.1 17.4 15.4l47.7 98.5c3.5 7.2 4 15.5 1.3 23.1-2.7 7.6-8.1 13.8-15.4 17.3l-161.1 78.1c-4.1 2.1-8.6 3.1-13 3.1zM368.8 25.5c-1.4 0-2.8.3-4 .9l-161.2 78.1c-3.7 1.8-5.7 5.7-5.2 9.9.1 1 .4 2.1.9 3l47.7 98.3c.6 1.1 1.1 1.8 1.4 2.1 3.2 3.3 7.6 4.1 11.3 2.3L420.8 142c2.3-1.1 4-3 4.8-5.4.8-2.4.7-5-.4-7.2l-47.7-98.5c-1.1-2.3-3-4-5.5-4.8-1.1-.5-2.2-.6-3.2-.6zm56.4 125.8z"/><path class="st0" d="M213.3 282.4c-16.6 0-33-5.3-46.8-15.7-2.9-2.2-4.4-5.7-4.1-9.3.4-3.6 2.6-6.8 5.8-8.3l68.3-33.1c4-2 8.9-1.1 12 2.1 2.9 3 7.3 3.8 11 2l14.4-7c3.7-1.8 8-1.2 11.2 1.4 3.1 2.6 4.5 6.8 3.4 10.8-6 21.7-21 39.7-41.2 49.4-10.8 5.1-22.4 7.7-34 7.7zm-17.5-23.6c13.8 4.5 28.9 3.6 42.5-2.9 7.1-3.4 13.4-8.3 18.4-14.1-5.9.2-11.7-1.3-16.8-4.3l-44.1 21.3z"/><path class="st0" d="M174.7 478.4c-.9 0-1.8-.1-2.8-.4-5.5-1.5-8.8-7.2-7.3-12.8L218 270.3c1.5-5.5 7.2-8.8 12.8-7.3 5.5 1.5 8.8 7.2 7.3 12.8l-53.4 194.9c-1.3 4.6-5.5 7.7-10 7.7z"/><path class="st0" d="M282 478.6c-4.6 0-8.8-3-10-7.6l-53.4-194.8c-1.5-5.5 1.7-11.3 7.3-12.8 5.5-1.5 11.3 1.7 12.8 7.3L292 465.5c1.5 5.5-1.7 11.3-7.3 12.8-.9.2-1.8.3-2.7.3zM228.3 478.7c-5.7 0-10.4-4.7-10.4-10.4V407c0-5.7 4.7-10.4 10.4-10.4s10.4 4.7 10.4 10.4v61.3c0 5.7-4.6 10.4-10.4 10.4z"/></g></svg>