<svg xmlns="http://www.w3.org/2000/svg" viewBox="0 0 100 92.1"><path d="M99.3 5.7v59.4c0 8.1-5.8 15-13.7 16.5l-57.4 9.3c-1.5 0-2.9-.7-3.8-1.8-.7-.9-1.1-2-1.1-3.2V74.8c0-.4.4-.8.8-.8h.1c2.6.4 5.3.4 7.9 0 .4-.1.8.2.9.7v3.6l35.4-17.6c2.4-1.2 5.3-.2 6.5 2.2.3.7.5 1.4.5 2.2 0 3.9 3.2 7 7.1 7h.6c3.7-.4 6.4-3.6 6.4-7.3V10.6H33v10.3c0 .4-.3.8-.8.8h-.1c-2.6-.4-5.3-.4-7.9 0-.4.1-.8-.2-.9-.7V5.7C23.3 3 25.5.9 28.2.9h66.2c2.7 0 4.8 2.1 4.9 4.8zM2.2 73.8c-1.9-2-1.9-5.1 0-7.1l9.1-9.1C5.9 48.3 9.1 36.4 18.4 31s21.2-2.2 26.6 7.1c4.4 7.6 3.2 17.3-3.1 23.5-6.2 6.2-15.9 7.5-23.5 3.1l-9.1 9.1c-2 1.9-5.1 1.9-7.1 0zm19.2-19.3a9.476 9.476 0 1 0 13.4-13.402A9.476 9.476 0 0 0 21.4 54.5zm56.9-35.2h-34c-2 0-3.7 1.7-3.7 3.7s1.7 3.7 3.7 3.7h34c2 0 3.7-1.7 3.7-3.7s-1.7-3.7-3.7-3.7zm0 14.4H54.9c-2 0-3.7 1.7-3.7 3.7s1.7 3.7 3.7 3.7h23.4c2 0 3.7-1.7 3.7-3.7s-1.7-3.7-3.7-3.7zm0 14.4H56.8c-2 0-3.7 1.7-3.7 3.7s1.7 3.7 3.7 3.7h21.5c2 0 3.7-1.7 3.7-3.7s-1.7-3.7-3.7-3.7z"/></svg>