<svg id="Semestertermine" xmlns="http://www.w3.org/2000/svg" viewBox="0 0 485.2 485.2"><style>.st0{fill:#1d2362}</style><g id="_x30_4"><path class="st0" d="M260 399.3H32.1c-16.4 0-29.8-13.4-29.8-29.8V137c0-16.4 13.4-29.8 29.8-29.8h392.4c16.4 0 29.8 13.4 29.8 29.8v57.7c0 5.2-4.2 9.4-9.4 9.4s-9.4-4.2-9.4-9.4V137c0-6.1-4.9-11-11-11H32.1c-6.1 0-11 4.9-11 11v232.4c0 6.1 4.9 11 11 11H260c5.2 0 9.4 4.2 9.4 9.4s-4.2 9.5-9.4 9.5z"/><path class="st0" d="M52.8 126c-5.2 0-9.4-4.2-9.4-9.4V72.8c0-5.2 4.2-9.4 9.4-9.4s9.4 4.2 9.4 9.4v43.8c0 5.2-4.2 9.4-9.4 9.4zM403.1 126c-5.2 0-9.4-4.2-9.4-9.4V72.8c0-5.2 4.2-9.4 9.4-9.4s9.4 4.2 9.4 9.4v43.8c0 5.2-4.2 9.4-9.4 9.4zM388.8 420.6c-23.1 0-45.2-8.4-62.4-23.8-19.9-17.8-31.3-43.3-31.3-69.9 0-51.7 42-93.7 93.7-93.7 23.1 0 45.3 8.5 62.4 23.8 19.9 17.7 31.3 43.2 31.3 69.9 0 51.7-42 93.7-93.7 93.7zm0-168.6c-41.3 0-74.9 33.6-74.9 74.9 0 21.3 9.1 41.7 25 55.9 13.7 12.3 31.4 19 49.8 19 41.3 0 74.9-33.6 74.9-74.9 0-21.3-9.1-41.7-25-55.9-13.7-12.2-31.4-19-49.8-19z"/><path class="st0" d="M388.8 339.5c-5.2 0-9.4-4.2-9.4-9.4v-54.9c0-5.2 4.2-9.4 9.4-9.4s9.4 4.2 9.4 9.4V330c0 5.2-4.2 9.5-9.4 9.5z"/><path class="st0" d="M435.8 339.5h-47c-5.2 0-9.4-4.2-9.4-9.4s4.2-9.4 9.4-9.4h47c5.2 0 9.4 4.2 9.4 9.4 0 5.1-4.2 9.4-9.4 9.4zM165.6 190.7h-36.5c-1.1 0-2-.9-2-2v-36.5c0-1.1.9-2 2-2h36.5c1.1 0 2 .9 2 2v36.5c0 1.1-.9 2-2 2zM326.7 190.7h-36.5c-1.1 0-2-.9-2-2v-36.5c0-1.1.9-2 2-2h36.5c1.1 0 2 .9 2 2v36.5c0 1.1-.9 2-2 2zM246.1 190.7h-36.5c-1.1 0-2-.9-2-2v-36.5c0-1.1.9-2 2-2h36.5c1.1 0 2 .9 2 2v36.5c0 1.1-.9 2-2 2zM85 272.3H48.5c-1.1 0-2-.9-2-2v-36.5c0-1.1.9-2 2-2H85c1.1 0 2 .9 2 2v36.5c0 1.1-.9 2-2 2zM165.6 272.3h-36.5c-1.1 0-2-.9-2-2v-36.5c0-1.1.9-2 2-2h36.5c1.1 0 2 .9 2 2v36.5c0 1.1-.9 2-2 2zM246.1 272.3h-36.5c-1.1 0-2-.9-2-2v-36.5c0-1.1.9-2 2-2h36.5c1.1 0 2 .9 2 2v36.5c0 1.1-.9 2-2 2zM85 353.9H48.5c-1.1 0-2-.9-2-2v-36.5c0-1.1.9-2 2-2H85c1.1 0 2 .9 2 2v36.5c0 1.1-.9 2-2 2zM165.6 353.9h-36.5c-1.1 0-2-.9-2-2v-36.5c0-1.1.9-2 2-2h36.5c1.1 0 2 .9 2 2v36.5c0 1.1-.9 2-2 2zM407.3 190.7h-36.5c-1.1 0-2-.9-2-2v-36.5c0-1.1.9-2 2-2h36.5c1.1 0 2 .9 2 2v36.5c0 1.1-.9 2-2 2z"/></g></svg>