<svg xmlns="http://www.w3.org/2000/svg" viewBox="0 0 489.4 489.4"><path d="M473.7 5.7H213.6c-8.7 0-15.7 7-15.7 15.7v110.5l11.3-13.2c5.4-6.3 12.5-10.2 20-11.8V37H458v204.5H229.2v-34.2l-7.1 8.2c-6.2 7.2-14.9 11.6-24.3 12.5v29.1c0 8.6 7 15.7 15.7 15.7H298l-42.9 194.9c-1.9 8.7 3.6 17.4 12.3 19.3 8.7 1.9 17.4-3.6 19.3-12.3l44.5-201.9H357l44.5 201.9c1.7 7.6 8.4 12.7 15.8 12.7 1.2 0 2.3-.1 3.5-.4 8.7-1.9 14.3-10.6 12.3-19.3l-42.9-194.9h83.5c8.6 0 15.7-7 15.7-15.7V21.3c0-8.6-7-15.6-15.7-15.6z"/><path d="M349.4 97.1c-1.2-3.1-4.7-4.6-7.8-3.4l-92.2 32.6c-8.5-6.6-20.7-5.4-27.7 2.8l-29.3 34.2-26-22.2c.2 1.8.6 3.6.6 5.5v48.3l14.4 12.4c8.6 7.3 21.4 6.2 28.5-2.2l34.8-40.7 28.1-16.4 74-43.3c2.5-1.6 3.7-4.8 2.6-7.6zM109.9 105.8H92.5c-13.3 0-25 6.5-32.4 16.3L6.7 171.2c-8.3 7.4-9.1 20.2-1.6 28.6l43.5 48.6c7.4 8.3 20.3 9 28.6 1.6 8.3-7.5 9-20.3 1.6-28.6l-30-33.5 42.6-38.1-24.8 33.7 24.3 27.1c13.4 15 12.2 38-2.8 51.5-10.2 9.2-24.2 11.3-36.3 7.1 0 0 .2 93.7.2 194 0 13.4 10.9 24.3 24.3 24.3s24.3-10.9 24.3-24.3V318.4h16.2v144.8c0 7-2 13.5-5.1 19.2 4.1 3.1 9.1 5.1 14.7 5.1 13.4 0 24.3-10.9 24.3-24.3V146.6c0-22.6-18.3-40.8-40.8-40.8zM79.6 91.2c6.5 3.4 13.8 5.5 21.6 5.5 7.9 0 15.1-2.1 21.7-5.5 15.2-7.9 25.7-23.6 25.7-41.9 0-26.1-21.2-47.3-47.3-47.3-26.2 0-47.4 21.2-47.4 47.3 0 18.3 10.5 34 25.7 41.9z"/></svg>