<?xml version="1.0" standalone="no"?>
<!DOCTYPE svg PUBLIC "-//W3C//DTD SVG 1.1//EN" "http://www.w3.org/Graphics/SVG/1.1/DTD/svg11.dtd" >
<svg xmlns="http://www.w3.org/2000/svg">
<metadata>
This is a custom SVG webfont generated by Font Squirrel.
Copyright   : Copyright Lucas de Groot 2003 All rights reserved Published by LucasFonts wwwLucasFontscom
Designer    : Lucas de Groot
Foundry     : Lucas de Groot
Foundry URL : httpwwwLucasFontscom
</metadata>
<defs>
<font id="webfontjvNx8pkG" horiz-adv-x="1060" >
<font-face units-per-em="2048" ascent="1638" descent="-410" />
<missing-glyph horiz-adv-x="438" />
<glyph unicode=" "  horiz-adv-x="438" />
<glyph unicode="&#x09;" horiz-adv-x="438" />
<glyph unicode="&#xa0;" horiz-adv-x="438" />
<glyph unicode="!" horiz-adv-x="634" d="M573 477h-491v903h491v-903zM573 0h-491v408h491v-408z" />
<glyph unicode="&#x22;" horiz-adv-x="1073" d="M963 928h-410v553h410v-553zM471 928h-410v553h410v-553z" />
<glyph unicode="#" horiz-adv-x="1167" d="M1126 743h-100l-10 -102h110v-326h-141l-29 -315h-389l29 315h-96l-29 -315h-389l29 315h-70v326h100l11 102h-111v326h141l29 311h389l-29 -311h97l28 311h389l-28 -311h69v-326zM637 743h-96l-11 -102h97z" />
<glyph unicode="$" horiz-adv-x="1024" d="M981 436q0 -154 -78 -265.5t-233 -160.5v-248h-314v238q-184 29 -352 152l150 311q188 -102 295 -103q49 0 49 46q0 31 -47.5 59.5t-114 59t-134 74.5t-114.5 129t-47 198q0 150 82 255t233 142v201h314v-197q162 -31 288 -123l-145 -305q-174 88 -258 88q-47 0 -47 -35 q0 -23 35 -46t88 -43.5t113.5 -56.5t113.5 -80t88 -120t35 -170z" />
<glyph unicode="%" horiz-adv-x="1570" d="M745 1051q0 -168 -81.5 -263.5t-296.5 -95.5q-119 0 -190 19.5t-105.5 69.5t-44 107.5t-9.5 162.5q0 180 80 273t299 93q115 0 186.5 -23.5t106.5 -77.5t45 -112.5t10 -152.5zM1405 1380l-913 -1380h-340l911 1380h342zM428 1057q0 98 -8 124.5t-39 26.5q-33 0 -42 -27.5 t-9 -123.5q0 -86 9 -115t35.5 -29t40 27t13.5 117zM1540 322q0 -168 -82 -263.5t-297 -95.5q-119 0 -189.5 19.5t-105.5 69.5t-44 107.5t-9 162.5q0 180 80 273t299 93q115 0 186.5 -23.5t106.5 -78t45 -112.5t10 -152zM1223 328q0 98 -8.5 124.5t-38.5 26.5 q-33 0 -42.5 -27.5t-9.5 -123.5q0 -86 9.5 -115t36 -29t40 27t13.5 117z" />
<glyph unicode="&#x26;" horiz-adv-x="1521" d="M1468 846q-74 -31 -112 -51q92 -172 92 -293q0 -231 -181.5 -385t-555.5 -154q-682 0 -682 459q0 106 55 187t145 116q-61 33 -102 107.5t-41 160.5q0 182 118 303t349 121q199 0 350 -80l-121 -325q-86 37 -184 37q-70 0 -70 -54q0 -51 95 -51h26v-401h-33 q-45 0 -69.5 -19.5t-24.5 -50.5q0 -113 221 -113q113 0 166.5 31t53.5 78q0 49 -43 113q-18 -10 -95 -58l-153 328q319 199 639 319z" />
<glyph unicode="'" horiz-adv-x="552" d="M492 928h-431v553h431v-553z" />
<glyph unicode="(" horiz-adv-x="737" d="M70 664q0 471 260 927l405 -69q-199 -446 -198 -865q0 -401 198 -835l-413 -76q-252 461 -252 918z" />
<glyph unicode=")" horiz-adv-x="737" d="M664 674q0 -471 -261 -928l-405 70q199 446 199 864q0 401 -199 836l414 75q252 -460 252 -917z" />
<glyph unicode="*" horiz-adv-x="970" d="M958 938l-157 -274l-183 143l31 -234h-325l32 234l-184 -143l-160 274l219 90l-219 86l160 277l184 -146l-32 236h325l-31 -236l183 146l157 -277l-217 -86z" />
<glyph unicode="+" horiz-adv-x="1126" d="M1036 444h-286v-315h-373v315h-287v349h287v313h373v-313h286v-349z" />
<glyph unicode="," horiz-adv-x="585" d="M594 356l-279 -698l-364 92l166 725z" />
<glyph unicode="-" horiz-adv-x="614" d="M563 395h-512v387h512v-387z" />
<glyph unicode="." horiz-adv-x="585" d="M539 0h-492v444h492v-444z" />
<glyph unicode="/" horiz-adv-x="962" d="M999 1638l-573 -1935h-457l574 1935h456z" />
<glyph unicode="0" horiz-adv-x="1228" d="M1212 668q0 -147 -29.5 -267t-96 -222.5t-190.5 -159t-298 -56.5q-152 0 -262.5 42t-171 104.5t-95 162t-44 188.5t-9.5 207.5t18.5 219t63.5 191.5t114 153.5t176.5 99.5t244.5 37q150 0 258 -41t169.5 -103.5t96.5 -160.5t45 -187t10 -208zM705 668q0 160 -19.5 231.5 t-71.5 71.5q-53 0 -71.5 -70t-18.5 -233.5t19.5 -233t71 -69.5t71 70.5t19.5 232.5z" />
<glyph unicode="1" horiz-adv-x="716" d="M666 0h-492v872l-125 -55l-55 414l260 100h412v-1331z" />
<glyph unicode="2" horiz-adv-x="980" d="M950 0h-923v373l229 250q168 182 168 258q0 80 -78 80q-68 0 -190 -76l-148 327q225 156 461 156t351.5 -107.5t115.5 -306.5q0 -254 -229 -452l-115 -99h358v-403z" />
<glyph unicode="3" horiz-adv-x="987" d="M973 408q0 -223 -152.5 -334t-392.5 -111q-244 0 -440 141l133 312q119 -70 221 -70q39 0 62.5 16.5t23.5 40.5q0 41 -38 60.5t-146 19.5h-64v363h49q117 0 159 18.5t42 59.5q0 57 -76 57q-84 0 -223 -80l-127 316q227 152 475 151q233 0 349 -101.5t116 -271.5 q0 -207 -149 -284q84 -29 131 -107.5t47 -195.5z" />
<glyph unicode="4" horiz-adv-x="1089" d="M1073 209h-78v-209h-491v209h-492v362l269 760h714v-717h78v-405zM504 614v318h-2l-90 -318h92z" />
<glyph unicode="5" horiz-adv-x="974" d="M963 436q0 -227 -149.5 -350t-391.5 -123q-143 0 -245.5 32t-199.5 107l123 320q121 -66 232 -66q94 0 94 68q0 43 -29.5 61.5t-124.5 18.5q-131 0 -227 -19l90 846h754l-27 -403h-370l-7 -60q268 12 373 -98.5t105 -333.5z" />
<glyph unicode="6" horiz-adv-x="1118" d="M1106 471q0 -250 -154.5 -379t-378.5 -129q-174 0 -285.5 40t-171 128t-81 200.5t-21.5 286.5q0 750 604 750q250 0 414 -92l-104 -336q-123 45 -281 45q-76 0 -111.5 -41t-35.5 -104v-2q92 63 215 63q391 0 391 -430zM618 434q0 57 -10 75.5t-39 18.5q-27 0 -65 -20 q0 -176 61 -176q53 0 53 102z" />
<glyph unicode="7" horiz-adv-x="894" d="M885 963l-299 -963h-535l324 918h-361v413h871v-368z" />
<glyph unicode="8" horiz-adv-x="1122" d="M643 354q0 72 -92 123q-72 -51 -72 -119q0 -57 84 -57q39 0 59.5 16.5t20.5 36.5zM1106 375q0 -190 -135 -301t-414 -111h-2q-295 0 -417 94.5t-122 270.5q0 203 154 331q-131 88 -131 308q0 186 132 293.5t394 107.5h2q279 0 397.5 -93t118.5 -263q0 -184 -131 -305 q154 -111 154 -332zM641 981q0 55 -82 55q-37 0 -57.5 -15t-20.5 -36q0 -66 90 -113q70 48 70 109z" />
<glyph unicode="9" horiz-adv-x="1118" d="M12 860q0 250 155 379t378 129q174 0 285.5 -40t171 -128t81 -200.5t21.5 -286.5q0 -156 -28.5 -283t-95.5 -235.5t-190.5 -170t-297.5 -61.5q-248 0 -424 96l104 336q131 -49 291 -49q78 0 116.5 41t38.5 105v2q-92 -63 -215 -64q-391 0 -391 430zM500 897 q0 -57 10 -75.5t39 -18.5q27 0 65 20q0 176 -61 176q-53 0 -53 -102z" />
<glyph unicode=":" horiz-adv-x="651" d="M580 0h-492v444h492v-444zM580 625h-492v444h492v-444z" />
<glyph unicode=";" horiz-adv-x="667" d="M580 625h-492v444h492v-444zM645 356l-278 -698l-365 92l166 725z" />
<glyph unicode="&#x37e;" horiz-adv-x="667" d="M580 625h-492v444h492v-444zM645 356l-278 -698l-365 92l166 725z" />
<glyph unicode="&#x3c;" horiz-adv-x="1126" d="M967 4l-875 420v377l875 422v-482l-406 -129l406 -125v-483z" />
<glyph unicode="=" horiz-adv-x="1126" d="M1028 686h-930v348h930v-348zM1028 199h-930v348h930v-348z" />
<glyph unicode="&#x3e;" horiz-adv-x="1126" d="M1034 424l-874 -420v481l405 127l-405 127v484l874 -422v-377z" />
<glyph unicode="?" horiz-adv-x="847" d="M831 1061q0 -96 -35.5 -172t-77.5 -116t-78 -98.5t-36 -125.5v-72h-467v70q0 121 26.5 205t58.5 115.5t58.5 64.5t26.5 63q0 25 -14 34t-51 9q-66 0 -158 -37l-64 338q207 78 404 78t302 -95t105 -261zM616 0h-491v408h491v-408z" />
<glyph unicode="@" horiz-adv-x="2048" d="M1980 848q0 -344 -181 -517t-488 -173h-277l-10 73q-133 -100 -236 -100q-117 0 -182 79t-65 241q0 170 36.5 311t122.5 237.5t209 96.5q47 0 90 -16.5t63.5 -31t70.5 -53.5l34 74h318l-88 -610q94 0 150.5 94t56.5 272q0 188 -114 267t-396 79q-315 0 -477 -191.5 t-162 -563.5q0 -221 97 -310.5t341 -89.5h395l-41 -278q-174 -37 -413 -37q-389 0 -576.5 157.5t-187.5 532.5q0 535 279.5 812.5t787.5 277.5q408 0 625.5 -165t217.5 -468zM1049 772q-18 12 -41 12q-27 0 -38.5 -18t-21.5 -72q-25 -131 -24 -188q0 -23 6 -31t28.5 -8 t49.5 20z" />
<glyph unicode="A" horiz-adv-x="1146" d="M1169 0h-501l-17 158h-190l-19 -158h-473l238 1380h731zM608 530l-49 431h-6l-49 -431h104z" />
<glyph unicode="B" horiz-adv-x="1142" d="M1141 449q0 -121 -47 -211.5t-130 -140.5t-180.5 -74.5t-210.5 -24.5q-88 0 -265 1t-261 1v1380q86 0 258 1t248 1q119 0 208 -16t167 -57t120 -120t42 -196q0 -184 -132 -262q76 -23 129.5 -104.5t53.5 -177.5zM639 946q0 39 -21.5 57.5t-89.5 18.5q-6 0 -14 -1t-12 -1 v-150h28q66 0 87.5 19.5t21.5 56.5zM647 446.5q0 38.5 -24.5 59t-94.5 20.5q-4 0 -12 -1t-14 -1v-164h33q70 0 91 24t21 62.5z" />
<glyph unicode="C" horiz-adv-x="897" d="M897 59q-164 -94 -358 -94q-274 0 -397.5 165t-123.5 556q0 354 139.5 541.5t407.5 187.5q186 0 326 -86l-90 -354q-70 37 -137 37q-47 0 -76 -21.5t-48.5 -94.5t-19.5 -206t21.5 -205.5t46 -89t61.5 -16.5q72 0 156 47z" />
<glyph unicode="D" horiz-adv-x="1249" d="M1229 696q0 -369 -170 -534.5t-543 -165.5q-236 0 -469 4v1380q332 4 520 4q182 0 296 -25.5t202 -99t126 -211t38 -352.5zM729 692q0 174 -31.5 250t-117.5 76q-33 0 -50 -2v-649q10 0 29 -1t23 -1q76 0 111.5 76.5t35.5 250.5z" />
<glyph unicode="E" horiz-adv-x="929" d="M895 0h-848v1380h842v-381h-354v-108h317v-377h-317v-131h360v-383z" />
<glyph unicode="F" horiz-adv-x="856" d="M844 991h-309v-129h268v-385h-268v-477h-488v1380h797v-389z" />
<glyph unicode="G" horiz-adv-x="1175" d="M1135 92q-111 -59 -257.5 -93t-267.5 -34q-334 0 -463 159t-129 570q0 358 148.5 539.5t472.5 181.5q260 0 475 -160l-135 -333q-156 96 -262 96q-104 0 -150.5 -69.5t-46.5 -250.5q0 -205 24.5 -269t86.5 -64q20 0 26 2v391h478v-666z" />
<glyph unicode="H" horiz-adv-x="1261" d="M1214 0h-491v504h-184v-504h-492v1380h492v-471h184v471h491v-1380z" />
<glyph unicode="I" horiz-adv-x="585" d="M539 0h-492v1380h492v-1380z" />
<glyph unicode="J" horiz-adv-x="727" d="M680 444q0 -217 -140.5 -340.5t-344.5 -123.5q-113 0 -187 18v379q55 -10 78 -10q53 0 77.5 19.5t24.5 72.5v921h492v-936z" />
<glyph unicode="K" horiz-adv-x="1177" d="M1233 0h-561l-135 463h-7v-463h-483v1380h483v-434h7l118 434h527l-244 -618z" />
<glyph unicode="L" horiz-adv-x="788" d="M780 0h-733v1380h492v-993h241v-387z" />
<glyph unicode="M" horiz-adv-x="1687" d="M1688 0h-474l-30 729h-2l-138 -729h-419l-138 729h-2l-32 -729h-453l104 1380h648l112 -565h2l107 565h610z" />
<glyph unicode="N" horiz-adv-x="1251" d="M1204 0h-504l-213 473v-473h-440v1380h518l203 -419v419h436v-1380z" />
<glyph unicode="O" horiz-adv-x="1306" d="M1288 696q0 -397 -166 -565t-465 -168h-16q-193 0 -319.5 50t-191 153.5t-88.5 223.5t-24 296q0 395 167 563t464 168h17q193 0 319.5 -51t191 -153.5t88 -222.5t23.5 -294zM776 692q0 193 -25.5 265.5t-93.5 72.5q-72 0 -99.5 -71.5t-27.5 -268.5q0 -188 26 -261t93 -73 q72 0 99.5 70.5t27.5 265.5z" />
<glyph unicode="P" horiz-adv-x="1140" d="M1155 915q0 -219 -141.5 -354t-435.5 -135h-39v-426h-492v1380q233 4 528 4q580 0 580 -469zM655 905.5q0 65.5 -16 91t-61 25.5q-25 0 -39 -2v-232h34q45 0 63.5 26t18.5 91.5z" />
<glyph unicode="Q" horiz-adv-x="1306" d="M1219 266l116 -116l-282 -283l-131 137q-104 -41 -265 -41h-16q-193 0 -319.5 50t-191 153.5t-88.5 223.5t-24 296q0 395 167 563t464 168h17q193 0 319.5 -51t191 -153.5t88 -222.5t23.5 -294q1 -274 -69 -430zM797 606v86q0 186 -31 262t-102.5 76t-102.5 -72.5 t-31 -267.5q0 -225 15.5 -284.5t77.5 -59.5h8l-90 92l213 213z" />
<glyph unicode="R" horiz-adv-x="1185" d="M1190 0h-551l-92 483h-21v-483h-479v1380q135 4 549 4q276 0 416.5 -110.5t140.5 -319.5q0 -246 -137 -354zM655 930q0 20 -3 33.5t-12 29t-30.5 22.5t-54.5 7q-16 0 -29 -2v-180h31q61 0 79.5 24.5t18.5 65.5z" />
<glyph unicode="S" horiz-adv-x="980" d="M987 440q0 -238 -148.5 -357.5t-363.5 -119.5q-131 0 -243.5 36t-245.5 118l157 346q186 -102 291 -103q51 0 51 48q0 29 -34.5 56.5t-88 49t-115 59t-114.5 83.5t-88 127t-35 184q0 215 139.5 331.5t360.5 116.5q229 0 440 -137l-155 -328q-172 84 -250 84 q-49 0 -49 -39q0 -25 36.5 -49t91 -46.5t118 -60.5t117.5 -85t91 -129.5t37 -184.5z" />
<glyph unicode="T" horiz-adv-x="884" d="M874 975h-186v-975h-491v975h-187v405h864v-405z" />
<glyph unicode="U" horiz-adv-x="1261" d="M1214 567q0 -594 -600 -594q-293 0 -430 128t-137 393v886h490v-860q0 -100 18 -136t78 -36q55 0 73.5 38t18.5 128v866h489v-813z" />
<glyph unicode="V" horiz-adv-x="1101" d="M1135 1380l-246 -1380h-688l-234 1380h490l84 -696l18 -221l19 221l73 696h484z" />
<glyph unicode="W" horiz-adv-x="1804" d="M1821 1380l-260 -1380h-623l-35 360l-24 230h-2l-19 -230l-35 -360h-641l-196 1380h491l58 -528l26 -309h2l35 309l43 528h533l57 -528l35 -309h2l28 309l41 528h484z" />
<glyph unicode="X" horiz-adv-x="1179" d="M1186 1380l-268 -649l290 -731h-553l-63 225l-33 137h-2l-27 -135l-53 -227h-514l275 723l-250 657h542l43 -213l19 -106h2l20 108l50 211h522z" />
<glyph unicode="Y" horiz-adv-x="1028" d="M1106 1380l-358 -938v-442h-455v442l-371 938h531l55 -254l20 -120l21 122l53 252h504z" />
<glyph unicode="Z" horiz-adv-x="985" d="M963 0h-940v338l354 641h-328v401h873v-340l-340 -637h381v-403z" />
<glyph unicode="[" horiz-adv-x="778" d="M723 -328h-600v1966h594v-346h-166v-1274h172v-346z" />
<glyph unicode="\" horiz-adv-x="962" d="M993 -297h-456l-574 1935h457z" />
<glyph unicode="]" horiz-adv-x="778" d="M55 1638h600v-1966h-594v346h166v1274h-172v346z" />
<glyph unicode="^" horiz-adv-x="1126" d="M1122 831h-491l-82 334l-78 -334h-465l217 613h680z" />
<glyph unicode="_" horiz-adv-x="1024" d="M1024 -399h-1024v325h1024v-325z" />
<glyph unicode="`" horiz-adv-x="819" d="M612 1182l-309 -60l-274 301l391 76z" />
<glyph unicode="a" d="M571 408h-43q-78 0 -77 -56q0 -20 12 -34.5t33 -14.5q33 0 75 47v58zM623 76q-123 -113 -289 -113q-145 0 -237.5 102.5t-92.5 276.5q0 162 135 259t381 97h51v19q0 55 -79 55q-158 0 -365 -65l-84 280q268 119 530 119q260 0 354.5 -87t94.5 -267v-752h-377z" />
<glyph unicode="b" d="M1049 557q0 -297 -107.5 -445.5t-265.5 -148.5q-70 0 -118 25.5t-122 87.5l-28 -76h-367v1407l451 74v-449q109 74 213 74q156 0 250 -130t94 -419zM586 547q0 100 -9.5 123.5t-37.5 23.5q-25 0 -47 -16v-289q18 -12 43 -12q31 0 41 26.5t10 143.5z" />
<glyph unicode="c" horiz-adv-x="729" d="M655 418l80 -381q-121 -74 -289 -74q-236 0 -335 133t-99 436q0 281 121 427.5t340 146.5q133 0 256 -64l-80 -380q-41 27 -78 26q-45 0 -66.5 -27.5t-21.5 -125.5q0 -88 21.5 -115t62.5 -27q25 0 88 25z" />
<glyph unicode="d" horiz-adv-x="1062" d="M1020 0h-377l-20 70q-139 -106 -267 -107q-156 0 -250 129t-94 420q0 299 107.5 446.5t265.5 147.5q106 0 184 -70v371l451 74v-1481zM569 391v289q-18 12 -43 12q-31 0 -41 -26.5t-10 -143.5q0 -100 9.5 -123.5t37.5 -23.5q24 0 47 16z" />
<glyph unicode="e" horiz-adv-x="1017" d="M1004 63q-227 -100 -506 -100q-145 0 -243.5 38t-150 117t-72 176t-20.5 236q0 287 123 431.5t402 144.5q199 0 328.5 -116t129.5 -390q0 -119 -12 -209h-524q0 -43 22.5 -62.5t73.5 -19.5q158 0 369 45zM569 682v14q0 84 -59 84t-59 -98h118z" />
<glyph unicode="f" horiz-adv-x="610" d="M639 1464l-27 -305q-20 4 -47 4q-51 0 -51 -49v-45h92v-346h-86v-723h-450v723h-70v346h70v57q0 176 91 265.5t283 89.5q109 -1 195 -17z" />
<glyph unicode="g" horiz-adv-x="1056" d="M1020 104q0 -92 -18.5 -165.5t-46 -120.5t-72.5 -82t-83 -51.5t-91.5 -25.5t-85 -11t-76.5 -2q-219 0 -346 22l-66 287h340q66 0 83 17.5t17 66.5v41q-98 -80 -219 -80q-154 0 -249 128t-95 404q0 285 107.5 429.5t265.5 144.5q70 0 117 -24.5t121 -86.5l24 74h373v-965z M569 418v262q-18 12 -43 12q-31 0 -41 -26.5t-10 -126.5q0 -90 9.5 -114t37.5 -24q24 1 47 17z" />
<glyph unicode="h" d="M1022 0h-451v633q0 59 -32 59q-31 0 -47 -10v-682h-451v1407l451 74v-449q109 74 243.5 74t210.5 -82t76 -276v-748z" />
<glyph unicode="i" horiz-adv-x="532" d="M492 1130h-451v351h451v-351zM492 0h-451v1069h451v-1069z" />
<glyph unicode="j" horiz-adv-x="538" d="M498 1130h-451v351h451v-351zM498 150q0 -166 -75 -281t-259 -223l-258 245q90 76 115.5 122t25.5 114v942h451v-919z" />
<glyph unicode="k" horiz-adv-x="1044" d="M1085 0h-497l-94 412h-2v-412h-451v1407l451 74v-776h2l84 364h462l-131 -434z" />
<glyph unicode="l" horiz-adv-x="532" d="M492 0h-451v1407l451 74v-1481z" />
<glyph unicode="m" horiz-adv-x="1587" d="M1548 0h-450v633q0 59 -33 59q-31 0 -47 -10v-682h-447v633q0 59 -32 59q-31 0 -47 -10v-682h-451v1069h377l20 -70q139 106 297 107q160 0 230 -107q139 106 297 107q135 0 210.5 -82t75.5 -276v-748z" />
<glyph unicode="n" d="M1022 0h-451v633q0 59 -32 59q-31 0 -47 -10v-682h-451v1069h377l20 -70q139 106 297 107q135 0 211 -82t76 -276v-748z" />
<glyph unicode="o" horiz-adv-x="1048" d="M1036 539q0 -276 -128 -426t-384 -150h-6q-127 0 -215 24.5t-156.5 86t-101.5 175t-33 281.5q0 276 128 426t384 150h6q127 0 215.5 -24.5t157 -86t101 -175t32.5 -281.5zM580 535q0 88 -11.5 125.5t-44.5 37.5q-31 0 -43 -36.5t-12 -126.5q0 -88 11.5 -126t43.5 -38 q31 0 43.5 37t12.5 127z" />
<glyph unicode="p" horiz-adv-x="1056" d="M1049 557q0 -299 -107.5 -446.5t-265.5 -147.5q-111 0 -184 70v-330l-451 -57v1423h377l20 -70q139 106 267 107q156 0 250 -129t94 -420zM586 547q0 100 -9.5 123.5t-37.5 23.5q-25 0 -47 -16v-289q18 -12 43 -12q31 0 41 26.5t10 143.5z" />
<glyph unicode="q" horiz-adv-x="1056" d="M356 -37q-156 0 -250 129t-94 420q0 299 107.5 446.5t265.5 147.5q70 0 117 -24.5t121 -86.5l24 74h373v-1366l-451 -57v387q-109 -70 -213 -70zM526 692q-31 0 -41 -26.5t-10 -143.5q0 -100 9.5 -123.5t37.5 -23.5q25 0 47 16v289q-18 12 -43 12z" />
<glyph unicode="r" horiz-adv-x="710" d="M696 625h-82q-66 0 -122 -23v-602h-451v1069h352l37 -104q80 86 120 113.5t103 27.5h43v-481z" />
<glyph unicode="s" horiz-adv-x="833" d="M829 356q0 -182 -122.5 -287.5t-303.5 -105.5q-123 0 -211 25.5t-192 85.5l125 311q137 -72 213 -72q33 0 33 27q0 16 -113 49q-123 35 -184.5 126t-61.5 216q0 170 109.5 272.5t310.5 102.5q193 0 367 -96l-117 -291q-139 57 -203 57q-31 0 -30 -24q0 -20 108 -47 q272 -70 272 -349z" />
<glyph unicode="t" horiz-adv-x="669" d="M653 6q-141 -43 -276 -43q-307 0 -307 354v406h-70v346h70v254l450 66v-320h133v-346h-133v-332q0 -16 2 -23.5t12.5 -14.5t30.5 -7q27 0 68 8z" />
<glyph unicode="u" d="M39 1069h450v-633q0 -59 33 -59q31 0 47 10v682h451v-1069h-377l-20 70q-139 -106 -297 -107q-135 0 -211 82t-76 277v747z" />
<glyph unicode="v" d="M1090 1069l-230 -1069h-653l-236 1069h494l63 -516l19 -188h2l12 182l55 522h474z" />
<glyph unicode="w" horiz-adv-x="1630" d="M1642 1069l-206 -1069h-578l-65 338h-2l-64 -338h-528l-211 1069h501l41 -563h2l115 563h361l110 -563h2l45 563h477z" />
<glyph unicode="x" horiz-adv-x="1081" d="M1112 0h-516l-66 324h-2l-63 -324h-494l181 582l-148 487h494l63 -293h2l49 293h465l-143 -473z" />
<glyph unicode="y" d="M1090 1069l-156 -723q-63 -291 -239.5 -448.5t-465.5 -251.5l-168 319q102 27 168 92l-262 1012h498l41 -293l43 -354h2l35 362l30 285h474z" />
<glyph unicode="z" horiz-adv-x="802" d="M784 0h-770v225l219 477h-206v367h751v-223l-217 -475h223v-371z" />
<glyph unicode="{" horiz-adv-x="819" d="M158 387q0 70 -23.5 90.5t-111.5 20.5v336q84 0 109.5 20t25.5 84v162q0 61 4 111.5t15 108.5t30.5 101t50.5 88t74 71t102.5 47.5t135 20.5t171.5 -12v-344q-106 4 -130.5 -27.5t-24.5 -172.5v-93q0 -70 -4 -113.5t-18.5 -95t-49.5 -82t-88 -42.5q102 -43 131 -123 t29 -217v-72q0 -164 24.5 -202t126.5 -34v-344q-88 -14 -160.5 -14t-128 11.5t-99.5 35t-73.5 50t-52 65.5t-35 75.5t-19.5 84t-9 85t-2 85.5v235z" />
<glyph unicode="|" horiz-adv-x="731" d="M580 -328h-428v1966h428v-1966z" />
<glyph unicode="}" horiz-adv-x="819" d="M662 944q0 -70 23.5 -90t111.5 -20v-336q-84 0 -109.5 -20.5t-25.5 -84.5v-182q0 -61 -4.5 -111.5t-15.5 -109t-30.5 -101.5t-50.5 -88t-74 -70.5t-102 -47t-135 -20.5t-172 11v344q104 -2 129.5 33t25.5 178v103q0 70 4.5 113.5t18.5 95t49 82t88 43.5 q-102 43 -131 122.5t-29 217.5v61q0 115 -11 160t-38.5 57t-101.5 8v344q88 14 160.5 14.5t128 -11t99.5 -35t73.5 -50t52 -65.5t35 -76t19.5 -84t9.5 -85t2.5 -85v-215z" />
<glyph unicode="~" horiz-adv-x="1126" d="M1100 1450q12 -154 -18.5 -274.5t-89 -187t-122 -100.5t-127.5 -34q-70 0 -122 19.5t-80.5 46t-49 53t-41 46t-42.5 19.5q-25 0 -40.5 -31.5t-27.5 -125.5h-295q-12 154 18.5 274.5t89 187t122 100.5t126.5 34q70 0 122 -19.5t81 -46.5t49.5 -53.5t41 -46t42.5 -19.5 q25 0 40.5 32t27.5 126h295z" />
<glyph unicode="&#xa1;" horiz-adv-x="634" d="M553 817h-492v408h492v-408zM553 -156h-492v904h492v-904z" />
<glyph unicode="&#xa2;" horiz-adv-x="860" d="M813 266q-63 -41 -154 -57v-135h-313v133q-150 31 -214 145.5t-64 349.5q0 225 76.5 331t201.5 149v149h313v-139q109 -23 152 -57l-100 -324q-35 27 -103 27q-31 0 -46 -6.5t-26.5 -37t-11.5 -94.5q0 -82 20.5 -105.5t61.5 -23.5q72 0 113 25z" />
<glyph unicode="&#xa3;" horiz-adv-x="1024" d="M981 0h-954v264l88 72v166h-74v336h74v61q0 219 123.5 344t341.5 125q285 0 438 -141l-146 -289q-96 55 -204 55q-41 0 -54.5 -14t-13.5 -49v-92h180v-336h-180v-115h381v-387z" />
<glyph unicode="&#xa4;" horiz-adv-x="1126" d="M152 289q-100 104 -101 362q0 238 101 348l-125 199l393 150l80 -189q18 2 61 2h4q45 0 66 -2l80 189l379 -146l-115 -180q100 -129 100 -363q0 -229 -100 -348l125 -198l-393 -150l-80 189q-18 -2 -62 -2h-4q-47 0 -65 2l-80 -189l-379 146zM625 657.5 q0 135.5 -62 135.5q-59 0 -59 -138q0 -74 13 -103.5t46 -29.5q62 0 62 135.5z" />
<glyph unicode="&#xa5;" horiz-adv-x="1126" d="M1102 1331l-246 -618h186v-277h-258v-80h258v-276h-258v-80h-432v80h-252v276h252v80h-252v277h187l-264 618h489l39 -190l27 -158l30 168l35 180h459z" />
<glyph unicode="&#xa6;" horiz-adv-x="620" d="M547 813h-451v881h451v-881zM547 -354h-451v901h451v-901z" />
<glyph unicode="&#xa7;" horiz-adv-x="1126" d="M1075 637q0 -90 -34.5 -170t-92.5 -127q53 -59 53 -186q0 -238 -148 -358t-364 -120q-217 0 -407 127l158 332q133 -61 209 -61q51 0 51 47q0 31 -35 56.5t-87 44t-112.5 51t-113 73.5t-87 117t-34.5 174q0 100 33.5 165.5t109.5 119.5q-47 68 -47 168q0 211 127 329.5 t338 118.5q203 0 375 -94l-154 -326q-78 39 -151 39q-49 0 -50 -39q0 -31 73 -71.5t159 -81.5t158.5 -128t72.5 -200zM584 549q47 29 47 69q0 23 -13.5 37.5t-50.5 30.5t-45 21q-47 -27 -47 -68q0 -23 14.5 -37t50.5 -32z" />
<glyph unicode="&#xa8;" horiz-adv-x="819" d="M791 1143h-332v301h332v-301zM360 1143h-331v301h331v-301z" />
<glyph unicode="&#xa9;" horiz-adv-x="1708" d="M1657 690q0 -352 -230.5 -593.5t-582.5 -241.5t-582.5 241.5t-230.5 593.5t230.5 594t582.5 242t582.5 -242t230.5 -594zM1395 690q0 252 -155 426t-396.5 174t-396 -173t-154.5 -427q0 -252 154.5 -426t396 -174t396.5 173t155 427zM1137 229q-115 -66 -293 -65 q-233 0 -328.5 124t-95.5 410q0 526 448 527q152 0 267 -60l-101 -334q-45 16 -78 17q-43 0 -61 -28.5t-18 -123.5q0 -86 19 -114.5t58 -28.5q41 0 88 14z" />
<glyph unicode="&#xaa;" horiz-adv-x="856" d="M803 326h-715v266h715v-266zM471 952h-35q-61 0 -61 -41q0 -37 37 -37q25 0 59 35v43zM526 680l-16 47q-100 -72 -217 -72q-109 0 -174.5 65.5t-65.5 180.5q0 106 97.5 169t281.5 63h39v16q0 39 -59 39q-121 0 -267 -47l-63 182q203 76 391 76q195 0 262.5 -56.5 t67.5 -175.5v-487h-277z" />
<glyph unicode="&#xab;" horiz-adv-x="1269" d="M1200 190l-364 -88l-263 516l267 517l360 -91l-166 -421zM698 150l-364 -87l-303 555l307 556l360 -91l-204 -460z" />
<glyph unicode="&#xac;" horiz-adv-x="1126" d="M1018 129h-361v315h-567v349h928v-664z" />
<glyph unicode="&#xad;" horiz-adv-x="614" d="M563 395h-512v387h512v-387z" />
<glyph unicode="&#xae;" horiz-adv-x="1380" d="M1380 983q0 -276 -207.5 -481t-482.5 -205q-285 0 -487.5 199.5t-202.5 486.5q0 279 207 482.5t483 203.5q285 0 487.5 -199.5t202.5 -486.5zM1161 981q0 199 -139 339t-333.5 140t-332 -138t-137.5 -337t139.5 -339t334 -140t331.5 138t137 337zM715 643l-27 178h-33 v-178h-284v688h374q137 0 203 -64.5t66 -179.5q0 -125 -68 -192l74 -252h-305zM668 1130h-13v-92h13q18 0 24 9.5t6 35.5q1 47 -30 47z" />
<glyph unicode="&#xaf;" horiz-adv-x="819" d="M791 1143h-762v301h762v-301z" />
<glyph unicode="&#x2c9;" horiz-adv-x="819" d="M791 1143h-762v301h762v-301z" />
<glyph unicode="&#xb0;" horiz-adv-x="950" d="M842 1249q0 -145 -108.5 -250.5t-258.5 -105.5q-156 0 -261 102.5t-105 253.5q0 145 108.5 251t257.5 106q156 0 261.5 -102.5t105.5 -254.5zM547 1249q0 29 -21.5 50.5t-50.5 21.5t-50.5 -21.5t-21.5 -50t21.5 -50t50.5 -21.5t50.5 20t21.5 51z" />
<glyph unicode="&#xb1;" horiz-adv-x="1126" d="M1036 723h-297v-303h-352v303h-297v311h297v297h352v-297h297v-311zM1036 0h-946v348h946v-348z" />
<glyph unicode="&#xb2;" horiz-adv-x="819" d="M82 1329q131 82 317 82q299 0 299 -231q0 -51 -24.5 -101.5t-65.5 -79.5l-45 -30h154v-277h-627v266l49 41q72 61 90.5 81t18.5 38q0 23 -27 23q-33 0 -86 -25z" />
<glyph unicode="&#xb3;" horiz-adv-x="819" d="M344 672q-170 0 -287 61l68 172q94 -37 168 -37q57 0 57 33q0 16 -12 25.5t-51 14.5t-111 3v191q176 -4 176 43q0 33 -51 32q-86 0 -172 -45l-51 181q141 63 311 63q160 0 241 -53t81 -142q0 -111 -107 -149q127 -33 127 -160q0 -119 -108.5 -176t-278.5 -57z" />
<glyph unicode="&#xb4;" horiz-adv-x="819" d="M791 1423l-275 -301l-309 60l192 317z" />
<glyph unicode="&#xb5;" horiz-adv-x="1126" d="M1071 29q-139 -66 -291 -66q-94 0 -132 21.5t-46 68.5q-29 -31 -80 -60.5t-84 -29.5q-35 0 -39 29l-59 -303h-451l271 1380h450l-123 -633q-12 -59 19 -59q10 0 53 18l131 674h451l-129 -661q-10 -61 -3 -80t33 -19q41 0 84 17z" />
<glyph unicode="&#x3bc;" horiz-adv-x="1126" d="M1071 29q-139 -66 -291 -66q-94 0 -132 21.5t-46 68.5q-29 -31 -80 -60.5t-84 -29.5q-35 0 -39 29l-59 -303h-451l271 1380h450l-123 -633q-12 -59 19 -59q10 0 53 18l131 674h451l-129 -661q-10 -61 -3 -80t33 -19q41 0 84 17z" />
<glyph unicode="&#xb6;" horiz-adv-x="1433" d="M1405 1188h-102v-1505h-390v1505h-90v-1122q0 -209 -100 -310.5t-272 -101.5q-92 0 -230 20v301q143 -20 178 0.5t35 122.5v498q-180 0 -298 125t-118 313q0 84 27 163t82 147.5t153.5 110.5t229.5 42h895v-309z" />
<glyph unicode="&#xb7;" horiz-adv-x="573" d="M526 383h-471v471h471v-471z" />
<glyph unicode="&#x22c5;" horiz-adv-x="573" d="M526 383h-471v471h471v-471z" />
<glyph unicode="&#x2219;" horiz-adv-x="573" d="M526 383h-471v471h471v-471z" />
<glyph unicode="&#xb8;" horiz-adv-x="559" d="M524 -74l-166 -254h-276l82 254h360z" />
<glyph unicode="&#xb9;" horiz-adv-x="819" d="M215 692v393l-94 -12l-60 260l172 47h388v-688h-406z" />
<glyph unicode="&#xba;" horiz-adv-x="862" d="M776 326h-688v266h688v-266zM823 1032q0 -373 -393 -373h-6q-197 0 -290 76t-93 291q0 373 389 373h4q201 0 295 -78t94 -289zM475 1030q0 57 -8 81t-35 24q-25 0 -33 -24t-8 -83q0 -57 8.5 -79.5t33 -22.5t33.5 22.5t9 81.5z" />
<glyph unicode="&#xbb;" horiz-adv-x="1269" d="M70 1047l364 88l262 -517l-266 -516l-360 91l166 421zM571 1087l365 87l303 -556l-307 -555l-361 91l205 460z" />
<glyph unicode="&#xbc;" horiz-adv-x="1570" d="M174 692v393l-94 -12l-60 260l175 47h385v-688h-406zM152 0l911 1380h342l-913 -1380h-340zM1495 53v-53h-356v53h-342v234l161 401h537v-369h59v-266h-59zM1139 494l-66 -179h66v179z" />
<glyph unicode="&#xbd;" horiz-adv-x="1570" d="M174 692v393l-94 -12l-60 260l175 47h385v-688h-406zM152 0l911 1380h342l-913 -1380h-340zM918 637q131 82 317 82q299 0 299 -232q0 -51 -24.5 -101t-65.5 -79l-45 -31h153v-276h-626v266l49 41q72 61 90 81t18 38q0 23 -26 23q-33 0 -86 -25z" />
<glyph unicode="&#xbe;" horiz-adv-x="1570" d="M297 672q-170 0 -287 61l68 172q94 -37 168 -37q57 0 57 33q0 16 -12 25.5t-51 14.5t-111 3v191q176 -4 176 43q0 33 -51 32q-86 0 -172 -45l-51 181q141 63 311 63q160 0 241 -53t81 -142q0 -111 -107 -149q127 -33 127 -160q0 -119 -108.5 -176t-278.5 -57zM1495 53 v-53h-356v53h-342v234l161 401h537v-369h59v-266h-59zM1139 494l-66 -179h66v179zM152 0l911 1380h342l-913 -1380h-340z" />
<glyph unicode="&#xbf;" horiz-adv-x="847" d="M16 164q0 96 36 172t78 116t78 98t36 126v72h467v-70q0 -121 -27 -205t-58.5 -115.5t-58 -64.5t-26.5 -64q0 -25 14 -34t51 -9q66 0 158 37l63 -338q-207 -78 -403.5 -78t-302 95.5t-105.5 261.5zM231 1225h492v-408h-492v408z" />
<glyph unicode="&#xc0;" horiz-adv-x="1146" d="M1169 0h-501l-17 158h-190l-19 -158h-473l238 1380h731zM608 530l-49 431h-6l-49 -431h104zM737 1454h-299l-309 287h438z" />
<glyph unicode="&#xc1;" horiz-adv-x="1146" d="M1169 0h-501l-17 158h-190l-19 -158h-473l238 1380h731zM608 530l-49 431h-6l-49 -431h104zM385 1454l170 287h438l-309 -287h-299z" />
<glyph unicode="&#xc2;" horiz-adv-x="1146" d="M1169 0h-501l-17 158h-190l-19 -158h-473l238 1380h731zM608 530l-49 431h-6l-49 -431h104zM555 1497l-256 -63l-74 184l330 143l330 -143l-74 -184z" />
<glyph unicode="&#xc3;" horiz-adv-x="1146" d="M1169 0h-501l-17 158h-190l-19 -158h-473l238 1380h731zM608 530l-49 431h-6l-49 -431h104zM682 1434q-88 0 -156.5 35.5t-81.5 35.5q-43 0 -43 -51h-204q-23 131 33.5 219t201.5 88q88 0 156.5 -35.5t81.5 -35.5q43 0 43 51h205q23 -131 -34 -219t-202 -88z" />
<glyph unicode="&#xc4;" horiz-adv-x="1146" d="M1169 0h-501l-17 158h-190l-19 -158h-473l238 1380h731zM608 530l-49 431h-6l-49 -431h104zM500 1741v-287h-324v287h324zM938 1741v-287h-324v287h324z" />
<glyph unicode="&#xc5;" horiz-adv-x="1146" d="M1169 0h-501l-17 158h-190l-19 -158h-473l238 1380h731zM608 530l-49 431h-6l-49 -431h104zM873 1565q0 -207 -307 -207q-154 0 -227 43t-73 162q0 98 76 152.5t228 54.5q154 0 228.5 -45t74.5 -160zM615 1565q0 25 -9.5 36t-37.5 11q-27 0 -35 -11t-8 -38q0 -45 43 -45 q27 0 37 10t10 37z" />
<glyph unicode="&#xc6;" horiz-adv-x="1486" d="M614 0v158h-186l-37 -158h-473l391 1380h1137v-381h-354v-108h317v-377h-317v-131h360v-383h-838zM614 530v431h-6l-96 -431h102z" />
<glyph unicode="&#xc7;" horiz-adv-x="897" d="M897 59q-164 -94 -358 -94q-274 0 -397.5 165t-123.5 556q0 354 139.5 541.5t407.5 187.5q186 0 326 -86l-90 -354q-70 37 -137 37q-47 0 -76 -21.5t-48.5 -94.5t-19.5 -206t21.5 -205.5t46 -89t61.5 -16.5q72 0 156 47zM667 -74l-166 -254h-276l82 254h360z" />
<glyph unicode="&#xc8;" horiz-adv-x="929" d="M895 0h-848v1380h842v-381h-354v-108h317v-377h-317v-131h360v-383zM666 1454h-299l-310 287h439z" />
<glyph unicode="&#xc9;" horiz-adv-x="929" d="M895 0h-848v1380h842v-381h-354v-108h317v-377h-317v-131h360v-383zM264 1454l170 287h438l-309 -287h-299z" />
<glyph unicode="&#xca;" horiz-adv-x="929" d="M895 0h-848v1380h842v-381h-354v-108h317v-377h-317v-131h360v-383zM467 1497l-256 -63l-74 184l330 143l330 -143l-74 -184z" />
<glyph unicode="&#xcb;" horiz-adv-x="929" d="M895 0h-848v1380h842v-381h-354v-108h317v-377h-317v-131h360v-383zM403 1741v-287h-323v287h323zM842 1741v-287h-324v287h324z" />
<glyph unicode="&#xcc;" horiz-adv-x="585" d="M539 0h-492v1380h492v-1380zM449 1454h-299l-310 287h439z" />
<glyph unicode="&#xcd;" horiz-adv-x="585" d="M539 0h-492v1380h492v-1380zM139 1454l170 287h439l-310 -287h-299z" />
<glyph unicode="&#xce;" horiz-adv-x="585" d="M539 0h-492v1380h492v-1380zM293 1497l-256 -63l-74 184l330 143l330 -143l-74 -184z" />
<glyph unicode="&#xcf;" horiz-adv-x="585" d="M539 0h-492v1380h492v-1380zM229 1741v-287h-323v287h323zM668 1741v-287h-324v287h324z" />
<glyph unicode="&#xd0;" horiz-adv-x="1269" d="M68 514h-68v377h68v489q332 4 520 4q182 0 295.5 -25.5t202 -99t126 -211t37.5 -352.5q0 -369 -170 -534.5t-542 -165.5q-236 0 -469 4v514zM647 514h-96v-147q18 -2 51 -2q76 0 112 76.5t36 250.5t-32 250t-118 76q-33 0 -49 -2v-125h96v-377z" />
<glyph unicode="&#xd1;" horiz-adv-x="1251" d="M1204 0h-504l-213 473v-473h-440v1380h518l203 -419v419h436v-1380zM739 1434q-88 0 -156.5 35.5t-80.5 35.5q-43 0 -43 -51h-205q-23 131 33.5 219t201.5 88q88 0 157 -35.5t81 -35.5q43 0 43 51h205q23 -131 -34 -219t-202 -88z" />
<glyph unicode="&#xd2;" horiz-adv-x="1306" d="M1288 696q0 -397 -166 -565t-465 -168h-16q-193 0 -319.5 50t-191 153.5t-88.5 223.5t-24 296q0 395 167 563t464 168h17q193 0 319.5 -51t191 -153.5t88 -222.5t23.5 -294zM776 692q0 193 -25.5 265.5t-93.5 72.5q-72 0 -99.5 -71.5t-27.5 -268.5q0 -188 26 -261t93 -73 q72 0 99.5 70.5t27.5 265.5zM821 1454h-299l-309 287h438z" />
<glyph unicode="&#xd3;" horiz-adv-x="1306" d="M1288 696q0 -397 -166 -565t-465 -168h-16q-193 0 -319.5 50t-191 153.5t-88.5 223.5t-24 296q0 395 167 563t464 168h17q193 0 319.5 -51t191 -153.5t88 -222.5t23.5 -294zM776 692q0 193 -25.5 265.5t-93.5 72.5q-72 0 -99.5 -71.5t-27.5 -268.5q0 -188 26 -261t93 -73 q72 0 99.5 70.5t27.5 265.5zM485 1454l170 287h439l-310 -287h-299z" />
<glyph unicode="&#xd4;" horiz-adv-x="1306" d="M1288 696q0 -397 -166 -565t-465 -168h-16q-193 0 -319.5 50t-191 153.5t-88.5 223.5t-24 296q0 395 167 563t464 168h17q193 0 319.5 -51t191 -153.5t88 -222.5t23.5 -294zM776 692q0 193 -25.5 265.5t-93.5 72.5q-72 0 -99.5 -71.5t-27.5 -268.5q0 -188 26 -261t93 -73 q72 0 99.5 70.5t27.5 265.5zM655 1497l-256 -63l-73 184l329 143l330 -143l-74 -184z" />
<glyph unicode="&#xd5;" horiz-adv-x="1306" d="M1288 696q0 -397 -166 -565t-465 -168h-16q-193 0 -319.5 50t-191 153.5t-88.5 223.5t-24 296q0 395 167 563t464 168h17q193 0 319.5 -51t191 -153.5t88 -222.5t23.5 -294zM776 692q0 193 -25.5 265.5t-93.5 72.5q-72 0 -99.5 -71.5t-27.5 -268.5q0 -188 26 -261t93 -73 q72 0 99.5 70.5t27.5 265.5zM780 1434q-88 0 -156.5 35.5t-80.5 35.5q-43 0 -43 -51h-205q-23 131 33.5 219t201.5 88q88 0 157 -35.5t81 -35.5q43 0 43 51h205q23 -131 -34 -219t-202 -88z" />
<glyph unicode="&#xd6;" horiz-adv-x="1306" d="M1288 696q0 -397 -166 -565t-465 -168h-16q-193 0 -319.5 50t-191 153.5t-88.5 223.5t-24 296q0 395 167 563t464 168h17q193 0 319.5 -51t191 -153.5t88 -222.5t23.5 -294zM776 692q0 193 -25.5 265.5t-93.5 72.5q-72 0 -99.5 -71.5t-27.5 -268.5q0 -188 26 -261t93 -73 q72 0 99.5 70.5t27.5 265.5zM600 1741v-287h-324v287h324zM1038 1741v-287h-323v287h323z" />
<glyph unicode="&#xd7;" horiz-adv-x="1126" d="M1049 381l-244 -244l-246 246l-246 -246l-235 236l246 245l-246 246l244 244l245 -246l246 246l236 -236l-246 -245z" />
<glyph unicode="&#xd8;" horiz-adv-x="1392" d="M1096 1346q160 -80 219 -239t59 -411q0 -397 -177 -565t-497 -168h-16q-59 0 -104 4l-95 -250h-307l119 318q-152 78 -215.5 230.5t-63.5 420.5q0 395 178.5 563t495.5 168h17q59 0 104 -4l94 250h307zM895 854l-182 -506h4q178 0 178 371v135zM500 535l182 501h-16 q-72 0 -120 -86t-48 -272q0 -120 2 -143z" />
<glyph unicode="&#xd9;" horiz-adv-x="1261" d="M1214 567q0 -594 -600 -594q-293 0 -430 128t-137 393v886h490v-860q0 -100 18 -136t78 -36q55 0 73.5 38t18.5 128v866h489v-813zM780 1454h-299l-309 287h438z" />
<glyph unicode="&#xda;" horiz-adv-x="1261" d="M1214 567q0 -594 -600 -594q-293 0 -430 128t-137 393v886h490v-860q0 -100 18 -136t78 -36q55 0 73.5 38t18.5 128v866h489v-813zM471 1454l170 287h438l-309 -287h-299z" />
<glyph unicode="&#xdb;" horiz-adv-x="1261" d="M1214 567q0 -594 -600 -594q-293 0 -430 128t-137 393v886h490v-860q0 -100 18 -136t78 -36q55 0 73.5 38t18.5 128v866h489v-813zM633 1497l-256 -63l-74 184l330 143l330 -143l-74 -184z" />
<glyph unicode="&#xdc;" horiz-adv-x="1261" d="M1214 567q0 -594 -600 -594q-293 0 -430 128t-137 393v886h490v-860q0 -100 18 -136t78 -36q55 0 73.5 38t18.5 128v866h489v-813zM575 1741v-287h-323v287h323zM1014 1741v-287h-324v287h324z" />
<glyph unicode="&#xdd;" horiz-adv-x="1028" d="M1106 1380l-358 -938v-442h-455v442l-371 938h531l55 -254l20 -120l21 122l53 252h504zM354 1454l170 287h439l-310 -287h-299z" />
<glyph unicode="&#xde;" horiz-adv-x="1140" d="M539 1180h36q580 0 580 -469q0 -219 -141.5 -354.5t-435.5 -135.5h-39v-221h-492v1380h492v-200zM655 700.5q0 65.5 -16 91t-61 25.5q-25 0 -39 -2v-231h34q45 0 63.5 25.5t18.5 91z" />
<glyph unicode="&#xdf;" horiz-adv-x="1175" d="M1176 350q0 -190 -115 -287.5t-299 -97.5q-145 0 -244 43l51 336q66 -27 109 -27q33 0 33 25t-29 55.5t-62.5 61t-62.5 102.5t-29 168q0 76 27 145.5t53.5 116.5t26.5 70q0 63 -66 63q-78 0 -77 -102v-1022h-451v1004q0 477 532 477q524 0 525 -398q0 -72 -19.5 -130 t-43 -86.5t-43 -60.5t-19.5 -56q0 -29 31.5 -66t69.5 -74t70 -106.5t32 -153.5z" />
<glyph unicode="&#xe0;" d="M571 408h-43q-78 0 -77 -56q0 -20 12 -34.5t33 -14.5q33 0 75 47v58zM623 76q-123 -113 -289 -113q-145 0 -237.5 102.5t-92.5 276.5q0 162 135 259t381 97h51v19q0 55 -79 55q-158 0 -365 -65l-84 280q268 119 530 119q260 0 354.5 -87t94.5 -267v-752h-377zM718 1182 l-309 -60l-274 301l391 76z" />
<glyph unicode="&#xe1;" d="M571 408h-43q-78 0 -77 -56q0 -20 12 -34.5t33 -14.5q33 0 75 47v58zM623 76q-123 -113 -289 -113q-145 0 -237.5 102.5t-92.5 276.5q0 162 135 259t381 97h51v19q0 55 -79 55q-158 0 -365 -65l-84 280q268 119 530 119q260 0 354.5 -87t94.5 -267v-752h-377zM992 1423 l-275 -301l-309 60l192 317z" />
<glyph unicode="&#xe2;" d="M571 408h-43q-78 0 -77 -56q0 -20 12 -34.5t33 -14.5q33 0 75 47v58zM623 76q-123 -113 -289 -113q-145 0 -237.5 102.5t-92.5 276.5q0 162 135 259t381 97h51v19q0 55 -79 55q-158 0 -365 -65l-84 280q268 119 530 119q260 0 354.5 -87t94.5 -267v-752h-377zM893 1337 l-99 -215l-251 76l-254 -76l-93 209l349 168z" />
<glyph unicode="&#xe3;" d="M571 408h-43q-78 0 -77 -56q0 -20 12 -34.5t33 -14.5q33 0 75 47v58zM623 76q-123 -113 -289 -113q-145 0 -237.5 102.5t-92.5 276.5q0 162 135 259t381 97h51v19q0 55 -79 55q-158 0 -365 -65l-84 280q268 119 530 119q260 0 354.5 -87t94.5 -267v-752h-377zM901 1444 q23 -137 -33.5 -228.5t-201.5 -91.5q-88 0 -157 36t-81 36q-43 0 -43 -51h-205q-23 137 33.5 228t202.5 91q88 0 156.5 -35.5t80.5 -35.5q43 0 43 51h205z" />
<glyph unicode="&#xe4;" d="M571 408h-43q-78 0 -77 -56q0 -20 12 -34.5t33 -14.5q33 0 75 47v58zM623 76q-123 -113 -289 -113q-145 0 -237.5 102.5t-92.5 276.5q0 162 135 259t381 97h51v19q0 55 -79 55q-158 0 -365 -65l-84 280q268 119 530 119q260 0 354.5 -87t94.5 -267v-752h-377zM922 1143 h-332v301h332v-301zM491 1143h-331v301h331v-301z" />
<glyph unicode="&#xe5;" d="M571 408h-43q-78 0 -77 -56q0 -20 12 -34.5t33 -14.5q33 0 75 47v58zM623 76q-123 -113 -289 -113q-145 0 -237.5 102.5t-92.5 276.5q0 162 135 259t381 97h51v19q0 55 -79 55q-158 0 -365 -65l-84 280q268 119 530 119q260 0 354.5 -87t94.5 -267v-752h-377zM840 1327 q0 -207 -307 -207q-154 0 -227 43t-73 162q0 98 76 152.5t228 54.5q154 0 228.5 -45t74.5 -160zM582 1327q0 25 -9.5 36t-37.5 11q-27 0 -35 -11t-8 -38q0 -45 43 -45q27 0 37 10t10 37z" />
<glyph unicode="&#xe6;" horiz-adv-x="1558" d="M571 408h-43q-78 0 -77 -56q0 -20 12 -34.5t33 -14.5q33 0 75 47v58zM672 111q-158 -147 -338 -148q-145 0 -237.5 102.5t-92.5 276.5q0 162 135 259t381 97h51v19q0 55 -79 55q-158 0 -365 -65l-84 280q268 119 530 119q176 0 263 -53q98 53 241 53q199 0 329 -116 t130 -390q0 -119 -12 -209h-525q0 -43 22.5 -62.5t74.5 -19.5q158 0 368 45l80 -291q-227 -100 -506 -100q-264 1 -366 148zM1110 682v14q0 84 -59.5 84t-59.5 -78v-20h119z" />
<glyph unicode="&#xe7;" horiz-adv-x="729" d="M655 418l80 -381q-121 -74 -289 -74q-236 0 -335 133t-99 436q0 281 121 427.5t340 146.5q133 0 256 -64l-80 -380q-41 27 -78 26q-45 0 -66.5 -27.5t-21.5 -125.5q0 -88 21.5 -115t62.5 -27q25 0 88 25zM577 -74l-166 -254h-276l82 254h360z" />
<glyph unicode="&#xe8;" horiz-adv-x="1017" d="M1004 63q-227 -100 -506 -100q-145 0 -243.5 38t-150 117t-72 176t-20.5 236q0 287 123 431.5t402 144.5q199 0 328.5 -116t129.5 -390q0 -119 -12 -209h-524q0 -43 22.5 -62.5t73.5 -19.5q158 0 369 45zM569 682v14q0 84 -59 84t-59 -98h118zM673 1182l-309 -60 l-274 301l391 76z" />
<glyph unicode="&#xe9;" horiz-adv-x="1017" d="M1004 63q-227 -100 -506 -100q-145 0 -243.5 38t-150 117t-72 176t-20.5 236q0 287 123 431.5t402 144.5q199 0 328.5 -116t129.5 -390q0 -119 -12 -209h-524q0 -43 22.5 -62.5t73.5 -19.5q158 0 369 45zM569 682v14q0 84 -59 84t-59 -98h118zM951 1423l-275 -301 l-309 60l192 317z" />
<glyph unicode="&#xea;" horiz-adv-x="1017" d="M1004 63q-227 -100 -506 -100q-145 0 -243.5 38t-150 117t-72 176t-20.5 236q0 287 123 431.5t402 144.5q199 0 328.5 -116t129.5 -390q0 -119 -12 -209h-524q0 -43 22.5 -62.5t73.5 -19.5q158 0 369 45zM569 682v14q0 84 -59 84t-59 -98h118zM871 1337l-99 -215l-251 76 l-254 -76l-93 209l349 168z" />
<glyph unicode="&#xeb;" horiz-adv-x="1017" d="M1004 63q-227 -100 -506 -100q-145 0 -243.5 38t-150 117t-72 176t-20.5 236q0 287 123 431.5t402 144.5q199 0 328.5 -116t129.5 -390q0 -119 -12 -209h-524q0 -43 22.5 -62.5t73.5 -19.5q158 0 369 45zM569 682v14q0 84 -59 84t-59 -98h118zM906 1143h-332v301h332 v-301zM475 1143h-331v301h331v-301z" />
<glyph unicode="&#xec;" horiz-adv-x="532" d="M492 0h-451v1069h451v-1069zM436 1182l-309 -60l-274 301l391 76z" />
<glyph unicode="&#xed;" horiz-adv-x="532" d="M492 0h-451v1069h451v-1069zM689 1423l-275 -301l-309 60l192 317z" />
<glyph unicode="&#xee;" horiz-adv-x="532" d="M492 0h-451v1069h451v-1069zM619 1337l-99 -215l-251 76l-254 -76l-93 209l349 168z" />
<glyph unicode="&#xef;" horiz-adv-x="532" d="M492 0h-451v1069h451v-1069zM648 1143h-332v301h332v-301zM217 1143h-331v301h331v-301z" />
<glyph unicode="&#xf0;" horiz-adv-x="1048" d="M901 1202q135 -248 135 -547q0 -362 -114.5 -527t-413.5 -165h-6q-246 0 -368 122t-122 441q0 236 86 394.5t246 158.5h18q63 0 117 -28q-16 45 -43 88l-172 -25l-155 211l182 25q-47 57 -55 65l475 66q27 -29 51 -66l90 12l156 -210zM580 537q0 88 -11 145q0 4 -16 11 t-29 7q-33 0 -43 -36.5t-10 -128.5q0 -90 10.5 -126t42.5 -36q31 0 43.5 37t12.5 127z" />
<glyph unicode="&#xf1;" d="M1022 0h-451v633q0 59 -32 59q-31 0 -47 -10v-682h-451v1069h377l20 -70q139 106 297 107q135 0 211 -82t76 -276v-748zM889 1444q23 -137 -33.5 -228.5t-201.5 -91.5q-88 0 -157 36t-81 36q-43 0 -43 -51h-205q-23 137 33.5 228t202.5 91q88 0 156.5 -35.5t80.5 -35.5 q43 0 43 51h205z" />
<glyph unicode="&#xf2;" horiz-adv-x="1048" d="M1036 539q0 -276 -128 -426t-384 -150h-6q-127 0 -215 24.5t-156.5 86t-101.5 175t-33 281.5q0 276 128 426t384 150h6q127 0 215.5 -24.5t157 -86t101 -175t32.5 -281.5zM580 535q0 88 -11.5 125.5t-44.5 37.5q-31 0 -43 -36.5t-12 -126.5q0 -88 11.5 -126t43.5 -38 q31 0 43.5 37t12.5 127zM673 1182l-309 -60l-274 301l391 76z" />
<glyph unicode="&#xf3;" horiz-adv-x="1048" d="M1036 539q0 -276 -128 -426t-384 -150h-6q-127 0 -215 24.5t-156.5 86t-101.5 175t-33 281.5q0 276 128 426t384 150h6q127 0 215.5 -24.5t157 -86t101 -175t32.5 -281.5zM580 535q0 88 -11.5 125.5t-44.5 37.5q-31 0 -43 -36.5t-12 -126.5q0 -88 11.5 -126t43.5 -38 q31 0 43.5 37t12.5 127zM934 1423l-275 -301l-309 60l192 317z" />
<glyph unicode="&#xf4;" horiz-adv-x="1048" d="M1036 539q0 -276 -128 -426t-384 -150h-6q-127 0 -215 24.5t-156.5 86t-101.5 175t-33 281.5q0 276 128 426t384 150h6q127 0 215.5 -24.5t157 -86t101 -175t32.5 -281.5zM580 535q0 88 -11.5 125.5t-44.5 37.5q-31 0 -43 -36.5t-12 -126.5q0 -88 11.5 -126t43.5 -38 q31 0 43.5 37t12.5 127zM875 1337l-99 -215l-251 76l-254 -76l-93 209l349 168z" />
<glyph unicode="&#xf5;" horiz-adv-x="1048" d="M1036 539q0 -276 -128 -426t-384 -150h-6q-127 0 -215 24.5t-156.5 86t-101.5 175t-33 281.5q0 276 128 426t384 150h6q127 0 215.5 -24.5t157 -86t101 -175t32.5 -281.5zM580 535q0 88 -11.5 125.5t-44.5 37.5q-31 0 -43 -36.5t-12 -126.5q0 -88 11.5 -126t43.5 -38 q31 0 43.5 37t12.5 127zM889 1444q23 -137 -33.5 -228.5t-201.5 -91.5q-88 0 -157 36t-81 36q-43 0 -43 -51h-205q-23 137 33.5 228t202.5 91q88 0 156.5 -35.5t80.5 -35.5q43 0 43 51h205z" />
<glyph unicode="&#xf6;" horiz-adv-x="1048" d="M1036 539q0 -276 -128 -426t-384 -150h-6q-127 0 -215 24.5t-156.5 86t-101.5 175t-33 281.5q0 276 128 426t384 150h6q127 0 215.5 -24.5t157 -86t101 -175t32.5 -281.5zM580 535q0 88 -11.5 125.5t-44.5 37.5q-31 0 -43 -36.5t-12 -126.5q0 -88 11.5 -126t43.5 -38 q31 0 43.5 37t12.5 127zM910 1143h-332v301h332v-301zM479 1143h-331v301h331v-301z" />
<glyph unicode="&#xf7;" horiz-adv-x="1126" d="M1036 444h-946v349h946v-349zM788 0h-450v375h450v-375zM788 862h-450v375h450v-375z" />
<glyph unicode="&#xf8;" horiz-adv-x="1138" d="M897 1051q229 -106 229 -512q0 -276 -139 -426t-418 -150h-6q-53 0 -55 2l-92 -248h-283l111 303q-231 100 -232 510q0 276 139.5 426t417.5 150h6q47 0 60 -2l74 207h282zM723 614l-96 -272h4q39 0 65.5 64.5t26.5 150.5v57zM416 455l96 272h-4q-39 0 -65.5 -61.5 t-26.5 -169.5v-41z" />
<glyph unicode="&#xf9;" d="M39 1069h450v-633q0 -59 33 -59q31 0 47 10v682h451v-1069h-377l-20 70q-139 -106 -297 -107q-135 0 -211 82t-76 277v747zM653 1182l-309 -60l-274 301l391 76z" />
<glyph unicode="&#xfa;" d="M39 1069h450v-633q0 -59 33 -59q31 0 47 10v682h451v-1069h-377l-20 70q-139 -106 -297 -107q-135 0 -211 82t-76 277v747zM934 1423l-275 -301l-309 60l192 317z" />
<glyph unicode="&#xfb;" d="M39 1069h450v-633q0 -59 33 -59q31 0 47 10v682h451v-1069h-377l-20 70q-139 -106 -297 -107q-135 0 -211 82t-76 277v747zM877 1337l-99 -215l-251 76l-254 -76l-93 209l349 168z" />
<glyph unicode="&#xfc;" d="M39 1069h450v-633q0 -59 33 -59q31 0 47 10v682h451v-1069h-377l-20 70q-139 -106 -297 -107q-135 0 -211 82t-76 277v747zM912 1143h-332v301h332v-301zM481 1143h-331v301h331v-301z" />
<glyph unicode="&#xfd;" d="M1090 1069l-156 -723q-63 -291 -239.5 -448.5t-465.5 -251.5l-168 319q102 27 168 92l-262 1012h498l41 -293l43 -354h2l35 362l30 285h474zM955 1423l-275 -301l-309 60l192 317z" />
<glyph unicode="&#xfe;" horiz-adv-x="1056" d="M705 1106q156 0 250 -130t94 -419q0 -297 -107.5 -445.5t-265.5 -148.5q-111 0 -184 70v-330l-451 -57v1761l451 74v-449q109 74 213 74zM586 547q0 100 -9.5 123.5t-37.5 23.5q-25 0 -47 -16v-289q18 -12 43 -12q31 0 41 26.5t10 143.5z" />
<glyph unicode="&#xff;" d="M1090 1069l-156 -723q-63 -291 -239.5 -448.5t-465.5 -251.5l-168 319q102 27 168 92l-262 1012h498l41 -293l43 -354h2l35 362l30 285h474zM932 1143h-332v301h332v-301zM501 1143h-331v301h331v-301z" />
<glyph unicode="&#x131;" horiz-adv-x="532" d="M492 0h-451v1069h451v-1069z" />
<glyph unicode="&#x152;" horiz-adv-x="1632" d="M1597 0h-679q-121 -37 -261 -37h-16q-156 0 -268.5 36t-180 95.5t-107.5 154.5t-53.5 196.5t-13.5 240.5q0 395 167 563t464 168h17q121 0 282 -37h643v-381h-354v-108h317v-377h-317v-131h360v-383zM754 377v622q-37 31 -97 31q-72 0 -99.5 -71.5t-27.5 -268.5 q0 -188 26 -261t93 -73q58 1 105 21z" />
<glyph unicode="&#x153;" horiz-adv-x="1579" d="M819 1042q100 63 279 64q199 0 328.5 -116t129.5 -390q0 -119 -12 -209h-524q0 -43 22.5 -62.5t73.5 -19.5q158 0 369 45l80 -291q-227 -100 -506 -100q-172 0 -271 68q-100 -68 -264 -68h-6q-127 0 -215 24.5t-156.5 86t-101.5 175t-33 281.5q0 276 128 426t384 150h6 q191 -1 289 -64zM580 535q0 88 -11.5 125.5t-44.5 37.5q-31 0 -43 -36.5t-12 -126.5q0 -88 11.5 -126t43.5 -38q31 0 43.5 37t12.5 127zM1130 682v14q0 84 -59 84t-59 -78v-20h118z" />
<glyph unicode="&#x178;" horiz-adv-x="1028" d="M1106 1380l-358 -938v-442h-455v442l-371 938h531l55 -254l20 -120l21 122l53 252h504zM463 1741v-287h-324v287h324zM901 1741v-287h-323v287h323z" />
<glyph unicode="&#x2c6;" horiz-adv-x="819" d="M758 1337l-99 -215l-251 76l-254 -76l-93 209l349 168z" />
<glyph unicode="&#x2da;" horiz-adv-x="819" d="M713 1327q0 -207 -307 -207q-154 0 -227 43t-73 162q0 98 76 152.5t228 54.5q154 0 228.5 -45t74.5 -160zM455 1327q0 25 -9.5 36t-37.5 11q-27 0 -35 -11t-8 -38q0 -45 43 -45q27 0 37 10t10 37z" />
<glyph unicode="&#x2dc;" horiz-adv-x="819" d="M770 1444q23 -137 -33.5 -228.5t-201.5 -91.5q-88 0 -157 36t-81 36q-43 0 -43 -51h-205q-23 137 33.5 228t202.5 91q88 0 156.5 -35.5t80.5 -35.5q43 0 43 51h205z" />
<glyph unicode="&#x2000;" horiz-adv-x="884" />
<glyph unicode="&#x2001;" horiz-adv-x="1769" />
<glyph unicode="&#x2002;" horiz-adv-x="884" />
<glyph unicode="&#x2003;" horiz-adv-x="1769" />
<glyph unicode="&#x2004;" horiz-adv-x="589" />
<glyph unicode="&#x2005;" horiz-adv-x="442" />
<glyph unicode="&#x2006;" horiz-adv-x="294" />
<glyph unicode="&#x2007;" horiz-adv-x="294" />
<glyph unicode="&#x2008;" horiz-adv-x="221" />
<glyph unicode="&#x2009;" horiz-adv-x="352" />
<glyph unicode="&#x200a;" horiz-adv-x="98" />
<glyph unicode="&#x2010;" horiz-adv-x="614" d="M563 395h-512v387h512v-387z" />
<glyph unicode="&#x2011;" horiz-adv-x="614" d="M563 395h-512v387h512v-387z" />
<glyph unicode="&#x2012;" horiz-adv-x="614" d="M563 395h-512v387h512v-387z" />
<glyph unicode="&#x2013;" horiz-adv-x="1024" d="M1024 432h-1024v373h1024v-373z" />
<glyph unicode="&#x2014;" horiz-adv-x="2048" d="M1843 432h-1638v373h1638v-373z" />
<glyph unicode="&#x2018;" horiz-adv-x="643" d="M0 885l279 698l364 -92l-166 -725z" />
<glyph unicode="&#x2019;" horiz-adv-x="643" d="M643 1464l-278 -698l-365 92l166 725z" />
<glyph unicode="&#x201a;" horiz-adv-x="585" d="M594 356l-279 -698l-364 92l166 725z" />
<glyph unicode="&#x201c;" horiz-adv-x="1095" d="M0 915l285 650l325 -88l-182 -674zM516 893l254 663l326 -88l-152 -688z" />
<glyph unicode="&#x201d;" horiz-adv-x="1095" d="M1096 1430l-285 -650l-326 88l183 674zM580 1452l-254 -664l-326 89l152 688z" />
<glyph unicode="&#x201e;" horiz-adv-x="1062" d="M1061 340l-285 -649l-325 88l182 674zM545 362l-254 -663l-326 88l152 688z" />
<glyph unicode="&#x2022;" horiz-adv-x="1126" d="M1116 614q0 -233 -160.5 -393t-392 -160t-392.5 161t-161 392q0 233 161 393t392.5 160t392 -161t160.5 -392z" />
<glyph unicode="&#x2026;" horiz-adv-x="1615" d="M1569 0h-445v444h445v-444zM1030 0h-444v444h444v-444zM492 0h-445v444h445v-444z" />
<glyph unicode="&#x202f;" horiz-adv-x="352" />
<glyph unicode="&#x2039;" horiz-adv-x="790" d="M731 150l-385 -87l-315 555l317 556l383 -91l-194 -465z" />
<glyph unicode="&#x203a;" horiz-adv-x="790" d="M59 1087l385 87l316 -556l-318 -555l-383 91l195 464z" />
<glyph unicode="&#x205f;" horiz-adv-x="442" />
<glyph unicode="&#x20ac;" horiz-adv-x="1126" d="M158 971q102 397 540 397q201 0 357 -78l-101 -282q-76 33 -196 32q-117 0 -150 -69h223v-269h-256v-22v-43h256v-268h-229q27 -68 139 -68q133 0 226 49l104 -293q-172 -94 -389 -94q-238 0 -365 85t-174 321h-110v268h88v22v43h-88v269h125z" />
<glyph unicode="&#x2122;" horiz-adv-x="1339" d="M1348 778h-299l-13 174l-41 -174h-229l-41 174l-12 -174h-279l92 602h324l41 -159l41 159h323zM471 1135h-82v-357h-295v357h-82v245h459v-245z" />
<glyph unicode="&#xe000;" horiz-adv-x="1070" d="M0 1070h1070v-1070h-1070v1070z" />
<glyph unicode="&#xf001;" horiz-adv-x="1120" d="M1079 1130h-430v351h430v-351zM1079 0h-450v723h-109v-723h-450v723h-70v346h70v57q0 178 90 266.5t282 88.5q76 0 158 -11v-311q-20 4 -39 4q-47 0 -47 -49v-45h565v-1069z" />
<glyph unicode="&#xfb01;" horiz-adv-x="1120" d="M1079 1130h-430v351h430v-351zM1079 0h-450v723h-109v-723h-450v723h-70v346h70v57q0 178 90 266.5t282 88.5q76 0 158 -11v-311q-20 4 -39 4q-47 0 -47 -49v-45h565v-1069z" />
<glyph unicode="&#xf002;" horiz-adv-x="1120" d="M1079 0h-450v1157q-35 6 -60 6q-55 0 -55 -57v-37h68v-346h-62v-723h-450v723h-70v346h70v51q0 174 92 267.5t309 93.5q141 0 322 -47l286 47v-1481z" />
<glyph unicode="&#xfb02;" horiz-adv-x="1120" d="M1079 0h-450v1157q-35 6 -60 6q-55 0 -55 -57v-37h68v-346h-62v-723h-450v723h-70v346h70v51q0 174 92 267.5t309 93.5q141 0 322 -47l286 47v-1481z" />
<glyph unicode="&#xfb03;" horiz-adv-x="1701" d="M1661 1130h-430v351h430v-351zM1661 0h-451v723h-108v-723h-451v723h-131v-723h-450v723h-70v346h70v57q0 176 91 265.5t283 89.5q109 0 185 -17l-27 -305q-4 4 -39 4q-49 0 -49 -49v-45h137v57q0 176 91.5 265.5t283.5 89.5q74 0 156 -11v-311q-20 4 -39 4 q-47 0 -47 -49v-45h565v-1069z" />
<glyph unicode="&#xfb04;" horiz-adv-x="1701" d="M1661 0h-451v1157q-35 6 -59 6q-55 0 -55 -57v-37h67v-346h-61v-723h-451v723h-131v-723h-450v723h-70v346h70v57q0 176 91 265.5t283 89.5q109 0 185 -17l-27 -305q-4 4 -39 4q-49 0 -49 -49v-45h137v51q0 174 92.5 267.5t309.5 93.5q141 0 321 -47l287 47v-1481z" />
</font>
</defs>
</svg>
