<?xml version="1.0" standalone="no"?>
<!DOCTYPE svg PUBLIC "-//W3C//DTD SVG 1.1//EN" "http://www.w3.org/Graphics/SVG/1.1/DTD/svg11.dtd" >
<svg xmlns="http://www.w3.org/2000/svg">
<metadata>
This is a custom SVG webfont generated by Font Squirrel.
Copyright   : Copyright Lucas de Groot 2003 All rights reserved Published by LucasFonts wwwLucasFontscom
Designer    : Lucas de Groot
Foundry     : Lucas de Groot
Foundry URL : httpwwwLucasFontscom
</metadata>
<defs>
<font id="webfontM1ak6eDz" horiz-adv-x="1126" >
<font-face units-per-em="2048" ascent="1638" descent="-410" />
<missing-glyph horiz-adv-x="438" />
<glyph unicode=" "  horiz-adv-x="438" />
<glyph unicode="&#x09;" horiz-adv-x="438" />
<glyph unicode="&#xa0;" horiz-adv-x="438" />
<glyph unicode="!" horiz-adv-x="610" d="M475 424h-289v956h289v-956zM477 0h-293v279h293v-279z" />
<glyph unicode="&#x22;" horiz-adv-x="970" d="M815 940h-250v539h250v-539zM381 940h-248v539h248v-539z" />
<glyph unicode="#" horiz-adv-x="1212" d="M1149 856h-180l-31 -297h180v-201h-200l-35 -358h-238l37 358h-236l-34 -358h-238l35 358h-154v201h174l31 297h-174v199h193l30 325h238l-31 -325h234l32 325h238l-31 -325h160v-199zM731 856h-233l-31 -297h233z" />
<glyph unicode="$" horiz-adv-x="954" d="M893 383q0 -139 -80 -237.5t-223 -137.5v-246h-201v238q-164 12 -323 106l88 199q152 -82 282 -82q78 0 124 37t46 102q0 63 -55 111.5t-133 86.5t-156 83t-133 127t-55 193q0 145 88 239t227 119v203h201v-199q156 -25 270 -102l-90 -189q-154 80 -264 80 q-66 0 -110 -32.5t-44 -98.5q0 -59 55.5 -106.5t135.5 -86t159.5 -86t135 -129t55.5 -192.5z" />
<glyph unicode="%" horiz-adv-x="1458" d="M680 1049q0 -348 -326 -349q-178 0 -240.5 81t-62.5 268q0 352 326 352q176 0 239.5 -87t63.5 -265zM1262 1380l-856 -1380h-218l859 1380h215zM481 1049q0 111 -24.5 158.5t-91.5 47.5q-66 0 -90.5 -49t-24.5 -157q0 -104 23.5 -152.5t88.5 -48.5q119 0 119 201z M1397 330q0 -350 -324 -350q-178 0 -240.5 81.5t-62.5 266.5q0 352 324 352q174 0 238.5 -86t64.5 -264zM1198 330q0 111 -24.5 159t-90 48t-91 -50.5t-25.5 -157t23.5 -154.5t88.5 -48q119 0 119 203z" />
<glyph unicode="&#x26;" horiz-adv-x="1527" d="M1432 897q-90 -33 -164 -70q113 -190 112 -333q0 -227 -170 -370.5t-493 -143.5q-315 0 -471 116.5t-156 323.5q0 121 61.5 208t163.5 115q-76 31 -119.5 106t-43.5 167q0 164 105 274.5t312 110.5q168 0 322 -72l-70 -199q-121 45 -233 46q-88 0 -130 -43t-42 -111 q0 -72 46 -113t132 -41h39v-237h-51q-96 0 -148.5 -48t-52.5 -132q0 -109 88 -172.5t268 -63.5q174 0 265.5 70.5t91.5 181.5q0 96 -86 235q-76 -39 -164 -96l-94 197q276 176 587 289z" />
<glyph unicode="'" horiz-adv-x="524" d="M391 940h-258v539h258v-539z" />
<glyph unicode="(" horiz-adv-x="690" d="M152 647q0 496 256 928l237 -43q-219 -444 -219 -891q0 -422 217 -856l-246 -47q-245 438 -245 909z" />
<glyph unicode=")" horiz-adv-x="690" d="M543 666q0 -489 -256 -928l-238 45q219 442 219 889q0 424 -217 858l246 45q246 -434 246 -909z" />
<glyph unicode="*" horiz-adv-x="935" d="M870 973l-102 -178l-217 157l24 -270h-208l26 270l-219 -157l-104 176l247 112l-247 111l104 178l219 -155l-26 270h208l-24 -270l217 155l102 -176l-245 -111z" />
<glyph unicode="+" d="M1018 508h-340v-371h-229v371h-340v211h340v371h229v-371h340v-211z" />
<glyph unicode="," horiz-adv-x="559" d="M485 250l-252 -598l-215 57l175 619z" />
<glyph unicode="-" horiz-adv-x="563" d="M506 469h-440v233h440v-233z" />
<glyph unicode="." horiz-adv-x="548" d="M424 0h-299v309h299v-309z" />
<glyph unicode="/" horiz-adv-x="888" d="M897 1638l-629 -1935h-266l629 1935h266z" />
<glyph unicode="0" horiz-adv-x="1173" d="M1100 666q0 -141 -24.5 -256t-82 -216.5t-165 -157.5t-257.5 -56q-125 0 -217 39.5t-145 103t-84 158t-41 183.5t-10 202q0 143 25.5 258.5t83 216t164 156t253.5 55.5q125 0 217 -40t145.5 -102.5t85 -157t42 -184t10.5 -202.5zM803 666q0 213 -48 330.5t-167 117.5 q-121 0 -169 -117.5t-48 -330.5q0 -215 48 -332t169 -117q119 0 167 118t48 331z" />
<glyph unicode="1" horiz-adv-x="708" d="M584 0h-291v1044l-238 -104l-43 244l324 147h248v-1331z" />
<glyph unicode="2" horiz-adv-x="1003" d="M928 0h-867v219l316 336q211 223 211 379q0 174 -174 174q-100 0 -264 -92l-89 196q207 139 420 140q201 0 304.5 -99.5t103.5 -275.5q0 -258 -250 -498l-240 -237h529v-242z" />
<glyph unicode="3" horiz-adv-x="999" d="M922 385q0 -193 -130 -299t-353.5 -106t-407.5 114l82 193q145 -76 288 -76q106 0 154.5 47t48.5 119q0 94 -59.5 139t-227.5 45h-108v221h104q141 0 205 36t64 143q0 158 -170 157q-117 0 -277 -84l-78 187q203 131 424 131q203 0 301.5 -95.5t98.5 -255.5 q0 -117 -50.5 -197.5t-132.5 -107.5q109 -23 166.5 -104.5t57.5 -206.5z" />
<glyph unicode="4" horiz-adv-x="1062" d="M1032 244h-145v-244h-289v244h-567v215l432 872h424v-844h145v-243zM598 487v598h-2l-303 -598h305z" />
<glyph unicode="5" horiz-adv-x="999" d="M930 420q0 -225 -132 -332.5t-368 -107.5q-238 0 -399 110l73 197q162 -74 289 -74q117 0 170 46t53 149q0 111 -56 149.5t-236 38.5q-111 0 -211 -14l75 749h662l-16 -244h-428l-25 -266q117 6 207 -2t149.5 -33.5t98 -59.5t59 -84t28 -101t7.5 -121z" />
<glyph unicode="6" horiz-adv-x="1089" d="M1022 459q0 -229 -131 -354t-346 -125q-143 0 -236.5 38.5t-144.5 123.5t-70.5 197t-19.5 279.5t26.5 294.5t88 229.5t172 156t270.5 53.5q195 0 323 -62l-57 -205q-139 35 -262 35q-274 0 -275 -342v-2q141 82 281 82q201 0 291 -102t90 -297zM735 432 q0 102 -35.5 150.5t-142.5 48.5q-94 0 -195 -60q0 -199 41 -281.5t144 -82.5q98 0 143 55t45 170z" />
<glyph unicode="7" horiz-adv-x="907" d="M868 1114l-430 -1114h-315l446 1085h-518v246h817v-217z" />
<glyph unicode="8" horiz-adv-x="1101" d="M752 324q0 76 -53.5 128t-155.5 111q-63 -39 -98 -65.5t-65 -71.5t-30 -94q0 -139 203 -139q96 0 147.5 36t51.5 95zM1028 336q0 -162 -121 -259t-362 -97h-6q-465 0 -465 327q0 121 63.5 205t177.5 164q-209 129 -209 338q0 156 115 247t336 91h4q434 0 434 -310 q0 -190 -211 -342q113 -66 178.5 -150.5t65.5 -213.5zM729 1018q0 125 -180 125q-86 0 -132 -33t-46 -84q0 -72 47 -120t139 -99q84 51 128 98t44 113z" />
<glyph unicode="9" horiz-adv-x="1089" d="M68 872q0 229 131 354.5t346 125.5q143 0 236 -39t144.5 -124t71 -196.5t19.5 -279.5t-26.5 -295t-89 -229.5t-174.5 -155.5t-271 -53q-195 0 -330 63l59 205q141 -37 267 -37q274 0 278 344v2q-152 -84 -280 -84q-201 0 -291 101t-90 298zM354 899q0 -102 36 -150.5 t142 -48.5q94 0 195 64q0 199 -41 279.5t-141.5 80.5t-145.5 -55t-45 -170z" />
<glyph unicode=":" horiz-adv-x="641" d="M481 0h-299v309h299v-309zM481 745h-299v310h299v-310z" />
<glyph unicode=";" horiz-adv-x="649" d="M481 745h-299v310h299v-310zM522 250l-252 -598l-215 57l174 619z" />
<glyph unicode="&#x37e;" horiz-adv-x="649" d="M481 745h-299v310h299v-310zM522 250l-252 -598l-215 57l174 619z" />
<glyph unicode="&#x3c;" d="M952 59l-833 443v217l833 446v-286l-553 -267l553 -264v-289z" />
<glyph unicode="=" d="M1014 727h-901v211h901v-211zM1014 287h-901v213h901v-213z" />
<glyph unicode="&#x3e;" d="M1008 502l-834 -443v285l553 266l-553 267v288l834 -446v-217z" />
<glyph unicode="?" horiz-adv-x="860" d="M784 1083q0 -80 -28.5 -145.5t-68.5 -109.5l-81 -85q-41 -41 -69.5 -96t-28.5 -121v-102h-279v96q0 111 39 195t84 125t84 94t39 113q0 119 -151 118q-86 0 -195 -39l-41 213q172 61 332 62q174 0 269 -85.5t95 -232.5zM516 0h-293v279h293v-279z" />
<glyph unicode="@" horiz-adv-x="1988" d="M1868 831q0 -352 -168 -512.5t-463 -160.5h-170v104q-162 -123 -266.5 -123t-165 78t-60.5 234q0 160 41 299t127 230t201 91q63 0 114.5 -30.5t115.5 -92.5l36 107h193l-115 -707q168 0 260 107.5t92 359.5q0 113 -22.5 189.5t-80.5 139t-167.5 92.5t-273.5 30 q-356 0 -538.5 -219.5t-182.5 -622.5q0 -264 121.5 -380t394.5 -116h373l-25 -178q-178 -25 -387 -24q-356 0 -532.5 162.5t-176.5 517.5q0 504 255 779t724 275q746 0 746 -629zM1120 788q-72 84 -125 84q-98 0 -143 -143q-41 -137 -41 -256q0 -125 80 -125q59 0 172 92z " />
<glyph unicode="A" horiz-adv-x="1093" d="M1081 0h-299l-55 244h-379l-57 -244h-281l328 1380h418zM690 471l-151 647h-4l-150 -647h305z" />
<glyph unicode="B" horiz-adv-x="1083" d="M1018 418q0 -205 -139.5 -312.5t-384.5 -107.5q-61 0 -187.5 1t-191.5 1v1378q262 4 374 4q238 0 361 -85t123 -281q0 -227 -193 -289q119 -25 178.5 -107.5t59.5 -201.5zM702 991q0 86 -49 126t-188 40q-33 0 -74 -4v-336q25 -2 62 -2q147 0 198 46t51 130zM727 414 q0 88 -57.5 136t-218.5 48q-8 0 -28 -1t-32 -1v-369q29 -4 86 -4q152 0 201 51.5t49 139.5z" />
<glyph unicode="C" horiz-adv-x="950" d="M924 68q-172 -88 -363 -88q-252 0 -369.5 160.5t-117.5 545.5q0 352 135 533.5t379 181.5q182 0 330 -80l-66 -221q-119 59 -221 59q-131 0 -195.5 -107.5t-64.5 -361.5q0 -264 62.5 -364.5t191.5 -100.5q96 0 235 66z" />
<glyph unicode="D" horiz-adv-x="1206" d="M1130 700q0 -705 -641 -704q-154 0 -374 4v1380q258 4 389 4q334 0 480 -154.5t146 -529.5zM831 698q0 240 -71.5 348.5t-255.5 108.5q-31 0 -101 -4v-922q18 0 60.5 -1t44.5 -1q174 0 248.5 113.5t74.5 357.5z" />
<glyph unicode="E" horiz-adv-x="899" d="M836 0h-721v1380h714v-233h-426v-324h385v-231h-385v-356h433v-236z" />
<glyph unicode="F" horiz-adv-x="843" d="M793 1145h-390v-334h353v-236h-353v-575h-288v1380h678v-235z" />
<glyph unicode="G" horiz-adv-x="1136" d="M1042 86q-197 -106 -438 -106q-289 0 -409.5 154.5t-120.5 549.5q0 362 140 539.5t423 177.5q209 0 395 -115l-80 -205q-160 80 -276 80q-160 0 -232.5 -109.5t-72.5 -363.5q0 -268 57 -368.5t195 -100.5q72 0 137 27v446h282v-606z" />
<glyph unicode="H" horiz-adv-x="1234" d="M1118 0h-289v590h-423v-590h-291v1380h291v-549h423v549h289v-1380z" />
<glyph unicode="I" horiz-adv-x="522" d="M406 0h-291v1380h291v-1380z" />
<glyph unicode="J" horiz-adv-x="692" d="M578 440q0 -217 -101.5 -334.5t-279.5 -117.5q-117 0 -199 20l4 232q82 -16 137 -17q86 0 117 57.5t31 172.5v927h291v-940z" />
<glyph unicode="K" horiz-adv-x="1036" d="M1069 0h-342l-319 610h-7v-610h-286v1380h286v-575h7l288 575h322l-352 -643z" />
<glyph unicode="L" horiz-adv-x="755" d="M741 0h-626v1380h291v-1142h335v-238z" />
<glyph unicode="M" horiz-adv-x="1605" d="M1538 0h-281l-61 1024h-2l-276 -1024h-240l-279 1024h-2l-61 -1024h-268l100 1380h401l244 -878h2l240 878h383z" />
<glyph unicode="N" horiz-adv-x="1228" d="M1112 0h-315l-422 897v-897h-260v1380h331l406 -858v858h260v-1380z" />
<glyph unicode="O" horiz-adv-x="1286" d="M1212 694q0 -715 -565 -714h-14q-315 0 -437 169.5t-122 534.5q0 717 565 717h14q315 0 437 -172.5t122 -534.5zM913 692q0 244 -59 357.5t-211 113.5q-147 0 -208.5 -111.5t-61.5 -361.5q0 -244 59.5 -357.5t210.5 -113.5q145 0 207.5 111.5t62.5 361.5z" />
<glyph unicode="P" horiz-adv-x="1073" d="M1036 938q0 -209 -128 -334t-384 -125q-80 0 -118 2v-481h-291v1378q111 4 420 4q256 0 378.5 -110.5t122.5 -333.5zM741 932q0 117 -46 170t-169 53q-86 0 -120 -2v-442q57 -4 116 -4q121 0 170 55t49 170z" />
<glyph unicode="Q" horiz-adv-x="1286" d="M1120 229l164 -168l-172 -170l-158 168q-121 -80 -307 -79h-14q-315 0 -437 169.5t-122 534.5q0 717 565 717h14q315 0 437 -172t122 -535q0 -293 -92 -465zM889 436q31 80 31 256q0 244 -61.5 357.5t-213.5 113.5q-147 0 -209.5 -111.5t-62.5 -361.5q0 -256 57 -365.5 t205 -109.5q84 0 135 39l-147 149l155 152z" />
<glyph unicode="R" horiz-adv-x="1107" d="M1071 0h-328l-225 584h-119v-584h-284v1378q121 4 424 4q483 0 483 -381q0 -127 -58.5 -221t-166.5 -133zM727 985q0 86 -44 129t-167 43q-39 0 -117 -4v-348h115q213 0 213 180z" />
<glyph unicode="S" horiz-adv-x="954" d="M913 397q0 -201 -125.5 -309t-324.5 -108q-209 0 -406 118l95 211q170 -90 292 -90q174 0 174 156q0 66 -57 116t-139 91t-164 90t-139.5 136t-57.5 206q0 180 118 283.5t315 103.5q201 0 374 -109l-92 -198q-156 76 -264 75q-164 0 -164 -137q0 -61 58.5 -110.5 t141.5 -90t166 -90t141 -137.5t58 -207z" />
<glyph unicode="T" horiz-adv-x="866" d="M856 1139h-276v-1139h-291v1139h-277v241h844v-241z" />
<glyph unicode="U" horiz-adv-x="1228" d="M1112 483q0 -500 -510 -499q-252 0 -369.5 114.5t-117.5 347.5v934h288v-919q0 -133 46.5 -189.5t164.5 -56.5q121 0 165 58.5t44 185.5v921h289v-897z" />
<glyph unicode="V" horiz-adv-x="1073" d="M1067 1380l-336 -1380h-397l-330 1380h299l211 -929l27 -177l28 179l205 927h293z" />
<glyph unicode="W" horiz-adv-x="1691" d="M1677 1380l-286 -1380h-373l-152 739l-30 205h-2l-29 -205l-154 -739h-381l-258 1380h299l152 -831l26 -232h3l32 226l160 837h330l166 -831l32 -232h2l29 230l146 833h288z" />
<glyph unicode="X" horiz-adv-x="1093" d="M1049 1380l-314 -651l346 -729h-333l-175 389l-41 111h-2l-36 -105l-170 -395h-316l340 719l-307 661h332l139 -340l37 -102h2l41 109l139 333h318z" />
<glyph unicode="Y" horiz-adv-x="983" d="M1008 1380l-377 -856v-524h-271v524l-385 856h318l127 -321l82 -217l78 211l125 327h303z" />
<glyph unicode="Z" horiz-adv-x="948" d="M889 0h-832v205l488 936h-471v239h784v-202l-477 -936h508v-242z" />
<glyph unicode="[" horiz-adv-x="757" d="M651 -360h-499v1998h493v-211h-237v-1577h243v-210z" />
<glyph unicode="\" horiz-adv-x="888" d="M887 -297h-266l-629 1935h266z" />
<glyph unicode="]" horiz-adv-x="757" d="M109 1638h497v-1998h-497v210h241v1577h-241v211z" />
<glyph unicode="^" d="M1053 791h-301l-195 436l-195 -436h-284l299 620h375z" />
<glyph unicode="_" horiz-adv-x="1024" d="M1024 -399h-1024v200h1024v-200z" />
<glyph unicode="`" horiz-adv-x="761" d="M545 1198l-195 -49l-270 285l248 63z" />
<glyph unicode="a" horiz-adv-x="1003" d="M631 449h-68q-139 0 -190 -31t-51 -92q0 -55 30.5 -92t79.5 -37q82 0 199 110v142zM655 113q-86 -74 -153.5 -105t-157.5 -31q-127 0 -211 94.5t-84 243.5q0 156 130 243t392 87h60v29q0 100 -33 145t-129 45q-119 0 -326 -67l-51 186q225 94 418 94q215 0 302 -78.5 t87 -273.5v-725h-221z" />
<glyph unicode="b" horiz-adv-x="1024" d="M961 539q0 -270 -102.5 -416t-260.5 -146q-63 0 -118.5 30t-131.5 102l-22 -109h-220v1448l269 41v-528q145 117 262 116q147 0 235.5 -139t88.5 -399zM686 532q0 299 -139 299q-66 0 -172 -96v-413q102 -98 164 -99q68 0 107.5 77.5t39.5 231.5z" />
<glyph unicode="c" horiz-adv-x="751" d="M674 274l61 -219q-129 -76 -280 -75q-188 0 -288.5 123.5t-100.5 416.5q0 274 109.5 415.5t303.5 141.5q127 0 248 -69l-59 -222q-82 45 -144 45q-182 0 -182 -305q0 -295 172 -295q58 0 160 43z" />
<glyph unicode="d" horiz-adv-x="1026" d="M918 0h-222l-22 111q-166 -133 -287 -134q-147 0 -234 138.5t-87 398.5q0 272 101 417.5t261 145.5q100 0 221 -104v475l269 41v-1489zM649 319v418q-98 92 -164 92q-68 0 -107.5 -76.5t-39.5 -230.5q0 -299 139 -299q70 0 172 96z" />
<glyph unicode="e" horiz-adv-x="980" d="M897 63q-205 -84 -412 -83q-227 0 -324.5 130t-97.5 412q0 272 116 413.5t335 141.5q180 0 288.5 -118.5t108.5 -350.5q0 -96 -8 -164h-569q0 -131 45 -188t145 -57q141 0 324 51zM647 639v14q0 215 -153 215q-80 0 -120 -65.5t-42 -163.5h315z" />
<glyph unicode="f" horiz-adv-x="569" d="M596 1473l-18 -195q-41 8 -80 8q-57 0 -80 -30.5t-23 -96.5v-104h160v-211h-158v-844h-270v844h-127v211h127v108q0 326 315 326q86 0 154 -16z" />
<glyph unicode="g" horiz-adv-x="1024" d="M918 51q0 -428 -424 -428q-166 0 -263 17l-36 188h247q123 0 166 45t43 139v94q-141 -119 -264 -118q-147 0 -234 138t-87 394q0 268 101 412.5t261 144.5q115 0 248 -131l22 109h220v-1004zM649 328v407q-98 94 -164 94q-68 0 -107.5 -76.5t-39.5 -226.5 q0 -295 139 -295q72 1 172 97z" />
<glyph unicode="h" horiz-adv-x="1038" d="M934 0h-270v641q0 188 -113 188q-76 0 -176 -94v-735h-269v1448l269 41v-528q84 68 144.5 92t137.5 24q127 0 202 -93t75 -271v-713z" />
<glyph unicode="i" horiz-adv-x="481" d="M375 1223h-269v256h269v-256zM375 0h-269v1055h269v-1055z" />
<glyph unicode="j" horiz-adv-x="485" d="M377 1223h-268v256h268v-256zM377 100q0 -168 -50.5 -274.5t-170.5 -202.5l-166 137q119 129 119 310v985h268v-955z" />
<glyph unicode="k" horiz-adv-x="927" d="M942 0h-313l-252 500h-2v-500h-269v1448l269 41v-858h2l219 424h295l-260 -453z" />
<glyph unicode="l" horiz-adv-x="481" d="M375 0h-269v1448l269 41v-1489z" />
<glyph unicode="m" horiz-adv-x="1585" d="M1479 0h-269v641q0 188 -112 188q-76 0 -172 -94v-735h-267v641q0 188 -110 188q-74 0 -174 -94v-735h-269v1055h224l20 -111q94 78 161 105.5t144 27.5q156 0 230 -141q106 84 173.5 112.5t145.5 28.5q127 0 201 -92t74 -272v-713z" />
<glyph unicode="n" horiz-adv-x="1038" d="M934 0h-270v641q0 188 -113 188q-76 0 -176 -94v-735h-269v1055h224l20 -111q94 78 161 105.5t146 27.5q127 0 202 -93t75 -271v-713z" />
<glyph unicode="o" horiz-adv-x="1036" d="M973 530q0 -258 -115 -404t-342 -146h-6q-227 0 -337 125.5t-110 416.5q0 262 115 408.5t344 146.5h6q225 0 335 -127t110 -420zM700 526q0 313 -180 314q-184 0 -184 -314q0 -309 180 -309q184 0 184 309z" />
<glyph unicode="p" horiz-adv-x="1024" d="M961 539q0 -270 -102.5 -416t-260.5 -146q-104 0 -223 105v-424l-269 -35v1432h224l20 -111q166 133 287 133q147 0 235.5 -138t88.5 -400zM686 532q0 299 -139 299q-66 0 -172 -96v-420q104 -92 164 -92q68 0 107.5 77.5t39.5 231.5z" />
<glyph unicode="q" horiz-adv-x="1024" d="M387 -23q-147 0 -234 138.5t-87 398.5q0 272 101 417.5t261 145.5q115 0 248 -131l22 109h220v-1397l-269 -35v469q-141 -115 -262 -115zM485 829q-68 0 -107.5 -76.5t-39.5 -230.5q0 -299 139 -299q70 0 172 96v416q-98 94 -164 94z" />
<glyph unicode="r" horiz-adv-x="663" d="M637 797h-66q-55 0 -96 -21.5t-100 -75.5v-700h-269v1055h220l24 -129q88 94 134 122.5t108 28.5h45v-280z" />
<glyph unicode="s" horiz-adv-x="776" d="M723 303q0 -152 -100.5 -237.5t-260.5 -85.5q-170 0 -319 86l80 196q119 -66 211 -65q115 0 115 92q0 43 -30 72.5t-128 80.5q-242 111 -242 326q0 137 94.5 223t252 86t294.5 -78l-76 -188q-131 57 -198 57q-49 0 -76 -22.5t-27 -61.5q0 -43 31 -71.5t131 -79.5 q135 -63 191.5 -142t56.5 -188z" />
<glyph unicode="t" horiz-adv-x="630" d="M590 14q-109 -35 -215 -34q-115 0 -181.5 61t-66.5 221v582h-127v211h127v288l270 37v-325h193v-211h-193v-535q0 -57 16.5 -77.5t67.5 -20.5q31 0 92 10z" />
<glyph unicode="u" horiz-adv-x="1038" d="M104 1055h269v-641q0 -84 28.5 -137.5t83.5 -53.5q80 0 177 90v742h270v-1055h-223l-23 111q-160 -131 -307 -131q-125 0 -200 92t-75 270v713z" />
<glyph unicode="v" horiz-adv-x="917" d="M911 1055l-266 -1055h-375l-262 1055h293l139 -647l27 -168h2l27 170l129 645h286z" />
<glyph unicode="w" horiz-adv-x="1458" d="M1434 1055l-234 -1055h-348l-129 582h-2l-131 -582h-334l-229 1055h297l133 -762h2l172 762h219l170 -762h2l131 762h281z" />
<glyph unicode="x" horiz-adv-x="958" d="M961 0h-318l-172 385h-2l-170 -385h-299l270 559l-243 496h307l153 -357h2l156 357h285l-240 -490z" />
<glyph unicode="y" horiz-adv-x="909" d="M911 1055l-217 -856q-102 -416 -491 -576l-115 197q158 74 205 182l-289 1053h297l131 -561l39 -226h2l39 262l113 525h286z" />
<glyph unicode="z" horiz-adv-x="743" d="M702 0h-665v141l330 688h-318v226h641v-142l-330 -688h342v-225z" />
<glyph unicode="{" horiz-adv-x="819" d="M221 340q0 104 -37 150.5t-129 46.5v204q96 0 131 44t35 145v241q0 248 114 373t378 94v-211q-133 6 -184.5 -45t-51.5 -206v-209q0 -141 -35.5 -221t-134.5 -105q96 -31 133 -110.5t37 -211.5v-186q0 -125 25.5 -187.5t72 -81t136.5 -14.5v-208q-268 -35 -379 80.5 t-111 353.5v264z" />
<glyph unicode="|" horiz-adv-x="577" d="M412 -371h-246v2009h246v-2009z" />
<glyph unicode="}" horiz-adv-x="819" d="M598 940q0 -109 36 -154t130 -45v-204q-96 0 -131 -43t-35 -146v-239q0 -250 -113.5 -375t-378.5 -92v208q135 -6 185.5 43.5t50.5 212.5v207q0 141 36 221t134 105q-170 51 -170 319v191q0 125 -25.5 187.5t-71.5 79t-136 11.5v211q268 33 378.5 -83.5t110.5 -352.5 v-262z" />
<glyph unicode="~" d="M1042 1337q12 -207 -78 -315.5t-219 -108.5q-74 0 -131 33t-85.5 71t-65.5 70.5t-74 32.5q-49 0 -71.5 -45t-30.5 -137h-189q-14 207 76 315.5t219 108.5q74 0 131.5 -33t86 -70.5t64.5 -70.5t70 -33q51 0 75 45t32 137h190z" />
<glyph unicode="&#xa1;" horiz-adv-x="610" d="M430 946h-303v279h303v-279zM426 -156h-293v957h293v-957z" />
<glyph unicode="&#xa2;" horiz-adv-x="860" d="M778 319q-86 -53 -190 -67v-178h-199v176q-143 20 -218 122.5t-75 327.5q0 389 293 453v178h199v-172q111 -16 186 -72l-63 -196q-78 49 -162 49q-86 0 -132 -51t-46 -184.5t44 -183.5t126 -50q84 0 176 47z" />
<glyph unicode="&#xa3;" horiz-adv-x="1024" d="M903 0h-829v164l112 45v358h-131v207h131v133q0 221 105.5 333t279.5 112q233 0 351 -101l-84 -180q-104 49 -220 49q-78 0 -111.5 -46t-33.5 -154v-146h264v-207h-264v-331h430v-236z" />
<glyph unicode="&#xa4;" d="M229 307q-102 102 -102 344q0 231 102 340l-166 256l234 94l135 -245q51 25 133 24h4q74 0 129 -24l136 245l223 -92l-160 -243q102 -117 102 -344q0 -223 -102 -343l160 -243l-232 -96l-131 235q-55 -25 -127 -25h-4q-86 0 -135 25l-129 -235l-223 92zM731 655 q0 244 -166 244q-170 0 -170 -244q0 -242 170 -241q166 -1 166 241z" />
<glyph unicode="&#xa5;" d="M1059 1331l-322 -672h252v-180h-287v-149h287v-183h-287v-147h-262v147h-282v183h282v149h-282v180h252l-332 672h297l108 -260l95 -240l104 263l96 237h281z" />
<glyph unicode="&#xa6;" horiz-adv-x="598" d="M438 831h-266v840h266v-840zM438 -377h-266v850h266v-850z" />
<glyph unicode="&#xa7;" d="M1012 616q0 -172 -178 -299q104 -86 104 -225q0 -178 -125 -278.5t-317 -100.5q-199 0 -369 107l94 205q143 -70 254 -70q80 0 124 32.5t44 86.5q0 61 -56.5 106t-137 79t-161.5 77t-137.5 122t-56.5 191q0 88 44 154.5t143 140.5q-100 92 -101 209q0 168 107.5 265.5 t296.5 97.5q186 0 340 -84l-93 -201q-106 53 -213 53q-154 0 -153 -113q0 -55 56.5 -99t136 -81t160.5 -81t137.5 -119t56.5 -175zM723 569q6 39 -13.5 73t-43 52.5t-73.5 49t-71 44.5q-96 -29 -141 -102q-6 -39 14.5 -73.5t46 -53t74.5 -48.5t70 -44q98 24 137 102z" />
<glyph unicode="&#xa8;" horiz-adv-x="819" d="M713 1231h-217v227h217v-227zM324 1231h-218v227h218v-227z" />
<glyph unicode="&#xa9;" horiz-adv-x="1650" d="M1563 690.5q0 -323.5 -208 -545t-528 -221.5q-317 0 -525 222.5t-208 544t208 543.5t525 222q319 0 527.5 -221t208.5 -544.5zM1389 690q0 256 -158 433t-403.5 177t-402.5 -176t-157 -434q0 -256 158 -433t401 -177q246 0 404 175t158 435zM1098 283q-129 -72 -277 -72 q-186 0 -275 105.5t-89 371.5q0 244 101 365t290 121q137 0 246 -66l-62 -199q-86 41 -137 41q-82 0 -124 -56t-42 -200q0 -141 40 -196.5t114 -55.5q61 0 155 39z" />
<glyph unicode="&#xaa;" horiz-adv-x="811" d="M717 408h-586v172h586v-172zM508 985h-47q-154 0 -154 -76q0 -74 72 -73q51 0 129 77v72zM541 694l-13 76q-55 -51 -103 -70.5t-120 -19.5q-92 0 -148.5 59.5t-56.5 159.5t92.5 159.5t276.5 59.5h39v19q0 59 -22.5 81.5t-86.5 22.5q-84 0 -227 -43l-41 137q162 57 299 58 q158 0 221.5 -50.5t63.5 -177.5v-471h-174z" />
<glyph unicode="&#xab;" horiz-adv-x="1146" d="M1012 209l-209 -59l-266 462l270 465l205 -59l-193 -402zM580 178l-209 -57l-293 491l297 494l205 -59l-215 -431z" />
<glyph unicode="&#xac;" d="M991 205h-221v303h-661v211h882v-514z" />
<glyph unicode="&#xad;" horiz-adv-x="563" d="M506 469h-440v233h440v-233z" />
<glyph unicode="&#xae;" horiz-adv-x="1296" d="M1227 1006q0 -236 -171 -409t-409 -173q-246 0 -412.5 169t-166.5 413q0 238 170 408.5t409 170.5q246 0 413 -168.5t167 -410.5zM1075 1001.5q0 182.5 -124 311.5t-304 129q-182 0 -304 -126t-122 -308.5t124 -311.5t304 -129q182 0 304 126t122 308.5zM717 692l-76 201 h-55v-201h-187v617h271q233 0 233 -199q0 -119 -90 -172l109 -246h-205zM621 1171h-35v-133h35q47 0 64 15.5t17 48.5q0 41 -17 55t-64 14z" />
<glyph unicode="&#xaf;" horiz-adv-x="819" d="M723 1221h-627v188h627v-188z" />
<glyph unicode="&#x2c9;" horiz-adv-x="819" d="M723 1221h-627v188h627v-188z" />
<glyph unicode="&#xb0;" horiz-adv-x="950" d="M829 1249q0 -143 -103 -245.5t-249 -102.5q-150 0 -252 101.5t-102 246.5q0 143 104.5 245.5t249.5 102.5q147 0 249.5 -101.5t102.5 -246.5zM639 1249.5q0 69.5 -48 118.5t-114 49q-68 0 -116 -49t-48 -118.5t48.5 -119t115.5 -49.5q66 0 114 49.5t48 119z" />
<glyph unicode="&#xb1;" d="M997 698h-325v-346h-217v346h-326v193h326v342h217v-342h325v-193zM997 0h-868v211h868v-211z" />
<glyph unicode="&#xb2;" horiz-adv-x="890" d="M162 1317q123 82 270 82q137 0 198.5 -57.5t61.5 -149.5q0 -135 -127 -229l-112 -86h272v-175h-567v164l149 121q72 59 94.5 95t22.5 77q0 70 -80 70q-49 0 -139 -45z" />
<glyph unicode="&#xb3;" horiz-adv-x="905" d="M395 690q-143 0 -245 62l47 110q94 -37 180 -37q104 0 104 74q0 39 -42 59.5t-165 16.5v133q113 -4 157 16.5t44 65.5q0 33 -24.5 53.5t-69.5 20.5q-74 0 -174 -54l-43 117q121 70 266 70q133 0 199.5 -51.5t66.5 -135.5q0 -117 -114 -151q61 -12 96 -53t35 -103 q0 -106 -85.5 -159.5t-232.5 -53.5z" />
<glyph unicode="&#xb4;" horiz-adv-x="819" d="M739 1434l-270 -285l-195 49l218 299z" />
<glyph unicode="&#xb5;" d="M1024 18q-92 -39 -203 -38q-166 0 -162 122q-154 -123 -253 -122q-80 0 -109 59l-76 -391h-268l274 1407h269l-127 -649q-35 -182 73 -183q72 0 201 96l143 736h267l-144 -740q-14 -74 0.5 -93t63.5 -19q18 0 80 12z" />
<glyph unicode="&#x3bc;" d="M1024 18q-92 -39 -203 -38q-166 0 -162 122q-154 -123 -253 -122q-80 0 -109 59l-76 -391h-268l274 1407h269l-127 -649q-35 -182 73 -183q72 0 201 96l143 736h267l-144 -740q-14 -74 0.5 -93t63.5 -19q18 0 80 12z" />
<glyph unicode="&#xb6;" horiz-adv-x="1263" d="M1214 1286h-127v-1579h-237v1579h-145v-1225q0 -377 -271 -376q-72 0 -192 22v191q152 -31 188.5 -1.5t36.5 193.5v584q-162 0 -271.5 116.5t-109.5 282.5q0 74 24.5 142.5t75 129t139.5 97.5t207 37h682v-193z" />
<glyph unicode="&#xb7;" horiz-adv-x="446" d="M371 455h-293v317h293v-317z" />
<glyph unicode="&#x22c5;" horiz-adv-x="446" d="M371 455h-293v317h293v-317z" />
<glyph unicode="&#x2219;" horiz-adv-x="446" d="M371 455h-293v317h293v-317z" />
<glyph unicode="&#xb8;" horiz-adv-x="690" d="M498 -90l-148 -270h-190l92 270h246z" />
<glyph unicode="&#xb9;" horiz-adv-x="710" d="M258 702v482l-117 -43l-47 162l182 77h228v-678h-246z" />
<glyph unicode="&#xba;" horiz-adv-x="808" d="M698 408h-573v172h573v-172zM737 1040q0 -176 -85 -267t-244 -91h-7q-168 0 -245.5 80t-77.5 272q0 170 82 264.5t248 94.5h4q166 0 245.5 -81.5t79.5 -271.5zM522 1038q0 184 -114 185q-61 0 -88 -46.5t-27 -140.5q0 -184 114.5 -184t114.5 186z" />
<glyph unicode="&#xbb;" horiz-adv-x="1146" d="M135 1018l209 59l264 -463l-266 -464l-207 59l193 401zM565 1049l211 57l291 -492l-293 -493l-209 59l217 430z" />
<glyph unicode="&#xbc;" horiz-adv-x="1429" d="M238 702v482l-117 -43l-47 162l184 77h225v-678h-245zM154 0l856 1380h217l-858 -1380h-215zM1251 113v-113h-221v113h-317v149l213 416h325v-395h95v-170h-95zM1032 545l-139 -264h139v264z" />
<glyph unicode="&#xbd;" horiz-adv-x="1458" d="M238 702v482l-117 -43l-47 162l184 77h225v-678h-245zM154 0l856 1380h217l-858 -1380h-215zM823 614q119 82 271 82q137 0 197.5 -57t60.5 -150q0 -137 -127 -229l-113 -86h272v-174h-565v164l148 121q74 59 96 95t22 77q0 31 -21.5 50t-59.5 19q-51 0 -138 -45z" />
<glyph unicode="&#xbe;" horiz-adv-x="1443" d="M307 690q-143 0 -246 62l48 110q96 -37 180 -37q104 0 104 74q0 39 -42 59.5t-165 16.5v133q113 -4 157 16.5t44 65.5q0 33 -24.5 53.5t-69.5 20.5q-74 0 -174 -54l-43 117q117 70 264 70q133 0 200.5 -51.5t67.5 -135.5q0 -117 -114 -151q59 -12 94 -53t35 -103 q0 -106 -85.5 -159.5t-230.5 -53.5zM1286 113v-113h-221v113h-317v149l213 416h325v-395h94v-170h-94zM1067 545l-139 -264h139v264zM188 0l859 1380h215l-856 -1380h-218z" />
<glyph unicode="&#xbf;" horiz-adv-x="860" d="M78 141q0 80 28.5 145.5t69.5 109.5l81 85q40 41 68.5 96.5t28.5 120.5v103h277v-96q0 -111 -39 -195t-84 -125t-84 -94t-39 -113q0 -119 154 -119q92 0 194 37l39 -211q-170 -61 -330 -61q-174 0 -269 85t-95 232zM344 1225h295v-279h-295v279z" />
<glyph unicode="&#xc0;" horiz-adv-x="1093" d="M1081 0h-299l-55 244h-379l-57 -244h-281l328 1380h418zM690 471l-151 647h-4l-150 -647h305zM645 1473h-203l-245 268h288z" />
<glyph unicode="&#xc1;" horiz-adv-x="1093" d="M1081 0h-299l-55 244h-379l-57 -244h-281l328 1380h418zM690 471l-151 647h-4l-150 -647h305zM428 1473l160 268h289l-246 -268h-203z" />
<glyph unicode="&#xc2;" horiz-adv-x="1093" d="M1081 0h-299l-55 244h-379l-57 -244h-281l328 1380h418zM690 471l-151 647h-4l-150 -647h305zM535 1561l-242 -97l-53 123l297 164l297 -162l-56 -125z" />
<glyph unicode="&#xc3;" horiz-adv-x="1093" d="M1081 0h-299l-55 244h-379l-57 -244h-281l328 1380h418zM690 471l-151 647h-4l-150 -647h305zM668 1470q-63 0 -111.5 29t-82.5 57.5t-60 28.5q-70 0 -70 -100h-135q-18 117 34 191.5t165 74.5q63 0 110 -28.5t81 -57.5t60 -29q72 0 72 99h135q18 -115 -33.5 -190 t-164.5 -75z" />
<glyph unicode="&#xc4;" horiz-adv-x="1093" d="M1081 0h-299l-55 244h-379l-57 -244h-281l328 1380h418zM690 471l-151 647h-4l-150 -647h305zM455 1708v-219h-222v219h222zM848 1708v-219h-221v219h221z" />
<glyph unicode="&#xc5;" horiz-adv-x="1093" d="M1081 0h-299l-55 244h-379l-57 -244h-281l328 1380h418zM690 471l-151 647h-4l-150 -647h305zM803 1554q0 -100 -66.5 -155t-193.5 -55q-131 0 -192.5 49t-61.5 159q0 96 63.5 152.5t194.5 56.5q129 0 192.5 -49t63.5 -158zM633 1554q0 88 -88 88.5t-88 -90t88 -90.5 t88 92z" />
<glyph unicode="&#xc6;" horiz-adv-x="1404" d="M627 0v244h-326l-92 -244h-285l527 1380h882v-233h-424v-324h383v-231h-383v-356h430v-236h-712zM627 471v662h-6l-252 -662h258z" />
<glyph unicode="&#xc7;" horiz-adv-x="950" d="M924 68q-172 -88 -363 -88q-252 0 -369.5 160.5t-117.5 545.5q0 352 135 533.5t379 181.5q182 0 330 -80l-66 -221q-119 59 -221 59q-131 0 -195.5 -107.5t-64.5 -361.5q0 -264 62.5 -364.5t191.5 -100.5q96 0 235 66zM652 -90l-148 -270h-190l92 270h246z" />
<glyph unicode="&#xc8;" horiz-adv-x="899" d="M836 0h-721v1380h714v-233h-426v-324h385v-231h-385v-356h433v-236zM600 1473h-203l-245 268h288z" />
<glyph unicode="&#xc9;" horiz-adv-x="899" d="M836 0h-721v1380h714v-233h-426v-324h385v-231h-385v-356h433v-236zM344 1473l160 268h289l-246 -268h-203z" />
<glyph unicode="&#xca;" horiz-adv-x="899" d="M836 0h-721v1380h714v-233h-426v-324h385v-231h-385v-356h433v-236zM473 1561l-242 -97l-53 123l297 164l297 -162l-55 -125z" />
<glyph unicode="&#xcb;" horiz-adv-x="899" d="M836 0h-721v1380h714v-233h-426v-324h385v-231h-385v-356h433v-236zM381 1708v-219h-221v219h221zM774 1708v-219h-221v219h221z" />
<glyph unicode="&#xcc;" horiz-adv-x="522" d="M406 0h-291v1380h291v-1380zM362 1473h-202l-246 268h289z" />
<glyph unicode="&#xcd;" horiz-adv-x="522" d="M406 0h-291v1380h291v-1380zM156 1473l159 268h289l-246 -268h-202z" />
<glyph unicode="&#xce;" horiz-adv-x="522" d="M406 0h-291v1380h291v-1380zM258 1561l-242 -97l-53 123l297 164l297 -162l-55 -125z" />
<glyph unicode="&#xcf;" horiz-adv-x="522" d="M406 0h-291v1380h291v-1380zM174 1708v-219h-221v219h221zM567 1708v-219h-221v219h221z" />
<glyph unicode="&#xd0;" horiz-adv-x="1226" d="M137 596h-108v225h108v559q258 4 387 4q336 0 481.5 -154.5t145.5 -529.5q0 -350 -156.5 -527t-484.5 -177q-152 0 -373 4v596zM610 596h-174v-373q74 -4 105 -4q172 0 246.5 118t74.5 361q0 240 -71.5 352.5t-253.5 112.5q-31 0 -101 -4v-338h174v-225z" />
<glyph unicode="&#xd1;" horiz-adv-x="1228" d="M1112 0h-315l-422 897v-897h-260v1380h331l406 -858v858h260v-1380zM739 1470q-63 0 -111 29t-82 57.5t-61 28.5q-70 0 -69 -100h-135q-18 117 34 191.5t164 74.5q63 0 110.5 -28.5t81.5 -57.5t60 -29q72 0 72 99h135q18 -115 -34 -190t-165 -75z" />
<glyph unicode="&#xd2;" horiz-adv-x="1286" d="M1212 694q0 -715 -565 -714h-14q-315 0 -437 169.5t-122 534.5q0 717 565 717h14q315 0 437 -172.5t122 -534.5zM913 692q0 244 -59 357.5t-211 113.5q-147 0 -208.5 -111.5t-61.5 -361.5q0 -244 59.5 -357.5t210.5 -113.5q145 0 207.5 111.5t62.5 361.5zM756 1473h-203 l-246 268h289z" />
<glyph unicode="&#xd3;" horiz-adv-x="1286" d="M1212 694q0 -715 -565 -714h-14q-315 0 -437 169.5t-122 534.5q0 717 565 717h14q315 0 437 -172.5t122 -534.5zM913 692q0 244 -59 357.5t-211 113.5q-147 0 -208.5 -111.5t-61.5 -361.5q0 -244 59.5 -357.5t210.5 -113.5q145 0 207.5 111.5t62.5 361.5zM537 1473 l159 268h289l-246 -268h-202z" />
<glyph unicode="&#xd4;" horiz-adv-x="1286" d="M1212 694q0 -715 -565 -714h-14q-315 0 -437 169.5t-122 534.5q0 717 565 717h14q315 0 437 -172.5t122 -534.5zM913 692q0 244 -59 357.5t-211 113.5q-147 0 -208.5 -111.5t-61.5 -361.5q0 -244 59.5 -357.5t210.5 -113.5q145 0 207.5 111.5t62.5 361.5zM643 1561 l-242 -97l-53 123l297 164l297 -162l-55 -125z" />
<glyph unicode="&#xd5;" horiz-adv-x="1286" d="M1212 694q0 -715 -565 -714h-14q-315 0 -437 169.5t-122 534.5q0 717 565 717h14q315 0 437 -172.5t122 -534.5zM913 692q0 244 -59 357.5t-211 113.5q-147 0 -208.5 -111.5t-61.5 -361.5q0 -244 59.5 -357.5t210.5 -113.5q145 0 207.5 111.5t62.5 361.5zM774 1470 q-63 0 -111.5 29t-82 57.5t-60.5 28.5q-70 0 -69 -100h-136q-18 117 34 191.5t165 74.5q63 0 110.5 -28.5t81 -57.5t60.5 -29q72 0 72 99h135q18 -115 -34 -190t-165 -75z" />
<glyph unicode="&#xd6;" horiz-adv-x="1286" d="M1212 694q0 -715 -565 -714h-14q-315 0 -437 169.5t-122 534.5q0 717 565 717h14q315 0 437 -172.5t122 -534.5zM913 692q0 244 -59 357.5t-211 113.5q-147 0 -208.5 -111.5t-61.5 -361.5q0 -244 59.5 -357.5t210.5 -113.5q145 0 207.5 111.5t62.5 361.5zM553 1708v-219 h-221v219h221zM946 1708v-219h-221v219h221z" />
<glyph unicode="&#xd7;" d="M1042 287l-149 -152l-332 334l-332 -334l-143 146l330 331l-330 332l150 152l331 -332l332 332l143 -146l-331 -332z" />
<glyph unicode="&#xd8;" horiz-adv-x="1329" d="M997 1335q143 -72 203 -228.5t60 -412.5q0 -715 -586 -714h-17q-92 0 -143 14l-98 -275h-197l119 326q-139 72 -199.5 224.5t-60.5 414.5q0 717 588 717h14q88 0 143 -15l97 269h196zM893 1063l-299 -840q43 -14 86 -14q156 0 226.5 124t70.5 374q0 282 -84 356zM446 326 l297 833q-37 14 -92 15q-291 0 -291 -490q0 -284 86 -358z" />
<glyph unicode="&#xd9;" horiz-adv-x="1228" d="M1112 483q0 -500 -510 -499q-252 0 -369.5 114.5t-117.5 347.5v934h288v-919q0 -133 46.5 -189.5t164.5 -56.5q121 0 165 58.5t44 185.5v921h289v-897zM719 1473h-203l-246 268h289z" />
<glyph unicode="&#xda;" horiz-adv-x="1228" d="M1112 483q0 -500 -510 -499q-252 0 -369.5 114.5t-117.5 347.5v934h288v-919q0 -133 46.5 -189.5t164.5 -56.5q121 0 165 58.5t44 185.5v921h289v-897zM500 1473l159 268h289l-246 -268h-202z" />
<glyph unicode="&#xdb;" horiz-adv-x="1228" d="M1112 483q0 -500 -510 -499q-252 0 -369.5 114.5t-117.5 347.5v934h288v-919q0 -133 46.5 -189.5t164.5 -56.5q121 0 165 58.5t44 185.5v921h289v-897zM612 1561l-241 -97l-54 123l297 164l297 -162l-55 -125z" />
<glyph unicode="&#xdc;" horiz-adv-x="1228" d="M1112 483q0 -500 -510 -499q-252 0 -369.5 114.5t-117.5 347.5v934h288v-919q0 -133 46.5 -189.5t164.5 -56.5q121 0 165 58.5t44 185.5v921h289v-897zM528 1708v-219h-221v219h221zM922 1708v-219h-222v219h222z" />
<glyph unicode="&#xdd;" horiz-adv-x="983" d="M1008 1380l-377 -856v-524h-271v524l-385 856h318l127 -321l82 -217l78 211l125 327h303zM362 1473l160 268h289l-246 -268h-203z" />
<glyph unicode="&#xde;" horiz-adv-x="1073" d="M406 1161q39 2 129 2q502 0 501 -448q0 -209 -129 -336t-383 -127q-80 0 -118 2v-254h-291v1380h291v-219zM741 707q0 119 -46 174t-169 55q-86 0 -120 -2v-453q12 0 49 -1t67 -1q119 0 169 57.5t50 170.5z" />
<glyph unicode="&#xdf;" horiz-adv-x="1069" d="M1042 301q0 -156 -96 -238.5t-252 -82.5q-119 0 -209 36l35 207q61 -27 135 -26q53 0 82 26.5t29 67.5q0 47 -28.5 86t-69.5 72.5t-82 71.5t-70 101.5t-29 143.5q0 82 42 148.5t84 121t42 107.5q0 51 -30.5 85t-98.5 34q-76 0 -113.5 -52.5t-37.5 -144.5v-1065h-269v1055 q0 207 110 315.5t316 108.5q100 0 184.5 -26t149 -101.5t64.5 -192.5q0 -76 -28 -136t-60.5 -90t-60 -70t-27.5 -81t29.5 -78.5t71.5 -73.5t85 -77t72.5 -106.5t29.5 -145.5z" />
<glyph unicode="&#xe0;" horiz-adv-x="1003" d="M631 449h-68q-139 0 -190 -31t-51 -92q0 -55 30.5 -92t79.5 -37q82 0 199 110v142zM655 113q-86 -74 -153.5 -105t-157.5 -31q-127 0 -211 94.5t-84 243.5q0 156 130 243t392 87h60v29q0 100 -33 145t-129 45q-119 0 -326 -67l-51 186q225 94 418 94q215 0 302 -78.5 t87 -273.5v-725h-221zM619 1198l-195 -49l-270 285l248 63z" />
<glyph unicode="&#xe1;" horiz-adv-x="1003" d="M631 449h-68q-139 0 -190 -31t-51 -92q0 -55 30.5 -92t79.5 -37q82 0 199 110v142zM655 113q-86 -74 -153.5 -105t-157.5 -31q-127 0 -211 94.5t-84 243.5q0 156 130 243t392 87h60v29q0 100 -33 145t-129 45q-119 0 -326 -67l-51 186q225 94 418 94q215 0 302 -78.5 t87 -273.5v-725h-221zM835 1434l-270 -285l-195 49l218 299z" />
<glyph unicode="&#xe2;" horiz-adv-x="1003" d="M631 449h-68q-139 0 -190 -31t-51 -92q0 -55 30.5 -92t79.5 -37q82 0 199 110v142zM655 113q-86 -74 -153.5 -105t-157.5 -31q-127 0 -211 94.5t-84 243.5q0 156 130 243t392 87h60v29q0 100 -33 145t-129 45q-119 0 -326 -67l-51 186q225 94 418 94q215 0 302 -78.5 t87 -273.5v-725h-221zM790 1280l-79 -131l-215 127l-215 -127l-76 129l293 219z" />
<glyph unicode="&#xe3;" horiz-adv-x="1003" d="M631 449h-68q-139 0 -190 -31t-51 -92q0 -55 30.5 -92t79.5 -37q82 0 199 110v142zM655 113q-86 -74 -153.5 -105t-157.5 -31q-127 0 -211 94.5t-84 243.5q0 156 130 243t392 87h60v29q0 100 -33 145t-129 45q-119 0 -326 -67l-51 186q225 94 418 94q215 0 302 -78.5 t87 -273.5v-725h-221zM835 1458q18 -119 -34 -195.5t-164 -76.5q-63 0 -111.5 27.5t-82.5 56t-60 28.5q-70 0 -70 -96h-135q-18 119 34 195t165 76q63 0 110 -28t81 -55.5t61 -27.5q72 0 71 96h135z" />
<glyph unicode="&#xe4;" horiz-adv-x="1003" d="M631 449h-68q-139 0 -190 -31t-51 -92q0 -55 30.5 -92t79.5 -37q82 0 199 110v142zM655 113q-86 -74 -153.5 -105t-157.5 -31q-127 0 -211 94.5t-84 243.5q0 156 130 243t392 87h60v29q0 100 -33 145t-129 45q-119 0 -326 -67l-51 186q225 94 418 94q215 0 302 -78.5 t87 -273.5v-725h-221zM801 1231h-217v227h217v-227zM412 1231h-218v227h218v-227z" />
<glyph unicode="&#xe5;" horiz-adv-x="1003" d="M631 449h-68q-139 0 -190 -31t-51 -92q0 -55 30.5 -92t79.5 -37q82 0 199 110v142zM655 113q-86 -74 -153.5 -105t-157.5 -31q-127 0 -211 94.5t-84 243.5q0 156 130 243t392 87h60v29q0 100 -33 145t-129 45q-119 0 -326 -67l-51 186q225 94 418 94q215 0 302 -78.5 t87 -273.5v-725h-221zM756 1343q0 -100 -66.5 -155t-193.5 -55q-131 0 -192.5 49t-61.5 159q0 96 63.5 152.5t194.5 56.5q129 0 192.5 -49t63.5 -158zM586 1343q0 88 -88 88.5t-88 -90t88 -90.5t88 92z" />
<glyph unicode="&#xe6;" horiz-adv-x="1540" d="M629 449h-66q-139 0 -190 -31t-51 -92q0 -55 30.5 -92t79.5 -37q90 0 207 125q-10 92 -10 127zM702 147q-90 -88 -173 -129t-185 -41q-127 0 -211 94.5t-84 243.5q0 156 130 243t392 87h60v29q0 100 -33 145t-129 45q-119 0 -326 -67l-51 186q225 94 418 94 q233 0 289 -114q80 115 274 114q180 0 288.5 -118.5t108.5 -350.5q0 -96 -8 -164h-569q0 -131 45 -188t145 -57q141 0 324 51l49 -187q-205 -84 -409 -83q-249 -1 -345 167zM1208 639v14q0 215 -155 215q-80 0 -120 -65.5t-42 -163.5h317z" />
<glyph unicode="&#xe7;" horiz-adv-x="751" d="M674 274l61 -219q-129 -76 -280 -75q-188 0 -288.5 123.5t-100.5 416.5q0 274 109.5 415.5t303.5 141.5q127 0 248 -69l-59 -222q-82 45 -144 45q-182 0 -182 -305q0 -295 172 -295q58 0 160 43zM535 -90l-148 -270h-190l92 270h246z" />
<glyph unicode="&#xe8;" horiz-adv-x="980" d="M897 63q-205 -84 -412 -83q-227 0 -324.5 130t-97.5 412q0 272 116 413.5t335 141.5q180 0 288.5 -118.5t108.5 -350.5q0 -96 -8 -164h-569q0 -131 45 -188t145 -57q141 0 324 51zM647 639v14q0 215 -153 215q-80 0 -120 -65.5t-42 -163.5h315zM608 1198l-195 -49 l-270 285l248 63z" />
<glyph unicode="&#xe9;" horiz-adv-x="980" d="M897 63q-205 -84 -412 -83q-227 0 -324.5 130t-97.5 412q0 272 116 413.5t335 141.5q180 0 288.5 -118.5t108.5 -350.5q0 -96 -8 -164h-569q0 -131 45 -188t145 -57q141 0 324 51zM647 639v14q0 215 -153 215q-80 0 -120 -65.5t-42 -163.5h315zM848 1434l-270 -285 l-195 49l218 299z" />
<glyph unicode="&#xea;" horiz-adv-x="980" d="M897 63q-205 -84 -412 -83q-227 0 -324.5 130t-97.5 412q0 272 116 413.5t335 141.5q180 0 288.5 -118.5t108.5 -350.5q0 -96 -8 -164h-569q0 -131 45 -188t145 -57q141 0 324 51zM647 639v14q0 215 -153 215q-80 0 -120 -65.5t-42 -163.5h315zM784 1280l-79 -131 l-215 127l-215 -127l-76 129l293 219z" />
<glyph unicode="&#xeb;" horiz-adv-x="980" d="M897 63q-205 -84 -412 -83q-227 0 -324.5 130t-97.5 412q0 272 116 413.5t335 141.5q180 0 288.5 -118.5t108.5 -350.5q0 -96 -8 -164h-569q0 -131 45 -188t145 -57q141 0 324 51zM647 639v14q0 215 -153 215q-80 0 -120 -65.5t-42 -163.5h315zM801 1231h-217v227h217 v-227zM412 1231h-218v227h218v-227z" />
<glyph unicode="&#xec;" horiz-adv-x="481" d="M375 0h-269v1055h269v-1055zM381 1198l-195 -49l-270 285l248 63z" />
<glyph unicode="&#xed;" horiz-adv-x="481" d="M375 0h-269v1055h269v-1055zM573 1434l-270 -285l-195 49l218 299z" />
<glyph unicode="&#xee;" horiz-adv-x="481" d="M375 0h-269v1055h269v-1055zM536 1280l-79 -131l-215 127l-215 -127l-76 129l293 219z" />
<glyph unicode="&#xef;" horiz-adv-x="481" d="M375 0h-269v1055h269v-1055zM545 1231h-217v227h217v-227zM156 1231h-218v227h218v-227z" />
<glyph unicode="&#xf0;" horiz-adv-x="1001" d="M754 1249q184 -270 184 -637q0 -324 -103.5 -478t-345.5 -154h-6q-418 0 -417 542q0 240 88 390.5t237 150.5h12q92 0 191 -84q-33 106 -100 207l-193 -60l-98 146l180 53q-70 70 -115 100l271 64q57 -41 110 -98l168 55l98 -148zM666 549q0 100 -13 182q-88 98 -168 98 q-70 0 -108.5 -80.5t-38.5 -220.5q0 -307 164 -307q88 0 126 78t38 250z" />
<glyph unicode="&#xf1;" horiz-adv-x="1038" d="M934 0h-270v641q0 188 -113 188q-76 0 -176 -94v-735h-269v1055h224l20 -111q94 78 161 105.5t146 27.5q127 0 202 -93t75 -271v-713zM847 1458q18 -119 -34 -195.5t-164 -76.5q-63 0 -111.5 27.5t-82.5 56t-60 28.5q-70 0 -70 -96h-135q-18 119 34 195t165 76 q63 0 110 -28t81 -55.5t61 -27.5q72 0 71 96h135z" />
<glyph unicode="&#xf2;" horiz-adv-x="1036" d="M973 530q0 -258 -115 -404t-342 -146h-6q-227 0 -337 125.5t-110 416.5q0 262 115 408.5t344 146.5h6q225 0 335 -127t110 -420zM700 526q0 313 -180 314q-184 0 -184 -314q0 -309 180 -309q184 0 184 309zM633 1198l-195 -49l-270 285l248 63z" />
<glyph unicode="&#xf3;" horiz-adv-x="1036" d="M973 530q0 -258 -115 -404t-342 -146h-6q-227 0 -337 125.5t-110 416.5q0 262 115 408.5t344 146.5h6q225 0 335 -127t110 -420zM700 526q0 313 -180 314q-184 0 -184 -314q0 -309 180 -309q184 0 184 309zM864 1434l-270 -285l-195 49l218 299z" />
<glyph unicode="&#xf4;" horiz-adv-x="1036" d="M973 530q0 -258 -115 -404t-342 -146h-6q-227 0 -337 125.5t-110 416.5q0 262 115 408.5t344 146.5h6q225 0 335 -127t110 -420zM700 526q0 313 -180 314q-184 0 -184 -314q0 -309 180 -309q184 0 184 309zM813 1280l-79 -131l-215 127l-215 -127l-76 129l293 219z" />
<glyph unicode="&#xf5;" horiz-adv-x="1036" d="M973 530q0 -258 -115 -404t-342 -146h-6q-227 0 -337 125.5t-110 416.5q0 262 115 408.5t344 146.5h6q225 0 335 -127t110 -420zM700 526q0 313 -180 314q-184 0 -184 -314q0 -309 180 -309q184 0 184 309zM847 1458q18 -119 -34 -195.5t-164 -76.5q-63 0 -111.5 27.5 t-82.5 56t-60 28.5q-70 0 -70 -96h-135q-18 119 34 195t165 76q63 0 110 -28t81 -55.5t61 -27.5q72 0 71 96h135z" />
<glyph unicode="&#xf6;" horiz-adv-x="1036" d="M973 530q0 -258 -115 -404t-342 -146h-6q-227 0 -337 125.5t-110 416.5q0 262 115 408.5t344 146.5h6q225 0 335 -127t110 -420zM700 526q0 313 -180 314q-184 0 -184 -314q0 -309 180 -309q184 0 184 309zM824 1231h-217v227h217v-227zM435 1231h-218v227h218v-227z" />
<glyph unicode="&#xf7;" d="M1018 508h-909v211h909v-211zM700 72h-274v274h274v-274zM700 881h-274v274h274v-274z" />
<glyph unicode="&#xf8;" horiz-adv-x="1077" d="M815 1022q199 -111 199 -490q0 -256 -116 -404t-355 -148h-6q-74 0 -107 8l-100 -269h-185l117 316q-199 111 -199 487q0 260 116 407.5t356 147.5h6q53 0 106 -8l88 236h187zM715 764l-207 -551q16 -4 55 -4q98 0 147.5 93t49.5 243q0 164 -45 219zM362 291l207 553 q-29 6 -55 6q-98 0 -147.5 -92t-49.5 -250q0 -162 45 -217z" />
<glyph unicode="&#xf9;" horiz-adv-x="1038" d="M104 1055h269v-641q0 -84 28.5 -137.5t83.5 -53.5q80 0 177 90v742h270v-1055h-223l-23 111q-160 -131 -307 -131q-125 0 -200 92t-75 270v713zM615 1198l-195 -49l-270 285l248 63z" />
<glyph unicode="&#xfa;" horiz-adv-x="1038" d="M104 1055h269v-641q0 -84 28.5 -137.5t83.5 -53.5q80 0 177 90v742h270v-1055h-223l-23 111q-160 -131 -307 -131q-125 0 -200 92t-75 270v713zM862 1434l-270 -285l-195 49l218 299z" />
<glyph unicode="&#xfb;" horiz-adv-x="1038" d="M104 1055h269v-641q0 -84 28.5 -137.5t83.5 -53.5q80 0 177 90v742h270v-1055h-223l-23 111q-160 -131 -307 -131q-125 0 -200 92t-75 270v713zM808 1280l-79 -131l-215 127l-215 -127l-76 129l293 219z" />
<glyph unicode="&#xfc;" horiz-adv-x="1038" d="M104 1055h269v-641q0 -84 28.5 -137.5t83.5 -53.5q80 0 177 90v742h270v-1055h-223l-23 111q-160 -131 -307 -131q-125 0 -200 92t-75 270v713zM815 1231h-217v227h217v-227zM426 1231h-218v227h218v-227z" />
<glyph unicode="&#xfd;" horiz-adv-x="909" d="M911 1055l-217 -856q-102 -416 -491 -576l-115 197q158 74 205 182l-289 1053h297l131 -561l39 -226h2l39 262l113 525h286zM821 1434l-270 -285l-195 49l218 299z" />
<glyph unicode="&#xfe;" horiz-adv-x="1024" d="M637 1077q147 0 235.5 -139t88.5 -399q0 -270 -102.5 -416t-260.5 -146q-104 0 -223 105v-424l-269 -35v1825l269 41v-528q145 116 262 116zM686 532q0 299 -139 299q-66 0 -172 -96v-420q104 -92 164 -92q68 0 107.5 77.5t39.5 231.5z" />
<glyph unicode="&#xff;" horiz-adv-x="909" d="M911 1055l-217 -856q-102 -416 -491 -576l-115 197q158 74 205 182l-289 1053h297l131 -561l39 -226h2l39 262l113 525h286zM770 1231h-217v227h217v-227zM381 1231h-218v227h218v-227z" />
<glyph unicode="&#x131;" horiz-adv-x="481" d="M375 0h-269v1055h269v-1055z" />
<glyph unicode="&#x152;" horiz-adv-x="1562" d="M1499 0h-635q-143 -20 -217 -20h-14q-315 0 -437 171t-122 533q0 717 565 717h14q61 0 226 -21h614v-233h-426v-324h385v-231h-385v-356h432v-236zM780 233v910q-61 20 -137 20q-147 0 -208.5 -111.5t-61.5 -361.5q0 -244 59.5 -357.5t210.5 -113.5q74 0 137 14z" />
<glyph unicode="&#x153;" horiz-adv-x="1611" d="M844 946q109 131 301 131q180 0 288.5 -118.5t108.5 -350.5q0 -96 -8 -164h-569q0 -131 45 -188t145 -57q141 0 324 51l49 -187q-205 -84 -412 -83q-215 0 -299 131q-98 -131 -301 -131h-6q-227 0 -337 125.5t-110 416.5q0 262 115 408.5t344 146.5h6q210 0 316 -131z M700 526q0 313 -180 314q-184 0 -184 -314q0 -309 180 -309q184 0 184 309zM1278 639v14q0 215 -154 215q-80 0 -119.5 -65.5t-41.5 -163.5h315z" />
<glyph unicode="&#x178;" horiz-adv-x="983" d="M1008 1380l-377 -856v-524h-271v524l-385 856h318l127 -321l82 -217l78 211l125 327h303zM412 1708v-219h-222v219h222zM805 1708v-219h-221v219h221z" />
<glyph unicode="&#x2c6;" horiz-adv-x="819" d="M702 1280l-79 -131l-215 127l-215 -127l-76 129l293 219z" />
<glyph unicode="&#x2da;" horiz-adv-x="819" d="M668 1343q0 -100 -66.5 -155t-193.5 -55q-131 0 -192.5 49t-61.5 159q0 96 63.5 152.5t194.5 56.5q129 0 192.5 -49t63.5 -158zM498 1343q0 88 -88 88.5t-88 -90t88 -90.5t88 92z" />
<glyph unicode="&#x2dc;" horiz-adv-x="819" d="M741 1458q18 -119 -34 -195.5t-164 -76.5q-63 0 -111.5 27.5t-82.5 56t-60 28.5q-70 0 -70 -96h-135q-18 119 34 195t165 76q63 0 110 -28t81 -55.5t61 -27.5q72 0 71 96h135z" />
<glyph unicode="&#x2000;" horiz-adv-x="880" />
<glyph unicode="&#x2001;" horiz-adv-x="1761" />
<glyph unicode="&#x2002;" horiz-adv-x="880" />
<glyph unicode="&#x2003;" horiz-adv-x="1761" />
<glyph unicode="&#x2004;" horiz-adv-x="585" />
<glyph unicode="&#x2005;" horiz-adv-x="440" />
<glyph unicode="&#x2006;" horiz-adv-x="292" />
<glyph unicode="&#x2007;" horiz-adv-x="292" />
<glyph unicode="&#x2008;" horiz-adv-x="219" />
<glyph unicode="&#x2009;" horiz-adv-x="352" />
<glyph unicode="&#x200a;" horiz-adv-x="96" />
<glyph unicode="&#x2010;" horiz-adv-x="563" d="M506 469h-440v233h440v-233z" />
<glyph unicode="&#x2011;" horiz-adv-x="563" d="M506 469h-440v233h440v-233z" />
<glyph unicode="&#x2012;" horiz-adv-x="563" d="M506 469h-440v233h440v-233z" />
<glyph unicode="&#x2013;" horiz-adv-x="1024" d="M1024 500h-1024v227h1024v-227z" />
<glyph unicode="&#x2014;" horiz-adv-x="2048" d="M1843 500h-1638v227h1638v-227z" />
<glyph unicode="&#x2018;" horiz-adv-x="569" d="M61 979l250 598l217 -57l-174 -619z" />
<glyph unicode="&#x2019;" horiz-adv-x="569" d="M528 1501l-252 -600l-215 57l175 619z" />
<glyph unicode="&#x201a;" horiz-adv-x="559" d="M485 250l-252 -598l-215 57l175 619z" />
<glyph unicode="&#x201c;" horiz-adv-x="993" d="M61 993l254 576l197 -56l-182 -593zM516 983l238 582l196 -56l-166 -602z" />
<glyph unicode="&#x201d;" horiz-adv-x="993" d="M950 1483l-252 -576l-196 58l182 594zM498 1495l-240 -584l-197 58l168 600z" />
<glyph unicode="&#x201e;" horiz-adv-x="995" d="M915 242l-253 -574l-197 56l182 593zM461 254l-238 -582l-196 56l166 600z" />
<glyph unicode="&#x2022;" d="M952 612.5q0 -161.5 -112.5 -274.5t-276.5 -113t-276.5 113t-112.5 274.5t113.5 275t275.5 113.5t275.5 -113.5t113.5 -275z" />
<glyph unicode="&#x2026;" horiz-adv-x="1497" d="M1370 0h-272v299h272v-299zM885 0h-273v299h273v-299zM399 0h-274v299h274v-299z" />
<glyph unicode="&#x202f;" horiz-adv-x="352" />
<glyph unicode="&#x2039;" horiz-adv-x="722" d="M598 178l-221 -57l-299 491l301 494l219 -59l-213 -433z" />
<glyph unicode="&#x203a;" horiz-adv-x="722" d="M127 1049l219 57l299 -492l-301 -493l-217 59l211 432z" />
<glyph unicode="&#x205f;" horiz-adv-x="440" />
<glyph unicode="&#x20ac;" d="M182 918q86 434 508 434q172 0 338 -76l-61 -189q-131 51 -250 52q-219 0 -260 -221h331v-179h-350q-4 -37 -4 -67q0 -47 2 -74h352v-178h-333q16 -117 74.5 -169t175.5 -52q139 0 272 59l63 -192q-178 -86 -374 -86q-225 0 -341 99t-153 341h-135v178h121v61q0 51 2 80 h-123v179h145z" />
<glyph unicode="&#x2122;" horiz-adv-x="1302" d="M1276 793h-191l-45 340l-96 -340h-172l-88 340l-35 -340h-182l92 587h223l84 -329l97 329h219zM459 1223h-127v-430h-191v430h-127v157h445v-157z" />
<glyph unicode="&#xe000;" horiz-adv-x="1055" d="M0 1055h1055v-1055h-1055v1055z" />
<glyph unicode="&#xf001;" horiz-adv-x="1042" d="M936 1223h-264v256h264v-256zM936 0h-270v844h-269v-844h-270v844h-127v211h127v108q0 164 76 245t235 81q80 0 135 -12l-6 -199q-33 8 -73 8q-53 0 -76 -30.5t-23 -96.5v-104h541v-1055z" />
<glyph unicode="&#xfb01;" horiz-adv-x="1042" d="M936 1223h-264v256h264v-256zM936 0h-270v844h-269v-844h-270v844h-127v211h127v108q0 164 76 245t235 81q80 0 135 -12l-6 -199q-33 8 -73 8q-53 0 -76 -30.5t-23 -96.5v-104h541v-1055z" />
<glyph unicode="&#xf002;" horiz-adv-x="1042" d="M936 0h-270v1270q-59 16 -129 16q-82 0 -112 -31.5t-30 -105.5v-94h135v-211h-133v-844h-270v844h-127v211h127v102q0 332 369 332q113 0 252 -29l188 29v-1489z" />
<glyph unicode="&#xfb02;" horiz-adv-x="1042" d="M936 0h-270v1270q-59 16 -129 16q-82 0 -112 -31.5t-30 -105.5v-94h135v-211h-133v-844h-270v844h-127v211h127v102q0 332 369 332q113 0 252 -29l188 29v-1489z" />
<glyph unicode="&#xfb03;" horiz-adv-x="1597" d="M1491 1223h-262v256h262v-256zM1491 0h-268v844h-271v-844h-268v844h-287v-844h-270v844h-127v211h127v108q0 326 315 326q86 0 150 -16l-17 -195q-37 8 -79 8q-55 0 -78 -30.5t-23 -96.5v-104h289v108q0 326 309 326q80 0 135 -12l-6 -199q-33 8 -73 8q-53 0 -76 -30.5 t-23 -96.5v-104h541v-1055z" />
<glyph unicode="&#xfb04;" horiz-adv-x="1597" d="M1491 0h-268v1270q-59 16 -131 16q-82 0 -112 -31.5t-30 -105.5v-94h135v-211h-133v-844h-268v844h-287v-844h-270v844h-127v211h127v108q0 326 315 326q86 0 150 -16l-17 -195q-37 8 -79 8q-55 0 -78 -30.5t-23 -96.5v-104h289v102q0 332 367 332q113 0 252 -29l188 29 v-1489z" />
</font>
</defs>
</svg>
