<?xml version="1.0" standalone="no"?>
<!DOCTYPE svg PUBLIC "-//W3C//DTD SVG 1.1//EN" "http://www.w3.org/Graphics/SVG/1.1/DTD/svg11.dtd" >
<svg xmlns="http://www.w3.org/2000/svg">
<metadata>
This is a custom SVG webfont generated by Font Squirrel.
Designer    : Luc(as) de Groot
Foundry     : Luc_as_ de Groot
Foundry URL : http://www.LucasFonts.com
</metadata>
<defs>
<font id="webfontnafUXivL" horiz-adv-x="539" >
<font-face units-per-em="1000" ascent="800" descent="-200" />
<missing-glyph horiz-adv-x="210" />
<glyph unicode=" "  horiz-adv-x="210" />
<glyph unicode="&#x09;" horiz-adv-x="210" />
<glyph unicode="&#xa0;" horiz-adv-x="210" />
<glyph unicode="!" horiz-adv-x="282" d="M169 185h-55l95 489h56zM135 0h-58l15 82h59z" />
<glyph unicode="&#x22;" horiz-adv-x="424" d="M365 463h-53l50 257h53zM181 463h-52l50 257h52z" />
<glyph unicode="#" horiz-adv-x="599" d="M596 465h-120l-67 -226h115l-9 -45h-119l-57 -194h-51l57 194h-170l-56 -194h-52l57 194h-108l8 45h114l67 226h-108l8 44h113l49 165h51l-48 -165h169l48 165h51l-48 -165h115zM425 465h-168l-68 -226h169z" />
<glyph unicode="$" horiz-adv-x="428" d="M370 186q0 -68 -48 -120t-125 -62l-24 -120h-49l23 116q-76 0 -136 33l22 46q55 -31 125 -31q67 0 112 38.5t45 96.5q0 36 -23.5 63.5t-56.5 47.5l-66 40q-33 21 -56.5 54.5t-23.5 77.5q0 78 55.5 127t127.5 52l20 99h49l-20 -99q63 -7 112 -40l-23 -41q-59 36 -123 36 t-103.5 -36.5t-39.5 -91.5q0 -34 23.5 -61t56.5 -47l66 -43q33 -22 56.5 -56.5t23.5 -78.5z" />
<glyph unicode="%" horiz-adv-x="673" d="M344 511q-15 -75 -55 -120.5t-107 -45.5q-104 0 -104 106q0 27 6 60q15 75 55.5 121t107.5 46q103 0 103 -107q0 -27 -6 -60zM634 674l-518 -674h-53l519 674h52zM296 512q7 38 7 58q0 68 -62 68q-83 0 -110 -129q-6 -30 -6 -55q0 -70 63 -70q43 0 70 35.5t38 92.5z M609 162q-15 -75 -55 -120.5t-107 -45.5q-104 0 -104 107q0 27 6 60q15 75 55.5 120.5t107.5 45.5q103 0 103 -106q0 -27 -6 -61zM562 164q6 30 6 56q0 70 -62 70q-84 0 -109 -130q-7 -35 -7 -56q0 -68 63 -68q43 0 70.5 35t38.5 93z" />
<glyph unicode="&#x26;" horiz-adv-x="733" d="M706 458q-47 -14 -108 -41q29 -73 29 -136q0 -116 -89 -200.5t-245 -84.5q-117 0 -179.5 45t-62.5 127q0 70 40 128.5t113 74.5q-63 22 -63 100q0 83 56 145t151 62q71 0 143 -32l-16 -42q-63 27 -127 27q-74 0 -114 -47.5t-40 -106.5q0 -85 98 -85h26l-9 -47h-30 q-79 0 -125 -50t-46 -119q0 -61 49 -96.5t146 -35.5q69 0 123.5 21.5t85 56t45.5 71.5t15 74q0 49 -30 126q-51 -24 -117 -62l-15 40q127 75 283 128z" />
<glyph unicode="'" horiz-adv-x="239" d="M182 463h-53l50 257h53z" />
<glyph unicode="(" horiz-adv-x="312" d="M319 762l45 -11q-109 -148 -162 -305t-53 -302q0 -135 43 -266l-48 -9q-49 126 -49 271q0 154 58.5 320t165.5 302z" />
<glyph unicode=")" horiz-adv-x="312" d="M12 -131l-45 11q109 150 162.5 306.5t53.5 300.5q0 132 -44 267l49 8q48 -126 48 -271q0 -154 -58.5 -320t-165.5 -302z" />
<glyph unicode="*" horiz-adv-x="433" d="M429 490l-32 -47l-111 82l-4 -146h-53l25 146l-128 -82l-21 45l136 65l-123 64l31 46l111 -82l5 147h52l-25 -147l129 82l20 -45l-136 -64z" />
<glyph unicode="+" d="M479 275h-185l-39 -205h-51l40 205h-185l9 46h184l41 204h50l-40 -204h184z" />
<glyph unicode="," horiz-adv-x="257" d="M149 78l-157 -251l-40 14l136 258z" />
<glyph unicode="-" horiz-adv-x="248" d="M216 260h-182l9 49h183z" />
<glyph unicode="." horiz-adv-x="248" d="M102 0h-63l18 94h63z" />
<glyph unicode="/" horiz-adv-x="396" d="M490 800l-506 -945h-51l506 945h51z" />
<glyph unicode="0" d="M489 323q-10 -52 -24 -96t-37 -88t-52 -74.5t-71 -49.5t-92 -19q-160 0 -160 196q0 59 15 136q13 65 33 119t52 103t81 76.5t110 27.5q160 0 160 -197q0 -57 -15 -134zM434 327q15 84 15 130q0 149 -113 149q-157 0 -214 -283q-15 -77 -15 -129q0 -150 114 -150 q158 0 213 283z" />
<glyph unicode="1" horiz-adv-x="335" d="M191 0h-56l115 589l-176 -75l-5 44l198 92h50z" />
<glyph unicode="2" horiz-adv-x="489" d="M381 0h-391l8 45l231 204q164 145 164 266q0 42 -25.5 66.5t-76.5 24.5q-60 0 -168 -53l-14 39q108 62 195 62q71 0 108 -34t37 -96q0 -144 -171 -292l-209 -183h321z" />
<glyph unicode="3" horiz-adv-x="484" d="M163 -4q-95 0 -172 46l18 41q80 -39 161 -39q92 0 134 52t42 121q0 45 -34.5 68t-121.5 23h-72l9 47h71q99 0 142 43q19 19 32 55t13 73q0 80 -97 80q-71 0 -165 -46l-16 38q105 56 193 56q72 0 107 -32t35 -89q0 -64 -35 -124.5t-101 -76.5q98 -12 98 -114 q0 -40 -13.5 -77.5t-40.5 -70.5t-75.5 -53.5t-111.5 -20.5z" />
<glyph unicode="4" horiz-adv-x="497" d="M449 134h-97l-26 -134h-55l26 134h-302l9 46l364 470h85l-91 -467h97zM307 183l81 418h-1l-324 -418h244z" />
<glyph unicode="5" horiz-adv-x="488" d="M157 -4q-93 0 -166 42l20 44q81 -38 155 -38q97 0 142 45q25 25 40.5 72t15.5 88q0 47 -37.5 64.5t-137.5 17.5q-36 0 -98 -6l93 325h279l-14 -49h-231l-64 -224q46 2 63 2q116 0 160.5 -30.5t44.5 -91.5q0 -52 -18 -107t-51 -89q-65 -65 -196 -65z" />
<glyph unicode="6" horiz-adv-x="510" d="M198 -4q-80 0 -115 39t-35 121q0 53 18 150q34 175 104 261.5t205 86.5q70 0 117 -18l-11 -43q-65 13 -115 13q-185 0 -236 -254q98 47 166 47q152 0 152 -125q0 -32 -6.5 -66.5t-24.5 -73.5t-45 -69t-72 -49.5t-102 -19.5zM393 269q0 83 -114 83q-73 0 -158 -47 q-19 -95 -19 -145q0 -63 24.5 -89.5t80.5 -26.5q43 0 77.5 16t54 40t32.5 55.5t17.5 59t4.5 54.5z" />
<glyph unicode="7" horiz-adv-x="440" d="M473 603l-377 -603h-63l382 601h-312l10 49h369z" />
<glyph unicode="8" horiz-adv-x="518" d="M319 340q57 -37 87.5 -73.5t30.5 -91.5q0 -77 -60 -128t-171 -51h-4q-171 0 -171 119q0 39 15 72.5t46 61t59.5 46.5t72.5 43q-49 34 -75 68.5t-26 82.5q0 72 54 118.5t155 46.5h3q75 0 115 -28t40 -80q0 -67 -44.5 -113.5t-126.5 -92.5zM275 367q78 42 119 80t41 90 q0 70 -109 70q-74 0 -111.5 -32t-37.5 -79q0 -41 25 -69.5t73 -59.5zM266 311q-45 -24 -69 -39t-54 -39t-43.5 -51t-13.5 -58q0 -81 126 -81q76 0 122.5 33t46.5 92q0 44 -29 75t-86 68z" />
<glyph unicode="9" horiz-adv-x="510" d="M330 654q80 0 115 -39t35 -121q0 -62 -18 -150q-34 -175 -104 -261.5t-205 -86.5q-68 0 -120 18l12 43q68 -13 117 -13q185 0 236 254q-94 -47 -166 -47q-152 0 -152 125q0 32 6.5 66.5t24.5 73.5t45 69t72 49.5t102 19.5zM135 381q0 -83 114 -83q73 0 158 47 q19 95 19 145q0 63 -24.5 89.5t-80.5 26.5q-43 0 -77.5 -16t-54 -40t-32.5 -55.5t-17.5 -59t-4.5 -54.5z" />
<glyph unicode=":" horiz-adv-x="303" d="M135 0h-63l19 94h63zM215 415h-63l19 94h63z" />
<glyph unicode=";" horiz-adv-x="303" d="M215 415h-63l19 94h63zM160 78l-157 -251l-39 14l136 258z" />
<glyph unicode="&#x37e;" horiz-adv-x="303" d="M215 415h-63l19 94h63zM160 78l-157 -251l-39 14l136 258z" />
<glyph unicode="&#x3c;" d="M406 52l-337 227l8 38l425 227l-13 -60l-360 -188l288 -188z" />
<glyph unicode="=" d="M498 371h-419l8 47h419zM460 178h-419l9 46h419z" />
<glyph unicode="&#x3e;" d="M470 279l-424 -227l11 61l362 187l-289 188l11 56l337 -227z" />
<glyph unicode="?" horiz-adv-x="417" d="M197 245l-12 -60h-54l12 66q8 40 32 74.5t53 58.5l57 50q28 25 46.5 57t18.5 69q0 70 -91 70q-46 0 -112 -19l-7 43q79 24 132 24q64 0 100 -29t36 -81q0 -47 -19.5 -84.5t-48.5 -63.5l-58 -49q-29 -24 -53.5 -56t-31.5 -70zM152 0h-59l15 82h59z" />
<glyph unicode="@" horiz-adv-x="921" d="M542 77h-39l12 68q-92 -74 -145 -74q-41 0 -64.5 30t-23.5 89q0 69 24 142t72 127t105 54q51 0 109 -71l24 67h40l-101 -388q256 0 256 330q0 49 -10.5 84.5t-37.5 65t-77.5 44.5t-125.5 15q-85 0 -154.5 -26t-113.5 -70t-75.5 -96t-47.5 -111.5t-23 -107.5t-7 -92 q0 -121 61 -178t189 -57h172l-8 -38q-85 -8 -173 -8q-292 0 -292 276q0 43 5.5 89t20.5 101t38 105t61 97.5t86 82.5t116.5 56t149.5 21q70 0 122.5 -13t85 -35t53 -55t28 -68.5t7.5 -79.5q0 -53 -6.5 -100t-27 -100t-54.5 -90t-93 -61.5t-138 -24.5zM575 395 q-32 42 -51.5 57t-40.5 15q-40 0 -76 -46t-55 -109.5t-19 -119.5q0 -75 48 -75q45 0 143 83z" />
<glyph unicode="A" horiz-adv-x="502" d="M427 0h-57l-14 156h-257l-73 -156h-58l325 674h71zM353 203l-37 410h-1l-195 -410h233z" />
<glyph unicode="B" horiz-adv-x="494" d="M153 -1q-19 0 -59.5 0.5t-63.5 0.5l131 673q92 2 122 2q184 0 184 -127q0 -77 -41 -130.5t-110 -66.5q109 -19 109 -116q0 -31 -6 -60.5t-24.5 -62.5t-47.5 -57t-79 -40t-115 -16zM412 542q0 42 -32.5 63.5t-112.5 21.5q-31 0 -61 -2l-49 -252q17 -1 44 -1q211 0 211 170 zM368 231q0 44 -38.5 68.5t-134.5 24.5q-33 0 -48 -1l-53 -274q21 -2 63 -2q64 0 108.5 17.5t65.5 47t29 58t8 61.5z" />
<glyph unicode="C" horiz-adv-x="477" d="M408 44q-91 -48 -181 -48q-86 0 -130 44.5t-44 147.5q0 58 19 155q31 166 108.5 250.5t182.5 84.5q86 0 151 -47l-20 -42q-59 41 -129 41q-179 0 -239 -301q-16 -86 -16 -136q0 -79 32 -113.5t99 -34.5q73 0 159 45z" />
<glyph unicode="D" horiz-adv-x="559" d="M512 333q-31 -158 -117.5 -246.5t-226.5 -88.5q-40 0 -138 2l131 674q90 2 127 2q122 0 179.5 -54.5t57.5 -163.5q0 -65 -13 -125zM457 348q11 60 11 114q0 82 -44 124t-142 42q-39 0 -75 -2l-113 -578q36 -2 74 -2q121 0 190.5 76.5t98.5 225.5z" />
<glyph unicode="E" horiz-adv-x="418" d="M321 0h-291l131 674h288l-9 -48h-233l-50 -254h213l-10 -48h-212l-54 -276h236z" />
<glyph unicode="F" horiz-adv-x="400" d="M427 626h-220l-50 -255h204l-9 -48h-204l-63 -323h-55l131 674h275z" />
<glyph unicode="G" horiz-adv-x="528" d="M415 39q-89 -43 -180 -43q-92 0 -137 43t-45 144q0 64 17 155q66 340 307 340q82 0 150 -37l-18 -44q-71 33 -131 33q-99 0 -160.5 -72.5t-92.5 -230.5q-15 -81 -15 -134q0 -79 33 -113.5t104 -34.5q56 0 119 23l46 242h55z" />
<glyph unicode="H" horiz-adv-x="580" d="M442 0h-55l63 324h-302l-63 -324h-55l131 674h55l-59 -301h302l59 301h55z" />
<glyph unicode="I" horiz-adv-x="223" d="M85 0h-55l131 674h55z" />
<glyph unicode="J" horiz-adv-x="317" d="M220 210q-21 -108 -62.5 -160.5t-115.5 -52.5q-55 0 -99 11l12 46q54 -9 87 -9q54 0 81 45t43 128l89 456h55z" />
<glyph unicode="K" horiz-adv-x="438" d="M376 0h-66l-155 343h-3l-67 -343h-55l131 674h55l-62 -319h3l260 319h70l-276 -325z" />
<glyph unicode="L" horiz-adv-x="348" d="M285 0h-255l131 674h55l-122 -625h200z" />
<glyph unicode="M" horiz-adv-x="735" d="M620 0h-54l80 623h-1l-313 -623h-39l-70 623h-1l-162 -623h-52l177 674h87l62 -560h1l279 560h91z" />
<glyph unicode="N" horiz-adv-x="578" d="M440 0h-73l-167 612l-119 -612h-51l131 674h77l165 -598l117 598h51z" />
<glyph unicode="O" horiz-adv-x="607" d="M559 327q-65 -331 -303 -331h-6q-100 0 -147.5 47.5t-47.5 151.5q0 61 17 151q63 332 303 332h6q100 0 147.5 -48t47.5 -153q0 -62 -17 -150zM506 344q14 73 14 126q0 160 -147 160q-101 0 -160 -74.5t-88 -223.5q-15 -78 -15 -127q0 -79 34.5 -120t112.5 -41 q101 0 160.5 75t88.5 225z" />
<glyph unicode="P" horiz-adv-x="485" d="M228 257q-63 0 -93 1l-50 -258h-55l131 673q48 2 152 2q177 0 177 -146q0 -30 -5.5 -61.5t-22.5 -71t-44 -69t-76.5 -50t-113.5 -20.5zM434 525q0 50 -30 76t-102 26q-45 0 -95 -2l-62 -317q60 -3 87 -3q50 0 88 16.5t59 40t34 55.5t17 57.5t4 50.5z" />
<glyph unicode="Q" horiz-adv-x="607" d="M576 477q0 -97 -31.5 -211.5t-82.5 -173.5l73 -103l-43 -33l-68 98q-67 -58 -168 -58h-6q-100 0 -147.5 47.5t-47.5 151.5q0 61 17 151q63 332 303 332h6q100 0 147.5 -48t47.5 -153zM520 470q0 160 -147 160q-101 0 -160 -74.5t-88 -223.5q-15 -78 -15 -127 q0 -79 34.5 -120t112.5 -41q79 0 138 51l-68 95l43 33l60 -86q40 56 65 158t25 175z" />
<glyph unicode="R" horiz-adv-x="498" d="M408 0h-61l-100 329h-99l-63 -329h-55l131 673q50 2 145 2q179 0 179 -125q0 -75 -45.5 -135t-138.5 -79zM427 545q0 41 -28 61.5t-97 20.5q-37 0 -95 -2l-49 -249h88q96 0 138.5 49.5t42.5 119.5z" />
<glyph unicode="S" horiz-adv-x="447" d="M170 -4q-88 0 -155 45l21 43q70 -39 135 -39q78 0 119.5 44.5t41.5 102.5q0 38 -24.5 68t-59.5 52l-68 44q-35 23 -59.5 58t-24.5 80q0 77 55.5 130.5t149.5 53.5q87 0 148 -41l-21 -40q-64 33 -128 33q-71 0 -110 -39t-39 -91q0 -37 24.5 -66t59.5 -50l69 -44 q35 -22 59.5 -58.5t24.5 -83.5q0 -87 -58.5 -144.5t-159.5 -57.5z" />
<glyph unicode="T" horiz-adv-x="408" d="M468 625h-169l-121 -625h-56l122 625h-168l9 49h393z" />
<glyph unicode="U" horiz-adv-x="573" d="M474 194q-38 -198 -241 -198q-104 0 -144 51q-27 34 -27 92q0 29 7 64l92 471h55l-93 -479q-6 -30 -6 -55q0 -38 15 -60q26 -36 107 -36q84 0 125 39t56 118l92 473h55z" />
<glyph unicode="V" horiz-adv-x="501" d="M557 674l-326 -674h-70l-63 674h57l48 -551l3 -67l31 68l260 550h60z" />
<glyph unicode="W" horiz-adv-x="762" d="M821 674l-280 -674h-75l-20 521v88h-1l-34 -88l-223 -521h-76l-17 674h58l10 -534l-2 -79h1l31 76l228 537h74l21 -534l-1 -79h1l29 78l217 535h59z" />
<glyph unicode="X" horiz-adv-x="489" d="M520 674l-227 -315l120 -359h-63l-84 259l-13 48h-1l-29 -42l-188 -265h-67l259 354l-105 320h59l71 -220l14 -48h1l37 53l150 215h66z" />
<glyph unicode="Y" horiz-adv-x="452" d="M520 674l-263 -384l-57 -290h-54l57 290l-116 384h61l51 -178l40 -148l88 134l128 192h65z" />
<glyph unicode="Z" horiz-adv-x="438" d="M342 0h-354l9 48l396 578h-280l10 48h339l-9 -46l-394 -579h292z" />
<glyph unicode="[" horiz-adv-x="354" d="M191 -190h-197l192 990h195l-10 -46h-141l-175 -898h145z" />
<glyph unicode="\" horiz-adv-x="396" d="M298 -145h-48l-138 945h47z" />
<glyph unicode="]" horiz-adv-x="354" d="M177 800h195l-193 -990h-198l9 46h146l175 898h-144z" />
<glyph unicode="^" d="M492 369h-63l-90 256l-189 -256h-64l235 307h54z" />
<glyph unicode="_" horiz-adv-x="490" d="M398 -195h-490l9 46h490z" />
<glyph unicode="`" horiz-adv-x="341" d="M294 592l-37 -19l-114 131l51 27z" />
<glyph unicode="a" horiz-adv-x="475" d="M344 0h-43l10 83q-97 -87 -164 -87q-52 0 -80.5 44t-28.5 119q0 46 10 96q23 119 78 188.5t124 69.5q59 0 129 -78l22 74h42zM319 143l46 242q-68 80 -113 80q-48 0 -90 -61t-60 -151q-9 -42 -9 -91q0 -54 17.5 -86t51.5 -32q49 0 157 99z" />
<glyph unicode="b" horiz-adv-x="475" d="M419 254q-24 -120 -79 -189t-123 -69q-59 0 -129 78l-22 -74h-42l141 723l54 8l-59 -303q92 85 160 85q52 0 80.5 -44t28.5 -119q0 -46 -10 -96zM365 256q9 50 9 91q0 54 -17.5 86t-51.5 32q-49 0 -157 -99l-47 -242q68 -80 114 -80q47 0 89.5 59.5t60.5 152.5z" />
<glyph unicode="c" horiz-adv-x="368" d="M294 82l16 -38q-71 -48 -148 -48q-126 0 -126 145q0 53 14 120q24 124 81 188t136 64q72 0 115 -46l-24 -37q-38 35 -96 35q-52 0 -95 -51.5t-65 -164.5q-11 -55 -11 -100q0 -54 23.5 -79t61.5 -25q58 0 118 37z" />
<glyph unicode="d" horiz-adv-x="476" d="M344 0h-43l10 83q-97 -87 -164 -87q-52 0 -80.5 44t-28.5 119q0 48 10 97q24 120 79 188.5t123 68.5q57 0 126 -74l55 284l55 8zM319 143l46 242q-68 80 -113 80q-47 0 -89.5 -59.5t-60.5 -150.5q-9 -49 -9 -93q0 -54 17.5 -86t51.5 -32q49 0 157 99z" />
<glyph unicode="e" horiz-adv-x="449" d="M338 28q-87 -32 -163 -32q-70 0 -104.5 35t-34.5 115q0 70 24.5 162.5t78.5 146.5q58 58 140 58q60 0 95 -30.5t35 -82.5q0 -80 -71 -119t-238 -39q-10 -50 -10 -89q0 -58 24 -84t75 -26q61 0 141 24zM108 287q139 0 193.5 26t54.5 83q0 31 -22 51.5t-63 20.5 q-64 0 -104 -51.5t-59 -129.5z" />
<glyph unicode="f" horiz-adv-x="251" d="M355 724l-14 -43q-24 4 -48 4q-76 0 -96 -104l-14 -72h108l-9 -45h-108l-127 -650l-54 -8l128 658h-84l8 45h85l15 78q28 144 151 144q36 0 59 -7z" />
<glyph unicode="g" horiz-adv-x="475" d="M443 509l-99 -508q-18 -94 -73.5 -144.5t-146.5 -50.5q-49 0 -91 5l3 42h81q81 0 120.5 38.5t52.5 104.5l16 84q-93 -84 -159 -84q-55 0 -82 45.5t-27 119.5q0 50 13 110q22 101 74.5 171.5t124.5 70.5q59 0 129 -78l22 74h42zM319 143l46 242q-68 80 -113 80 q-50 0 -90 -60t-58 -145q-11 -57 -11 -95q0 -121 69 -121q48 0 157 99z" />
<glyph unicode="h" horiz-adv-x="487" d="M356 0h-53l59 304q9 46 9 72q0 39 -15.5 63.5t-46.5 24.5q-29 0 -64 -21.5t-96 -75.5l-72 -367h-53l141 723l54 8l-59 -303q95 85 162 85q49 0 76 -34t27 -96q0 -26 -10 -79z" />
<glyph unicode="i" horiz-adv-x="209" d="M201 637h-53l16 83h53zM77 0h-53l99 509h53z" />
<glyph unicode="j" horiz-adv-x="209" d="M201 637h-53l16 83h53zM84 31q-16 -82 -39.5 -132.5t-64.5 -92.5l-35 29q61 70 81 178l96 496h54z" />
<glyph unicode="k" horiz-adv-x="400" d="M339 0h-66l-141 280h-1l-54 -280h-53l141 723l54 8l-86 -444h1l210 222h68l-223 -227z" />
<glyph unicode="l" horiz-adv-x="209" d="M77 0h-53l141 723l54 8z" />
<glyph unicode="m" horiz-adv-x="759" d="M627 0h-53l59 304q9 46 9 72q0 89 -59 89q-28 0 -63 -22t-96 -76l-72 -367h-53l59 304q9 46 9 72q0 89 -59 89q-29 0 -63 -21.5t-96 -76.5l-72 -367h-53l99 509h43l-8 -82q97 86 163 86q83 0 98 -97q112 97 177 97q48 0 74 -34t26 -96q0 -33 -9 -79z" />
<glyph unicode="n" horiz-adv-x="487" d="M356 0h-53l59 304q9 46 9 73q0 38 -15.5 63t-46.5 25q-28 0 -63 -22t-97 -76l-72 -367h-53l99 509h43l-8 -82q97 86 164 86q49 0 76 -34.5t27 -95.5q0 -29 -10 -79z" />
<glyph unicode="o" horiz-adv-x="489" d="M432 250q-22 -114 -80.5 -184t-155.5 -70h-3q-155 0 -155 163q0 47 10 100q23 117 82.5 185.5t155.5 68.5h3q154 0 154 -162q0 -49 -11 -101zM378 256q10 52 10 87q0 122 -104 122q-72 0 -117.5 -57t-64.5 -156q-10 -50 -10 -84q0 -124 105 -124q73 0 118 57t63 155z" />
<glyph unicode="p" horiz-adv-x="475" d="M419 252q-23 -118 -78.5 -187t-123.5 -69q-57 0 -126 74l-49 -256l-55 -8l136 703h42l-9 -84q97 88 164 88q52 0 80.5 -44t28.5 -119q0 -49 -10 -98zM374 347q0 54 -17.5 86t-51.5 32q-49 0 -157 -99l-47 -242q68 -80 114 -80q48 0 89 58.5t61 153.5q9 50 9 91z" />
<glyph unicode="q" horiz-adv-x="475" d="M147 -4q-52 0 -80.5 44t-28.5 119q0 48 10 99q25 121 80 188t122 67q59 0 129 -78l22 74h42l-135 -694l-55 -9l53 273q-92 -83 -159 -83zM251 465q-47 0 -88.5 -59.5t-60.5 -153.5q-9 -48 -9 -90q0 -54 17.5 -86t51.5 -32q49 0 157 99l47 242q-68 80 -115 80z" />
<glyph unicode="r" horiz-adv-x="297" d="M316 461h-21q-32 0 -59 -17t-87 -76l-72 -368h-53l99 509h43l-9 -84q49 54 77.5 71t65.5 17h26z" />
<glyph unicode="s" horiz-adv-x="347" d="M108 -4q-62 0 -114 33l22 43q45 -29 95 -29q48 0 78.5 27t30.5 73q0 53 -71 101q-48 32 -68 60.5t-20 68.5q0 60 42 100t113 40q59 0 107 -30l-20 -41q-46 25 -90 25q-43 0 -70.5 -24t-27.5 -64q0 -27 15.5 -49t59.5 -51q46 -31 65.5 -61.5t19.5 -69.5q0 -66 -43.5 -109 t-123.5 -43z" />
<glyph unicode="t" horiz-adv-x="286" d="M207 9q-46 -13 -75 -13q-49 0 -71 25q-14 16 -14 46q0 17 5 40l69 357h-84l8 45h85l29 156l55 6l-31 -162h118l-9 -45h-118l-69 -354q-4 -17 -4 -30q0 -14 5 -22q9 -14 42 -14q14 0 56 5z" />
<glyph unicode="u" horiz-adv-x="487" d="M122 509h53l-59 -304q-9 -46 -9 -73q0 -39 15.5 -63.5t46.5 -24.5q27 0 62 22t98 76l72 367h53l-99 -509h-43l8 82q-97 -86 -164 -86q-49 0 -76 34.5t-27 95.5q0 29 10 79z" />
<glyph unicode="v" horiz-adv-x="381" d="M408 509l-242 -509h-64l-38 509h57l24 -371l2 -74h1l34 78l165 367h61z" />
<glyph unicode="w" horiz-adv-x="626" d="M647 509l-223 -509h-74l-14 385h-1l-164 -385h-78l-19 509h56l13 -455h1l195 455h42l18 -455h1l186 455h61z" />
<glyph unicode="x" horiz-adv-x="414" d="M347 0h-63l-85 221h-1l-171 -221h-66l210 260l-102 249h62l79 -207h1l159 207h65l-198 -244z" />
<glyph unicode="y" horiz-adv-x="374" d="M407 509l-220 -475q-49 -104 -86.5 -150t-98.5 -78l-19 39q41 23 68.5 54t56.5 92l-45 518h57l29 -379l2 -63h1l36 85l158 357h61z" />
<glyph unicode="z" horiz-adv-x="331" d="M249 0h-276l6 35l289 427h-199l9 47h260l-7 -36l-287 -426h214z" />
<glyph unicode="{" horiz-adv-x="392" d="M106 145q5 31 5 54q0 29 -8 47q-15 32 -64 32l9 46q53 0 78.5 30.5t38.5 96.5l29 150q22 113 80 159q53 40 138 40h19l-10 -46q-9 1 -18 1q-61 0 -98 -30q-42 -34 -58 -117l-29 -151q-14 -72 -40 -107.5t-76 -49.5q62 -13 62 -93q0 -24 -5 -54l-27 -139q-8 -32 -8 -56 q0 -7 1 -14q3 -28 10 -46t24.5 -27.5t38.5 -12.5q15 -2 35 -2h14l-9 -46q-11 -1 -22 -1q-79 0 -116 39q-29 30 -29 90q0 30 7 67z" />
<glyph unicode="|" horiz-adv-x="214" d="M37 -194h-44l194 994h44z" />
<glyph unicode="}" horiz-adv-x="392" d="M296 457q-6 -31 -6 -55q0 -27 8 -44q14 -34 64 -34l-8 -46q-54 0 -79.5 -30.5t-37.5 -96.5l-28 -142q-22 -112 -81 -158q-53 -41 -137 -41h-18l8 46h13q65 0 102 27q42 30 59 119l28 143q14 69 41.5 107t75.5 50q-37 7 -54 44q-9 21 -9 53q0 22 5 50l29 147q8 39 8 67 q0 43 -17 62q-27 29 -93 29h-13l9 46q11 1 22 1q79 0 117 -39q28 -30 28 -90q0 -30 -7 -67z" />
<glyph unicode="~" d="M540 617q-10 -66 -47.5 -106t-90.5 -40q-31 0 -55 17t-37 38t-31.5 38t-39.5 17q-61 0 -83 -98h-47q10 65 47.5 104.5t88.5 39.5q31 0 55.5 -17t37 -37.5t31 -37.5t39.5 -17q62 0 84 99h48z" />
<glyph unicode="&#xa1;" horiz-adv-x="282" d="M196 516h-58l16 82h58zM79 -76h-55l96 489h55z" />
<glyph unicode="&#xa2;" horiz-adv-x="412" d="M341 179q-59 -31 -115 -38l-20 -105h-49l21 104q-112 7 -112 131q0 106 48.5 188t143.5 92l18 99h49l-19 -99q50 -4 94 -39l-21 -40q-45 34 -95 34q-45 0 -79 -22.5t-51.5 -58t-25.5 -71.5t-8 -71q0 -97 92 -97q44 0 117 33z" />
<glyph unicode="&#xa3;" horiz-adv-x="490" d="M347 0h-347l8 38l66 8l51 260h-88l10 46h87l21 106q20 102 70 149t115 47q86 0 126 -33l-19 -38q-46 23 -105 23q-54 0 -86.5 -39.5t-49.5 -128.5l-17 -86h162l-9 -46h-163l-49 -258h226z" />
<glyph unicode="&#xa4;" d="M119 159q-26 33 -26 91q0 63 24.5 129.5t64.5 100.5l-68 150l47 23l61 -146q42 24 97 24h2q50 0 83 -22l117 144l40 -23l-124 -146q26 -35 26 -94q0 -64 -22.5 -126.5t-65.5 -103.5l63 -138l-47 -26l-56 137q-46 -23 -93 -23h-2q-58 0 -88 23l-109 -137l-41 24zM402 323 q7 35 7 57q0 104 -99 104q-124 0 -157 -166q-6 -30 -6 -57q0 -104 100 -104q124 0 155 166z" />
<glyph unicode="&#xa5;" d="M563 650l-255 -352h147l-9 -43h-149l-21 -108h149l-8 -44h-149l-20 -103h-54l20 103h-149l8 44h150l20 108h-149l8 43h148l-118 352h60l50 -156l44 -151l112 161l102 146h63z" />
<glyph unicode="&#xa6;" horiz-adv-x="277" d="M192 413h-53l77 393h53zM74 -194h-52l76 395h53z" />
<glyph unicode="&#xa7;" d="M331 135q43 -38 43 -92q0 -67 -56.5 -117.5t-152.5 -50.5q-85 0 -154 44l24 42q69 -38 132 -38q65 0 107.5 30.5t42.5 80.5q0 33 -25 58t-60 43l-70 37q-36 20 -61 50.5t-25 71.5q0 56 30.5 98t102.5 86q-42 36 -42 90q0 64 49 113.5t144 49.5q86 0 143 -38l-21 -40 q-60 31 -123 31q-60 0 -98.5 -29t-38.5 -78q0 -31 25 -56t61 -43l70 -38q36 -19 61 -50t25 -72q0 -108 -133 -183zM408 310q0 26 -16.5 47.5t-36.5 33t-54.5 29.5t-52.5 30q-116 -62 -116 -147q0 -33 22 -56t74 -49.5t64 -34.5q116 62 116 147z" />
<glyph unicode="&#xa8;" horiz-adv-x="392" d="M379 639h-52l16 78h52zM205 639h-52l16 78h52z" />
<glyph unicode="&#xa9;" horiz-adv-x="767" d="M721 351q0 -153 -95.5 -256t-236.5 -103q-135 0 -220.5 95t-85.5 236q0 153 95 256t236 103q135 0 221 -95.5t86 -235.5zM674 351q0 122 -73 205t-189 83q-121 0 -201 -89.5t-80 -226.5q0 -123 72.5 -205.5t187.5 -82.5q122 0 202.5 89.5t80.5 226.5zM489 161 q-76 -39 -131 -39q-57 0 -89.5 27t-32.5 101q0 39 10 89q20 105 72.5 159t129.5 54q58 0 104 -35l-18 -40q-46 29 -85 29q-56 0 -94 -39.5t-56 -133.5q-9 -42 -9 -72q0 -92 80 -92q34 0 108 31z" />
<glyph unicode="&#xaa;" horiz-adv-x="370" d="M300 234h-229l9 44h228zM320 345h-39l6 53q-68 -55 -112 -55q-37 0 -56.5 27.5t-19.5 77.5q0 28 6 63q15 78 53.5 122t85.5 44q37 0 88 -48l14 45h38zM292 441l29 149q-46 46 -71 46q-31 0 -59 -35.5t-39 -92.5q-6 -42 -6 -56q0 -69 43 -69q34 0 103 58z" />
<glyph unicode="&#xab;" horiz-adv-x="498" d="M374 109l-37 -16l-91 203l167 206l35 -17l-140 -188zM195 98l-38 -16l-95 214l175 216l35 -17l-146 -198z" />
<glyph unicode="&#xac;" d="M436 131h-51l28 144h-354l9 46h405z" />
<glyph unicode="&#xad;" horiz-adv-x="248" d="M216 260h-182l9 49h183z" />
<glyph unicode="&#xae;" horiz-adv-x="586" d="M568 509q0 -103 -70.5 -175.5t-170.5 -72.5q-99 0 -161 66t-62 163q0 105 69.5 177t170.5 72q99 0 161.5 -66t62.5 -164zM522 507q0 79 -50 134.5t-129 55.5q-83 0 -138 -59t-55 -146q0 -79 50 -134.5t129 -55.5q83 0 138 59t55 146zM362 360l-36 107h-37l-21 -107h-47 l52 272h82q42 0 65 -17t23 -48q0 -69 -71 -93l44 -114h-54zM340 591h-27l-15 -83h24q37 0 54 13.5t17 42.5q0 15 -11 21t-42 6z" />
<glyph unicode="&#xaf;" horiz-adv-x="392" d="M386 629h-244l8 44h245z" />
<glyph unicode="&#x2c9;" horiz-adv-x="392" d="M386 629h-244l8 44h245z" />
<glyph unicode="&#xb0;" horiz-adv-x="455" d="M458 617q0 -73 -51 -123t-121 -50q-67 0 -112 45.5t-45 113.5q0 73 51 123t120 50q67 0 112.5 -46t45.5 -113zM409 616q0 49 -32 82.5t-79 33.5q-48 0 -84 -37t-36 -91q0 -49 31.5 -82.5t77.5 -33.5q49 0 85.5 36.5t36.5 91.5z" />
<glyph unicode="&#xb1;" d="M472 331h-167l-36 -187h-50l36 187h-167l9 45h167l36 185h50l-37 -185h167zM407 0h-383l9 46h383z" />
<glyph unicode="&#xb2;" horiz-adv-x="427" d="M162 637q62 41 119 41q46 0 69.5 -20.5t23.5 -56.5q0 -79 -99 -146l-94 -65h175l-9 -43h-245l7 38l130 93q82 59 82 119q0 40 -48 40q-38 0 -95 -31z" />
<glyph unicode="&#xb3;" horiz-adv-x="416" d="M203 344q-59 0 -96 30l16 29q40 -19 87 -19q41 0 61.5 18.5t20.5 45.5q0 41 -85 41h-17l8 40h12q104 0 104 68q0 43 -50 43q-33 0 -90 -30l-16 30q60 38 115 38q47 0 70 -20.5t23 -53.5q0 -34 -20 -58.5t-55 -33.5q24 -4 38 -19.5t14 -39.5q0 -45 -34.5 -77t-105.5 -32z " />
<glyph unicode="&#xb4;" horiz-adv-x="392" d="M405 704l-138 -131l-34 19l125 139z" />
<glyph unicode="&#xb5;" d="M454 5q-27 -9 -60 -9q-72 0 -72 67q0 9 1 18q-96 -85 -161 -85q-52 0 -78 43l-44 -228h-53l135 698h53l-62 -322q-6 -30 -6 -54q0 -30 9 -51q16 -38 54 -38q50 0 159 95l72 370h53l-77 -393q-4 -20 -4 -34q0 -16 5 -24q10 -14 41 -14q13 0 37 4z" />
<glyph unicode="&#x3bc;" d="M454 5q-27 -9 -60 -9q-72 0 -72 67q0 9 1 18q-96 -85 -161 -85q-52 0 -78 43l-44 -228h-53l135 698h53l-62 -322q-6 -30 -6 -54q0 -30 9 -51q16 -38 54 -38q50 0 159 95l72 370h53l-77 -393q-4 -20 -4 -34q0 -16 5 -24q10 -14 41 -14q13 0 37 4z" />
<glyph unicode="&#xb6;" horiz-adv-x="534" d="M579 668h-71l-156 -804h-51l156 804h-92l-125 -644q-17 -90 -44.5 -127.5t-74.5 -37.5q-34 0 -76 11l8 44q43 -10 67 -10q27 0 41.5 27.5t30.5 109.5l62 320q-60 0 -98.5 42t-38.5 107q0 81 59 142t163 61h249z" />
<glyph unicode="&#xb7;" horiz-adv-x="160" d="M108 253h-65l17 90h66z" />
<glyph unicode="&#x22c5;" horiz-adv-x="160" d="M108 253h-65l17 90h66z" />
<glyph unicode="&#x2219;" horiz-adv-x="160" d="M108 253h-65l17 90h66z" />
<glyph unicode="&#xb8;" horiz-adv-x="384" d="M160 -51l-90 -139h-47l75 139h62z" />
<glyph unicode="&#xb9;" horiz-adv-x="295" d="M155 347l53 273l-73 -35l-10 38l103 51h42l-63 -327h-52z" />
<glyph unicode="&#xba;" horiz-adv-x="366" d="M293 234h-227l8 44h228zM362 504q-33 -161 -160 -161h-2q-109 0 -109 106q0 28 8 68q14 74 54.5 117t106.5 43h2q55 0 81 -25.5t26 -81.5q0 -32 -7 -66zM314 512q6 28 6 51q0 72 -64 72q-86 0 -112 -127q-5 -30 -5 -49q0 -75 65 -75q86 0 110 128z" />
<glyph unicode="&#xbb;" horiz-adv-x="498" d="M132 486l37 16l91 -204l-166 -205l-35 17l139 187zM312 497l37 15l95 -214l-175 -216l-35 18l147 197z" />
<glyph unicode="&#xbc;" horiz-adv-x="669" d="M154 347l53 273l-73 -35l-10 38l103 51h42l-64 -327h-51zM42 0l518 674h54l-519 -674h-53zM503 80l-15 -80h-50l15 80h-143l9 42l160 205h72l-39 -204h58l-9 -43h-58zM495 286l-129 -164h97z" />
<glyph unicode="&#xbd;" horiz-adv-x="673" d="M154 347l53 272l-73 -35l-10 39l103 51h42l-64 -327h-51zM42 0l518 674h54l-519 -674h-53zM386 290q60 40 119 40q93 0 93 -76q0 -80 -99 -147l-94 -64h175l-8 -43h-246l7 38l130 92q48 34 65 61.5t17 58.5q0 40 -48 40q-36 0 -95 -32z" />
<glyph unicode="&#xbe;" horiz-adv-x="671" d="M167 344q-58 0 -96 30l17 29q40 -19 87 -19q41 0 61.5 18.5t20.5 45.5q0 41 -85 41h-17l8 40h12q104 0 104 68q0 43 -50 43q-33 0 -91 -30l-15 30q58 38 115 38q47 0 69.5 -20.5t22.5 -53.5q0 -34 -20 -58.5t-54 -33.5q23 -4 37 -19.5t14 -39.5q0 -45 -34.5 -77 t-105.5 -32zM524 80l-15 -80h-51l16 80h-144l9 42l161 205h72l-39 -204h57l-8 -43h-58zM515 286l-128 -164h96zM63 0l519 674h52l-518 -674h-53z" />
<glyph unicode="&#xbf;" horiz-adv-x="417" d="M229 353l12 60h55l-13 -66q-8 -40 -32 -74.5t-53 -58.5l-57 -50q-28 -25 -46.5 -57t-18.5 -69q0 -70 91 -70q46 0 112 19l7 -43q-79 -24 -132 -24q-64 0 -100 29t-36 81q0 47 19.5 84.5t48.5 63.5l58 49q29 24 53.5 56t31.5 70zM274 598h60l-16 -82h-59z" />
<glyph unicode="&#xc0;" horiz-adv-x="502" d="M427 0h-57l-14 156h-257l-73 -156h-58l325 674h71zM353 203l-37 410h-1l-195 -410h233zM361 728h-49l-79 122h65z" />
<glyph unicode="&#xc1;" horiz-adv-x="502" d="M427 0h-57l-14 156h-257l-73 -156h-58l325 674h71zM353 203l-37 410h-1l-195 -410h233zM315 728l84 122h65l-101 -122h-48z" />
<glyph unicode="&#xc2;" horiz-adv-x="502" d="M427 0h-57l-14 156h-257l-73 -156h-58l325 674h71zM353 203l-37 410h-1l-195 -410h233zM350 796l-123 -68l-15 28l146 95l110 -94l-21 -29z" />
<glyph unicode="&#xc3;" horiz-adv-x="502" d="M427 0h-57l-14 156h-257l-73 -156h-58l325 674h71zM353 203l-37 410h-1l-195 -410h233zM407 733q-23 0 -41 11.5t-28 26t-23.5 26t-27.5 11.5q-47 0 -51 -70h-36v7q0 45 24 75q25 31 66 31q23 0 41.5 -11.5t28.5 -26t23.5 -26t26.5 -11.5q46 0 52 69h36 q1 -49 -24.5 -80.5t-66.5 -31.5z" />
<glyph unicode="&#xc4;" horiz-adv-x="502" d="M427 0h-57l-14 156h-257l-73 -156h-58l325 674h71zM353 203l-37 410h-1l-195 -410h233zM290 820l-15 -78h-53l15 78h53zM470 820l-15 -78h-52l15 78h52z" />
<glyph unicode="&#xc5;" horiz-adv-x="502" d="M427 0h-57l-14 156h-257l-73 -156h-58l325 674h71zM353 203l-37 410h-1l-195 -410h233zM326 653q-90 0 -90 73q0 52 30 91.5t96 39.5q89 0 89 -72q0 -53 -30 -92.5t-95 -39.5zM406 778q0 42 -48 42q-33 0 -55 -23.5t-22 -63.5q0 -43 48 -43q40 0 58.5 28t18.5 60z" />
<glyph unicode="&#xc6;" horiz-adv-x="637" d="M253 0l30 156h-212l-98 -156h-61l438 674h319l-9 -48h-231l-49 -254h210l-10 -48h-210l-53 -276h234l-10 -48h-288zM292 203l82 423h-1l-271 -423h190z" />
<glyph unicode="&#xc7;" horiz-adv-x="477" d="M408 44q-91 -48 -181 -48q-86 0 -130 44.5t-44 147.5q0 58 19 155q31 166 108.5 250.5t182.5 84.5q86 0 151 -47l-20 -42q-59 41 -129 41q-179 0 -239 -301q-16 -86 -16 -136q0 -79 32 -113.5t99 -34.5q73 0 159 45zM238 -51l-90 -139h-47l75 139h62z" />
<glyph unicode="&#xc8;" horiz-adv-x="418" d="M321 0h-291l131 674h288l-9 -48h-233l-50 -254h213l-10 -48h-212l-54 -276h236zM340 728h-49l-79 122h65z" />
<glyph unicode="&#xc9;" horiz-adv-x="418" d="M321 0h-291l131 674h288l-9 -48h-233l-50 -254h213l-10 -48h-212l-54 -276h236zM283 728l84 122h65l-101 -122h-48z" />
<glyph unicode="&#xca;" horiz-adv-x="418" d="M321 0h-291l131 674h288l-9 -48h-233l-50 -254h213l-10 -48h-212l-54 -276h236zM325 796l-123 -68l-15 28l146 95l110 -94l-21 -29z" />
<glyph unicode="&#xcb;" horiz-adv-x="418" d="M321 0h-291l131 674h288l-9 -48h-233l-50 -254h213l-10 -48h-212l-54 -276h236zM268 820l-15 -78h-53l15 78h53zM448 820l-15 -78h-52l15 78h52z" />
<glyph unicode="&#xcc;" horiz-adv-x="223" d="M85 0h-55l131 674h55zM226 728h-49l-79 122h65z" />
<glyph unicode="&#xcd;" horiz-adv-x="223" d="M85 0h-55l131 674h55zM175 728l84 122h65l-101 -122h-48z" />
<glyph unicode="&#xce;" horiz-adv-x="223" d="M85 0h-55l131 674h55zM214 796l-123 -68l-15 28l146 95l110 -94l-21 -29z" />
<glyph unicode="&#xcf;" horiz-adv-x="223" d="M85 0h-55l131 674h55zM153 820l-15 -78h-53l15 78h53zM333 820l-15 -78h-52l15 78h52z" />
<glyph unicode="&#xd0;" horiz-adv-x="569" d="M298 676q116 0 177 -51.5t61 -165.5q0 -61 -13 -126q-30 -157 -117 -246t-227 -89q-40 0 -138 2l63 325h-69l8 47h69l60 302q90 2 126 2zM293 628q-36 0 -76 -2l-49 -254h117l-9 -47h-117l-54 -277q50 -2 74 -2q122 0 192 77.5t97 224.5q11 60 11 111q0 84 -43.5 126.5 t-142.5 42.5z" />
<glyph unicode="&#xd1;" horiz-adv-x="578" d="M440 0h-73l-167 612l-119 -612h-51l131 674h77l165 -598l117 598h51zM444 733q-23 0 -41 11.5t-28 26t-23.5 26t-27.5 11.5q-47 0 -51 -70h-36v7q0 45 23 75q26 31 67 31q23 0 41.5 -11.5t28.5 -26t23.5 -26t26.5 -11.5q46 0 52 69h36q1 -49 -24.5 -80.5t-66.5 -31.5z " />
<glyph unicode="&#xd2;" horiz-adv-x="607" d="M559 327q-65 -331 -303 -331h-6q-100 0 -147.5 47.5t-47.5 151.5q0 61 17 151q63 332 303 332h6q100 0 147.5 -48t47.5 -153q0 -62 -17 -150zM506 344q14 73 14 126q0 160 -147 160q-101 0 -160 -74.5t-88 -223.5q-15 -78 -15 -127q0 -79 34.5 -120t112.5 -41 q101 0 160.5 75t88.5 225zM418 728h-49l-79 122h65z" />
<glyph unicode="&#xd3;" horiz-adv-x="607" d="M559 327q-65 -331 -303 -331h-6q-100 0 -147.5 47.5t-47.5 151.5q0 61 17 151q63 332 303 332h6q100 0 147.5 -48t47.5 -153q0 -62 -17 -150zM506 344q14 73 14 126q0 160 -147 160q-101 0 -160 -74.5t-88 -223.5q-15 -78 -15 -127q0 -79 34.5 -120t112.5 -41 q101 0 160.5 75t88.5 225zM365 728l84 122h65l-101 -122h-48z" />
<glyph unicode="&#xd4;" horiz-adv-x="607" d="M559 327q-65 -331 -303 -331h-6q-100 0 -147.5 47.5t-47.5 151.5q0 61 17 151q63 332 303 332h6q100 0 147.5 -48t47.5 -153q0 -62 -17 -150zM506 344q14 73 14 126q0 160 -147 160q-101 0 -160 -74.5t-88 -223.5q-15 -78 -15 -127q0 -79 34.5 -120t112.5 -41 q101 0 160.5 75t88.5 225zM407 796l-123 -68l-15 28l146 95l110 -94l-21 -29z" />
<glyph unicode="&#xd5;" horiz-adv-x="607" d="M559 327q-65 -331 -303 -331h-6q-100 0 -147.5 47.5t-47.5 151.5q0 61 17 151q63 332 303 332h6q100 0 147.5 -48t47.5 -153q0 -62 -17 -150zM506 344q14 73 14 126q0 160 -147 160q-101 0 -160 -74.5t-88 -223.5q-15 -78 -15 -127q0 -79 34.5 -120t112.5 -41 q101 0 160.5 75t88.5 225zM463 733q-23 0 -41 11.5t-28 26t-23.5 26t-27.5 11.5q-47 0 -51 -70h-36v7q0 45 24 75q25 31 66 31q23 0 41.5 -11.5t28.5 -26t23.5 -26t26.5 -11.5q46 0 52 69h36q1 -49 -24.5 -80.5t-66.5 -31.5z" />
<glyph unicode="&#xd6;" horiz-adv-x="607" d="M559 327q-65 -331 -303 -331h-6q-100 0 -147.5 47.5t-47.5 151.5q0 61 17 151q63 332 303 332h6q100 0 147.5 -48t47.5 -153q0 -62 -17 -150zM506 344q14 73 14 126q0 160 -147 160q-101 0 -160 -74.5t-88 -223.5q-15 -78 -15 -127q0 -79 34.5 -120t112.5 -41 q101 0 160.5 75t88.5 225zM340 820l-15 -78h-53l15 78h53zM520 820l-15 -78h-52l15 78h52z" />
<glyph unicode="&#xd7;" d="M463 98l-38 -32l-156 198l-232 -198l-28 34l233 199l-156 198l39 32l154 -198l233 198l28 -34l-233 -199z" />
<glyph unicode="&#xd8;" horiz-adv-x="607" d="M510 647q69 -45 69 -171q0 -60 -17 -150q-64 -330 -303 -330h-7q-51 0 -87 12l-77 -143h-49l87 161q-71 45 -71 170q0 60 17 150q63 332 304 332h7q52 0 88 -12l73 138h50zM481 597l-291 -541q27 -13 70 -13q101 0 161 76t89 225q15 77 15 127q0 88 -44 126zM154 76 l291 543q-30 12 -71 12q-101 0 -161 -75t-89 -224q-14 -80 -14 -126q0 -92 44 -130z" />
<glyph unicode="&#xd9;" horiz-adv-x="573" d="M474 194q-38 -198 -241 -198q-104 0 -144 51q-27 34 -27 92q0 29 7 64l92 471h55l-93 -479q-6 -30 -6 -55q0 -38 15 -60q26 -36 107 -36q84 0 125 39t56 118l92 473h55zM399 728h-49l-79 122h65z" />
<glyph unicode="&#xda;" horiz-adv-x="573" d="M474 194q-38 -198 -241 -198q-104 0 -144 51q-27 34 -27 92q0 29 7 64l92 471h55l-93 -479q-6 -30 -6 -55q0 -38 15 -60q26 -36 107 -36q84 0 125 39t56 118l92 473h55zM350 728l84 122h65l-101 -122h-48z" />
<glyph unicode="&#xdb;" horiz-adv-x="573" d="M474 194q-38 -198 -241 -198q-104 0 -144 51q-27 34 -27 92q0 29 7 64l92 471h55l-93 -479q-6 -30 -6 -55q0 -38 15 -60q26 -36 107 -36q84 0 125 39t56 118l92 473h55zM389 796l-123 -68l-15 28l146 95l110 -94l-21 -29z" />
<glyph unicode="&#xdc;" horiz-adv-x="573" d="M474 194q-38 -198 -241 -198q-104 0 -144 51q-27 34 -27 92q0 29 7 64l92 471h55l-93 -479q-6 -30 -6 -55q0 -38 15 -60q26 -36 107 -36q84 0 125 39t56 118l92 473h55zM327 820l-15 -78h-53l15 78h53zM507 820l-15 -78h-52l15 78h52z" />
<glyph unicode="&#xdd;" horiz-adv-x="452" d="M520 674l-263 -384l-57 -290h-54l57 290l-116 384h61l51 -178l40 -148l88 134l128 192h65zM285 728l84 122h65l-101 -122h-48z" />
<glyph unicode="&#xde;" horiz-adv-x="485" d="M205 139q-63 0 -93 1l-27 -140h-55l131 674h55l-23 -117q31 1 97 1q177 0 177 -147q0 -30 -5.5 -61.5t-22.5 -71t-44 -69t-76.5 -50t-113.5 -20.5zM411 407q0 50 -30 76.5t-102 26.5q-45 0 -95 -2l-62 -318q60 -3 88 -3q50 0 87.5 16.5t58.5 40.5t34 56t17 57t4 50z" />
<glyph unicode="&#xdf;" horiz-adv-x="469" d="M255 -4q-49 0 -86 16l14 45q30 -14 73 -14q45 0 75 28t30 73q0 27 -13 49.5t-31 40.5l-36 34q-18 18 -31 42.5t-13 54.5q0 36 15.5 65.5t37.5 49.5l44 38q22 19 37.5 43.5t15.5 54.5q0 29 -16.5 48.5t-54.5 19.5q-52 0 -86 -38.5t-47 -100.5l-142 -731l-55 -8l145 741 q15 82 65.5 132.5t124.5 50.5q60 0 90 -29.5t30 -77.5q0 -37 -15.5 -67t-37.5 -50l-44 -38q-22 -18 -37.5 -42t-15.5 -53t19.5 -55.5t43 -45t43 -50t19.5 -69.5q0 -69 -45 -113t-116 -44z" />
<glyph unicode="&#xe0;" horiz-adv-x="475" d="M344 0h-43l10 83q-97 -87 -164 -87q-52 0 -80.5 44t-28.5 119q0 46 10 96q23 119 78 188.5t124 69.5q59 0 129 -78l22 74h42zM319 143l46 242q-68 80 -113 80q-48 0 -90 -61t-60 -151q-9 -42 -9 -91q0 -54 17.5 -86t51.5 -32q49 0 157 99zM344 592l-37 -19l-114 131 l51 27z" />
<glyph unicode="&#xe1;" horiz-adv-x="475" d="M344 0h-43l10 83q-97 -87 -164 -87q-52 0 -80.5 44t-28.5 119q0 46 10 96q23 119 78 188.5t124 69.5q59 0 129 -78l22 74h42zM319 143l46 242q-68 80 -113 80q-48 0 -90 -61t-60 -151q-9 -42 -9 -91q0 -54 17.5 -86t51.5 -32q49 0 157 99zM459 704l-138 -131l-34 19 l125 139z" />
<glyph unicode="&#xe2;" horiz-adv-x="475" d="M344 0h-43l10 83q-97 -87 -164 -87q-52 0 -80.5 44t-28.5 119q0 46 10 96q23 119 78 188.5t124 69.5q59 0 129 -78l22 74h42zM319 143l46 242q-68 80 -113 80q-48 0 -90 -61t-60 -151q-9 -42 -9 -91q0 -54 17.5 -86t51.5 -32q49 0 157 99zM425 602l-28 -29l-76 89 l-109 -89l-22 28l143 130z" />
<glyph unicode="&#xe3;" horiz-adv-x="475" d="M344 0h-43l10 83q-97 -87 -164 -87q-52 0 -80.5 44t-28.5 119q0 46 10 96q23 119 78 188.5t124 69.5q59 0 129 -78l22 74h42zM319 143l46 242q-68 80 -113 80q-48 0 -90 -61t-60 -151q-9 -42 -9 -91q0 -54 17.5 -86t51.5 -32q49 0 157 99zM464 718q1 -50 -24.5 -81.5 t-67.5 -31.5q-23 0 -41 11.5t-28 25.5t-23.5 25.5t-27.5 11.5q-45 0 -51 -69h-36v7q0 45 23 75q26 31 68 31q23 0 41 -11.5t28 -25.5t23.5 -25.5t27.5 -11.5q45 0 52 69h36z" />
<glyph unicode="&#xe4;" horiz-adv-x="475" d="M344 0h-43l10 83q-97 -87 -164 -87q-52 0 -80.5 44t-28.5 119q0 46 10 96q23 119 78 188.5t124 69.5q59 0 129 -78l22 74h42zM319 143l46 242q-68 80 -113 80q-48 0 -90 -61t-60 -151q-9 -42 -9 -91q0 -54 17.5 -86t51.5 -32q49 0 157 99zM421 639h-52l16 78h52zM247 639 h-52l16 78h52z" />
<glyph unicode="&#xe5;" horiz-adv-x="475" d="M344 0h-43l10 83q-97 -87 -164 -87q-52 0 -80.5 44t-28.5 119q0 46 10 96q23 119 78 188.5t124 69.5q59 0 129 -78l22 74h42zM319 143l46 242q-68 80 -113 80q-48 0 -90 -61t-60 -151q-9 -42 -9 -91q0 -54 17.5 -86t51.5 -32q49 0 157 99zM295 561q-90 0 -90 73 q0 52 30 91.5t96 39.5q89 0 89 -72q0 -53 -30 -92.5t-95 -39.5zM375 686q0 42 -48 42q-33 0 -55 -23.5t-22 -63.5q0 -43 48 -43q40 0 58.5 28t18.5 60z" />
<glyph unicode="&#xe6;" horiz-adv-x="745" d="M334 243h-47q-119 0 -164 -30.5t-45 -96.5q0 -31 16 -51.5t45 -20.5q37 0 76 27t104 94zM565 513q61 0 95.5 -29.5t34.5 -83.5q0 -77 -72 -117t-237 -40q-10 -58 -10 -90q0 -58 23.5 -83.5t75.5 -25.5q64 0 141 23l8 -39q-87 -32 -163 -32q-125 0 -135 120 q-45 -45 -69 -65.5t-59.5 -37.5t-74.5 -17q-46 0 -72.5 30.5t-26.5 84.5q0 177 269 177h49l5 26q9 39 9 73q0 41 -20.5 61.5t-71.5 20.5q-60 0 -145 -30l-8 40q91 34 161 34q120 0 128 -91q59 91 165 91zM394 287q141 0 195 27t54 84q0 31 -21.5 51t-64.5 20 q-64 0 -106.5 -55t-56.5 -127z" />
<glyph unicode="&#xe7;" horiz-adv-x="368" d="M294 82l16 -38q-71 -48 -148 -48q-126 0 -126 145q0 53 14 120q24 124 81 188t136 64q72 0 115 -46l-24 -37q-38 35 -96 35q-52 0 -95 -51.5t-65 -164.5q-11 -55 -11 -100q0 -54 23.5 -79t61.5 -25q58 0 118 37zM171 -51l-90 -139h-47l75 139h62z" />
<glyph unicode="&#xe8;" horiz-adv-x="449" d="M338 28q-87 -32 -163 -32q-70 0 -104.5 35t-34.5 115q0 70 24.5 162.5t78.5 146.5q58 58 140 58q60 0 95 -30.5t35 -82.5q0 -80 -71 -119t-238 -39q-10 -50 -10 -89q0 -58 24 -84t75 -26q61 0 141 24zM108 287q139 0 193.5 26t54.5 83q0 31 -22 51.5t-63 20.5 q-64 0 -104 -51.5t-59 -129.5zM323 592l-37 -19l-114 131l51 27z" />
<glyph unicode="&#xe9;" horiz-adv-x="449" d="M338 28q-87 -32 -163 -32q-70 0 -104.5 35t-34.5 115q0 70 24.5 162.5t78.5 146.5q58 58 140 58q60 0 95 -30.5t35 -82.5q0 -80 -71 -119t-238 -39q-10 -50 -10 -89q0 -58 24 -84t75 -26q61 0 141 24zM108 287q139 0 193.5 26t54.5 83q0 31 -22 51.5t-63 20.5 q-64 0 -104 -51.5t-59 -129.5zM430 704l-138 -131l-34 19l125 139z" />
<glyph unicode="&#xea;" horiz-adv-x="449" d="M338 28q-87 -32 -163 -32q-70 0 -104.5 35t-34.5 115q0 70 24.5 162.5t78.5 146.5q58 58 140 58q60 0 95 -30.5t35 -82.5q0 -80 -71 -119t-238 -39q-10 -50 -10 -89q0 -58 24 -84t75 -26q61 0 141 24zM108 287q139 0 193.5 26t54.5 83q0 31 -22 51.5t-63 20.5 q-64 0 -104 -51.5t-59 -129.5zM405 602l-28 -29l-76 89l-109 -89l-22 28l143 130z" />
<glyph unicode="&#xeb;" horiz-adv-x="449" d="M338 28q-87 -32 -163 -32q-70 0 -104.5 35t-34.5 115q0 70 24.5 162.5t78.5 146.5q58 58 140 58q60 0 95 -30.5t35 -82.5q0 -80 -71 -119t-238 -39q-10 -50 -10 -89q0 -58 24 -84t75 -26q61 0 141 24zM108 287q139 0 193.5 26t54.5 83q0 31 -22 51.5t-63 20.5 q-64 0 -104 -51.5t-59 -129.5zM412 639h-52l16 78h52zM238 639h-52l16 78h52z" />
<glyph unicode="&#xec;" horiz-adv-x="209" d="M77 0h-53l99 509h53zM213 592l-37 -19l-114 131l51 27z" />
<glyph unicode="&#xed;" horiz-adv-x="209" d="M77 0h-53l99 509h53zM293 704l-138 -131l-34 19l125 139z" />
<glyph unicode="&#xee;" horiz-adv-x="209" d="M77 0h-53l99 509h53zM283 602l-28 -29l-76 89l-109 -89l-22 28l143 130z" />
<glyph unicode="&#xef;" horiz-adv-x="209" d="M77 0h-53l99 509h53zM289 639h-52l16 78h52zM115 639h-52l16 78h52z" />
<glyph unicode="&#xf0;" horiz-adv-x="460" d="M473 673l-107 -48q55 -92 55 -218q0 -67 -15 -140q-53 -271 -230 -271h-3q-135 0 -135 163q0 46 11 101q22 115 77.5 183.5t122.5 68.5h3q24 0 56 -17.5t58 -46.5q-11 94 -50 157l-105 -46l-17 38l98 42q-27 33 -66 63l47 29q40 -32 71 -70l113 50zM354 278q12 55 12 106 q-60 81 -111 81q-48 0 -92 -61t-62 -154q-10 -48 -10 -87q0 -119 92 -119q66 0 107 56t64 178z" />
<glyph unicode="&#xf1;" horiz-adv-x="487" d="M356 0h-53l59 304q9 46 9 73q0 38 -15.5 63t-46.5 25q-28 0 -63 -22t-97 -76l-72 -367h-53l99 509h43l-8 -82q97 86 164 86q49 0 76 -34.5t27 -95.5q0 -29 -10 -79zM465 718q1 -50 -24.5 -81.5t-67.5 -31.5q-23 0 -41 11.5t-28 25.5t-23.5 25.5t-27.5 11.5q-45 0 -51 -69 h-36v7q0 45 23 75q26 31 68 31q23 0 41 -11.5t28 -25.5t23.5 -25.5t27.5 -11.5q45 0 52 69h36z" />
<glyph unicode="&#xf2;" horiz-adv-x="489" d="M432 250q-22 -114 -80.5 -184t-155.5 -70h-3q-155 0 -155 163q0 47 10 100q23 117 82.5 185.5t155.5 68.5h3q154 0 154 -162q0 -49 -11 -101zM378 256q10 52 10 87q0 122 -104 122q-72 0 -117.5 -57t-64.5 -156q-10 -50 -10 -84q0 -124 105 -124q73 0 118 57t63 155z M342 592l-37 -19l-114 131l51 27z" />
<glyph unicode="&#xf3;" horiz-adv-x="489" d="M432 250q-22 -114 -80.5 -184t-155.5 -70h-3q-155 0 -155 163q0 47 10 100q23 117 82.5 185.5t155.5 68.5h3q154 0 154 -162q0 -49 -11 -101zM378 256q10 52 10 87q0 122 -104 122q-72 0 -117.5 -57t-64.5 -156q-10 -50 -10 -84q0 -124 105 -124q73 0 118 57t63 155z M444 704l-138 -131l-34 19l125 139z" />
<glyph unicode="&#xf4;" horiz-adv-x="489" d="M432 250q-22 -114 -80.5 -184t-155.5 -70h-3q-155 0 -155 163q0 47 10 100q23 117 82.5 185.5t155.5 68.5h3q154 0 154 -162q0 -49 -11 -101zM378 256q10 52 10 87q0 122 -104 122q-72 0 -117.5 -57t-64.5 -156q-10 -50 -10 -84q0 -124 105 -124q73 0 118 57t63 155z M426 602l-28 -29l-76 89l-109 -89l-22 28l143 130z" />
<glyph unicode="&#xf5;" horiz-adv-x="489" d="M432 250q-22 -114 -80.5 -184t-155.5 -70h-3q-155 0 -155 163q0 47 10 100q23 117 82.5 185.5t155.5 68.5h3q154 0 154 -162q0 -49 -11 -101zM378 256q10 52 10 87q0 122 -104 122q-72 0 -117.5 -57t-64.5 -156q-10 -50 -10 -84q0 -124 105 -124q73 0 118 57t63 155z M471 718q1 -50 -24.5 -81.5t-67.5 -31.5q-23 0 -41 11.5t-28 25.5t-23.5 25.5t-27.5 11.5q-45 0 -51 -69h-36v7q0 45 23 75q26 31 68 31q23 0 41 -11.5t28 -25.5t23.5 -25.5t27.5 -11.5q45 0 52 69h36z" />
<glyph unicode="&#xf6;" horiz-adv-x="489" d="M432 250q-22 -114 -80.5 -184t-155.5 -70h-3q-155 0 -155 163q0 47 10 100q23 117 82.5 185.5t155.5 68.5h3q154 0 154 -162q0 -49 -11 -101zM378 256q10 52 10 87q0 122 -104 122q-72 0 -117.5 -57t-64.5 -156q-10 -50 -10 -84q0 -124 105 -124q73 0 118 57t63 155z M428 639h-52l16 78h52zM254 639h-52l16 78h52z" />
<glyph unicode="&#xf7;" d="M479 275h-420l9 46h419zM259 65h-60l17 92h60zM331 438h-61l19 92h60z" />
<glyph unicode="&#xf8;" horiz-adv-x="489" d="M397 482q48 -39 48 -131q0 -47 -10 -101q-22 -115 -80 -184.5t-155 -69.5h-3q-47 0 -73 11l-81 -142h-49l93 162q-49 39 -49 131q0 47 10 101q23 117 82.5 185.5t156.5 68.5h3q43 0 69 -11l76 132h49zM367 433l-217 -381q21 -9 52 -9q73 0 117 58t63 156q10 50 10 85 q0 60 -25 91zM116 76l218 381q-21 9 -51 9q-72 0 -117.5 -57t-64.5 -158q-10 -48 -10 -83q0 -61 25 -92z" />
<glyph unicode="&#xf9;" horiz-adv-x="487" d="M122 509h53l-59 -304q-9 -46 -9 -73q0 -39 15.5 -63.5t46.5 -24.5q27 0 62 22t98 76l72 367h53l-99 -509h-43l8 82q-97 -86 -164 -86q-49 0 -76 34.5t-27 95.5q0 29 10 79zM335 592l-37 -19l-114 131l51 27z" />
<glyph unicode="&#xfa;" horiz-adv-x="487" d="M122 509h53l-59 -304q-9 -46 -9 -73q0 -39 15.5 -63.5t46.5 -24.5q27 0 62 22t98 76l72 367h53l-99 -509h-43l8 82q-97 -86 -164 -86q-49 0 -76 34.5t-27 95.5q0 29 10 79zM450 704l-138 -131l-34 19l125 139z" />
<glyph unicode="&#xfb;" horiz-adv-x="487" d="M122 509h53l-59 -304q-9 -46 -9 -73q0 -39 15.5 -63.5t46.5 -24.5q27 0 62 22t98 76l72 367h53l-99 -509h-43l8 82q-97 -86 -164 -86q-49 0 -76 34.5t-27 95.5q0 29 10 79zM423 602l-28 -29l-76 89l-109 -89l-22 28l143 130z" />
<glyph unicode="&#xfc;" horiz-adv-x="487" d="M122 509h53l-59 -304q-9 -46 -9 -73q0 -39 15.5 -63.5t46.5 -24.5q27 0 62 22t98 76l72 367h53l-99 -509h-43l8 82q-97 -86 -164 -86q-49 0 -76 34.5t-27 95.5q0 29 10 79zM422 639h-52l16 78h52zM248 639h-52l16 78h52z" />
<glyph unicode="&#xfd;" horiz-adv-x="374" d="M407 509l-220 -475q-49 -104 -86.5 -150t-98.5 -78l-19 39q41 23 68.5 54t56.5 92l-45 518h57l29 -379l2 -63h1l36 85l158 357h61zM405 704l-138 -131l-34 19l125 139z" />
<glyph unicode="&#xfe;" horiz-adv-x="475" d="M320 513q52 0 80.5 -43.5t28.5 -119.5q0 -45 -10 -95q-23 -122 -78.5 -190.5t-123.5 -68.5q-59 0 -126 75l-50 -260l-55 -7l179 919l54 8l-59 -301q93 83 160 83zM365 256q9 50 9 91q0 118 -69 118q-50 0 -157 -99l-47 -242q70 -80 114 -80q48 0 90 60t60 152z" />
<glyph unicode="&#xff;" horiz-adv-x="374" d="M407 509l-220 -475q-49 -104 -86.5 -150t-98.5 -78l-19 39q41 23 68.5 54t56.5 92l-45 518h57l29 -379l2 -63h1l36 85l158 357h61zM375 639h-52l16 78h52zM201 639h-52l16 78h52z" />
<glyph unicode="&#x131;" horiz-adv-x="209" d="M77 0h-53l99 509h53z" />
<glyph unicode="&#x152;" horiz-adv-x="719" d="M623 0h-288l-44 -2q-27 -2 -35 -2h-6q-100 0 -147.5 47.5t-47.5 151.5q0 61 17 151q63 332 303 332h6q15 0 45 -2t40 -2h285l-10 -48h-233l-49 -254h212l-9 -48h-213l-53 -276h236zM341 50l111 573q-54 7 -79 7q-101 0 -160 -74.5t-88 -223.5q-15 -78 -15 -127 q0 -79 34.5 -120t112.5 -41q38 0 84 6z" />
<glyph unicode="&#x153;" horiz-adv-x="781" d="M434 404q63 109 174 109q61 0 96 -30.5t35 -85.5q0 -78 -71.5 -116t-238.5 -38q-10 -50 -10 -90q0 -58 24 -83.5t76 -25.5q62 0 140 23l9 -39q-89 -32 -163 -32q-57 0 -90 24t-43 79q-61 -103 -176 -103h-2q-156 0 -156 163q0 47 10 100q23 117 82.5 185.5t156.5 68.5h2 q123 0 145 -109zM379 256q9 56 9 87q0 122 -104 122q-72 0 -117.5 -57t-65.5 -157q-9 -43 -9 -83q0 -124 106 -124q71 0 116.5 57.5t64.5 154.5zM438 287q138 0 192.5 26t54.5 82q0 33 -21.5 53t-63.5 20q-64 0 -104.5 -52.5t-57.5 -128.5z" />
<glyph unicode="&#x178;" horiz-adv-x="452" d="M520 674l-263 -384l-57 -290h-54l57 290l-116 384h61l51 -178l40 -148l88 134l128 192h65zM270 820l-15 -78h-53l15 78h53zM450 820l-15 -78h-52l15 78h52z" />
<glyph unicode="&#x2c6;" horiz-adv-x="392" d="M376 602l-28 -29l-76 89l-109 -89l-22 28l143 130z" />
<glyph unicode="&#x2da;" horiz-adv-x="392" d="M254 561q-90 0 -90 73q0 52 30 91.5t96 39.5q89 0 89 -72q0 -53 -30 -92.5t-95 -39.5zM334 686q0 42 -48 42q-33 0 -55 -23.5t-22 -63.5q0 -43 48 -43q40 0 58.5 28t18.5 60z" />
<glyph unicode="&#x2dc;" horiz-adv-x="392" d="M424 718q1 -50 -24.5 -81.5t-67.5 -31.5q-23 0 -41 11.5t-28 25.5t-23.5 25.5t-27.5 11.5q-45 0 -51 -69h-36v7q0 45 23 75q26 31 68 31q23 0 41 -11.5t28 -25.5t23.5 -25.5t27.5 -11.5q45 0 52 69h36z" />
<glyph unicode="&#x2000;" horiz-adv-x="428" />
<glyph unicode="&#x2001;" horiz-adv-x="857" />
<glyph unicode="&#x2002;" horiz-adv-x="428" />
<glyph unicode="&#x2003;" horiz-adv-x="857" />
<glyph unicode="&#x2004;" horiz-adv-x="285" />
<glyph unicode="&#x2005;" horiz-adv-x="214" />
<glyph unicode="&#x2006;" horiz-adv-x="142" />
<glyph unicode="&#x2007;" horiz-adv-x="142" />
<glyph unicode="&#x2008;" horiz-adv-x="107" />
<glyph unicode="&#x2009;" horiz-adv-x="171" />
<glyph unicode="&#x200a;" horiz-adv-x="47" />
<glyph unicode="&#x2010;" horiz-adv-x="248" d="M216 260h-182l9 49h183z" />
<glyph unicode="&#x2011;" horiz-adv-x="248" d="M216 260h-182l9 49h183z" />
<glyph unicode="&#x2013;" horiz-adv-x="490" d="M489 274h-490l9 48h490z" />
<glyph unicode="&#x2014;" horiz-adv-x="980" d="M881 274h-784l9 48h784z" />
<glyph unicode="&#x2018;" horiz-adv-x="242" d="M102 518l157 250l39 -13l-137 -258z" />
<glyph unicode="&#x2019;" horiz-adv-x="242" d="M297 748l-158 -251l-39 13l137 258z" />
<glyph unicode="&#x201a;" horiz-adv-x="257" d="M149 78l-157 -251l-40 14l136 258z" />
<glyph unicode="&#x201c;" horiz-adv-x="432" d="M102 519l157 249l38 -14l-137 -256zM294 518l156 250l38 -14l-136 -257z" />
<glyph unicode="&#x201d;" horiz-adv-x="432" d="M487 747l-158 -250l-38 14l137 256zM295 747l-157 -249l-38 13l136 257z" />
<glyph unicode="&#x201e;" horiz-adv-x="448" d="M339 78l-157 -250l-38 14l137 256zM147 78l-156 -249l-38 13l135 257z" />
<glyph unicode="&#x2022;" d="M392 302q0 -52 -36 -88.5t-86 -36.5q-49 0 -82 34t-33 83q0 52 37 88.5t87 36.5q47 0 80 -34t33 -83z" />
<glyph unicode="&#x2026;" horiz-adv-x="668" d="M521 0h-61l17 85h61zM310 0h-60l16 85h61zM100 0h-61l17 85h61z" />
<glyph unicode="&#x202f;" horiz-adv-x="171" />
<glyph unicode="&#x2039;" horiz-adv-x="319" d="M196 98l-38 -16l-96 214l175 216l36 -17l-146 -198z" />
<glyph unicode="&#x203a;" horiz-adv-x="319" d="M131 497l39 15l96 -214l-176 -216l-36 18l147 198z" />
<glyph unicode="&#x205f;" horiz-adv-x="214" />
<glyph unicode="&#x20ac;" d="M127 424q79 230 268 230q75 0 151 -37l-20 -43q-69 32 -134 32q-146 0 -209 -182h206l-8 -43h-211q-16 -66 -22 -109h211l-8 -44h-207q-2 -23 -2 -43q0 -62 21 -95q28 -45 111 -45q66 0 156 32l10 -41q-98 -40 -178 -40q-106 0 -144 55q-32 46 -32 137q0 19 1 40h-77 l9 44h72q11 66 23 109h-74l9 43h78z" />
<glyph unicode="&#x2122;" horiz-adv-x="607" d="M605 393h-48l12 236l-115 -236h-59l-14 236l-74 -236h-47l98 281h64l14 -233l113 233h64zM283 633h-80l-46 -240h-46l46 240h-79l8 41h205z" />
</font>
</defs>
</svg>
