<?xml version="1.0" standalone="no"?>
<!DOCTYPE svg PUBLIC "-//W3C//DTD SVG 1.1//EN" "http://www.w3.org/Graphics/SVG/1.1/DTD/svg11.dtd" >
<svg xmlns="http://www.w3.org/2000/svg">
<metadata>
This is a custom SVG webfont generated by Font Squirrel.
Designer    : Luc(as) de Groot
Foundry     : Luc_as_ de Groot
Foundry URL : http://www.LucasFonts.com
</metadata>
<defs>
<font id="webfontsuGuvejr" horiz-adv-x="539" >
<font-face units-per-em="1000" ascent="800" descent="-200" />
<missing-glyph horiz-adv-x="210" />
<glyph unicode=" "  horiz-adv-x="210" />
<glyph unicode="&#x09;" horiz-adv-x="210" />
<glyph unicode="&#xa0;" horiz-adv-x="210" />
<glyph unicode="!" horiz-adv-x="282" d="M77 0l15 82h59l-16 -82h-58zM114 185l95 489h56l-96 -489h-55z" />
<glyph unicode="&#x22;" horiz-adv-x="424" d="M129 463l50 257h52l-50 -257h-52zM312 463l50 257h53l-50 -257h-53z" />
<glyph unicode="#" horiz-adv-x="599" d="M257 465l-68 -226h169l67 226h-168zM476 465l-67 -226h115l-9 -45h-119l-57 -194h-51l57 194h-170l-56 -194h-52l57 194h-108l8 45h114l67 226h-108l8 44h113l49 165h51l-48 -165h169l48 165h51l-48 -165h115l-9 -44h-120z" />
<glyph unicode="$" horiz-adv-x="428" d="M370 186q0 -34 -12.5 -64.5t-35 -55t-54.5 -41t-71 -21.5l-24 -120h-49l23 116q-76 0 -136 33l22 46q26 -14 58.5 -22.5t66.5 -8.5q33 0 62 10t50 28t33 43t12 54q0 33 -16.5 55.5t-42 40.5t-54.5 34.5t-54.5 37t-42 48t-16.5 67.5q0 41 16 73.5t42.5 55.5t59 35.5 t65.5 14.5l20 99h49l-20 -99q34 -4 61.5 -14t50.5 -26l-23 -41q-27 17 -59 26.5t-64 9.5q-33 0 -59.5 -10t-45 -27.5t-28.5 -40.5t-10 -50q0 -31 16.5 -53t42 -40.5t54.5 -35.5t54.5 -38.5t42 -50t16.5 -68.5z" />
<glyph unicode="%" horiz-adv-x="673" d="M562 164q6 30 6 56q0 32 -13.5 51t-48.5 19q-24 0 -42 -10t-31 -28t-22 -41.5t-14 -50.5q-3 -15 -5 -29t-2 -27q0 -31 13.5 -49.5t49.5 -18.5q23 0 41 10t31.5 27.5t22.5 40.5t14 50zM609 162q-7 -35 -20 -65t-32.5 -52.5t-47 -35.5t-62.5 -13q-54 0 -79 27.5t-25 79.5 q0 27 6 60q7 34 20 64.5t33 53t47 35.5t63 13q54 0 78.5 -27.5t24.5 -78.5q0 -27 -6 -61zM296 512q3 17 5 31t2 27q0 31 -13.5 49.5t-48.5 18.5q-47 0 -73 -37.5t-37 -91.5q-6 -30 -6 -55q0 -32 14 -51t49 -19q23 0 41 10t31 27.5t22 40.5t14 50zM116 0h-53l519 674h52z M344 511q-7 -35 -19.5 -65t-32.5 -52.5t-47 -35.5t-63 -13q-54 0 -79 27t-25 79q0 27 6 60q7 35 20 65.5t33 53t47 35.5t63 13q54 0 78.5 -27.5t24.5 -79.5q0 -27 -6 -60z" />
<glyph unicode="&#x26;" horiz-adv-x="733" d="M706 458q-29 -8 -57.5 -19.5t-50.5 -21.5q14 -36 21.5 -69.5t7.5 -66.5q0 -54 -21.5 -105.5t-63.5 -91t-104.5 -64t-144.5 -24.5q-119 0 -180.5 45.5t-61.5 126.5q0 32 9.5 64.5t28.5 60.5t47.5 48.5t67.5 29.5q-32 11 -47.5 37t-15.5 63q0 39 13.5 76t40 66t65 47 t88.5 18q38 0 74.5 -9t68.5 -23l-16 -42q-32 14 -64.5 20.5t-62.5 6.5q-40 0 -69 -14t-48 -36.5t-28 -50t-9 -53.5q0 -39 23.5 -62t74.5 -23h26l-9 -47h-30q-42 0 -73.5 -14t-53.5 -37.5t-33 -54t-11 -63.5q0 -59 47 -95.5t148 -36.5q73 0 124 22t83.5 55t47 72t14.5 74 q0 49 -30 126l-29 -15l-27 -13l-28 -15l-33 -19l-15 40q60 35 135.5 69.5t147.5 58.5z" />
<glyph unicode="'" horiz-adv-x="239" d="M129 463l50 257h53l-50 -257h-53z" />
<glyph unicode="(" horiz-adv-x="312" d="M364 751q-57 -77 -97.5 -156t-66.5 -156t-38.5 -151.5t-12.5 -143.5q0 -71 11.5 -137.5t31.5 -128.5l-48 -9q-49 126 -49 271q0 75 14.5 156t43 161t70 158t96.5 147z" />
<glyph unicode=")" horiz-adv-x="312" d="M-33 -120q57 78 97.5 156.5t67 155.5t39 151.5t12.5 143.5q0 71 -12 137.5t-32 129.5l49 8q48 -126 48 -271q0 -75 -14.5 -155.5t-43 -161t-70 -158.5t-96.5 -147z" />
<glyph unicode="*" horiz-adv-x="433" d="M397 443l-111 82l-4 -146h-53l25 146l-128 -82l-21 45l136 65l-123 64l31 46l111 -82l5 147h52l-25 -147l129 82l20 -45l-136 -64l124 -64z" />
<glyph unicode="+" d="M294 275l-39 -205h-51l40 205h-185l9 46h184l41 204h50l-40 -204h184l-8 -46h-185z" />
<glyph unicode="," horiz-adv-x="257" d="M-8 -173l-40 14l136 258l61 -21z" />
<glyph unicode="-" horiz-adv-x="248" d="M34 260l9 49h183l-10 -49h-182z" />
<glyph unicode="." horiz-adv-x="248" d="M39 0l18 94h63l-18 -94h-63z" />
<glyph unicode="/" horiz-adv-x="396" d="M-16 -145h-51l506 945h51z" />
<glyph unicode="0" d="M434 327q6 34 10.5 67t4.5 63q0 32 -5.5 59.5t-19 47.5t-35 31t-53.5 11q-46 0 -81 -23t-61 -62t-43.5 -90.5t-28.5 -107.5q-7 -35 -11 -67.5t-4 -61.5q0 -33 6 -60.5t19.5 -47.5t35 -31t53.5 -11q46 0 81 23t60.5 62t43 90.5t28.5 107.5zM489 323q-12 -60 -32 -118.5 t-53 -105t-80 -75t-111 -28.5q-46 0 -76.5 15.5t-49 42t-26.5 62t-8 76.5q0 32 4 66.5t11 69.5q12 60 32.5 118.5t53 104.5t79.5 74.5t111 28.5q46 0 76.5 -15.5t49 -42t26.5 -62.5t8 -77q0 -32 -4 -65.5t-11 -68.5z" />
<glyph unicode="1" horiz-adv-x="335" d="M135 0l115 589l-176 -75l-5 44l198 92h50l-126 -650h-56z" />
<glyph unicode="2" horiz-adv-x="489" d="M-10 0l8 45l231 204q49 44 81 82t50.5 70.5t25.5 61t7 52.5q0 41 -24 66t-78 25q-35 0 -75.5 -13.5t-92.5 -39.5l-14 39q51 29 100 45.5t95 16.5q72 0 108.5 -34t36.5 -96q0 -31 -8 -64.5t-27.5 -69.5t-52.5 -75.5t-83 -82.5l-209 -183h321l-9 -49h-391z" />
<glyph unicode="3" horiz-adv-x="484" d="M163 -4q-57 0 -100.5 14.5t-71.5 31.5l18 41q34 -17 73.5 -28t87.5 -11q51 0 84.5 16t54 41.5t29 56t8.5 59.5q0 21 -7 38t-25 28.5t-48 18t-76 6.5h-72l9 47h71q50 0 84 9.5t58 33.5q18 18 31.5 54t13.5 74q0 17 -4.5 32t-16 25.5t-30 16.5t-46.5 6q-42 0 -86 -14.5 t-79 -31.5l-16 38q45 24 96 40t97 16q75 0 108.5 -33.5t33.5 -87.5q0 -28 -8 -59.5t-24.5 -60t-42 -50.5t-61.5 -31q50 -6 74 -36t24 -78q0 -38 -13 -77t-41.5 -71.5t-74.5 -53t-112 -20.5z" />
<glyph unicode="4" horiz-adv-x="497" d="M388 601h-1l-324 -418h244zM352 134l-26 -134h-55l26 134h-302l9 46l364 470h85l-91 -467h97l-10 -49h-97z" />
<glyph unicode="5" horiz-adv-x="488" d="M157 -4q-54 0 -95 12.5t-71 29.5l20 44q35 -17 77.5 -27.5t77.5 -10.5q97 0 142 45q13 13 23.5 32.5t17.5 41t11 44t4 42.5q0 23 -8.5 39t-29 25.5t-54 13.5t-83.5 4q-29 0 -52 -2l-46 -4l93 325h279l-14 -49h-231l-64 -224q17 1 32.5 1.5t30.5 0.5q61 0 100.5 -8.5 t63 -24.5t32.5 -38.5t9 -50.5q0 -24 -4 -51t-12.5 -53t-21.5 -50t-31 -42q-33 -33 -80 -49t-116 -16z" />
<glyph unicode="6" horiz-adv-x="510" d="M393 269q0 17 -5 32t-18 26.5t-35 18t-56 6.5q-37 0 -80.5 -14t-77.5 -33q-9 -45 -14 -81t-5 -64q0 -64 25 -90t80 -26q57 0 93 24t57 58.5t28.5 73.5t7.5 69zM198 -4q-81 0 -115.5 39.5t-34.5 120.5q0 32 5 68.5t13 81.5q16 82 39.5 146.5t60 109.5t87.5 68.5t122 23.5 q35 0 66 -5t51 -13l-11 -43q-30 6 -58 9.5t-57 3.5q-54 0 -93.5 -20t-68 -54.5t-46.5 -81t-28 -98.5q38 18 79 32.5t87 14.5q42 0 71 -9t47 -25t26 -39.5t8 -51.5q0 -37 -11 -85t-39.5 -91t-76.5 -72.5t-123 -29.5z" />
<glyph unicode="7" horiz-adv-x="440" d="M96 0h-63l382 601h-312l10 49h369l-9 -47z" />
<glyph unicode="8" horiz-adv-x="518" d="M266 311l-67 -38q-32 -19 -57.5 -41t-40.5 -48.5t-15 -59.5q0 -39 31 -60t95 -21q75 0 122 32.5t47 92.5q0 24 -9.5 44t-25.5 37t-37 32zM275 367q32 17 61 35t51 38.5t35 44t13 52.5q0 70 -109 70q-39 0 -67.5 -9t-46.5 -24.5t-26.5 -35.5t-8.5 -42q0 -23 8 -41 t21.5 -33.5t31 -28.5t37.5 -26zM319 340q23 -15 44 -31.5t37.5 -36t26.5 -43.5t10 -54q0 -37 -14.5 -69.5t-43.5 -57t-72 -38.5t-101 -14h-4q-85 0 -128 30.5t-43 88.5q0 41 16.5 73.5t43.5 59t61.5 48.5t71.5 42q-20 14 -38.5 29.5t-32.5 33.5t-22 39.5t-8 48.5q0 34 13 64 t39 52.5t65 35.5t92 13h3q76 0 115.5 -28t39.5 -80q0 -37 -14 -66.5t-37.5 -54t-54.5 -45.5t-65 -40z" />
<glyph unicode="9" horiz-adv-x="510" d="M135 381q0 -17 5 -32.5t18 -26.5t35 -17.5t56 -6.5q37 0 80.5 14t77.5 33q9 45 14 81t5 64q0 64 -25 90t-80 26q-57 0 -93 -24t-57 -58.5t-28.5 -73.5t-7.5 -69zM330 654q81 0 115.5 -39.5t34.5 -120.5q0 -62 -18 -150q-16 -82 -39.5 -146.5t-60 -109.5t-87.5 -68.5 t-122 -23.5q-34 0 -66 5t-54 13l12 43q32 -6 60 -9.5t57 -3.5q54 0 93.5 20t68 54.5t46 80.5t28.5 99q-38 -19 -79 -33t-87 -14q-42 0 -71 9t-47 25t-26 39t-8 52q0 37 11 85t39.5 91t76.5 72.5t123 29.5z" />
<glyph unicode=":" horiz-adv-x="303" d="M152 415l19 94h63l-19 -94h-63zM72 0l19 94h63l-19 -94h-63z" />
<glyph unicode=";" horiz-adv-x="303" d="M3 -173l-39 14l136 258l60 -21zM152 415l19 94h63l-19 -94h-63z" />
<glyph unicode="&#x37e;" horiz-adv-x="303" d="M3 -173l-39 14l136 258l60 -21zM152 415l19 94h63l-19 -94h-63z" />
<glyph unicode="&#x3c;" d="M69 279l8 38l425 227l-13 -60l-360 -188l288 -188l-11 -56z" />
<glyph unicode="=" d="M41 178l9 46h419l-9 -46h-419zM79 371l8 47h419l-8 -47h-419z" />
<glyph unicode="&#x3e;" d="M46 52l11 61l362 187l-289 188l11 56l337 -227l-8 -38z" />
<glyph unicode="?" horiz-adv-x="417" d="M93 0l15 82h59l-15 -82h-59zM185 185h-54l12 66q7 36 25 63.5t41 51t48 44t45.5 42.5t34 48t13.5 60q0 29 -20.5 49.5t-70.5 20.5q-24 0 -53.5 -5.5t-58.5 -13.5l-7 43q35 11 69 17.5t63 6.5q64 0 100 -28.5t36 -81.5q0 -42 -14 -73t-35.5 -55t-47 -44.5t-49 -42.5 t-41.5 -47.5t-24 -60.5z" />
<glyph unicode="@" horiz-adv-x="921" d="M575 395q-33 43 -52.5 57.5t-39.5 14.5q-32 0 -59.5 -27.5t-47.5 -69t-31.5 -89.5t-11.5 -89q0 -39 13 -57t35 -18q27 0 65.5 25t77.5 58zM503 77l12 68q-47 -38 -81.5 -56t-63.5 -18q-40 0 -64 29.5t-24 89.5q0 49 14.5 106t40.5 105t63.5 80t82.5 32q32 0 59 -21.5 t50 -49.5l24 67h40l-101 -388q58 0 99.5 16t70 42t45.5 60t26 71t12 73.5t3 67.5q0 46 -10.5 84t-38 66t-76.5 43.5t-126 15.5q-89 0 -155 -26.5t-112.5 -69t-76.5 -97t-47 -110.5t-23.5 -108.5t-6.5 -91.5q0 -121 61 -178t189 -57h172l-8 -38q-40 -4 -88.5 -6t-84.5 -2 q-145 0 -218.5 67.5t-73.5 208.5q0 46 8 105t28.5 120.5t55.5 120t88 104.5t126 74t171 28q90 0 147.5 -20t90.5 -54t45.5 -79.5t12.5 -97.5q0 -40 -4.5 -83t-17 -84.5t-35 -79.5t-58 -66.5t-86 -45.5t-118.5 -17h-39z" />
<glyph unicode="A" horiz-adv-x="502" d="M316 613h-1l-195 -410h233zM370 0l-14 156h-257l-73 -156h-58l325 674h71l63 -674h-57z" />
<glyph unicode="B" horiz-adv-x="494" d="M368 231q0 20 -8 37t-27.5 29.5t-53 19.5t-84.5 7h-24q-13 0 -24 -1l-53 -274q16 -2 30 -2h33q68 0 109.5 18t64 45.5t30 59.5t7.5 61zM412 542q0 20 -7 35.5t-23.5 26.5t-44.5 17t-70 6q-20 0 -35 -0.5t-26 -1.5l-49 -252q13 -1 23 -1h21q67 0 108.5 16t64 40.5 t30.5 54.5t8 59zM153 -1q-29 0 -59.5 0.5t-63.5 0.5l131 673q35 1 61.5 1.5t60.5 0.5q96 0 140 -32t44 -95q0 -77 -40.5 -130.5t-110.5 -66.5q60 -11 84.5 -40.5t24.5 -75.5q0 -35 -10.5 -76.5t-40.5 -77t-83 -59t-138 -23.5z" />
<glyph unicode="C" horiz-adv-x="477" d="M408 44q-53 -28 -98.5 -38t-82.5 -10q-41 0 -73.5 10t-55 32.5t-34 59.5t-11.5 90q0 32 5 70.5t14 84.5q16 86 44.5 149t66.5 104.5t83.5 61.5t96.5 20q40 0 76.5 -10t74.5 -37l-20 -42q-59 41 -129 41q-84 0 -146 -71t-93 -230q-8 -41 -12 -74.5t-4 -61.5 q0 -81 32.5 -114.5t98.5 -33.5q28 0 69.5 10t89.5 35z" />
<glyph unicode="D" horiz-adv-x="559" d="M457 348q5 29 8 59t3 55q0 79 -42.5 122.5t-143.5 43.5q-13 0 -37 -0.5t-38 -1.5l-113 -578q14 -1 37 -1.5t37 -0.5q124 0 192.5 78.5t96.5 223.5zM512 333q-15 -77 -44 -139t-71.5 -105.5t-99.5 -67t-129 -23.5q-30 0 -65.5 0.5t-72.5 1.5l131 674q34 1 64.5 1.5 t62.5 0.5q125 0 181 -55.5t56 -162.5q0 -28 -3.5 -62.5t-9.5 -62.5z" />
<glyph unicode="E" horiz-adv-x="418" d="M30 0l131 674h288l-9 -48h-233l-50 -254h213l-10 -48h-212l-54 -276h236l-9 -48h-291z" />
<glyph unicode="F" horiz-adv-x="400" d="M207 626l-50 -255h204l-9 -48h-204l-63 -323h-55l131 674h275l-9 -48h-220z" />
<glyph unicode="G" horiz-adv-x="528" d="M415 39q-42 -20 -90 -31.5t-90 -11.5q-44 0 -78 9.5t-57 31.5t-35 57.5t-12 88.5q0 34 4.5 72t12.5 83q17 89 45.5 153t67.5 105.5t88 61.5t106 20q19 0 40 -3t41 -8.5t38 -12t31 -13.5l-18 -44q-32 15 -67 24t-64 9q-99 0 -160.5 -72.5t-92.5 -230.5q-15 -81 -15 -134 q0 -81 34 -114.5t103 -33.5q26 0 57 6t62 17l46 242h55z" />
<glyph unicode="H" horiz-adv-x="580" d="M387 0l63 324h-302l-63 -324h-55l131 674h55l-59 -301h302l59 301h55l-131 -674h-55z" />
<glyph unicode="I" horiz-adv-x="223" d="M30 0l131 674h55l-131 -674h-55z" />
<glyph unicode="J" horiz-adv-x="317" d="M220 210q-20 -104 -61 -158.5t-117 -54.5q-30 0 -54 3t-45 8l12 46q18 -3 42.5 -6t44.5 -3q30 0 50.5 14t34.5 37.5t23 55t16 66.5l89 456h55z" />
<glyph unicode="K" horiz-adv-x="438" d="M310 0l-155 343h-3l-67 -343h-55l131 674h55l-62 -319h3l260 319h70l-276 -325l165 -349h-66z" />
<glyph unicode="L" horiz-adv-x="348" d="M30 0l131 674h55l-122 -625h200l-9 -49h-255z" />
<glyph unicode="M" horiz-adv-x="735" d="M566 0l80 623h-1l-313 -623h-39l-70 623h-1l-162 -623h-52l177 674h87l62 -560h1l279 560h91l-85 -674h-54z" />
<glyph unicode="N" horiz-adv-x="578" d="M367 0l-167 612l-119 -612h-51l131 674h77l165 -598l117 598h51l-131 -674h-73z" />
<glyph unicode="O" horiz-adv-x="607" d="M506 344q14 73 14 126q0 75 -33 117.5t-114 42.5q-104 0 -162 -77t-86 -221q-7 -35 -11 -67.5t-4 -59.5q0 -75 33 -118t114 -43q104 0 162 77t87 223zM559 327q-32 -161 -106 -246t-197 -85h-6q-100 0 -147.5 47t-47.5 152q0 32 4.5 69.5t12.5 81.5q31 162 105 247 t198 85h6q100 0 147.5 -47.5t47.5 -153.5q0 -62 -17 -150z" />
<glyph unicode="P" horiz-adv-x="485" d="M434 525q0 24 -6.5 42.5t-21.5 32t-40.5 20.5t-63.5 7q-22 0 -49 -0.5t-46 -1.5l-62 -317q15 -1 35 -2t52 -1q66 0 105.5 24.5t61 59t28.5 72t7 64.5zM228 257h-46q-24 0 -47 1l-50 -258h-55l131 673q36 2 75 2h77q93 0 135 -37t42 -109q0 -22 -4 -50.5t-14 -58.5 t-28.5 -59.5t-47.5 -52.5t-70.5 -37t-97.5 -14z" />
<glyph unicode="Q" horiz-adv-x="607" d="M520 470q0 75 -33 117.5t-114 42.5q-104 0 -162 -77t-86 -221q-7 -35 -11 -67.5t-4 -59.5q0 -75 33 -118t114 -43q42 0 75.5 13t62.5 38l-68 95l43 33l60 -86q21 30 38 74t28.5 90.5t17.5 91.5t6 77zM576 477q0 -45 -7.5 -99t-22.5 -107t-36 -100.5t-48 -78.5l73 -103 l-43 -33l-68 98q-67 -58 -168 -58h-6q-100 0 -147.5 47t-47.5 152q0 32 4.5 69.5t12.5 81.5q31 162 105 247t198 85h6q100 0 147.5 -47.5t47.5 -153.5z" />
<glyph unicode="R" horiz-adv-x="498" d="M427 545q0 38 -26.5 60t-98.5 22q-22 0 -47.5 -0.5t-47.5 -1.5l-49 -249h88q52 0 87 15t56 39.5t29.5 54.5t8.5 60zM347 0l-100 329h-99l-63 -329h-55l131 673q38 2 75 2h70q95 0 137 -33.5t42 -91.5q0 -34 -10 -67.5t-32.5 -63t-57.5 -51.5t-84 -32l107 -336h-61z" />
<glyph unicode="S" horiz-adv-x="447" d="M170 -4q-37 0 -78.5 11t-76.5 34l21 43q31 -17 62.5 -28t72.5 -11q42 0 72.5 13.5t50 34.5t29 47t9.5 52q0 34 -17.5 58.5t-43.5 44.5t-57 38t-57 40.5t-43.5 51t-17.5 69.5q0 37 13.5 70t40 58.5t64.5 40.5t87 15q41 0 80.5 -11t67.5 -30l-21 -40q-25 13 -59 23t-69 10 q-38 0 -66 -11.5t-46.5 -30t-27.5 -41.5t-9 -47q0 -34 17.5 -57.5t44 -42.5t57 -37t57 -40.5t44 -52t17.5 -72.5q0 -42 -14.5 -78.5t-42.5 -64t-68.5 -43.5t-92.5 -16z" />
<glyph unicode="T" horiz-adv-x="408" d="M299 625l-121 -625h-56l122 625h-168l9 49h393l-10 -49h-169z" />
<glyph unicode="U" horiz-adv-x="573" d="M474 194q-8 -43 -25.5 -79t-46.5 -62.5t-70.5 -41.5t-98.5 -15q-105 0 -145 50q-26 34 -26 92q0 29 7 65l92 471h55l-93 -479q-6 -29 -6 -53q0 -37 15 -60q24 -38 107 -38q44 0 75.5 10.5t52.5 31t33.5 49.5t19.5 66l92 473h55z" />
<glyph unicode="V" horiz-adv-x="501" d="M231 0h-70l-63 674h57l48 -551l3 -67l31 68l260 550h60z" />
<glyph unicode="W" horiz-adv-x="762" d="M541 0h-75l-20 521v88h-1l-34 -88l-223 -521h-76l-17 674h58l10 -534l-2 -79h1l31 76l228 537h74l21 -534l-1 -79h1l29 78l217 535h59z" />
<glyph unicode="X" horiz-adv-x="489" d="M293 359l120 -359h-63l-84 259l-13 48h-1l-29 -42l-188 -265h-67l259 354l-105 320h59l71 -220l14 -48h1l37 53l150 215h66z" />
<glyph unicode="Y" horiz-adv-x="452" d="M257 290l-57 -290h-54l57 290l-116 384h61l51 -178l40 -148l88 134l128 192h65z" />
<glyph unicode="Z" horiz-adv-x="438" d="M-12 0l9 48l396 578h-280l10 48h339l-9 -46l-394 -579h292l-9 -49h-354z" />
<glyph unicode="[" horiz-adv-x="354" d="M-6 -190l192 990h195l-10 -46h-141l-175 -898h145l-9 -46h-197z" />
<glyph unicode="\" horiz-adv-x="396" d="M250 -145l-138 945h47l139 -945h-48z" />
<glyph unicode="]" horiz-adv-x="354" d="M372 800l-193 -990h-198l9 46h146l175 898h-144l10 46h195z" />
<glyph unicode="^" d="M429 369l-90 256l-189 -256h-64l235 307h54l117 -307h-63z" />
<glyph unicode="_" horiz-adv-x="490" d="M-92 -195l9 46h490l-9 -46h-490z" />
<glyph unicode="`" horiz-adv-x="341" d="M257 573l-114 131l51 27l100 -139z" />
<glyph unicode="a" horiz-adv-x="475" d="M365 385q-35 41 -61.5 60.5t-51.5 19.5q-24 0 -47.5 -16.5t-43.5 -45t-35 -67.5t-24 -83q-5 -25 -7 -48t-2 -43q0 -53 17 -85.5t52 -32.5q26 0 65.5 25.5t91.5 73.5zM301 0l10 83q-52 -47 -91.5 -67t-72.5 -20q-53 0 -81 44t-28 119q0 46 10 96q12 60 32 108t46.5 81 t58 51t65.5 18q26 0 57 -16.5t72 -61.5l22 74h42l-99 -509h-43z" />
<glyph unicode="b" horiz-adv-x="475" d="M365 256q9 49 9 91q0 53 -17 85.5t-52 32.5q-27 0 -66 -25.5t-91 -73.5l-47 -242q35 -41 62 -60.5t52 -19.5q24 0 47 15.5t43 44t35.5 67t24.5 85.5zM419 254q-12 -61 -32.5 -109t-47 -81t-57.5 -50.5t-65 -17.5q-27 0 -57.5 16.5t-71.5 61.5l-22 -74h-42l141 723l54 8 l-59 -303q49 45 87.5 65t72.5 20q53 0 81 -44t28 -119q0 -46 -10 -96z" />
<glyph unicode="c" horiz-adv-x="368" d="M310 44q-71 -48 -148 -48q-23 0 -45.5 6.5t-40.5 22.5t-29 44t-11 72q0 24 3 54t11 66q25 127 82 189.5t135 62.5q41 0 68 -12.5t47 -33.5l-24 -37q-20 18 -42 26.5t-54 8.5q-24 0 -47.5 -11t-44.5 -36.5t-38.5 -67t-29.5 -101.5q-6 -30 -8.5 -55t-2.5 -45q0 -29 7 -49 t18.5 -32t27 -17.5t32.5 -5.5q33 0 59.5 8.5t58.5 28.5z" />
<glyph unicode="d" horiz-adv-x="476" d="M365 385q-35 41 -61.5 60.5t-51.5 19.5q-24 0 -47 -15.5t-43 -43.5t-35.5 -66.5t-24.5 -84.5q-9 -50 -9 -93q0 -53 17 -85.5t52 -32.5q26 0 65.5 25.5t91.5 73.5zM301 0l10 83q-52 -47 -91.5 -67t-72.5 -20q-53 0 -81 44t-28 119q0 23 2.5 47t7.5 50q24 122 79 189.5 t123 67.5q26 0 57 -16t69 -58l55 284l55 8l-142 -731h-43z" />
<glyph unicode="e" horiz-adv-x="449" d="M108 287q72 0 119.5 7t76 20.5t40.5 34t12 47.5q0 29 -20.5 50.5t-64.5 21.5q-35 0 -61.5 -15.5t-46.5 -41t-33.5 -58t-21.5 -66.5zM338 28q-45 -17 -84.5 -24.5t-78.5 -7.5q-68 0 -103.5 33.5t-35.5 116.5q0 25 4.5 65t16.5 84t32 86.5t50 73.5q27 27 61.5 42.5 t78.5 15.5q60 0 95 -30.5t35 -82.5q0 -39 -16 -68.5t-52.5 -49.5t-95.5 -30t-145 -10q-10 -50 -10 -89q0 -59 24 -84.5t75 -25.5q28 0 62 5t79 19z" />
<glyph unicode="f" horiz-adv-x="251" d="M341 681q-9 2 -23 3t-25 1q-39 0 -62.5 -26.5t-33.5 -77.5l-14 -72h108l-9 -45h-108l-127 -650l-54 -8l128 658h-84l8 45h85l15 78q14 71 50 107.5t101 36.5q18 0 33.5 -2t25.5 -5z" />
<glyph unicode="g" horiz-adv-x="475" d="M365 385q-35 41 -61.5 60.5t-51.5 19.5q-26 0 -49.5 -17t-42.5 -45.5t-33.5 -65.5t-22.5 -77q-4 -20 -7.5 -48t-3.5 -47q0 -25 3.5 -47t12 -38.5t21.5 -26t32 -9.5q26 0 66.5 27t90.5 72zM344 1q-18 -93 -72.5 -144t-147.5 -51q-20 0 -46 1.5t-45 3.5l3 42h81 q44 0 74.5 11.5t50.5 31t31 45.5t17 55l16 84q-48 -44 -87 -64t-72 -20q-29 0 -49.5 12.5t-34 35t-19.5 52.5t-6 65q0 23 3.5 52.5t9.5 57.5q10 46 28 89.5t43 77.5t57 54.5t71 20.5q26 0 57 -16.5t72 -61.5l22 74h42z" />
<glyph unicode="h" horiz-adv-x="487" d="M303 0l59 304q5 27 7 43.5t2 28.5q0 36 -14.5 62t-47.5 26q-29 0 -64.5 -22t-95.5 -75l-72 -367h-53l141 723l54 8l-59 -303q51 45 89.5 65t72.5 20q49 0 76 -34t27 -96q0 -26 -10 -79l-59 -304h-53z" />
<glyph unicode="i" horiz-adv-x="209" d="M24 0l99 509h53l-99 -509h-53zM148 637l16 83h53l-16 -83h-53z" />
<glyph unicode="j" horiz-adv-x="209" d="M84 31q-8 -41 -18 -73.5t-22 -59t-28 -49t-36 -43.5l-35 29q32 36 52 82t29 96l96 496h54zM148 637l16 83h53l-16 -83h-53z" />
<glyph unicode="k" horiz-adv-x="400" d="M273 0l-141 280h-1l-54 -280h-53l141 723l54 8l-86 -444h1l210 222h68l-223 -227l150 -282h-66z" />
<glyph unicode="l" horiz-adv-x="209" d="M24 0l141 723l54 8l-142 -731h-53z" />
<glyph unicode="m" horiz-adv-x="759" d="M574 0l59 304q5 27 7 43.5t2 28.5q0 36 -13 62.5t-46 26.5q-14 0 -29.5 -5.5t-34.5 -17t-42 -30t-53 -45.5l-72 -367h-53l59 304q5 27 7 43.5t2 28.5q0 36 -13 62.5t-46 26.5q-29 0 -64 -22.5t-95 -75.5l-72 -367h-53l99 509h43l-8 -82q52 46 90.5 66t72.5 20 q42 0 66.5 -26t31.5 -71q31 27 56 45.5t46 30t39.5 16.5t35.5 5q49 0 74.5 -34t25.5 -96q0 -14 -2 -33t-7 -46l-60 -304h-53z" />
<glyph unicode="n" horiz-adv-x="487" d="M303 0l59 304q5 27 7 44t2 29q0 35 -14.5 61.5t-47.5 26.5q-14 0 -29.5 -5.5t-34.5 -17.5t-42.5 -30.5t-53.5 -44.5l-72 -367h-53l99 509h43l-8 -82q53 47 91.5 66.5t72.5 19.5q49 0 76 -34.5t27 -95.5q0 -29 -10 -79l-59 -304h-53z" />
<glyph unicode="o" horiz-adv-x="489" d="M378 256q5 23 7.5 45t2.5 42q0 55 -23 88.5t-81 33.5q-38 0 -67.5 -15.5t-52 -43.5t-38 -67.5t-24.5 -86.5q-5 -23 -7.5 -44t-2.5 -40q0 -57 23 -90.5t82 -33.5q38 0 68 16t52 44.5t37 67t24 84.5zM432 250q-10 -53 -29 -99t-48 -80.5t-68.5 -54.5t-90.5 -20h-3 q-81 0 -118 41.5t-37 121.5q0 22 2.5 47t7.5 53q11 55 30.5 101.5t48.5 80.5t68.5 53t90.5 19h3q154 0 154 -162q0 -22 -2.5 -47t-8.5 -54z" />
<glyph unicode="p" horiz-adv-x="475" d="M374 347q0 53 -17 85.5t-52 32.5q-26 0 -65.5 -25.5t-91.5 -73.5l-47 -242q35 -41 62 -60.5t52 -19.5q24 0 47 15.5t42.5 43.5t35 67t25.5 86q9 49 9 91zM419 252q-12 -60 -32 -107.5t-46.5 -80.5t-58 -50.5t-65.5 -17.5q-29 0 -58.5 16.5t-67.5 57.5l-49 -256l-55 -8 l136 703h42l-9 -84q51 46 90.5 67t73.5 21q53 0 81 -44t28 -119q0 -22 -2.5 -47t-7.5 -51z" />
<glyph unicode="q" horiz-adv-x="475" d="M251 465q-24 0 -46.5 -15.5t-42 -44t-35.5 -67.5t-25 -86q-9 -48 -9 -90q0 -53 17 -85.5t52 -32.5q26 0 65.5 25.5t91.5 73.5l47 242q-35 42 -62.5 61t-52.5 19zM147 -4q-53 0 -81 44t-28 119q0 22 2.5 47t7.5 52q13 61 33.5 109t47 80t57.5 49t64 17q26 0 57 -16.5 t72 -61.5l22 74h42l-135 -694l-55 -9l53 273q-48 -44 -87 -63.5t-72 -19.5z" />
<glyph unicode="r" horiz-adv-x="297" d="M295 461q-16 0 -29.5 -3.5t-29.5 -13.5t-36.5 -28t-50.5 -48l-72 -368h-53l99 509h43l-9 -84q25 27 44 44.5t35 27t31 13t33 3.5h26l-10 -52h-21z" />
<glyph unicode="s" horiz-adv-x="347" d="M108 -4q-36 0 -63.5 9.5t-50.5 23.5l22 43q45 -29 95 -29q47 0 78 26.5t31 73.5q0 26 -14.5 49t-56.5 52q-24 16 -40.5 30.5t-27 29.5t-15.5 32t-5 37q0 29 10.5 54.5t30.5 44.5t48.5 30t65.5 11q31 0 59 -8.5t48 -21.5l-20 -41q-17 9 -40.5 17t-49.5 8q-42 0 -70 -23 t-28 -65q0 -26 15 -48t60 -52q47 -32 66 -62.5t19 -68.5q0 -31 -10.5 -58.5t-31 -48.5t-52 -33t-73.5 -12z" />
<glyph unicode="t" horiz-adv-x="286" d="M207 9q-19 -5 -38.5 -9t-36.5 -4q-23 0 -40.5 5t-28.5 18t-15 35q-1 7 -1 15q0 17 5 38l69 357h-84l8 45h85l29 156l55 6l-31 -162h118l-9 -45h-118l-69 -354q-4 -17 -4 -30t5 -21q8 -15 42 -15q11 0 24 1.5t32 3.5z" />
<glyph unicode="u" horiz-adv-x="487" d="M175 509l-59 -304q-5 -27 -7 -44t-2 -29q0 -36 14.5 -62t47.5 -26q28 0 64 23t96 75l72 367h53l-99 -509h-43l8 82q-53 -47 -91.5 -66.5t-72.5 -19.5q-49 0 -76 34.5t-27 95.5q0 29 10 79l59 304h53z" />
<glyph unicode="v" horiz-adv-x="381" d="M166 0h-64l-38 509h57l24 -371l2 -74h1l34 78l165 367h61z" />
<glyph unicode="w" horiz-adv-x="626" d="M424 0h-74l-14 385h-1l-164 -385h-78l-19 509h56l13 -455h1l195 455h42l18 -455h1l186 455h61z" />
<glyph unicode="x" horiz-adv-x="414" d="M284 0l-85 221h-1l-171 -221h-66l210 260l-102 249h62l79 -207h1l159 207h65l-198 -244l110 -265h-63z" />
<glyph unicode="y" horiz-adv-x="374" d="M187 34q-25 -52 -45.5 -88t-41.5 -62t-44.5 -44t-53.5 -34l-19 39q19 11 35.5 23.5t31.5 29t29 39t29 54.5l-45 518h57l29 -379l2 -63h1l36 85l158 357h61z" />
<glyph unicode="z" horiz-adv-x="331" d="M-27 0l6 35l289 427h-199l9 47h260l-7 -36l-287 -426h214l-9 -47h-276z" />
<glyph unicode="{" horiz-adv-x="392" d="M106 145q5 31 5 54q0 29 -7 47q-15 32 -65 32l9 46q56 0 80.5 32.5t36.5 94.5l29 150q11 58 32 97.5t50.5 63t68.5 32.5q29 7 63 7q11 0 23 -1l-10 -46q-10 1 -19 1q-60 0 -96 -29q-42 -33 -59 -118l-29 -151q-14 -71 -40 -107t-76 -50q43 -9 56 -48q6 -21 6 -47 q0 -24 -5 -52l-27 -139q-7 -36 -7 -63q0 -11 1 -20q4 -32 19.5 -49t41.5 -22q19 -5 42 -5q9 0 18 1l-9 -46q-12 -1 -24 -1q-30 0 -56 6q-34 8 -56 30.5t-28 61.5q-3 14 -3 32q0 29 7 66z" />
<glyph unicode="|" horiz-adv-x="214" d="M-7 -194l194 994h44l-194 -994h-44z" />
<glyph unicode="}" horiz-adv-x="392" d="M296 457q-6 -30 -6 -54q0 -26 7 -44q13 -35 65 -35l-8 -46q-56 0 -81 -32.5t-36 -94.5l-28 -142q-11 -58 -32 -97.5t-51 -63t-68 -32.5q-29 -7 -62 -7q-11 0 -23 1l8 46q10 -1 19 -1q23 0 43 4q28 5 50 21t37.5 45.5t24.5 76.5l28 143q14 68 40.5 106.5t76.5 50.5 q-35 7 -53 42q-10 21 -10 53q0 23 5 52l29 147q7 38 7 65v18q-4 32 -19 49t-41 22q-23 4 -51 4h-11l9 46q12 1 24 1q30 0 55 -6q35 -8 57 -30.5t29 -61.5q2 -14 2 -32q0 -29 -7 -66z" />
<glyph unicode="~" d="M540 617q-10 -66 -47.5 -106t-90.5 -40q-35 0 -55.5 17t-36.5 38t-31.5 38t-39.5 17q-19 0 -33 -9t-24 -23t-16 -31.5t-10 -34.5h-47q10 65 47.5 104.5t88.5 39.5q35 0 56 -17t36.5 -37.5t31 -37.5t39.5 -17q19 0 33.5 9t24.5 23t16 32t10 35h48z" />
<glyph unicode="&#xa1;" horiz-adv-x="282" d="M24 -76l96 489h55l-96 -489h-55zM138 516l16 82h58l-16 -82h-58z" />
<glyph unicode="&#xa2;" horiz-adv-x="412" d="M341 179q-26 -14 -55 -24t-60 -14l-20 -105h-49l21 104q-23 1 -43.5 8t-35.5 22t-24 39.5t-9 61.5q0 47 10.5 95t34 87t60 66t87.5 32l18 99h49l-19 -99q28 -2 52 -13.5t42 -25.5l-21 -40q-18 14 -42 24t-53 10q-48 0 -79.5 -23t-50.5 -57t-26.5 -73t-7.5 -70 q0 -55 25 -76t67 -21q26 0 53 8t64 25z" />
<glyph unicode="&#xa3;" horiz-adv-x="490" d="M0 0l8 38l66 8l51 260h-88l10 46h87l21 106q10 54 29.5 91.5t44 61t53.5 33.5t58 10q51 0 81.5 -11t44.5 -22l-19 -38q-21 11 -44.5 17t-60.5 6q-53 0 -86 -39t-50 -129l-17 -86h162l-9 -46h-163l-49 -258h226l-9 -48h-347z" />
<glyph unicode="&#xa4;" d="M402 323q3 15 5 29t2 28q0 46 -22.5 75t-76.5 29q-67 0 -104.5 -45.5t-52.5 -120.5q-6 -30 -6 -57q0 -47 23 -75.5t77 -28.5q34 0 60 12.5t45 34.5t31 52.5t19 66.5zM119 159q-12 15 -19 37t-7 54q0 30 6 63.5t17.5 64.5t28 57.5t37.5 44.5l-68 150l47 23l61 -146 q23 13 48.5 18.5t48.5 5.5h2q28 0 48.5 -6.5t34.5 -15.5l117 144l40 -23l-124 -146q26 -35 26 -94q0 -30 -5.5 -61.5t-16 -62t-27.5 -58t-39 -48.5l63 -138l-47 -26l-56 137q-20 -10 -43 -16.5t-50 -6.5h-2q-24 0 -48 5.5t-40 17.5l-109 -137l-41 24z" />
<glyph unicode="&#xa5;" d="M308 298h147l-9 -43h-149l-21 -108h149l-8 -44h-149l-20 -103h-54l20 103h-149l8 44h150l20 108h-149l8 43h148l-118 352h60l50 -156l44 -151l112 161l102 146h63z" />
<glyph unicode="&#xa6;" horiz-adv-x="277" d="M22 -194l76 395h53l-77 -395h-52zM139 413l77 393h53l-77 -393h-53z" />
<glyph unicode="&#xa7;" d="M408 310q0 28 -15.5 47t-39 34t-52 28.5t-53.5 30.5q-35 -19 -57.5 -37.5t-35.5 -37t-18 -36.5t-5 -36q0 -28 16 -47.5t40 -34.5t52 -28.5t52 -29.5q68 37 92 74.5t24 72.5zM331 135q20 -17 31.5 -40t11.5 -52q0 -32 -14 -62t-40.5 -53.5t-65.5 -38t-89 -14.5 q-41 0 -82 12t-72 32l24 42q29 -16 64 -27t68 -11q32 0 59.5 8t47.5 22.5t31.5 35t11.5 45.5q0 30 -18 50.5t-44.5 37t-58 32t-58 34.5t-44.5 44t-18 62q0 55 30 97.5t103 86.5q-16 14 -29 36.5t-13 53.5q0 28 11 57t34 52.5t60 38.5t88 15q42 0 80 -10.5t63 -27.5l-21 -40 q-23 12 -55.5 21.5t-67.5 9.5q-59 0 -98 -28.5t-39 -78.5q0 -29 18 -49t45 -36.5t58 -31.5t58 -34.5t45 -45t18 -62.5q0 -47 -28.5 -93.5t-104.5 -89.5z" />
<glyph unicode="&#xa8;" horiz-adv-x="392" d="M153 639l16 78h52l-16 -78h-52zM327 639l16 78h52l-16 -78h-52z" />
<glyph unicode="&#xa9;" horiz-adv-x="767" d="M489 161q-29 -15 -62 -27t-69 -12q-24 0 -46.5 5t-39 19t-26.5 39t-10 65q0 39 10 89q20 108 73 160.5t129 52.5q26 0 54 -9t50 -26l-18 -40q-18 11 -39.5 20t-45.5 9q-26 0 -49.5 -8.5t-42.5 -28.5t-34 -53.5t-24 -82.5q-9 -42 -9 -72q0 -52 22 -72t58 -20q29 0 55 10 l53 21zM674 351q0 60 -18.5 112.5t-53 91.5t-83 61.5t-107.5 22.5q-60 0 -111.5 -23.5t-89 -65.5t-59 -100t-21.5 -127q0 -60 18.5 -112.5t53 -91.5t82 -61.5t106.5 -22.5q61 0 112.5 23.5t89.5 65.5t59.5 100t21.5 127zM721 351q0 -77 -25.5 -142.5t-70.5 -113.5 t-105.5 -75.5t-130.5 -27.5q-68 0 -124.5 25.5t-97 70.5t-62.5 105.5t-22 129.5q0 77 25.5 142.5t70 113.5t105 75.5t130.5 27.5q69 0 125.5 -26t97 -70.5t62.5 -105t22 -129.5z" />
<glyph unicode="&#xaa;" horiz-adv-x="370" d="M321 590q-23 23 -40 34.5t-31 11.5q-31 0 -59 -35t-39 -93q-2 -16 -4 -30t-2 -26q0 -32 10.5 -50.5t32.5 -18.5q34 0 103 58zM281 345l6 53q-40 -32 -65 -43.5t-47 -11.5q-38 0 -57 27.5t-19 77.5q0 28 6 63q16 80 54.5 123t84.5 43q19 0 39.5 -11t48.5 -37l14 45h38 l-64 -329h-39zM71 234l9 44h228l-8 -44h-229z" />
<glyph unicode="&#xab;" horiz-adv-x="498" d="M157 82l-95 214l175 216l35 -17l-146 -198l69 -199zM337 93l-91 203l167 206l35 -17l-140 -188l66 -188z" />
<glyph unicode="&#xac;" d="M385 131l28 144h-354l9 46h405l-37 -190h-51z" />
<glyph unicode="&#xad;" horiz-adv-x="248" d="M34 260l9 49h183l-10 -49h-182z" />
<glyph unicode="&#xae;" horiz-adv-x="586" d="M313 591l-15 -83h24q38 0 54.5 13.5t16.5 42.5q0 14 -10.5 20.5t-42.5 6.5h-27zM326 467h-37l-21 -107h-47l52 272h82q43 0 65.5 -17t22.5 -48q0 -32 -18 -56.5t-53 -36.5l44 -114h-54zM522 507q0 38 -13 72.5t-36 60.5t-56.5 41.5t-73.5 15.5q-42 0 -77 -16t-61 -43.5 t-40.5 -65t-14.5 -80.5q0 -39 13 -73.5t36 -60.5t56 -41t74 -15q42 0 77 15.5t61 43.5t40.5 65t14.5 81zM568 509q0 -51 -19 -96.5t-51.5 -79t-76.5 -53t-94 -19.5q-51 0 -92 18t-70 49t-45 72.5t-16 89.5q0 52 18.5 97.5t51 79.5t76 53t94.5 19q50 0 91.5 -18t71 -49 t45.5 -73t16 -90z" />
<glyph unicode="&#xaf;" horiz-adv-x="392" d="M142 629l8 44h245l-9 -44h-244z" />
<glyph unicode="&#x2c9;" horiz-adv-x="392" d="M142 629l8 44h245l-9 -44h-244z" />
<glyph unicode="&#xb0;" horiz-adv-x="455" d="M409 616q0 24 -8.5 45.5t-23.5 37t-35.5 24.5t-43.5 9q-24 0 -45.5 -9.5t-38 -26.5t-26.5 -40.5t-10 -51.5q0 -24 8.5 -45.5t23 -37t34.5 -24.5t43 -9q24 0 46 9.5t39 26.5t27 40.5t10 51.5zM458 617q0 -37 -14 -68.5t-38 -55t-55 -36.5t-65 -13q-33 0 -62 12t-50 33.5 t-33 50.5t-12 63q0 37 14 68.5t37.5 55t54.5 36.5t65 13q33 0 62 -12t50.5 -33.5t33.5 -50.5t12 -63z" />
<glyph unicode="&#xb1;" d="M24 0l9 46h383l-9 -46h-383zM305 331l-36 -187h-50l36 187h-167l9 45h167l36 185h50l-37 -185h167l-8 -45h-167z" />
<glyph unicode="&#xb2;" horiz-adv-x="427" d="M162 637q27 18 57 29.5t62 11.5q48 0 70.5 -21t22.5 -56q0 -40 -23.5 -75.5t-75.5 -70.5l-94 -65h175l-9 -43h-245l7 38l130 93q50 36 66 64t16 55q0 17 -11 28.5t-37 11.5q-22 0 -46 -8.5t-49 -22.5z" />
<glyph unicode="&#xb3;" horiz-adv-x="416" d="M203 344q-28 0 -53.5 8t-42.5 22l16 29q19 -9 40 -14t47 -5q45 0 63.5 19.5t18.5 44.5q0 8 -3 15.5t-12 13t-26 9t-44 3.5h-17l8 40h12q57 0 80.5 18.5t23.5 49.5q0 19 -11.5 31t-38.5 12q-23 0 -43.5 -8t-46.5 -22l-16 30q25 16 54 27t61 11q49 0 71 -21t22 -53 q0 -34 -20 -58.5t-55 -33.5q24 -4 38 -19.5t14 -39.5q0 -20 -7.5 -39.5t-24 -35t-43.5 -25t-65 -9.5z" />
<glyph unicode="&#xb4;" horiz-adv-x="392" d="M267 573l-34 19l125 139l47 -27z" />
<glyph unicode="&#xb5;" d="M454 5q-11 -4 -27 -6.5t-33 -2.5q-44 0 -60 24q-12 17 -12 44q0 8 1 17q-51 -45 -90 -65t-71 -20q-35 0 -52 14t-26 29l-44 -228h-53l135 698h53l-62 -322q-6 -31 -6 -56q0 -30 9 -50q17 -37 54 -37q29 0 65 22t94 73l72 370h53l-77 -393q-4 -20 -4 -34q0 -16 6 -25 q5 -8 15 -10.5t25 -2.5q6 0 17 1t20 3z" />
<glyph unicode="&#x3bc;" d="M454 5q-11 -4 -27 -6.5t-33 -2.5q-44 0 -60 24q-12 17 -12 44q0 8 1 17q-51 -45 -90 -65t-71 -20q-35 0 -52 14t-26 29l-44 -228h-53l135 698h53l-62 -322q-6 -31 -6 -56q0 -30 9 -50q17 -37 54 -37q29 0 65 22t94 73l72 370h53l-77 -393q-4 -20 -4 -34q0 -16 6 -25 q5 -8 15 -10.5t25 -2.5q6 0 17 1t20 3z" />
<glyph unicode="&#xb6;" horiz-adv-x="534" d="M508 668l-156 -804h-51l156 804h-92l-125 -644q-17 -90 -44.5 -127.5t-74.5 -37.5q-23 0 -41 3t-35 8l8 44q20 -5 35.5 -7.5t31.5 -2.5q14 0 24 6t18 22t15 42t15 67l62 320q-30 0 -55 11t-43.5 31t-28.5 47.5t-10 59.5q0 37 14 73.5t42 65t69.5 46.5t96.5 18h249l-9 -45 h-71z" />
<glyph unicode="&#xb7;" horiz-adv-x="160" d="M43 253l17 90h66l-18 -90h-65z" />
<glyph unicode="&#x22c5;" horiz-adv-x="160" d="M43 253l17 90h66l-18 -90h-65z" />
<glyph unicode="&#x2219;" horiz-adv-x="160" d="M43 253l17 90h66l-18 -90h-65z" />
<glyph unicode="&#xb8;" horiz-adv-x="384" d="M70 -190h-47l75 139h62z" />
<glyph unicode="&#xb9;" horiz-adv-x="295" d="M208 620l-73 -35l-10 38l103 51h42l-63 -327h-52z" />
<glyph unicode="&#xba;" horiz-adv-x="366" d="M314 512q6 28 6 51q0 33 -14.5 52.5t-49.5 19.5q-46 0 -73 -33.5t-39 -93.5q-2 -14 -3.5 -26t-1.5 -23q0 -35 15 -55t50 -20q48 0 73.5 35.5t36.5 92.5zM362 504q-7 -35 -20 -64.5t-32.5 -51t-46.5 -33.5t-61 -12h-2q-109 0 -109 106q0 28 8 68q14 71 53 115.5t108 44.5 h2q54 0 80.5 -25t26.5 -82q0 -14 -1.5 -31t-5.5 -35zM66 234l8 44h228l-9 -44h-227z" />
<glyph unicode="&#xbb;" horiz-adv-x="498" d="M349 512l95 -214l-175 -216l-35 18l147 197l-69 200zM169 502l91 -204l-166 -205l-35 17l139 187l-66 189z" />
<glyph unicode="&#xbc;" horiz-adv-x="669" d="M366 122h97l32 164zM488 0h-50l15 80h-143l9 42l160 205h72l-39 -204h58l-9 -43h-58zM560 674h54l-519 -674h-53zM207 620l-73 -35l-10 38l103 51h42l-64 -327h-51z" />
<glyph unicode="&#xbd;" horiz-adv-x="673" d="M386 290q27 18 57 29t62 11q48 0 70.5 -20.5t22.5 -55.5q0 -40 -23.5 -76t-75.5 -71l-94 -64h175l-8 -43h-246l7 38l130 92q25 18 41 34t25 30.5t12.5 28t3.5 27.5q0 17 -11 28.5t-37 11.5q-22 0 -46 -9t-49 -23zM560 674h54l-519 -674h-53zM207 619l-73 -35l-10 39 l103 51h42l-64 -327h-51z" />
<glyph unicode="&#xbe;" horiz-adv-x="671" d="M582 674h52l-518 -674h-53zM387 122h96l32 164zM509 0h-51l16 80h-144l9 42l161 205h72l-39 -204h57l-8 -43h-58zM167 344q-27 0 -53 8t-43 22l17 29q19 -9 40 -14t47 -5q45 0 63.5 19.5t18.5 44.5q0 8 -3 15.5t-12.5 13t-26 9t-43.5 3.5h-17l8 40h12q57 0 80.5 18.5 t23.5 49.5q0 19 -12 31t-38 12q-24 0 -44.5 -8t-46.5 -22l-15 30q24 16 53.5 27t61.5 11q49 0 70.5 -21t21.5 -53q0 -34 -19.5 -58.5t-54.5 -33.5q23 -4 37 -19.5t14 -39.5q0 -20 -7.5 -39.5t-24 -35t-43.5 -25t-65 -9.5z" />
<glyph unicode="&#xbf;" horiz-adv-x="417" d="M334 598l-16 -82h-59l15 82h60zM241 413h55l-13 -66q-7 -36 -25 -63.5t-41 -51t-48 -44t-45.5 -42.5t-34 -48t-13.5 -60q0 -29 20.5 -49.5t70.5 -20.5q24 0 53.5 5.5t58.5 13.5l7 -43q-35 -11 -69 -17.5t-63 -6.5q-64 0 -100 28.5t-36 81.5q0 42 14 73t35.5 55t47 44.5 t49 42.5t41.5 47.5t24 60.5z" />
<glyph unicode="&#xc0;" horiz-adv-x="502" d="M312 728l-79 122h65l63 -122h-49zM316 613h-1l-195 -410h233zM370 0l-14 156h-257l-73 -156h-58l325 674h71l63 -674h-57z" />
<glyph unicode="&#xc1;" horiz-adv-x="502" d="M399 850h65l-101 -122h-48zM316 613h-1l-195 -410h233zM370 0l-14 156h-257l-73 -156h-58l325 674h71l63 -674h-57z" />
<glyph unicode="&#xc2;" horiz-adv-x="502" d="M227 728l-15 28l146 95l110 -94l-21 -29l-97 68zM316 613h-1l-195 -410h233zM370 0l-14 156h-257l-73 -156h-58l325 674h71l63 -674h-57z" />
<glyph unicode="&#xc3;" horiz-adv-x="502" d="M407 733q-25 0 -41 11.5t-28.5 26t-23.5 26t-27 11.5q-47 0 -51 -70h-36v7q0 46 23 75q25 31 67 31q25 0 41.5 -11.5t28.5 -26t23.5 -26t26.5 -11.5q46 0 52 69h36v-7q0 -45 -24 -74q-25 -31 -67 -31zM316 613h-1l-195 -410h233zM370 0l-14 156h-257l-73 -156h-58 l325 674h71l63 -674h-57z" />
<glyph unicode="&#xc4;" horiz-adv-x="502" d="M455 742h-52l15 78h52zM275 742h-53l15 78h53zM316 613h-1l-195 -410h233zM370 0l-14 156h-257l-73 -156h-58l325 674h71l63 -674h-57z" />
<glyph unicode="&#xc5;" horiz-adv-x="502" d="M316 613h-1l-195 -410h233zM370 0l-14 156h-257l-73 -156h-58l325 674h71l63 -674h-57zM406 778q0 19 -10.5 30.5t-37.5 11.5q-32 0 -54.5 -23t-22.5 -64q0 -19 10.5 -31t37.5 -12q22 0 37 9t24 22.5t12.5 28.5t3.5 28zM326 653q-47 0 -68.5 18.5t-21.5 54.5q0 22 6 45 t21 42t39 31.5t60 12.5q89 0 89 -72q0 -22 -6 -45.5t-20.5 -42.5t-38.5 -31.5t-60 -12.5z" />
<glyph unicode="&#xc6;" horiz-adv-x="637" d="M374 626h-1l-271 -423h190zM283 156h-212l-98 -156h-61l438 674h319l-9 -48h-231l-49 -254h210l-10 -48h-210l-53 -276h234l-10 -48h-288z" />
<glyph unicode="&#xc7;" horiz-adv-x="477" d="M408 44q-53 -28 -98.5 -38t-82.5 -10q-41 0 -73.5 10t-55 32.5t-34 59.5t-11.5 90q0 32 5 70.5t14 84.5q16 86 44.5 149t66.5 104.5t83.5 61.5t96.5 20q40 0 76.5 -10t74.5 -37l-20 -42q-59 41 -129 41q-84 0 -146 -71t-93 -230q-8 -41 -12 -74.5t-4 -61.5 q0 -81 32.5 -114.5t98.5 -33.5q28 0 69.5 10t89.5 35zM148 -190h-47l75 139h62z" />
<glyph unicode="&#xc8;" horiz-adv-x="418" d="M291 728l-79 122h65l63 -122h-49zM30 0l131 674h288l-9 -48h-233l-50 -254h213l-10 -48h-212l-54 -276h236l-9 -48h-291z" />
<glyph unicode="&#xc9;" horiz-adv-x="418" d="M367 850h65l-101 -122h-48zM30 0l131 674h288l-9 -48h-233l-50 -254h213l-10 -48h-212l-54 -276h236l-9 -48h-291z" />
<glyph unicode="&#xca;" horiz-adv-x="418" d="M202 728l-15 28l146 95l110 -94l-21 -29l-97 68zM30 0l131 674h288l-9 -48h-233l-50 -254h213l-10 -48h-212l-54 -276h236l-9 -48h-291z" />
<glyph unicode="&#xcb;" horiz-adv-x="418" d="M433 742h-52l15 78h52zM253 742h-53l15 78h53zM30 0l131 674h288l-9 -48h-233l-50 -254h213l-10 -48h-212l-54 -276h236l-9 -48h-291z" />
<glyph unicode="&#xcc;" horiz-adv-x="223" d="M177 728l-79 122h65l63 -122h-49zM30 0l131 674h55l-131 -674h-55z" />
<glyph unicode="&#xcd;" horiz-adv-x="223" d="M259 850h65l-101 -122h-48zM30 0l131 674h55l-131 -674h-55z" />
<glyph unicode="&#xce;" horiz-adv-x="223" d="M91 728l-15 28l146 95l110 -94l-21 -29l-97 68zM30 0l131 674h55l-131 -674h-55z" />
<glyph unicode="&#xcf;" horiz-adv-x="223" d="M318 742h-52l15 78h52zM138 742h-53l15 78h53zM30 0l131 674h55l-131 -674h-55z" />
<glyph unicode="&#xd0;" horiz-adv-x="569" d="M293 628q-13 0 -37 -0.5t-39 -1.5l-49 -254h117l-9 -47h-117l-54 -277q19 -1 40 -1.5t34 -0.5q63 0 111 20.5t83.5 59.5t58.5 95t36 127q5 25 8 56t3 55q0 40 -10 71.5t-32 53.5t-57.5 33t-86.5 11zM298 676q55 0 99.5 -11.5t75 -37.5t47 -67.5t16.5 -100.5 q0 -27 -3.5 -61.5t-9.5 -64.5q-15 -76 -43.5 -138t-71 -105.5t-100 -67.5t-129.5 -24q-28 0 -64.5 0.5t-73.5 1.5l63 325h-69l8 47h69l60 302q34 1 64.5 1.5t61.5 0.5z" />
<glyph unicode="&#xd1;" horiz-adv-x="578" d="M444 733q-25 0 -41 11.5t-28.5 26t-23.5 26t-27 11.5q-47 0 -51 -70h-36v7q0 46 23 75q25 31 67 31q25 0 41.5 -11.5t28.5 -26t23.5 -26t26.5 -11.5q46 0 52 69h36v-7q0 -45 -23 -74q-26 -31 -68 -31zM367 0l-167 612l-119 -612h-51l131 674h77l165 -598l117 598h51 l-131 -674h-73z" />
<glyph unicode="&#xd2;" horiz-adv-x="607" d="M369 728l-79 122h65l63 -122h-49zM506 344q14 73 14 126q0 75 -33 117.5t-114 42.5q-104 0 -162 -77t-86 -221q-7 -35 -11 -67.5t-4 -59.5q0 -75 33 -118t114 -43q104 0 162 77t87 223zM559 327q-32 -161 -106 -246t-197 -85h-6q-100 0 -147.5 47t-47.5 152 q0 32 4.5 69.5t12.5 81.5q31 162 105 247t198 85h6q100 0 147.5 -47.5t47.5 -153.5q0 -62 -17 -150z" />
<glyph unicode="&#xd3;" horiz-adv-x="607" d="M449 850h65l-101 -122h-48zM506 344q14 73 14 126q0 75 -33 117.5t-114 42.5q-104 0 -162 -77t-86 -221q-7 -35 -11 -67.5t-4 -59.5q0 -75 33 -118t114 -43q104 0 162 77t87 223zM559 327q-32 -161 -106 -246t-197 -85h-6q-100 0 -147.5 47t-47.5 152q0 32 4.5 69.5 t12.5 81.5q31 162 105 247t198 85h6q100 0 147.5 -47.5t47.5 -153.5q0 -62 -17 -150z" />
<glyph unicode="&#xd4;" horiz-adv-x="607" d="M284 728l-15 28l146 95l110 -94l-21 -29l-97 68zM506 344q14 73 14 126q0 75 -33 117.5t-114 42.5q-104 0 -162 -77t-86 -221q-7 -35 -11 -67.5t-4 -59.5q0 -75 33 -118t114 -43q104 0 162 77t87 223zM559 327q-32 -161 -106 -246t-197 -85h-6q-100 0 -147.5 47 t-47.5 152q0 32 4.5 69.5t12.5 81.5q31 162 105 247t198 85h6q100 0 147.5 -47.5t47.5 -153.5q0 -62 -17 -150z" />
<glyph unicode="&#xd5;" horiz-adv-x="607" d="M463 733q-25 0 -41 11.5t-28.5 26t-23.5 26t-27 11.5q-47 0 -51 -70h-36v7q0 46 23 75q25 31 67 31q25 0 41.5 -11.5t28.5 -26t23.5 -26t26.5 -11.5q46 0 52 69h36v-7q0 -45 -24 -74q-25 -31 -67 -31zM506 344q14 73 14 126q0 75 -33 117.5t-114 42.5q-104 0 -162 -77 t-86 -221q-7 -35 -11 -67.5t-4 -59.5q0 -75 33 -118t114 -43q104 0 162 77t87 223zM559 327q-32 -161 -106 -246t-197 -85h-6q-100 0 -147.5 47t-47.5 152q0 32 4.5 69.5t12.5 81.5q31 162 105 247t198 85h6q100 0 147.5 -47.5t47.5 -153.5q0 -62 -17 -150z" />
<glyph unicode="&#xd6;" horiz-adv-x="607" d="M505 742h-52l15 78h52zM325 742h-53l15 78h53zM506 344q14 73 14 126q0 75 -33 117.5t-114 42.5q-104 0 -162 -77t-86 -221q-7 -35 -11 -67.5t-4 -59.5q0 -75 33 -118t114 -43q104 0 162 77t87 223zM559 327q-32 -161 -106 -246t-197 -85h-6q-100 0 -147.5 47t-47.5 152 q0 32 4.5 69.5t12.5 81.5q31 162 105 247t198 85h6q100 0 147.5 -47.5t47.5 -153.5q0 -62 -17 -150z" />
<glyph unicode="&#xd7;" d="M425 66l-156 198l-232 -198l-28 34l233 199l-156 198l39 32l154 -198l233 198l28 -34l-233 -199l156 -198z" />
<glyph unicode="&#xd8;" horiz-adv-x="607" d="M445 619q-30 12 -71 12q-52 0 -92 -19.5t-70.5 -58t-52 -94t-35.5 -127.5q-6 -35 -10 -66.5t-4 -59.5q0 -44 10.5 -77t33.5 -53zM190 56q27 -13 70 -13q104 0 163 78.5t87 222.5q7 35 11 66.5t4 60.5q0 42 -10.5 74t-33.5 52zM510 647q35 -23 52 -64.5t17 -106.5 q0 -32 -4.5 -69t-12.5 -81q-31 -161 -105 -245.5t-198 -84.5h-7q-51 0 -87 12l-77 -143h-49l87 161q-35 23 -53 64t-18 106q0 32 4.5 69t12.5 81q31 161 105.5 246.5t198.5 85.5h7q52 0 88 -12l73 138h50z" />
<glyph unicode="&#xd9;" horiz-adv-x="573" d="M350 728l-79 122h65l63 -122h-49zM474 194q-8 -43 -25.5 -79t-46.5 -62.5t-70.5 -41.5t-98.5 -15q-105 0 -145 50q-26 34 -26 92q0 29 7 65l92 471h55l-93 -479q-6 -29 -6 -53q0 -37 15 -60q24 -38 107 -38q44 0 75.5 10.5t52.5 31t33.5 49.5t19.5 66l92 473h55z" />
<glyph unicode="&#xda;" horiz-adv-x="573" d="M434 850h65l-101 -122h-48zM474 194q-8 -43 -25.5 -79t-46.5 -62.5t-70.5 -41.5t-98.5 -15q-105 0 -145 50q-26 34 -26 92q0 29 7 65l92 471h55l-93 -479q-6 -29 -6 -53q0 -37 15 -60q24 -38 107 -38q44 0 75.5 10.5t52.5 31t33.5 49.5t19.5 66l92 473h55z" />
<glyph unicode="&#xdb;" horiz-adv-x="573" d="M266 728l-15 28l146 95l110 -94l-21 -29l-97 68zM474 194q-8 -43 -25.5 -79t-46.5 -62.5t-70.5 -41.5t-98.5 -15q-105 0 -145 50q-26 34 -26 92q0 29 7 65l92 471h55l-93 -479q-6 -29 -6 -53q0 -37 15 -60q24 -38 107 -38q44 0 75.5 10.5t52.5 31t33.5 49.5t19.5 66 l92 473h55z" />
<glyph unicode="&#xdc;" horiz-adv-x="573" d="M492 742h-52l15 78h52zM312 742h-53l15 78h53zM474 194q-8 -43 -25.5 -79t-46.5 -62.5t-70.5 -41.5t-98.5 -15q-105 0 -145 50q-26 34 -26 92q0 29 7 65l92 471h55l-93 -479q-6 -29 -6 -53q0 -37 15 -60q24 -38 107 -38q44 0 75.5 10.5t52.5 31t33.5 49.5t19.5 66l92 473 h55z" />
<glyph unicode="&#xdd;" horiz-adv-x="452" d="M369 850h65l-101 -122h-48zM257 290l-57 -290h-54l57 290l-116 384h61l51 -178l40 -148l88 134l128 192h65z" />
<glyph unicode="&#xde;" horiz-adv-x="485" d="M411 407q0 24 -6.5 43t-21.5 32.5t-40.5 20.5t-63.5 7q-22 0 -49 -0.5t-46 -1.5l-62 -318q15 -1 35 -2t53 -1q65 0 104.5 24.5t61 59t28.5 72.5t7 64zM205 139h-46q-24 0 -47 1l-27 -140h-55l131 674h55l-23 -117q23 1 47 1h50q93 0 135 -37.5t42 -109.5q0 -22 -4 -50.5 t-14 -58.5t-28.5 -59.5t-47.5 -52.5t-70.5 -37t-97.5 -14z" />
<glyph unicode="&#xdf;" horiz-adv-x="469" d="M255 -4q-26 0 -47.5 4t-38.5 12l14 45q13 -6 31.5 -10t41.5 -4q44 0 74.5 27t30.5 74q0 37 -19.5 61t-42.5 46t-42.5 47.5t-19.5 66.5q0 33 11 57t28 42.5t36 34.5t36 33t28 37t11 47q0 25 -15 46.5t-56 21.5q-27 0 -49 -11t-38.5 -29.5t-28 -44t-17.5 -54.5l-142 -731 l-55 -8l145 741q7 40 23.5 73.5t41 58t56 38t69.5 13.5q63 0 91.5 -30.5t28.5 -76.5q0 -34 -11 -58t-28 -43.5t-36 -35t-36 -32t-28 -36t-11 -45.5q0 -33 19.5 -55.5t43 -45t43 -50t19.5 -69.5q0 -35 -12 -63.5t-33 -49.5t-50.5 -32.5t-65.5 -11.5z" />
<glyph unicode="&#xe0;" horiz-adv-x="475" d="M365 385q-35 41 -61.5 60.5t-51.5 19.5q-24 0 -47.5 -16.5t-43.5 -45t-35 -67.5t-24 -83q-5 -25 -7 -48t-2 -43q0 -53 17 -85.5t52 -32.5q26 0 65.5 25.5t91.5 73.5zM301 0l10 83q-52 -47 -91.5 -67t-72.5 -20q-53 0 -81 44t-28 119q0 46 10 96q12 60 32 108t46.5 81 t58 51t65.5 18q26 0 57 -16.5t72 -61.5l22 74h42l-99 -509h-43zM307 573l-114 131l51 27l100 -139z" />
<glyph unicode="&#xe1;" horiz-adv-x="475" d="M365 385q-35 41 -61.5 60.5t-51.5 19.5q-24 0 -47.5 -16.5t-43.5 -45t-35 -67.5t-24 -83q-5 -25 -7 -48t-2 -43q0 -53 17 -85.5t52 -32.5q26 0 65.5 25.5t91.5 73.5zM301 0l10 83q-52 -47 -91.5 -67t-72.5 -20q-53 0 -81 44t-28 119q0 46 10 96q12 60 32 108t46.5 81 t58 51t65.5 18q26 0 57 -16.5t72 -61.5l22 74h42l-99 -509h-43zM321 573l-34 19l125 139l47 -27z" />
<glyph unicode="&#xe2;" horiz-adv-x="475" d="M365 385q-35 41 -61.5 60.5t-51.5 19.5q-24 0 -47.5 -16.5t-43.5 -45t-35 -67.5t-24 -83q-5 -25 -7 -48t-2 -43q0 -53 17 -85.5t52 -32.5q26 0 65.5 25.5t91.5 73.5zM301 0l10 83q-52 -47 -91.5 -67t-72.5 -20q-53 0 -81 44t-28 119q0 46 10 96q12 60 32 108t46.5 81 t58 51t65.5 18q26 0 57 -16.5t72 -61.5l22 74h42l-99 -509h-43zM397 573l-76 89l-109 -89l-22 28l143 130l92 -129z" />
<glyph unicode="&#xe3;" horiz-adv-x="475" d="M365 385q-35 41 -61.5 60.5t-51.5 19.5q-24 0 -47.5 -16.5t-43.5 -45t-35 -67.5t-24 -83q-5 -25 -7 -48t-2 -43q0 -53 17 -85.5t52 -32.5q26 0 65.5 25.5t91.5 73.5zM301 0l10 83q-52 -47 -91.5 -67t-72.5 -20q-53 0 -81 44t-28 119q0 46 10 96q12 60 32 108t46.5 81 t58 51t65.5 18q26 0 57 -16.5t72 -61.5l22 74h42l-99 -509h-43zM464 718v-7q0 -46 -24 -75q-26 -31 -68 -31q-25 0 -41 11.5t-29 25.5l-23 26q-11 11 -27 11q-45 0 -51 -69h-36v7q0 46 23 75q26 31 68 31q25 0 41 -11.5t29 -25.5l23 -26q11 -11 27 -11q45 0 52 69h36z" />
<glyph unicode="&#xe4;" horiz-adv-x="475" d="M365 385q-35 41 -61.5 60.5t-51.5 19.5q-24 0 -47.5 -16.5t-43.5 -45t-35 -67.5t-24 -83q-5 -25 -7 -48t-2 -43q0 -53 17 -85.5t52 -32.5q26 0 65.5 25.5t91.5 73.5zM301 0l10 83q-52 -47 -91.5 -67t-72.5 -20q-53 0 -81 44t-28 119q0 46 10 96q12 60 32 108t46.5 81 t58 51t65.5 18q26 0 57 -16.5t72 -61.5l22 74h42l-99 -509h-43zM195 639l16 78h52l-16 -78h-52zM369 639l16 78h52l-16 -78h-52z" />
<glyph unicode="&#xe5;" horiz-adv-x="475" d="M365 385q-35 41 -61.5 60.5t-51.5 19.5q-24 0 -47.5 -16.5t-43.5 -45t-35 -67.5t-24 -83q-5 -25 -7 -48t-2 -43q0 -53 17 -85.5t52 -32.5q26 0 65.5 25.5t91.5 73.5zM301 0l10 83q-52 -47 -91.5 -67t-72.5 -20q-53 0 -81 44t-28 119q0 46 10 96q12 60 32 108t46.5 81 t58 51t65.5 18q26 0 57 -16.5t72 -61.5l22 74h42l-99 -509h-43zM375 686q0 19 -10.5 30.5t-37.5 11.5q-32 0 -54.5 -23t-22.5 -64q0 -19 10.5 -31t37.5 -12q22 0 37 9t24 22.5t12.5 28.5t3.5 28zM295 561q-47 0 -68.5 18.5t-21.5 54.5q0 22 6 45t21 42t39 31.5t60 12.5 q89 0 89 -72q0 -22 -6 -45.5t-20.5 -42.5t-38.5 -31.5t-60 -12.5z" />
<glyph unicode="&#xe6;" horiz-adv-x="745" d="M394 287q74 0 122.5 7.5t76.5 21.5t39 34.5t11 47.5q0 29 -20.5 50t-65.5 21q-35 0 -62.5 -16.5t-47.5 -43t-33.5 -59t-19.5 -63.5zM565 513q61 0 95.5 -29t34.5 -84q0 -37 -16 -66t-53 -49.5t-96 -31t-144 -10.5q-5 -26 -7.5 -48.5t-2.5 -41.5q0 -59 23.5 -84t75.5 -25 q12 0 29 1.5t36 4.5t38.5 7.5t37.5 9.5l8 -39q-45 -17 -84.5 -24.5t-78.5 -7.5q-61 0 -95.5 28t-39.5 92l-51 -50q-24 -22 -47.5 -37.5t-49 -24t-55.5 -8.5q-46 0 -72.5 30.5t-26.5 84.5q0 89 65 133t204 44h49l5 26q9 39 9 73q0 38 -19.5 60t-72.5 22q-35 0 -71 -8t-74 -22 l-8 40q45 17 84 25.5t77 8.5q57 0 90 -20.5t38 -70.5q28 43 69.5 67t95.5 24zM287 243q-62 0 -102.5 -8t-64 -24t-33 -40t-9.5 -55q0 -30 15.5 -51t45.5 -21q38 0 78 28.5t102 92.5l15 78h-47z" />
<glyph unicode="&#xe7;" horiz-adv-x="368" d="M310 44q-71 -48 -148 -48q-23 0 -45.5 6.5t-40.5 22.5t-29 44t-11 72q0 24 3 54t11 66q25 127 82 189.5t135 62.5q41 0 68 -12.5t47 -33.5l-24 -37q-20 18 -42 26.5t-54 8.5q-24 0 -47.5 -11t-44.5 -36.5t-38.5 -67t-29.5 -101.5q-6 -30 -8.5 -55t-2.5 -45q0 -29 7 -49 t18.5 -32t27 -17.5t32.5 -5.5q33 0 59.5 8.5t58.5 28.5zM81 -190h-47l75 139h62z" />
<glyph unicode="&#xe8;" horiz-adv-x="449" d="M108 287q72 0 119.5 7t76 20.5t40.5 34t12 47.5q0 29 -20.5 50.5t-64.5 21.5q-35 0 -61.5 -15.5t-46.5 -41t-33.5 -58t-21.5 -66.5zM338 28q-45 -17 -84.5 -24.5t-78.5 -7.5q-68 0 -103.5 33.5t-35.5 116.5q0 25 4.5 65t16.5 84t32 86.5t50 73.5q27 27 61.5 42.5 t78.5 15.5q60 0 95 -30.5t35 -82.5q0 -39 -16 -68.5t-52.5 -49.5t-95.5 -30t-145 -10q-10 -50 -10 -89q0 -59 24 -84.5t75 -25.5q28 0 62 5t79 19zM286 573l-114 131l51 27l100 -139z" />
<glyph unicode="&#xe9;" horiz-adv-x="449" d="M108 287q72 0 119.5 7t76 20.5t40.5 34t12 47.5q0 29 -20.5 50.5t-64.5 21.5q-35 0 -61.5 -15.5t-46.5 -41t-33.5 -58t-21.5 -66.5zM338 28q-45 -17 -84.5 -24.5t-78.5 -7.5q-68 0 -103.5 33.5t-35.5 116.5q0 25 4.5 65t16.5 84t32 86.5t50 73.5q27 27 61.5 42.5 t78.5 15.5q60 0 95 -30.5t35 -82.5q0 -39 -16 -68.5t-52.5 -49.5t-95.5 -30t-145 -10q-10 -50 -10 -89q0 -59 24 -84.5t75 -25.5q28 0 62 5t79 19zM292 573l-34 19l125 139l47 -27z" />
<glyph unicode="&#xea;" horiz-adv-x="449" d="M108 287q72 0 119.5 7t76 20.5t40.5 34t12 47.5q0 29 -20.5 50.5t-64.5 21.5q-35 0 -61.5 -15.5t-46.5 -41t-33.5 -58t-21.5 -66.5zM338 28q-45 -17 -84.5 -24.5t-78.5 -7.5q-68 0 -103.5 33.5t-35.5 116.5q0 25 4.5 65t16.5 84t32 86.5t50 73.5q27 27 61.5 42.5 t78.5 15.5q60 0 95 -30.5t35 -82.5q0 -39 -16 -68.5t-52.5 -49.5t-95.5 -30t-145 -10q-10 -50 -10 -89q0 -59 24 -84.5t75 -25.5q28 0 62 5t79 19zM377 573l-76 89l-109 -89l-22 28l143 130l92 -129z" />
<glyph unicode="&#xeb;" horiz-adv-x="449" d="M108 287q72 0 119.5 7t76 20.5t40.5 34t12 47.5q0 29 -20.5 50.5t-64.5 21.5q-35 0 -61.5 -15.5t-46.5 -41t-33.5 -58t-21.5 -66.5zM338 28q-45 -17 -84.5 -24.5t-78.5 -7.5q-68 0 -103.5 33.5t-35.5 116.5q0 25 4.5 65t16.5 84t32 86.5t50 73.5q27 27 61.5 42.5 t78.5 15.5q60 0 95 -30.5t35 -82.5q0 -39 -16 -68.5t-52.5 -49.5t-95.5 -30t-145 -10q-10 -50 -10 -89q0 -59 24 -84.5t75 -25.5q28 0 62 5t79 19zM186 639l16 78h52l-16 -78h-52zM360 639l16 78h52l-16 -78h-52z" />
<glyph unicode="&#xec;" horiz-adv-x="209" d="M24 0l99 509h53l-99 -509h-53zM177 573l-114 131l51 27l100 -139z" />
<glyph unicode="&#xed;" horiz-adv-x="209" d="M24 0l99 509h53l-99 -509h-53zM156 573l-34 19l125 139l47 -27z" />
<glyph unicode="&#xee;" horiz-adv-x="209" d="M24 0l99 509h53l-99 -509h-53zM256 573l-76 89l-109 -89l-22 28l143 130l92 -129z" />
<glyph unicode="&#xef;" horiz-adv-x="209" d="M24 0l99 509h53l-99 -509h-53zM64 639l16 78h52l-16 -78h-52zM238 639l16 78h52l-16 -78h-52z" />
<glyph unicode="&#xf0;" horiz-adv-x="460" d="M354 278q2 9 4 22.5t4 29t3 30t1 24.5q-29 38 -58 59.5t-53 21.5t-47.5 -16t-44 -44.5t-37 -68t-25.5 -86.5q-5 -22 -7.5 -44t-2.5 -43q0 -25 4.5 -46.5t15.5 -37.5t28.5 -25.5t43.5 -9.5q67 0 107.5 56.5t63.5 177.5zM366 625q55 -92 55 -218q0 -67 -15 -140 q-25 -127 -80.5 -199t-149.5 -72h-3q-37 0 -63 12t-42 34t-23 52t-7 65q0 46 11 101q11 58 31.5 104.5t46.5 79.5t57.5 50.5t64.5 17.5h3q23 0 55.5 -17.5t58.5 -46.5q-5 45 -16.5 83.5t-33.5 73.5l-105 -46l-17 38l98 42q-27 33 -66 63l47 29q40 -32 71 -70l113 50l16 -38z " />
<glyph unicode="&#xf1;" horiz-adv-x="487" d="M303 0l59 304q5 27 7 44t2 29q0 35 -14.5 61.5t-47.5 26.5q-14 0 -29.5 -5.5t-34.5 -17.5t-42.5 -30.5t-53.5 -44.5l-72 -367h-53l99 509h43l-8 -82q53 47 91.5 66.5t72.5 19.5q49 0 76 -34.5t27 -95.5q0 -29 -10 -79l-59 -304h-53zM465 718v-7q0 -46 -24 -75 q-26 -31 -68 -31q-25 0 -41 11.5t-29 25.5l-23 26q-11 11 -27 11q-45 0 -51 -69h-36v7q0 46 23 75q26 31 68 31q25 0 41 -11.5t29 -25.5l23 -26q11 -11 27 -11q45 0 52 69h36z" />
<glyph unicode="&#xf2;" horiz-adv-x="489" d="M378 256q5 23 7.5 45t2.5 42q0 55 -23 88.5t-81 33.5q-38 0 -67.5 -15.5t-52 -43.5t-38 -67.5t-24.5 -86.5q-5 -23 -7.5 -44t-2.5 -40q0 -57 23 -90.5t82 -33.5q38 0 68 16t52 44.5t37 67t24 84.5zM432 250q-10 -53 -29 -99t-48 -80.5t-68.5 -54.5t-90.5 -20h-3 q-81 0 -118 41.5t-37 121.5q0 22 2.5 47t7.5 53q11 55 30.5 101.5t48.5 80.5t68.5 53t90.5 19h3q154 0 154 -162q0 -22 -2.5 -47t-8.5 -54zM305 573l-114 131l51 27l100 -139z" />
<glyph unicode="&#xf3;" horiz-adv-x="489" d="M378 256q5 23 7.5 45t2.5 42q0 55 -23 88.5t-81 33.5q-38 0 -67.5 -15.5t-52 -43.5t-38 -67.5t-24.5 -86.5q-5 -23 -7.5 -44t-2.5 -40q0 -57 23 -90.5t82 -33.5q38 0 68 16t52 44.5t37 67t24 84.5zM432 250q-10 -53 -29 -99t-48 -80.5t-68.5 -54.5t-90.5 -20h-3 q-81 0 -118 41.5t-37 121.5q0 22 2.5 47t7.5 53q11 55 30.5 101.5t48.5 80.5t68.5 53t90.5 19h3q154 0 154 -162q0 -22 -2.5 -47t-8.5 -54zM306 573l-34 19l125 139l47 -27z" />
<glyph unicode="&#xf4;" horiz-adv-x="489" d="M378 256q5 23 7.5 45t2.5 42q0 55 -23 88.5t-81 33.5q-38 0 -67.5 -15.5t-52 -43.5t-38 -67.5t-24.5 -86.5q-5 -23 -7.5 -44t-2.5 -40q0 -57 23 -90.5t82 -33.5q38 0 68 16t52 44.5t37 67t24 84.5zM432 250q-10 -53 -29 -99t-48 -80.5t-68.5 -54.5t-90.5 -20h-3 q-81 0 -118 41.5t-37 121.5q0 22 2.5 47t7.5 53q11 55 30.5 101.5t48.5 80.5t68.5 53t90.5 19h3q154 0 154 -162q0 -22 -2.5 -47t-8.5 -54zM398 573l-76 89l-109 -89l-22 28l143 130l92 -129z" />
<glyph unicode="&#xf5;" horiz-adv-x="489" d="M378 256q5 23 7.5 45t2.5 42q0 55 -23 88.5t-81 33.5q-38 0 -67.5 -15.5t-52 -43.5t-38 -67.5t-24.5 -86.5q-5 -23 -7.5 -44t-2.5 -40q0 -57 23 -90.5t82 -33.5q38 0 68 16t52 44.5t37 67t24 84.5zM432 250q-10 -53 -29 -99t-48 -80.5t-68.5 -54.5t-90.5 -20h-3 q-81 0 -118 41.5t-37 121.5q0 22 2.5 47t7.5 53q11 55 30.5 101.5t48.5 80.5t68.5 53t90.5 19h3q154 0 154 -162q0 -22 -2.5 -47t-8.5 -54zM471 718v-7q0 -46 -24 -75q-26 -31 -68 -31q-25 0 -41 11.5t-29 25.5l-23 26q-11 11 -27 11q-45 0 -51 -69h-36v7q0 46 23 75 q26 31 68 31q25 0 41 -11.5t29 -25.5l23 -26q11 -11 27 -11q45 0 52 69h36z" />
<glyph unicode="&#xf6;" horiz-adv-x="489" d="M378 256q5 23 7.5 45t2.5 42q0 55 -23 88.5t-81 33.5q-38 0 -67.5 -15.5t-52 -43.5t-38 -67.5t-24.5 -86.5q-5 -23 -7.5 -44t-2.5 -40q0 -57 23 -90.5t82 -33.5q38 0 68 16t52 44.5t37 67t24 84.5zM432 250q-10 -53 -29 -99t-48 -80.5t-68.5 -54.5t-90.5 -20h-3 q-81 0 -118 41.5t-37 121.5q0 22 2.5 47t7.5 53q11 55 30.5 101.5t48.5 80.5t68.5 53t90.5 19h3q154 0 154 -162q0 -22 -2.5 -47t-8.5 -54zM202 639l16 78h52l-16 -78h-52zM376 639l16 78h52l-16 -78h-52z" />
<glyph unicode="&#xf7;" d="M270 438l19 92h60l-18 -92h-61zM199 65l17 92h60l-17 -92h-60zM59 275l9 46h419l-8 -46h-420z" />
<glyph unicode="&#xf8;" horiz-adv-x="489" d="M334 457q-21 9 -51 9q-38 0 -67.5 -15.5t-52 -44t-38 -68t-24.5 -87.5q-5 -22 -7.5 -43t-2.5 -40q0 -29 5.5 -52t19.5 -40zM150 52q21 -9 52 -9q38 0 68 16.5t52 45t36.5 67.5t23.5 85q5 23 7.5 44t2.5 41q0 29 -5.5 51.5t-19.5 39.5zM397 482q48 -39 48 -131 q0 -22 -2.5 -47t-7.5 -54q-10 -53 -28.5 -99t-47 -80.5t-68 -54.5t-91.5 -20h-3q-21 0 -40 2.5t-33 8.5l-81 -142h-49l93 162q-49 39 -49 131q0 22 2.5 47t7.5 54q11 55 30.5 102t49 80.5t69 52.5t90.5 19h3q19 0 37 -2.5t32 -8.5l76 132h49z" />
<glyph unicode="&#xf9;" horiz-adv-x="487" d="M175 509l-59 -304q-5 -27 -7 -44t-2 -29q0 -36 14.5 -62t47.5 -26q28 0 64 23t96 75l72 367h53l-99 -509h-43l8 82q-53 -47 -91.5 -66.5t-72.5 -19.5q-49 0 -76 34.5t-27 95.5q0 29 10 79l59 304h53zM298 573l-114 131l51 27l100 -139z" />
<glyph unicode="&#xfa;" horiz-adv-x="487" d="M175 509l-59 -304q-5 -27 -7 -44t-2 -29q0 -36 14.5 -62t47.5 -26q28 0 64 23t96 75l72 367h53l-99 -509h-43l8 82q-53 -47 -91.5 -66.5t-72.5 -19.5q-49 0 -76 34.5t-27 95.5q0 29 10 79l59 304h53zM312 573l-34 19l125 139l47 -27z" />
<glyph unicode="&#xfb;" horiz-adv-x="487" d="M175 509l-59 -304q-5 -27 -7 -44t-2 -29q0 -36 14.5 -62t47.5 -26q28 0 64 23t96 75l72 367h53l-99 -509h-43l8 82q-53 -47 -91.5 -66.5t-72.5 -19.5q-49 0 -76 34.5t-27 95.5q0 29 10 79l59 304h53zM395 573l-76 89l-109 -89l-22 28l143 130l92 -129z" />
<glyph unicode="&#xfc;" horiz-adv-x="487" d="M175 509l-59 -304q-5 -27 -7 -44t-2 -29q0 -36 14.5 -62t47.5 -26q28 0 64 23t96 75l72 367h53l-99 -509h-43l8 82q-53 -47 -91.5 -66.5t-72.5 -19.5q-49 0 -76 34.5t-27 95.5q0 29 10 79l59 304h53zM196 639l16 78h52l-16 -78h-52zM370 639l16 78h52l-16 -78h-52z" />
<glyph unicode="&#xfd;" horiz-adv-x="374" d="M187 34q-25 -52 -45.5 -88t-41.5 -62t-44.5 -44t-53.5 -34l-19 39q19 11 35.5 23.5t31.5 29t29 39t29 54.5l-45 518h57l29 -379l2 -63h1l36 85l158 357h61zM267 573l-34 19l125 139l47 -27z" />
<glyph unicode="&#xfe;" horiz-adv-x="475" d="M365 256q9 49 9 91q0 54 -17 86t-52 32q-27 0 -66.5 -26t-90.5 -73l-47 -242q36 -42 63 -61t51 -19t47 16t43 44.5t35.5 67t24.5 84.5zM320 513q54 0 81.5 -44t27.5 -119q0 -45 -10 -95q-12 -63 -32.5 -111t-47.5 -81t-58 -50t-64 -17q-28 0 -58 16.5t-68 58.5l-50 -260 l-55 -7l179 919l54 8l-59 -301q48 43 87 63t73 20z" />
<glyph unicode="&#xff;" horiz-adv-x="374" d="M187 34q-25 -52 -45.5 -88t-41.5 -62t-44.5 -44t-53.5 -34l-19 39q19 11 35.5 23.5t31.5 29t29 39t29 54.5l-45 518h57l29 -379l2 -63h1l36 85l158 357h61zM150 639l16 78h52l-16 -78h-52zM324 639l16 78h52l-16 -78h-52z" />
<glyph unicode="&#x131;" horiz-adv-x="209" d="M24 0l99 509h53l-99 -509h-53z" />
<glyph unicode="&#x152;" horiz-adv-x="719" d="M452 623q-17 2 -35 4.5t-44 2.5q-104 0 -162 -77t-86 -221q-7 -35 -11 -67.5t-4 -59.5q0 -75 33 -118t114 -43q23 0 45 2t39 4zM335 0q-25 -1 -46 -2.5t-33 -1.5h-6q-100 0 -147.5 47t-47.5 152q0 32 4.5 69.5t12.5 81.5q31 162 105 247t198 85h6q20 0 41.5 -1.5 t43.5 -2.5h285l-10 -48h-233l-49 -254h212l-9 -48h-213l-53 -276h236l-9 -48h-288z" />
<glyph unicode="&#x153;" horiz-adv-x="781" d="M438 287q71 0 118.5 6.5t76 20t40.5 34t12 47.5q0 32 -20 52.5t-65 20.5q-35 0 -62 -16t-46.5 -42t-33 -58t-20.5 -65zM379 256q4 23 6.5 45t2.5 42q0 55 -23.5 88.5t-80.5 33.5q-38 0 -67.5 -15.5t-52 -44t-38.5 -67.5t-25 -87q-9 -44 -9 -83q0 -57 23.5 -90.5 t82.5 -33.5q37 0 66.5 16t52 44.5t38 67t24.5 84.5zM434 404q30 52 73.5 80.5t100.5 28.5q61 0 96 -30.5t35 -85.5q0 -38 -16 -66.5t-53 -48t-96 -29.5t-145 -10q-10 -50 -10 -90q0 -59 24 -84t76 -25q24 0 59 4.5t81 18.5l9 -39q-46 -17 -85 -24.5t-78 -7.5q-55 0 -88.5 23 t-44.5 80q-29 -48 -72.5 -75.5t-103.5 -27.5h-2q-81 0 -118.5 41t-37.5 122q0 47 10 100q11 55 30.5 102t49 80.5t69 52.5t90.5 19h2q59 0 96 -25t49 -84z" />
<glyph unicode="&#x178;" horiz-adv-x="452" d="M435 742h-52l15 78h52zM255 742h-53l15 78h53zM257 290l-57 -290h-54l57 290l-116 384h61l51 -178l40 -148l88 134l128 192h65z" />
<glyph unicode="&#x2c6;" horiz-adv-x="392" d="M348 573l-76 89l-109 -89l-22 28l143 130l92 -129z" />
<glyph unicode="&#x2da;" horiz-adv-x="392" d="M334 686q0 19 -10.5 30.5t-37.5 11.5q-32 0 -54.5 -23t-22.5 -64q0 -19 10.5 -31t37.5 -12q22 0 37 9t24 22.5t12.5 28.5t3.5 28zM254 561q-47 0 -68.5 18.5t-21.5 54.5q0 22 6 45t21 42t39 31.5t60 12.5q89 0 89 -72q0 -22 -6 -45.5t-20.5 -42.5t-38.5 -31.5t-60 -12.5z " />
<glyph unicode="&#x2dc;" horiz-adv-x="392" d="M424 718v-7q0 -46 -24 -75q-26 -31 -68 -31q-25 0 -41 11.5t-29 25.5l-23 26q-11 11 -27 11q-45 0 -51 -69h-36v7q0 46 23 75q26 31 68 31q25 0 41 -11.5t29 -25.5l23 -26q11 -11 27 -11q45 0 52 69h36z" />
<glyph unicode="&#x2000;" horiz-adv-x="428" />
<glyph unicode="&#x2001;" horiz-adv-x="857" />
<glyph unicode="&#x2002;" horiz-adv-x="428" />
<glyph unicode="&#x2003;" horiz-adv-x="857" />
<glyph unicode="&#x2004;" horiz-adv-x="285" />
<glyph unicode="&#x2005;" horiz-adv-x="214" />
<glyph unicode="&#x2006;" horiz-adv-x="142" />
<glyph unicode="&#x2007;" horiz-adv-x="142" />
<glyph unicode="&#x2008;" horiz-adv-x="107" />
<glyph unicode="&#x2009;" horiz-adv-x="171" />
<glyph unicode="&#x200a;" horiz-adv-x="47" />
<glyph unicode="&#x2010;" horiz-adv-x="248" d="M34 260l9 49h183l-10 -49h-182z" />
<glyph unicode="&#x2011;" horiz-adv-x="248" d="M34 260l9 49h183l-10 -49h-182z" />
<glyph unicode="&#x2013;" horiz-adv-x="490" d="M-1 274l9 48h490l-9 -48h-490z" />
<glyph unicode="&#x2014;" horiz-adv-x="980" d="M97 274l9 48h784l-9 -48h-784z" />
<glyph unicode="&#x2018;" horiz-adv-x="242" d="M259 768l39 -13l-137 -258l-59 21z" />
<glyph unicode="&#x2019;" horiz-adv-x="242" d="M139 497l-39 13l137 258l60 -20z" />
<glyph unicode="&#x201a;" horiz-adv-x="257" d="M-8 -173l-40 14l136 258l61 -21z" />
<glyph unicode="&#x201c;" horiz-adv-x="432" d="M450 768l38 -14l-136 -257l-58 21zM259 768l38 -14l-137 -256l-58 21z" />
<glyph unicode="&#x201d;" horiz-adv-x="432" d="M138 498l-38 13l136 257l59 -21zM329 497l-38 14l137 256l59 -20z" />
<glyph unicode="&#x201e;" horiz-adv-x="448" d="M-9 -171l-38 13l135 257l59 -21zM182 -172l-38 14l137 256l58 -20z" />
<glyph unicode="&#x2022;" d="M392 302q0 -27 -10 -49.5t-26.5 -39.5t-39 -26.5t-46.5 -9.5t-45 9t-36.5 25t-24.5 37.5t-9 45.5q0 27 10 49.5t27 39.5t39.5 26.5t47.5 9.5q24 0 44.5 -9t35.5 -25t24 -37t9 -46z" />
<glyph unicode="&#x2026;" horiz-adv-x="668" d="M39 0l17 85h61l-17 -85h-61zM250 0l16 85h61l-17 -85h-60zM460 0l17 85h61l-17 -85h-61z" />
<glyph unicode="&#x202f;" horiz-adv-x="171" />
<glyph unicode="&#x2039;" horiz-adv-x="319" d="M158 82l-96 214l175 216l36 -17l-146 -198l69 -199z" />
<glyph unicode="&#x203a;" horiz-adv-x="319" d="M170 512l96 -214l-176 -216l-36 18l147 198l-70 199z" />
<glyph unicode="&#x205f;" horiz-adv-x="214" />
<glyph unicode="&#x20ac;" d="M127 424q38 112 104.5 171t163.5 59q18 0 38 -3t40 -8t39 -12t34 -14l-20 -43q-11 5 -26 10.5t-32.5 10.5t-37 8t-38.5 3q-78 0 -129 -48.5t-80 -133.5h206l-8 -43h-211q-7 -28 -12.5 -55t-9.5 -54h211l-8 -44h-207q-3 -25 -3 -47q0 -17 2 -32q4 -34 18.5 -57.5t42 -35 t70.5 -11.5q15 0 34.5 2.5t41 7t42.5 10.5t38 12l10 -41q-46 -19 -93.5 -29.5t-84.5 -10.5q-54 0 -89.5 14t-56 42.5t-26.5 71.5q-5 27 -5 61q0 20 2 43h-77l9 44h72l10 54q5 28 13 55h-74l9 43h78z" />
<glyph unicode="&#x2122;" horiz-adv-x="607" d="M203 633l-46 -240h-46l46 240h-79l8 41h205l-8 -41h-80zM557 393l12 236l-115 -236h-59l-14 236l-74 -236h-47l98 281h64l14 -233l113 233h64l-8 -281h-48z" />
</font>
</defs>
</svg>
