<?xml version="1.0" standalone="no"?>
<!DOCTYPE svg PUBLIC "-//W3C//DTD SVG 1.1//EN" "http://www.w3.org/Graphics/SVG/1.1/DTD/svg11.dtd" >
<svg xmlns="http://www.w3.org/2000/svg">
<metadata>
This is a custom SVG webfont generated by Font Squirrel.
Designer    : Luc(as) de Groot
Foundry     : Luc_as_ de Groot
Foundry URL : http://www.LucasFonts.com
</metadata>
<defs>
<font id="webfont55VC3LR6" horiz-adv-x="550" >
<font-face units-per-em="1000" ascent="800" descent="-200" />
<missing-glyph horiz-adv-x="214" />
<glyph unicode=" "  horiz-adv-x="214" />
<glyph unicode="&#x09;" horiz-adv-x="214" />
<glyph unicode="&#xa0;" horiz-adv-x="214" />
<glyph unicode="!" horiz-adv-x="290" d="M125 0v93h76v-93h-76zM126 190v484h74v-484h-74z" />
<glyph unicode="&#x22;" horiz-adv-x="440" d="M89 462v259h67v-259h-67zM281 462v259h67v-259h-67z" />
<glyph unicode="#" horiz-adv-x="607" d="M228 455l-22 -209h161l22 209h-161zM453 455l-21 -209h111v-56h-117l-19 -190h-65l19 190h-161l-19 -190h-65l19 190h-103v56h109l22 209h-106v55h111l17 164h65l-17 -164h161l17 164h65l-16 -164h109v-55h-116z" />
<glyph unicode="$" horiz-adv-x="443" d="M406 170q0 -68 -41 -110t-104 -56v-120h-59v116q-38 1 -73 9t-77 28l23 56q31 -15 65.5 -23.5t68.5 -8.5q54 0 89 26.5t35 75.5q0 38 -21 63.5t-53 45t-68.5 37t-68.5 40t-53 54t-21 79.5q0 38 13 66.5t34.5 49t49 32t57.5 15.5v99h59v-98q69 -9 125 -43l-24 -51 q-32 17 -66 26.5t-66 9.5q-20 0 -40 -5.5t-35.5 -17t-25 -30t-9.5 -45.5q0 -36 21 -60t53 -44t69 -38t69 -42t53 -56t21 -80z" />
<glyph unicode="%" horiz-adv-x="688" d="M589 162q0 55 -15.5 88t-62.5 33q-45 0 -61.5 -34.5t-16.5 -87.5q0 -26 3.5 -48t12 -38t23.5 -24.5t38 -8.5q44 0 61.5 34.5t17.5 85.5zM648 163q0 -35 -7.5 -66t-24.5 -53.5t-44 -35.5t-65 -13q-37 0 -62 11t-40.5 32t-22.5 52t-7 71q0 36 7.5 66.5t24 53.5t43 36 t65.5 13q73 0 103 -44.5t30 -122.5zM252 511q0 54 -16 87.5t-63 33.5q-44 0 -61 -34.5t-17 -86.5q0 -27 3.5 -49t12 -37.5t23.5 -24.5t39 -9q44 0 61.5 34t17.5 86zM176 0h-64l400 674h64zM310 512q0 -35 -7.5 -66t-24 -53.5t-43.5 -35.5t-65 -13q-74 0 -103.5 43.5 t-29.5 123.5q0 35 7.5 66t24 53.5t43.5 35.5t65 13q74 0 103.5 -44t29.5 -123z" />
<glyph unicode="&#x26;" horiz-adv-x="747" d="M687 455q-27 -9 -53 -20l-45 -20q30 -50 46 -94t16 -83q0 -54 -20 -98.5t-58.5 -76.5t-94 -50t-127.5 -18q-142 0 -214.5 57t-72.5 152q0 64 32 108.5t87 55.5q-45 15 -66 52.5t-21 83.5q0 34 11 65.5t34.5 56t58.5 39t83 14.5q36 0 75 -9t74 -23l-18 -54q-69 26 -130 26 q-32 0 -54.5 -9t-36.5 -24.5t-20.5 -36t-6.5 -42.5q0 -49 28.5 -78.5t85.5 -29.5h24v-61h-32q-65 0 -99 -34t-34 -91q0 -69 53.5 -113t166.5 -44q54 0 95 13t68 36t41 54.5t14 68.5q0 34 -13.5 71t-41.5 84q-28 -14 -50 -27l-53 -32l-26 51q56 37 127.5 71.5t140.5 59.5z " />
<glyph unicode="'" horiz-adv-x="246" d="M89 462v259h68v-259h-68z" />
<glyph unicode="(" horiz-adv-x="322" d="M101 311q0 116 31 233t92 220l61 -13q-55 -102 -84.5 -213.5t-29.5 -229.5q0 -114 29.5 -220t82.5 -206l-64 -12q-59 103 -88.5 214t-29.5 227z" />
<glyph unicode=")" horiz-adv-x="322" d="M225 322q0 -115 -31 -232.5t-93 -219.5l-60 12q55 102 84 214t29 229q0 114 -29 220.5t-82 206.5l63 12q60 -103 89.5 -214.5t29.5 -227.5z" />
<glyph unicode="*" horiz-adv-x="445" d="M365 432l-119 81l11 -142l-63 -1l10 143l-119 -81l-31 53l130 63l-130 62l31 55l119 -81l-10 143h63l-11 -143l119 81l31 -54l-130 -61l130 -63z" />
<glyph unicode="+" d="M307 269v-200h-64v200h-184v58h184v200h64v-200h184v-58h-184z" />
<glyph unicode="," horiz-adv-x="264" d="M87 -172l-55 16l87 267l81 -24z" />
<glyph unicode="-" horiz-adv-x="258" d="M37 254v62h191v-62h-191z" />
<glyph unicode="." horiz-adv-x="256" d="M88 0v106h80v-106h-80z" />
<glyph unicode="/" horiz-adv-x="410" d="M79 -145h-66l325 945h65z" />
<glyph unicode="0" horiz-adv-x="554" d="M425 325q0 54 -6.5 102.5t-23 85t-45.5 58.5t-73 22t-72.5 -22t-45 -58.5t-23.5 -85t-7 -102.5t6.5 -102.5t23.5 -85.5t45.5 -58.5t72.5 -21.5q43 0 72 22t45.5 58.5t23.5 85t7 102.5zM500 325q0 -62 -10 -121t-36 -105.5t-70.5 -75t-112.5 -28.5t-110 29t-65.5 75.5 t-32 105.5t-8.5 120q0 62 10.5 121t36 105.5t69.5 75t112 28.5q67 0 109.5 -28.5t66.5 -75t32.5 -106t8.5 -120.5z" />
<glyph unicode="1" horiz-adv-x="343" d="M183 0v573l-155 -70l-16 60l179 87h66v-650h-74z" />
<glyph unicode="2" horiz-adv-x="497" d="M42 0v56l182 192q65 67 91.5 120.5t26.5 104.5q0 54 -28 86.5t-90 32.5q-34 0 -70.5 -13t-82.5 -38l-23 51q47 30 94.5 46.5t95.5 16.5q88 0 133.5 -46t45.5 -124q0 -33 -7 -64.5t-22 -62.5t-39 -63.5t-59 -67.5l-160 -164h315v-63h-403z" />
<glyph unicode="3" horiz-adv-x="493" d="M433 181q0 -40 -13.5 -74t-40.5 -59t-67.5 -39t-94.5 -14q-57 0 -105 14.5t-82 33.5l22 52q36 -17 77 -28t87 -11q40 0 66.5 10.5t42.5 27.5t22.5 38t6.5 43q0 29 -7 52t-26 39.5t-53 25.5t-88 9h-68v60h69q32 0 60 4t48.5 16.5t32.5 36.5t12 64q0 23 -5 43.5t-18 35.5 t-35 24t-55 9q-42 0 -81.5 -14t-72.5 -31l-22 48q42 26 92 42t98 16q47 0 80.5 -12.5t54.5 -34.5t30.5 -52t9.5 -65q0 -59 -26.5 -101t-74.5 -55q63 -8 93.5 -49t30.5 -105z" />
<glyph unicode="4" horiz-adv-x="509" d="M324 585h-1l-227 -390h228v390zM397 131v-131h-73v131h-303v55l267 464h109v-455h94v-64h-94z" />
<glyph unicode="5" horiz-adv-x="496" d="M443 200q0 -57 -16 -96.5t-46 -63.5t-72.5 -34.5t-96.5 -10.5q-57 0 -101 12t-79 32l20 55q39 -17 83 -27.5t77 -10.5q83 0 118 31.5t35 106.5q0 37 -7.5 62t-28.5 40t-58 21t-96 6q-30 0 -53 -2l-45 -4l32 333h293l-5 -64h-231l-18 -203q34 2 64 2q56 0 94 -7 q59 -12 89.5 -37t39 -61t8.5 -80z" />
<glyph unicode="6" horiz-adv-x="522" d="M398 211q0 27 -4.5 51t-18.5 42t-39.5 28.5t-68.5 10.5q-35 0 -72.5 -13t-64.5 -31q0 -68 6.5 -114.5t22 -75t40.5 -41t61 -12.5q73 0 105.5 39.5t32.5 115.5zM471 219q0 -105 -55.5 -164.5t-159.5 -59.5q-60 0 -98.5 19.5t-61 57.5t-31.5 95.5t-9 134.5q0 82 12.5 147.5 t41.5 111t78 70t123 24.5q38 0 72 -5.5t58 -14.5l-13 -55q-32 6 -62.5 10t-59.5 4q-52 0 -86 -18.5t-54.5 -50.5t-28.5 -75t-8 -91v-1q35 18 74 32t85 14q54 0 89 -14t56 -38.5t29.5 -58.5t8.5 -74z" />
<glyph unicode="7" horiz-adv-x="448" d="M164 0h-80l259 586h-305v64h381v-56z" />
<glyph unicode="8" horiz-adv-x="531" d="M386 512q0 84 -121 84q-60 0 -90.5 -22.5t-30.5 -57.5q0 -26 10 -46t27 -37t39.5 -32t46.5 -29q24 14 45.5 29t38 31.5t26 36t9.5 43.5zM476 151q0 -33 -13 -61.5t-39.5 -49.5t-66.5 -33t-95 -12h-4q-105 0 -153.5 39.5t-48.5 108.5q0 35 12.5 62.5t32.5 50.5t46.5 42 t55.5 37q-25 15 -48 32.5t-41 38.5t-28.5 47t-10.5 59q0 61 48 102t146 41h3q94 0 139 -36.5t45 -99.5q0 -32 -10.5 -57.5t-28 -47t-41 -39.5t-49.5 -34q28 -16 55 -34.5t48 -41t33.5 -50.5t12.5 -64zM404 146q0 28 -12 50.5t-31.5 41t-44.5 34.5l-53 32q-26 -15 -50.5 -31 t-43.5 -34t-30 -39.5t-11 -48.5q0 -97 139 -97q69 0 103 25.5t34 66.5z" />
<glyph unicode="9" horiz-adv-x="522" d="M125 439q0 -27 4.5 -51t18 -42t39.5 -28.5t68 -10.5q35 0 72.5 13.5t65.5 31.5q0 68 -7 114t-22 74.5t-40 41t-61 12.5q-74 0 -106 -39.5t-32 -115.5zM52 431q0 105 55 164.5t159 59.5q60 0 98.5 -19.5t61 -57.5t31.5 -96t9 -134q0 -82 -12.5 -147.5t-42 -111t-78.5 -70 t-123 -24.5q-37 0 -71 5.5t-58 15.5l12 55q32 -7 63 -11t60 -4q52 0 86 18.5t54 51t28.5 75.5t8.5 91v1q-35 -17 -74 -32t-85 -15q-54 0 -89 14t-55.5 38.5t-29 58.5t-8.5 74z" />
<glyph unicode=":" horiz-adv-x="310" d="M121 404v106h80v-106h-80zM121 0v106h80v-106h-80z" />
<glyph unicode=";" horiz-adv-x="311" d="M100 -172l-55 16l87 267l82 -24zM121 404v106h80v-106h-80z" />
<glyph unicode="&#x37e;" horiz-adv-x="311" d="M100 -172l-55 16l87 267l82 -24zM121 404v106h80v-106h-80z" />
<glyph unicode="&#x3c;" d="M68 272v52l392 225v-74l-319 -176l319 -176v-75z" />
<glyph unicode="=" d="M60 170v58h430v-58h-430zM60 368v58h430v-58h-430z" />
<glyph unicode="&#x3e;" d="M90 48v73l319 177l-319 175v76l392 -225v-52z" />
<glyph unicode="?" horiz-adv-x="425" d="M141 0v93h77v-93h-77zM366 537q0 -36 -11 -62.5t-28 -47.5t-36 -39.5t-36 -38.5t-28 -43.5t-11 -56.5v-59h-72v54q0 38 10.5 66t27 50t35 40.5t35 37.5t27 40.5t10.5 49.5q0 39 -24 63.5t-80 24.5q-24 0 -52 -5t-55 -14l-12 57q35 11 70.5 18t67.5 7q77 0 119.5 -38 t42.5 -104z" />
<glyph unicode="@" horiz-adv-x="951" d="M572 392q-32 35 -52 50.5t-37 15.5q-32 0 -57 -24t-42 -66q-13 -34 -20 -73t-7 -76q0 -49 16 -70t40 -21q26 0 58 20.5t67 48.5zM875 401q0 -92 -22 -154t-61.5 -100t-94 -54t-118.5 -16h-48l4 61q-44 -33 -77 -50.5t-62 -17.5q-45 0 -74 36t-29 114q0 56 13 109 t36.5 94.5t56.5 66.5t74 25q32 0 60 -20.5t54 -48.5l18 64h52l-66 -378q49 0 90 11.5t70 41t45.5 80.5t16.5 130q0 55 -9.5 101.5t-39 81t-84 54t-144.5 19.5q-96 0 -167 -31t-118 -88.5t-70 -139t-23 -182.5q0 -146 67 -212.5t209 -66.5h175l-7 -48q-20 -2 -43.5 -4t-48 -3 t-47.5 -1.5t-42 -0.5q-161 0 -243.5 80t-82.5 249q0 116 29 209t86 158.5t140.5 100.5t192.5 35q103 0 168 -24.5t101.5 -66.5t49.5 -97.5t13 -116.5z" />
<glyph unicode="A" horiz-adv-x="517" d="M256 599h-1l-108 -390h218zM421 0l-42 148h-247l-40 -148h-74l191 674h100l189 -674h-77z" />
<glyph unicode="B" horiz-adv-x="509" d="M382 191q0 27 -7 50t-27.5 40t-57 26.5t-96.5 9.5h-20q-11 0 -22 -1v-254q15 -2 28 -2h33q56 0 89.5 11.5t51 30.5t23 42.5t5.5 46.5zM365 499q0 27 -6.5 48t-24 36t-48.5 23t-80 8q-19 0 -31 -0.5t-23 -1.5v-233q13 -1 23 -1h21q54 0 87.5 10t51.5 26.5t24 38.5t6 46z M457 194q0 -43 -14 -79t-43.5 -61.5t-75.5 -40t-110 -14.5q-33 0 -65.5 0.5t-69.5 0.5v673q38 1 70.5 1.5t69.5 0.5q114 0 165.5 -42t51.5 -129q0 -57 -27.5 -97.5t-86.5 -52.5q75 -14 105 -56t30 -104z" />
<glyph unicode="C" horiz-adv-x="482" d="M458 37q-43 -20 -88.5 -31t-87.5 -11q-56 0 -98.5 17t-71 57t-43 105t-14.5 161q0 89 17.5 154t49 107t75.5 62.5t97 20.5q42 0 85.5 -12t75.5 -27l-21 -60q-11 6 -27 12t-34 11.5t-37 9t-35 3.5q-80 0 -125 -65.5t-45 -213.5q0 -78 10.5 -131.5t31 -86t51.5 -46.5 t73 -14q14 0 32 3t37 8t38 11.5t35 13.5z" />
<glyph unicode="D" horiz-adv-x="574" d="M442 342q0 66 -10.5 116.5t-36 85t-68 52.5t-106.5 18q-10 0 -30.5 -0.5t-37.5 -1.5v-550h17l20 -2h20h13q61 0 103 18.5t68 54.5t37 88.5t11 120.5zM518 343q0 -81 -17 -145.5t-53 -108.5t-92 -67.5t-133 -23.5q-38 0 -75 0.5t-69 1.5v674q38 1 74 1.5t71 0.5 q80 0 136 -20.5t91 -62t51 -104t16 -146.5z" />
<glyph unicode="E" horiz-adv-x="429" d="M79 0v674h306v-62h-232v-233h211v-62h-211v-255h235v-62h-309z" />
<glyph unicode="F" horiz-adv-x="409" d="M153 612v-235h201v-62h-201v-315h-74v674h291v-62h-217z" />
<glyph unicode="G" horiz-adv-x="542" d="M478 40q-41 -22 -90.5 -33.5t-94.5 -11.5q-61 0 -105.5 16.5t-74 55.5t-44 103.5t-14.5 160.5q0 182 66.5 265t188.5 83q21 0 43.5 -3.5t44.5 -9t42.5 -13t35.5 -15.5l-20 -55q-37 15 -74 24.5t-66 9.5q-97 0 -141 -67.5t-44 -216.5q0 -78 10 -130.5t31 -85t53 -46 t76 -13.5q51 0 104 21v237h73v-276z" />
<glyph unicode="H" horiz-adv-x="594" d="M441 0v317h-288v-317h-74v674h74v-294h288v294h73v-674h-73z" />
<glyph unicode="I" horiz-adv-x="233" d="M79 0v674h74v-674h-74z" />
<glyph unicode="J" horiz-adv-x="326" d="M247 214q0 -106 -35.5 -162t-115.5 -56q-30 0 -53.5 3t-46.5 8l3 61q17 -4 42 -6.5t45 -2.5q28 0 45.5 12.5t26.5 34t12 51t3 62.5v455h74v-460z" />
<glyph unicode="K" horiz-adv-x="459" d="M368 0l-212 335h-3v-335h-74v674h74v-317h3l192 317h87l-207 -322l232 -352h-92z" />
<glyph unicode="L" horiz-adv-x="358" d="M79 0v674h74v-611h196v-63h-270z" />
<glyph unicode="M" horiz-adv-x="757" d="M629 0l-40 598h-1l-183 -598h-55l-184 598h-1l-40 -598h-69l48 674h113l163 -533h1l162 533h110l48 -674h-72z" />
<glyph unicode="N" horiz-adv-x="592" d="M421 0l-274 578v-578h-68v674h99l266 -562v562h68v-674h-91z" />
<glyph unicode="O" horiz-adv-x="621" d="M491 338q0 64 -8.5 115.5t-29.5 87.5t-56 55.5t-88 19.5q-99 0 -139 -71.5t-40 -207.5q0 -65 8.5 -116.5t29.5 -87.5t56 -55.5t88 -19.5q99 0 139 71.5t40 208.5zM567 339q0 -344 -254 -344h-7q-69 0 -117 20t-78 61.5t-43 105.5t-13 152q0 345 254 345h6q69 0 117 -20 t78 -62t43.5 -106t13.5 -152z" />
<glyph unicode="P" horiz-adv-x="501" d="M391 463q0 35 -6.5 62.5t-23.5 47t-46.5 30t-74.5 10.5q-20 0 -45 -0.5t-42 -1.5v-294q15 -1 35 -2t50 -1q43 0 72.5 11t47.5 30.5t25.5 47t7.5 60.5zM467 466q0 -48 -14.5 -87t-43 -67t-72 -43.5t-100.5 -15.5h-42q-21 0 -42 1v-254h-74v673q38 2 83 2h86 q117 0 168 -54.5t51 -154.5z" />
<glyph unicode="Q" horiz-adv-x="621" d="M462 153q14 29 21.5 75.5t7.5 109.5q0 64 -8.5 115.5t-29.5 87.5t-56 55.5t-88 19.5q-99 0 -139 -71.5t-40 -207.5q0 -66 8.5 -117.5t29.5 -87.5t56 -55t88 -19q72 0 113 40l-86 89l48 47zM609 1l-47 -47l-89 95q-60 -54 -160 -54h-7q-69 0 -117 20t-78 61.5t-43 105.5 t-13 152q0 345 254 345h6q69 0 117 -20t78 -62t43.5 -106t13.5 -152q0 -151 -52 -240z" />
<glyph unicode="R" horiz-adv-x="516" d="M379 500q0 27 -6 48t-21.5 35.5t-42.5 22.5t-70 8q-21 0 -43.5 -0.5t-42.5 -1.5v-232h87q39 0 65.5 9t43 25.5t23.5 38t7 47.5zM398 0l-155 320h-90v-320h-74v673q40 2 83 2h81q58 0 99 -12t66 -34t36.5 -53.5t11.5 -71.5q0 -66 -36 -111.5t-104 -59.5l167 -333h-85z" />
<glyph unicode="S" horiz-adv-x="458" d="M421 179q0 -88 -53 -136t-145 -48q-41 0 -84.5 11t-86.5 36l25 56q35 -18 70 -29t73 -11q63 0 95 29.5t32 83.5q0 40 -22 66.5t-55.5 47.5t-72.5 40t-72.5 43.5t-55.5 58t-22 83.5q0 37 13 68.5t37 53.5t59 34.5t80 12.5q42 0 84 -11.5t77 -31.5l-25 -52q-29 14 -64 24 t-69 10q-60 0 -89.5 -28t-29.5 -73q0 -38 22.5 -63.5t55.5 -45.5t72.5 -39t72.5 -44t55.5 -59.5t22.5 -86.5z" />
<glyph unicode="T" horiz-adv-x="418" d="M246 611v-611h-74v611h-165v63h404v-63h-165z" />
<glyph unicode="U" horiz-adv-x="588" d="M508 208q0 -46 -11.5 -85t-37.5 -67.5t-67.5 -44.5t-101.5 -16q-111 0 -161 51.5t-50 154.5v473h74v-470q0 -76 31 -111t111 -35q42 0 69 10t43 28.5t22 45.5t6 62v470h73v-466z" />
<glyph unicode="V" horiz-adv-x="514" d="M304 0h-96l-191 674h79l147 -531l16 -71l16 72l145 530h77z" />
<glyph unicode="W" horiz-adv-x="787" d="M622 0h-98l-114 488l-17 91h-1l-17 -91l-114 -488h-99l-146 674h79l107 -508l13 -86h1l16 83l117 511h92l118 -508l16 -86h1l14 85l106 509h76z" />
<glyph unicode="X" horiz-adv-x="506" d="M298 357l189 -357h-88l-125 245l-23 48h-1l-21 -43l-126 -250h-84l188 352l-167 322h86l104 -209l23 -48h1l26 53l101 204h84z" />
<glyph unicode="Y" horiz-adv-x="465" d="M269 283v-283h-71v283l-193 391h84l83 -175l64 -139l57 129l87 185h80z" />
<glyph unicode="Z" horiz-adv-x="450" d="M40 0v55l280 557h-276v62h355v-54l-280 -557h291v-63h-370z" />
<glyph unicode="[" horiz-adv-x="363" d="M84 -187v987h207v-58h-139v-872h142v-57h-210z" />
<glyph unicode="\" horiz-adv-x="410" d="M331 -145l-325 945h66l325 -945h-66z" />
<glyph unicode="]" horiz-adv-x="363" d="M279 800v-987h-209v57h141v872h-139v58h207z" />
<glyph unicode="^" d="M407 372l-133 247l-133 -247h-78l172 307h81l175 -307h-84z" />
<glyph unicode="_" horiz-adv-x="500" d="M0 -195v56h500v-56h-500z" />
<glyph unicode="`" horiz-adv-x="352" d="M189 571l-130 132l67 28l113 -141z" />
<glyph unicode="a" horiz-adv-x="479" d="M341 69q-26 -22 -46.5 -36.5t-39.5 -23t-38 -12t-41 -3.5q-29 0 -53.5 11t-42 31t-27.5 48t-10 61q0 72 59.5 110.5t194.5 38.5h39v20q0 33 -3.5 59.5t-15 45t-33 28.5t-57.5 10t-71.5 -9t-75.5 -23l-14 54q45 17 87.5 27t83.5 10q90 0 130 -41.5t40 -138.5v-336h-57z M291 236q-53 0 -87 -5.5t-54 -16t-27.5 -27t-7.5 -37.5q0 -40 21.5 -67t57.5 -27t67 16.5t75 57.5v106h-45z" />
<glyph unicode="b" horiz-adv-x="488" d="M369 255q0 88 -26 142.5t-73 54.5q-50 0 -126 -72v-248q75 -74 120 -74q22 0 41.5 14t33.5 40t22 62.5t8 80.5zM439 258q0 -63 -12.5 -112.5t-34.5 -83t-52.5 -51t-66.5 -17.5q-28 0 -59 16t-75 58l-9 -68h-56v720l70 10v-285q46 40 78.5 55.5t66.5 15.5q35 0 62.5 -18.5 t47 -52.5t30 -81.5t10.5 -105.5z" />
<glyph unicode="c" horiz-adv-x="374" d="M359 39q-28 -20 -61.5 -32t-74.5 -12q-33 0 -64.5 11t-56 39.5t-39 78t-14.5 126.5q0 68 13.5 118t38 83t59 49t75.5 16q33 0 63 -11t56 -30l-23 -54q-20 14 -42.5 23t-48.5 9t-47.5 -10t-37.5 -33.5t-25 -61.5t-9 -93q0 -56 9.5 -93.5t25 -60.5t36 -32.5t42.5 -9.5 q29 0 53 8.5t50 23.5z" />
<glyph unicode="d" horiz-adv-x="489" d="M344 380q-77 72 -120 72q-23 0 -42 -14t-32.5 -40t-21.5 -62.5t-8 -80.5q0 -88 25.5 -142.5t72.5 -54.5q50 0 126 72v250zM358 0l-9 69q-26 -22 -46 -36.5t-38 -23t-34 -12t-32 -3.5q-35 0 -62.5 18.5t-47 52.5t-30 81.5t-10.5 105.5q0 63 12.5 112.5t35 83t53 51 t66.5 17.5q26 0 55 -14.5t73 -52.5v271l70 10v-730h-56z" />
<glyph unicode="e" horiz-adv-x="467" d="M346 302q0 30 -6 58t-19 49.5t-34 34.5t-51 13q-32 0 -53.5 -14.5t-35 -38t-20 -52.5t-7.5 -58h226v8zM403 30q-88 -35 -168 -35q-48 0 -83 14t-58 44.5t-34 79.5t-11 119q0 130 51 197t142 67q41 0 73.5 -15.5t55 -44t34 -69t11.5 -89.5q0 -14 -0.5 -31.5t-1.5 -30.5 h-294q0 -94 30 -137t95 -43q13 0 30.5 1.5t37 4.5t39.5 7.5t38 10.5z" />
<glyph unicode="f" horiz-adv-x="265" d="M271 668q-10 2 -24.5 3t-25.5 1q-38 0 -53.5 -23t-15.5 -67v-72h102v-57h-102v-453h-70v453h-82v57h82v70q0 74 32 112t101 38q20 0 34.5 -2t27.5 -5z" />
<glyph unicode="g" horiz-adv-x="488" d="M344 379q-76 73 -120 73q-23 0 -42 -14t-32.5 -40t-21.5 -62.5t-8 -80.5q0 -88 25.5 -142.5t72.5 -54.5q50 0 126 72v249zM414 8q0 -101 -49.5 -150.5t-140.5 -49.5q-24 0 -52 1.5t-49 4.5l-8 53h91q42 0 69 10t42.5 28t21 42t5.5 51v67q-23 -20 -42.5 -33.5t-36.5 -22 t-33 -12t-33 -3.5q-35 0 -62.5 18.5t-47 52.5t-30 81.5t-10.5 105.5q0 63 12.5 112.5t35 83t53 51t66.5 17.5q26 0 57.5 -15.5t75.5 -58.5l9 68h56v-502z" />
<glyph unicode="h" horiz-adv-x="499" d="M356 0v316q0 27 -5 51.5t-15 43t-25.5 30t-37.5 11.5q-53 0 -129 -72v-380h-70v720l70 10v-285q24 21 44 34.5t37.5 21.5t34 11.5t35.5 3.5q60 0 95.5 -48.5t35.5 -131.5v-336h-70z" />
<glyph unicode="i" horiz-adv-x="218" d="M74 0v510h70v-510h-70zM74 629v92h70v-92h-70z" />
<glyph unicode="j" horiz-adv-x="218" d="M144 33q0 -41 -4 -73.5t-12 -59t-22 -49t-33 -43.5l-49 33q26 37 38 81.5t12 92.5v495h70v-477zM74 629v92h70v-92h-70z" />
<glyph unicode="k" horiz-adv-x="416" d="M325 0l-180 270h-1v-270h-70v720l70 10v-443h1l157 223h84l-169 -225l197 -285h-89z" />
<glyph unicode="l" horiz-adv-x="218" d="M74 0v720l70 10v-730h-70z" />
<glyph unicode="m" horiz-adv-x="773" d="M629 0v316q0 27 -4.5 51.5t-14 43t-24.5 30t-37 11.5q-52 0 -128 -72v-380h-69v316q0 27 -4.5 51.5t-14 43t-25 30t-37.5 11.5q-51 0 -127 -72v-380h-70v510h57l8 -69q26 22 46.5 36.5t38 23t34.5 12t35 3.5q40 0 68.5 -22.5t44.5 -60.5q30 25 52 41.5t41 25.5t36 12.5 t35 3.5q60 0 95 -48.5t35 -131.5v-336h-71z" />
<glyph unicode="n" horiz-adv-x="499" d="M356 0v316q0 27 -5 51.5t-15 43t-25.5 30t-37.5 11.5q-53 0 -129 -72v-380h-70v510h57l8 -69q26 22 46.5 36.5t38.5 23t35 12t36 3.5q60 0 95.5 -48.5t35.5 -131.5v-336h-70z" />
<glyph unicode="o" horiz-adv-x="501" d="M381 255q0 44 -6.5 81t-22 63.5t-40.5 41t-61 14.5q-37 0 -62 -15t-40.5 -42t-22 -63.5t-6.5 -79.5q0 -44 6.5 -80.5t22 -63t40.5 -41t61 -14.5q37 0 62 15t40.5 41.5t22 63t6.5 79.5zM453 257q0 -57 -12 -105t-36.5 -83t-63 -54.5t-91.5 -19.5h-3q-104 0 -151 64 t-47 194q0 57 11.5 105.5t36.5 83.5t63.5 54.5t91.5 19.5h2q104 0 151.5 -64t47.5 -195z" />
<glyph unicode="p" horiz-adv-x="488" d="M369 255q0 88 -26 142.5t-73 54.5q-50 0 -126 -72v-250q76 -72 120 -72q22 0 41.5 14t33.5 40t22 62.5t8 80.5zM439 258q0 -63 -12.5 -112.5t-34.5 -83t-52.5 -51t-66.5 -17.5q-26 0 -55.5 14.5t-73.5 52.5v-243l-70 -10v702h57l8 -69q26 22 46.5 36.5t38 23t33 12 t32.5 3.5q35 0 62.5 -18.5t47 -52.5t30 -81.5t10.5 -105.5z" />
<glyph unicode="q" horiz-adv-x="488" d="M224 452q-23 0 -42 -14t-32.5 -40t-21.5 -62.5t-8 -80.5q0 -88 25.5 -142.5t72.5 -54.5q50 0 126 72v249q-76 73 -120 73zM199 -6q-35 0 -62.5 18.5t-47 52.5t-30 81.5t-10.5 105.5q0 63 12.5 112.5t35 83t53 51t66.5 17.5q26 0 57.5 -15.5t75.5 -58.5l9 68h56v-692 l-70 -10v257q-46 -40 -78.5 -55.5t-66.5 -15.5z" />
<glyph unicode="r" horiz-adv-x="307" d="M264 446q-17 0 -30.5 -4t-27 -12t-28.5 -22l-34 -33v-375h-70v510h58l8 -73q25 27 43 43t32.5 24t27 10t26.5 2h22v-70h-27z" />
<glyph unicode="s" horiz-adv-x="359" d="M317 132q0 -65 -41 -101t-112 -36q-38 0 -68.5 9t-59.5 25l24 55q54 -29 102 -29q46 0 65 21t19 50q0 15 -3.5 27.5t-14 25t-29 26t-47.5 30.5q-65 37 -89.5 72t-24.5 80q0 29 10.5 52.5t29.5 40.5t45.5 26.5t57.5 9.5q34 0 64 -9t56 -23l-22 -53q-20 10 -45 18t-51 8 q-38 0 -56.5 -18t-18.5 -47q0 -14 3.5 -26t13.5 -24t28 -24.5t46 -28.5q34 -20 57 -38.5t36.5 -37.5t19 -39t5.5 -42z" />
<glyph unicode="t" horiz-adv-x="295" d="M267 9q-19 -6 -41.5 -10t-43.5 -4q-23 0 -41.5 5.5t-31.5 18.5t-20 35t-7 55v344h-82v57h82v153l70 9v-162h114v-57h-114v-330q0 -38 11 -52.5t43 -14.5q21 0 54 6z" />
<glyph unicode="u" horiz-adv-x="499" d="M143 510v-316q0 -27 4.5 -51.5t14.5 -43t26 -30t38 -11.5q53 0 129 72v380h70v-510h-57l-9 69q-26 -22 -46.5 -36.5t-38.5 -23t-34.5 -12t-35.5 -3.5q-60 0 -95.5 48.5t-35.5 131.5v336h70z" />
<glyph unicode="v" horiz-adv-x="401" d="M243 0h-90l-137 510h77l92 -360l16 -75h1l18 79l88 356h77z" />
<glyph unicode="w" horiz-adv-x="654" d="M507 0h-94l-85 364h-1l-86 -364h-96l-119 510h77l95 -438h1l104 438h57l103 -438h1l93 438h74z" />
<glyph unicode="x" horiz-adv-x="430" d="M334 0l-121 213h-1l-120 -213h-81l158 263l-147 247h85l110 -199h1l111 199h79l-146 -243l159 -267h-87z" />
<glyph unicode="y" horiz-adv-x="394" d="M259 47q-14 -51 -30 -88.5t-35.5 -65.5t-44 -48.5t-55.5 -36.5l-32 52q34 19 59.5 46.5t42.5 81.5l-150 522h78l97 -359l15 -71h1l21 94l82 336h77z" />
<glyph unicode="z" horiz-adv-x="343" d="M26 0v41l199 409h-193v60h275v-42l-199 -408h208v-60h-290z" />
<glyph unicode="{" horiz-adv-x="400" d="M128 149q0 62 -20.5 94t-70.5 32v57q55 0 73 30.5t18 89.5v143q0 116 54 165q46 41 128 41q14 0 28 -1v-58q-10 1 -19 1q-24 0 -44 -5q-27 -5 -44.5 -21.5t-26 -44.5t-8.5 -70v-142q0 -66 -18 -103.5t-68 -51.5q47 -11 66.5 -51t19.5 -100v-129q0 -51 9.5 -82t27.5 -47.5 t45 -21.5q22 -4 49 -4h11v-57q-15 -1 -29 -1q-80 0 -127 38q-54 45 -54 162v137z" />
<glyph unicode="|" horiz-adv-x="231" d="M86 -194v994h59v-994h-59z" />
<glyph unicode="}" horiz-adv-x="400" d="M272 458q0 -63 20 -94.5t71 -31.5v-57q-28 0 -45.5 -8t-27.5 -23t-14 -37.5t-4 -51.5v-137q0 -116 -54 -164q-47 -42 -128 -42q-14 0 -28 1v57q11 -1 21 -1q23 0 42 3q27 5 44.5 21t26 44.5t8.5 74.5v135q0 66 18 104.5t68 52.5q-38 6 -62 43.5t-24 105.5v136 q0 51 -9.5 81.5t-27.5 47t-45 20.5q-21 4 -48 4h-12v58q15 1 30 1q32 0 59 -6q39 -9 66 -32.5t41 -63t14 -97.5v-144z" />
<glyph unicode="~" d="M489 623v-14q0 -29 -7 -53q-9 -29 -26 -49t-40.5 -30.5t-51.5 -10.5q-35 0 -58.5 17t-42.5 37l-37 37q-17 17 -41 17q-18 0 -30 -8.5t-18.5 -22t-9.5 -30.5t-4 -35h-58v13q0 29 7 53q9 29 26 48.5t40.5 30t50.5 10.5q36 0 59.5 -17t42 -37t36 -37t40.5 -17q19 0 31 8.5 t19.5 22t10.5 31.5t3 36h58z" />
<glyph unicode="&#xa1;" horiz-adv-x="290" d="M89 -76v484h75v-484h-75zM86 505v93h81v-93h-81z" />
<glyph unicode="&#xa2;" horiz-adv-x="420" d="M368 174q-23 -13 -49 -22.5t-55 -13.5v-102h-59v100q-30 2 -57 12.5t-47 34t-31.5 62t-11.5 97.5q0 100 40 151t107 60v97h59v-96q28 -2 55 -13t47 -25l-19 -52q-20 13 -46 22.5t-53 9.5q-26 0 -48 -8t-38 -25.5t-24.5 -46.5t-8.5 -71q0 -44 8.5 -72.5t24 -46t36 -24.5 t44.5 -7q25 0 50.5 7.5t57.5 23.5z" />
<glyph unicode="&#xa3;" horiz-adv-x="500" d="M51 0v46l65 12v242h-84v58h84v88q0 58 13 98t35 64.5t51.5 35.5t61.5 11q54 0 89 -11.5t52 -24.5l-21 -50q-23 11 -48.5 17.5t-63.5 6.5q-51 0 -74 -34.5t-23 -112.5v-88h158v-58h-158v-238h228v-62h-365z" />
<glyph unicode="&#xa4;" d="M393 320q0 34 -6 62.5t-20 49t-36 32t-55 11.5q-63 0 -91 -42.5t-28 -112.5q0 -34 6 -62t20 -48.5t37 -32t56 -11.5q32 0 54 11.5t36 32t20.5 49t6.5 61.5zM137 156q-23 23 -36.5 62.5t-13.5 99.5q0 54 14.5 97t37.5 66l-96 145l60 28l86 -141q20 11 43 16t45 5h2 q26 0 48 -5.5t36 -13.5l85 139l57 -28l-92 -140q26 -26 38 -68t12 -95q0 -58 -13.5 -98t-36.5 -66l88 -134l-59 -30l-80 132q-17 -9 -38 -14.5t-47 -5.5h-2q-23 0 -47 4.5t-41 15.5l-80 -132l-57 28z" />
<glyph unicode="&#xa5;" d="M320 304h144v-54h-149v-100h149v-54h-149v-96h-70v96h-149v54h149v100h-149v54h144l-183 346h80l76 -150l69 -144l76 156l67 138h77z" />
<glyph unicode="&#xa6;" horiz-adv-x="285" d="M109 -192v399h69v-399h-69zM109 411v397h69v-397h-69z" />
<glyph unicode="&#xa7;" d="M400 289q0 29 -16 49q-17 22 -43 38.5t-57.5 30.5t-60.5 31q-47 -26 -64 -52.5t-20 -57.5q-1 -32 16.5 -54t44.5 -38.5t58.5 -30.5t58.5 -30q46 24 63 51q20 30 20 63zM473 294q0 -47 -24 -81.5t-76 -70.5q27 -20 45 -50.5t18 -66.5q0 -68 -51.5 -110.5t-140.5 -42.5 q-43 0 -87.5 12.5t-79.5 32.5l25 55q32 -16 69 -26.5t70 -10.5q60 0 90 24.5t30 59.5t-22 58t-54.5 40.5t-71 33.5t-71 38t-54.5 53t-22 78q0 45 24.5 79.5t77.5 72.5q-22 17 -42 46t-20 67q0 66 44.5 107t131.5 41q44 0 84.5 -11t69.5 -28l-23 -52q-24 11 -57.5 20.5 t-68.5 9.5q-58 0 -83.5 -23.5t-25.5 -58.5q0 -33 22 -55t54.5 -40t71 -34t71 -38t54.5 -52.5t22 -76.5z" />
<glyph unicode="&#xa8;" horiz-adv-x="400" d="M78 631v85h65v-85h-65zM257 631v85h65v-85h-65z" />
<glyph unicode="&#xa9;" horiz-adv-x="787" d="M523 156q-26 -15 -58.5 -26.5t-71.5 -11.5q-33 0 -61.5 8.5t-50 32t-34 65.5t-12.5 109q0 114 46 168.5t126 54.5q28 0 58 -9t56 -26l-17 -51q-20 10 -42.5 19t-44.5 9q-26 0 -46.5 -8t-34.5 -26.5t-22 -49.5t-8 -76q0 -47 7.5 -77.5t21 -48.5t32 -25.5t41.5 -7.5 q27 0 50 8.5t48 19.5zM676 337q0 62 -20 117t-56.5 96t-87.5 64.5t-113 23.5t-112.5 -23.5t-87 -64t-56.5 -95.5t-20 -118q0 -62 20 -117t56.5 -96t87 -64.5t112.5 -23.5t113 23.5t87.5 64t56.5 95.5t20 118zM731 337q0 -73 -24.5 -137t-68 -111.5t-105 -75t-134.5 -27.5 t-134 27.5t-105 75t-68.5 111.5t-24.5 137t24.5 137t68.5 111.5t105 75t134 27.5t134.5 -27.5t105 -75t68 -111.5t24.5 -137z" />
<glyph unicode="&#xaa;" horiz-adv-x="381" d="M266 389q-28 -26 -51.5 -37.5t-56.5 -11.5q-42 0 -67 27t-25 71q0 47 42 73.5t133 26.5h21v11q0 42 -12.5 61t-55.5 19q-25 0 -47.5 -5.5t-50.5 -13.5l-12 45q32 11 60.5 17t57.5 6q63 0 90.5 -26t27.5 -91v-217h-49zM236 495q-33 0 -54 -3.5t-33.5 -10.5t-17 -16.5 t-4.5 -22.5q0 -23 12.5 -37.5t35.5 -14.5q20 0 39 10.5t48 37.5v57h-26zM78 227v52h248v-52h-248z" />
<glyph unicode="&#xab;" horiz-adv-x="519" d="M193 78l-138 219l140 221l49 -19l-109 -200l109 -202zM381 89l-131 208l132 209l49 -18l-103 -189l103 -191z" />
<glyph unicode="&#xac;" d="M413 125v144h-354v58h417v-202h-63z" />
<glyph unicode="&#xad;" horiz-adv-x="258" d="M37 254v62h191v-62h-191z" />
<glyph unicode="&#xae;" horiz-adv-x="605" d="M263 586v-79h23q37 0 47.5 10.5t10.5 27.5q0 23 -11 32t-47 9h-23zM298 459h-35v-104h-58v277h97q102 0 102 -83q0 -30 -13.5 -48t-38.5 -28l65 -118h-66zM496 496q0 41 -14.5 78t-40 64.5t-61 44t-78.5 16.5t-78.5 -16t-61 -43t-40 -63.5t-14.5 -77.5t14.5 -77.5t40 -64 t61 -44t78.5 -16.5t79 16t61.5 43t39.5 63t14 77zM548 498q0 -50 -19 -95t-52 -79t-78 -54t-97 -20q-54 0 -99.5 19.5t-78 53t-50.5 79t-18 96.5t18.5 96t51.5 78.5t78 53.5t98 20q54 0 99.5 -19.5t78 -53.5t50.5 -79t18 -96z" />
<glyph unicode="&#xaf;" horiz-adv-x="400" d="M70 622v54h260v-54h-260z" />
<glyph unicode="&#x2c9;" horiz-adv-x="400" d="M70 622v54h260v-54h-260z" />
<glyph unicode="&#xb0;" horiz-adv-x="464" d="M343 610q0 24 -9 45t-24 36t-35 24t-42 9q-23 0 -43 -9t-35 -24t-23.5 -36t-8.5 -45t8.5 -45t23.5 -36t35 -24t43 -9q22 0 42 9t35 24t24 36t9 45zM401 610q0 -35 -13 -65.5t-36 -53t-53.5 -35.5t-65.5 -13q-36 0 -66.5 13t-53 35.5t-35.5 53t-13 65.5t13 65.5t36 53 t53.5 35.5t65.5 13t66 -13t53.5 -35.5t35.5 -53t13 -65.5z" />
<glyph unicode="&#xb1;" d="M76 0v58h398v-58h-398zM306 333v-183h-62v183h-168v55h168v181h62v-181h168v-55h-168z" />
<glyph unicode="&#xb2;" horiz-adv-x="442" d="M96 638q25 18 55 29.5t62 11.5q61 0 87.5 -27.5t26.5 -65.5q0 -36 -16.5 -66t-58.5 -62l-77 -60h172v-52h-256v46l105 86q20 16 32 29t18.5 25t8.5 23.5t2 24.5q0 21 -14.5 35.5t-43.5 14.5q-20 0 -41 -8.5t-44 -21.5z" />
<glyph unicode="&#xb3;" horiz-adv-x="438" d="M196 342q-29 0 -57.5 8t-49.5 22l17 34q22 -8 44 -13t48 -5q40 0 53.5 14.5t13.5 36.5q0 9 -4 18.5t-16 16t-33 10.5q-17 2 -43 2h-15v45h14q50 0 68 13q22 14 22 40q0 22 -15 36.5t-44 14.5q-24 0 -43 -8t-44 -21l-17 36q22 15 51 26t63 11q59 0 85.5 -26t26.5 -63 q0 -27 -15 -47t-44 -28q29 -5 47 -25t18 -49q0 -49 -33.5 -74t-97.5 -25z" />
<glyph unicode="&#xb4;" horiz-adv-x="400" d="M211 571l-50 19l113 141l67 -28z" />
<glyph unicode="&#xb5;" d="M483 6q-13 -5 -31 -8t-37 -3q-45 0 -61 19q-14 15 -14 40q0 6 1 13q-53 -41 -90 -56.5t-65 -15.5q-34 0 -50.5 13t-24.5 27l-43 -221h-70l136 696h69l-62 -322q-6 -32 -6 -56q0 -74 59 -74q29 0 64.5 18t83.5 55l74 379h69l-76 -386q-4 -20 -4 -33q0 -15 7 -23 q5 -7 14.5 -9t23.5 -2q7 0 18 1t21 3z" />
<glyph unicode="&#x3bc;" d="M483 6q-13 -5 -31 -8t-37 -3q-45 0 -61 19q-14 15 -14 40q0 6 1 13q-53 -41 -90 -56.5t-65 -15.5q-34 0 -50.5 13t-24.5 27l-43 -221h-70l136 696h69l-62 -322q-6 -32 -6 -56q0 -74 59 -74q29 0 64.5 18t83.5 55l74 379h69l-76 -386q-4 -20 -4 -33q0 -15 7 -23 q5 -7 14.5 -9t23.5 -2q7 0 18 1t21 3z" />
<glyph unicode="&#xb6;" horiz-adv-x="560" d="M459 660v-797h-64v797h-90v-631q0 -94 -23.5 -133.5t-74.5 -39.5q-24 0 -43 3t-39 8v55q38 -8 61 -10h5q19 0 30 10q12 11 15.5 39.5t3.5 80.5v312q-40 0 -72.5 14.5t-55.5 39t-35.5 57t-12.5 68.5q0 31 10.5 63.5t34.5 59t63 43t95 16.5h263v-55h-71z" />
<glyph unicode="&#xb7;" horiz-adv-x="175" d="M46 247v103h83v-103h-83z" />
<glyph unicode="&#x22c5;" horiz-adv-x="175" d="M46 247v103h83v-103h-83z" />
<glyph unicode="&#x2219;" horiz-adv-x="175" d="M46 247v103h83v-103h-83z" />
<glyph unicode="&#xb8;" horiz-adv-x="380" d="M166 -187h-58l48 138h75z" />
<glyph unicode="&#xb9;" horiz-adv-x="310" d="M141 612l-65 -33l-20 47l94 48h57v-328h-66v266z" />
<glyph unicode="&#xba;" horiz-adv-x="378" d="M271 510q0 52 -17.5 84.5t-62.5 32.5t-63 -31.5t-18 -86.5q0 -54 18 -86t63 -32q44 0 62 33t18 86zM331 511q0 -78 -34 -124t-106 -46h-2q-74 0 -106.5 40.5t-32.5 126.5q0 78 33.5 124t107.5 46h2q71 0 104.5 -39.5t33.5 -127.5zM73 227v52h241v-52h-241z" />
<glyph unicode="&#xbb;" horiz-adv-x="519" d="M325 518l139 -219l-140 -221l-49 18l109 201l-109 202zM138 506l130 -207l-131 -210l-49 18l102 190l-102 190z" />
<glyph unicode="&#xbc;" horiz-adv-x="678" d="M402 125h93v158zM557 0h-63v75h-148v45l121 208h90v-202h56v-51h-56v-75zM490 674h64l-401 -674h-63zM137 612l-64 -33l-20 47l94 48h57v-328h-67v266z" />
<glyph unicode="&#xbd;" horiz-adv-x="688" d="M390 292q24 18 54.5 29t62.5 11q60 0 86.5 -27.5t26.5 -65.5q0 -35 -16 -65.5t-58 -62.5l-78 -60h172v-51h-255v45l105 86q19 16 31 29.5t18.5 25.5t8.5 23.5t2 23.5q0 22 -14 36t-43 14q-21 0 -42 -8.5t-43 -20.5zM490 674h64l-401 -674h-63zM137 612l-64 -33l-20 47 l94 48h57v-328h-67v266z" />
<glyph unicode="&#xbe;" horiz-adv-x="683" d="M512 674h64l-400 -674h-64zM424 125h93v158zM579 0h-63v75h-148v45l121 208h90v-202h56v-51h-56v-75zM153 342q-29 0 -57 8t-49 22l16 34q22 -8 44.5 -13t48.5 -5q39 0 52.5 14.5t13.5 36.5q0 9 -4 18.5t-16 16t-34 10.5q-16 2 -42 2h-15v45h14q50 0 69 13q22 14 22 40 q0 22 -15 36.5t-45 14.5q-24 0 -42.5 -8t-43.5 -21l-18 36q22 15 51.5 26t62.5 11q59 0 85.5 -26t26.5 -63q0 -27 -14.5 -47t-43.5 -28q29 -5 46.5 -25t17.5 -49q0 -49 -33.5 -74t-97.5 -25z" />
<glyph unicode="&#xbf;" horiz-adv-x="425" d="M284 598v-93h-77v93h77zM58 61q0 36 11.5 62.5t28 47.5t36.5 39.5t36.5 38.5t28 44t11.5 56v59h71v-54q0 -38 -10.5 -66t-27 -50t-35 -40.5t-35 -37.5t-27 -40.5t-10.5 -49.5q0 -39 24 -63.5t80 -24.5q24 0 52.5 4.5t55.5 13.5l10 -56q-34 -11 -69.5 -18t-67.5 -7 q-77 0 -120 38t-43 104z" />
<glyph unicode="&#xc0;" horiz-adv-x="517" d="M225 726l-98 124h84l75 -124h-61zM256 599h-1l-108 -390h218zM421 0l-42 148h-247l-40 -148h-74l191 674h100l189 -674h-77z" />
<glyph unicode="&#xc1;" horiz-adv-x="517" d="M300 850h84l-98 -124h-61zM256 599h-1l-108 -390h218zM421 0l-42 148h-247l-40 -148h-74l191 674h100l189 -674h-77z" />
<glyph unicode="&#xc2;" horiz-adv-x="517" d="M141 725l-20 36l134 91l134 -90l-21 -37l-114 63zM256 599h-1l-108 -390h218zM421 0l-42 148h-247l-40 -148h-74l191 674h100l189 -674h-77z" />
<glyph unicode="&#xc3;" horiz-adv-x="517" d="M320 730q-26 0 -43.5 11t-31 24.5t-26 24.5t-27.5 11q-44 0 -44 -66h-42q-2 13 -2 24q0 35 18 60q24 33 69 33q26 0 43.5 -11.5t31 -25t26 -24.5t27.5 -11q44 0 44 66h42q2 -13 2 -24q0 -35 -18 -60q-24 -32 -69 -32zM256 599h-1l-108 -390h218zM421 0l-42 148h-247 l-40 -148h-74l191 674h100l189 -674h-77z" />
<glyph unicode="&#xc4;" horiz-adv-x="517" d="M382 739h-67v84h67v-84zM199 739h-67v84h67v-84zM256 599h-1l-108 -390h218zM421 0l-42 148h-247l-40 -148h-74l191 674h100l189 -674h-77z" />
<glyph unicode="&#xc5;" horiz-adv-x="517" d="M303 775q0 21 -11.5 34t-38.5 13q-24 0 -36.5 -12.5t-12.5 -34.5t11.5 -35t37.5 -13t38 12.5t12 35.5zM350 775q0 -38 -23.5 -62t-73.5 -24t-73 22t-23 64q0 38 24 61.5t74 23.5q95 0 95 -85zM256 599h-1l-108 -390h218zM421 0l-42 148h-247l-40 -148h-74l191 674h100 l189 -674h-77z" />
<glyph unicode="&#xc6;" horiz-adv-x="658" d="M309 611h-1l-178 -402h179v402zM309 148h-203l-66 -148h-76l303 674h347v-62h-232v-233h210v-62h-210v-255h235v-62h-308v148z" />
<glyph unicode="&#xc7;" horiz-adv-x="482" d="M458 37q-43 -20 -88.5 -31t-87.5 -11q-56 0 -98.5 17t-71 57t-43 105t-14.5 161q0 89 17.5 154t49 107t75.5 62.5t97 20.5q42 0 85.5 -12t75.5 -27l-21 -60q-11 6 -27 12t-34 11.5t-37 9t-35 3.5q-80 0 -125 -65.5t-45 -213.5q0 -78 10.5 -131.5t31 -86t51.5 -46.5 t73 -14q14 0 32 3t37 8t38 11.5t35 13.5zM244 -187h-58l48 138h75z" />
<glyph unicode="&#xc8;" horiz-adv-x="429" d="M204 726l-98 124h84l75 -124h-61zM79 0v674h306v-62h-232v-233h211v-62h-211v-255h235v-62h-309z" />
<glyph unicode="&#xc9;" horiz-adv-x="429" d="M267 850h84l-98 -124h-61zM79 0v674h306v-62h-232v-233h211v-62h-211v-255h235v-62h-309z" />
<glyph unicode="&#xca;" horiz-adv-x="429" d="M117 725l-20 36l134 91l134 -90l-21 -37l-114 63zM79 0v674h306v-62h-232v-233h211v-62h-211v-255h235v-62h-309z" />
<glyph unicode="&#xcb;" horiz-adv-x="429" d="M354 739h-67v84h67v-84zM171 739h-67v84h67v-84zM79 0v674h306v-62h-232v-233h211v-62h-211v-255h235v-62h-309z" />
<glyph unicode="&#xcc;" horiz-adv-x="233" d="M87 726l-98 124h84l75 -124h-61zM79 0v674h74v-674h-74z" />
<glyph unicode="&#xcd;" horiz-adv-x="233" d="M160 850h84l-98 -124h-61zM79 0v674h74v-674h-74z" />
<glyph unicode="&#xce;" horiz-adv-x="233" d="M3 725l-20 36l134 91l134 -90l-21 -37l-114 63zM79 0v674h74v-674h-74z" />
<glyph unicode="&#xcf;" horiz-adv-x="233" d="M242 739h-67v84h67v-84zM59 739h-67v84h67v-84zM79 0v674h74v-674h-74z" />
<glyph unicode="&#xd0;" horiz-adv-x="584" d="M164 318v-256q14 -1 36 -1.5t34 -0.5q61 0 103 18.5t67.5 54.5t36.5 88.5t11 120.5q0 66 -10.5 116.5t-36 85t-67.5 52.5t-106 18q-12 0 -32 -0.5t-36 -1.5v-234h112v-60h-112zM24 318v60h66v296q38 1 74 1.5t71 0.5q80 0 136 -20.5t91 -62t51 -104t16 -146.5 q0 -81 -17 -145.5t-53 -108.5t-92 -67.5t-134 -23.5q-37 0 -74 0.5t-69 1.5v318h-66z" />
<glyph unicode="&#xd1;" horiz-adv-x="592" d="M359 730q-26 0 -43.5 11t-31 24.5t-26 24.5t-27.5 11q-44 0 -44 -66h-42q-2 13 -2 24q0 35 18 60q24 33 69 33q26 0 43.5 -11.5t31 -25t26 -24.5t27.5 -11q44 0 44 66h42q2 -13 2 -24q0 -35 -18 -60q-24 -32 -69 -32zM421 0l-274 578v-578h-68v674h99l266 -562v562h68 v-674h-91z" />
<glyph unicode="&#xd2;" horiz-adv-x="621" d="M282 726l-98 124h84l75 -124h-61zM491 338q0 64 -8.5 115.5t-29.5 87.5t-56 55.5t-88 19.5q-99 0 -139 -71.5t-40 -207.5q0 -65 8.5 -116.5t29.5 -87.5t56 -55.5t88 -19.5q99 0 139 71.5t40 208.5zM567 339q0 -344 -254 -344h-7q-69 0 -117 20t-78 61.5t-43 105.5 t-13 152q0 345 254 345h6q69 0 117 -20t78 -62t43.5 -106t13.5 -152z" />
<glyph unicode="&#xd3;" horiz-adv-x="621" d="M354 850h84l-98 -124h-61zM491 338q0 64 -8.5 115.5t-29.5 87.5t-56 55.5t-88 19.5q-99 0 -139 -71.5t-40 -207.5q0 -65 8.5 -116.5t29.5 -87.5t56 -55.5t88 -19.5q99 0 139 71.5t40 208.5zM567 339q0 -344 -254 -344h-7q-69 0 -117 20t-78 61.5t-43 105.5t-13 152 q0 345 254 345h6q69 0 117 -20t78 -62t43.5 -106t13.5 -152z" />
<glyph unicode="&#xd4;" horiz-adv-x="621" d="M198 725l-20 36l134 91l134 -90l-21 -37l-114 63zM491 338q0 64 -8.5 115.5t-29.5 87.5t-56 55.5t-88 19.5q-99 0 -139 -71.5t-40 -207.5q0 -65 8.5 -116.5t29.5 -87.5t56 -55.5t88 -19.5q99 0 139 71.5t40 208.5zM567 339q0 -344 -254 -344h-7q-69 0 -117 20t-78 61.5 t-43 105.5t-13 152q0 345 254 345h6q69 0 117 -20t78 -62t43.5 -106t13.5 -152z" />
<glyph unicode="&#xd5;" horiz-adv-x="621" d="M376 730q-26 0 -43.5 11t-31 24.5t-26 24.5t-27.5 11q-44 0 -44 -66h-42q-2 13 -2 24q0 35 18 60q24 33 69 33q26 0 43.5 -11.5t31 -25t26 -24.5t27.5 -11q44 0 44 66h42q2 -13 2 -24q0 -35 -18 -60q-24 -32 -69 -32zM491 338q0 64 -8.5 115.5t-29.5 87.5t-56 55.5 t-88 19.5q-99 0 -139 -71.5t-40 -207.5q0 -65 8.5 -116.5t29.5 -87.5t56 -55.5t88 -19.5q99 0 139 71.5t40 208.5zM567 339q0 -344 -254 -344h-7q-69 0 -117 20t-78 61.5t-43 105.5t-13 152q0 345 254 345h6q69 0 117 -20t78 -62t43.5 -106t13.5 -152z" />
<glyph unicode="&#xd6;" horiz-adv-x="621" d="M431 739h-67v84h67v-84zM248 739h-67v84h67v-84zM491 338q0 64 -8.5 115.5t-29.5 87.5t-56 55.5t-88 19.5q-99 0 -139 -71.5t-40 -207.5q0 -65 8.5 -116.5t29.5 -87.5t56 -55.5t88 -19.5q99 0 139 71.5t40 208.5zM567 339q0 -344 -254 -344h-7q-69 0 -117 20t-78 61.5 t-43 105.5t-13 152q0 345 254 345h6q69 0 117 -20t78 -62t43.5 -106t13.5 -152z" />
<glyph unicode="&#xd7;" d="M466 66l-192 191l-190 -191l-40 40l191 191l-191 191l42 42l191 -191l191 191l40 -40l-191 -191l191 -191z" />
<glyph unicode="&#xd8;" horiz-adv-x="628" d="M383 607q-29 12 -70 12q-98 0 -140 -73.5t-42 -209.5q0 -41 3 -78t11.5 -68.5t22 -56.5t34.5 -41zM251 67q14 -5 31.5 -8.5t37.5 -3.5q101 0 142.5 74.5t41.5 210.5q0 81 -14.5 146t-56.5 97zM456 650q64 -33 92 -109t28 -202q0 -344 -257 -344h-6q-24 0 -45.5 2.5 t-38.5 7.5l-49 -141h-59l57 160q-63 33 -91.5 108t-28.5 202q0 174 64.5 259.5t192.5 85.5h7q23 0 44.5 -2.5t38.5 -7.5l48 136h59z" />
<glyph unicode="&#xd9;" horiz-adv-x="588" d="M265 726l-98 124h84l75 -124h-61zM508 208q0 -46 -11.5 -85t-37.5 -67.5t-67.5 -44.5t-101.5 -16q-111 0 -161 51.5t-50 154.5v473h74v-470q0 -76 31 -111t111 -35q42 0 69 10t43 28.5t22 45.5t6 62v470h73v-466z" />
<glyph unicode="&#xda;" horiz-adv-x="588" d="M334 850h84l-98 -124h-61zM508 208q0 -46 -11.5 -85t-37.5 -67.5t-67.5 -44.5t-101.5 -16q-111 0 -161 51.5t-50 154.5v473h74v-470q0 -76 31 -111t111 -35q42 0 69 10t43 28.5t22 45.5t6 62v470h73v-466z" />
<glyph unicode="&#xdb;" horiz-adv-x="588" d="M181 725l-20 36l134 91l134 -90l-21 -37l-114 63zM508 208q0 -46 -11.5 -85t-37.5 -67.5t-67.5 -44.5t-101.5 -16q-111 0 -161 51.5t-50 154.5v473h74v-470q0 -76 31 -111t111 -35q42 0 69 10t43 28.5t22 45.5t6 62v470h73v-466z" />
<glyph unicode="&#xdc;" horiz-adv-x="588" d="M418 739h-67v84h67v-84zM235 739h-67v84h67v-84zM508 208q0 -46 -11.5 -85t-37.5 -67.5t-67.5 -44.5t-101.5 -16q-111 0 -161 51.5t-50 154.5v473h74v-470q0 -76 31 -111t111 -35q42 0 69 10t43 28.5t22 45.5t6 62v470h73v-466z" />
<glyph unicode="&#xdd;" horiz-adv-x="465" d="M266 850h84l-98 -124h-61zM269 283v-283h-71v283l-193 391h84l83 -175l64 -139l57 129l87 185h80z" />
<glyph unicode="&#xde;" horiz-adv-x="501" d="M391 347q0 35 -6.5 63t-23.5 48t-46.5 31t-74.5 11q-26 0 -48 -0.5t-39 -1.5v-300q15 -2 35 -2.5t50 -0.5q43 0 72.5 11t47.5 31.5t25.5 48.5t7.5 61zM153 558q21 1 45 1h50q117 0 168 -54.5t51 -154.5q0 -48 -14.5 -87t-43 -67t-72 -43.5t-100.5 -15.5h-42q-21 0 -42 1 v-138h-74v674h74v-116z" />
<glyph unicode="&#xdf;" horiz-adv-x="487" d="M464 130q0 -65 -40.5 -100t-106.5 -35q-27 0 -49.5 4t-42.5 12l12 57q14 -6 33 -10t42 -4q42 0 61.5 21t19.5 50t-12.5 49.5t-31 37.5t-40.5 32.5t-40.5 35t-31 44.5t-12.5 62q0 38 16 62.5t35 44.5t35 42t16 55q0 14 -4 28.5t-14 26t-26 19t-40 7.5q-51 0 -75 -36.5 t-24 -95.5v-539h-70v537q0 89 44.5 140.5t128.5 51.5q72 0 111 -36.5t39 -96.5q0 -44 -16 -70.5t-35.5 -46t-35.5 -38.5t-16 -48q0 -26 12.5 -45t31.5 -36t41 -33.5t41 -37t31.5 -47.5t12.5 -64z" />
<glyph unicode="&#xe0;" horiz-adv-x="479" d="M341 69q-26 -22 -46.5 -36.5t-39.5 -23t-38 -12t-41 -3.5q-29 0 -53.5 11t-42 31t-27.5 48t-10 61q0 72 59.5 110.5t194.5 38.5h39v20q0 33 -3.5 59.5t-15 45t-33 28.5t-57.5 10t-71.5 -9t-75.5 -23l-14 54q45 17 87.5 27t83.5 10q90 0 130 -41.5t40 -138.5v-336h-57z M291 236q-53 0 -87 -5.5t-54 -16t-27.5 -27t-7.5 -37.5q0 -40 21.5 -67t57.5 -27t67 16.5t75 57.5v106h-45zM225 571l-130 132l67 28l113 -141z" />
<glyph unicode="&#xe1;" horiz-adv-x="479" d="M341 69q-26 -22 -46.5 -36.5t-39.5 -23t-38 -12t-41 -3.5q-29 0 -53.5 11t-42 31t-27.5 48t-10 61q0 72 59.5 110.5t194.5 38.5h39v20q0 33 -3.5 59.5t-15 45t-33 28.5t-57.5 10t-71.5 -9t-75.5 -23l-14 54q45 17 87.5 27t83.5 10q90 0 130 -41.5t40 -138.5v-336h-57z M291 236q-53 0 -87 -5.5t-54 -16t-27.5 -27t-7.5 -37.5q0 -40 21.5 -67t57.5 -27t67 16.5t75 57.5v106h-45zM237 571l-50 19l113 141l67 -28z" />
<glyph unicode="&#xe2;" horiz-adv-x="479" d="M341 69q-26 -22 -46.5 -36.5t-39.5 -23t-38 -12t-41 -3.5q-29 0 -53.5 11t-42 31t-27.5 48t-10 61q0 72 59.5 110.5t194.5 38.5h39v20q0 33 -3.5 59.5t-15 45t-33 28.5t-57.5 10t-71.5 -9t-75.5 -23l-14 54q45 17 87.5 27t83.5 10q90 0 130 -41.5t40 -138.5v-336h-57z M291 236q-53 0 -87 -5.5t-54 -16t-27.5 -27t-7.5 -37.5q0 -40 21.5 -67t57.5 -27t67 16.5t75 57.5v106h-45zM330 571l-96 82l-95 -82l-28 34l124 126l124 -125z" />
<glyph unicode="&#xe3;" horiz-adv-x="479" d="M341 69q-26 -22 -46.5 -36.5t-39.5 -23t-38 -12t-41 -3.5q-29 0 -53.5 11t-42 31t-27.5 48t-10 61q0 72 59.5 110.5t194.5 38.5h39v20q0 33 -3.5 59.5t-15 45t-33 28.5t-57.5 10t-71.5 -9t-75.5 -23l-14 54q45 17 87.5 27t83.5 10q90 0 130 -41.5t40 -138.5v-336h-57z M291 236q-53 0 -87 -5.5t-54 -16t-27.5 -27t-7.5 -37.5q0 -40 21.5 -67t57.5 -27t67 16.5t75 57.5v106h-45zM386 717q2 -13 2 -25q0 -35 -18 -60q-24 -33 -69 -33q-26 0 -43.5 11t-31 24.5t-26 24.5t-27.5 11q-44 0 -44 -64h-42q-2 13 -2 24q0 35 18 60q24 32 69 32 q26 0 43.5 -11t30.5 -23l26 -24q13 -11 28 -11q44 0 44 64h42z" />
<glyph unicode="&#xe4;" horiz-adv-x="479" d="M341 69q-26 -22 -46.5 -36.5t-39.5 -23t-38 -12t-41 -3.5q-29 0 -53.5 11t-42 31t-27.5 48t-10 61q0 72 59.5 110.5t194.5 38.5h39v20q0 33 -3.5 59.5t-15 45t-33 28.5t-57.5 10t-71.5 -9t-75.5 -23l-14 54q45 17 87.5 27t83.5 10q90 0 130 -41.5t40 -138.5v-336h-57z M291 236q-53 0 -87 -5.5t-54 -16t-27.5 -27t-7.5 -37.5q0 -40 21.5 -67t57.5 -27t67 16.5t75 57.5v106h-45zM112 631v85h65v-85h-65zM291 631v85h65v-85h-65z" />
<glyph unicode="&#xe5;" horiz-adv-x="479" d="M341 69q-26 -22 -46.5 -36.5t-39.5 -23t-38 -12t-41 -3.5q-29 0 -53.5 11t-42 31t-27.5 48t-10 61q0 72 59.5 110.5t194.5 38.5h39v20q0 33 -3.5 59.5t-15 45t-33 28.5t-57.5 10t-71.5 -9t-75.5 -23l-14 54q45 17 87.5 27t83.5 10q90 0 130 -41.5t40 -138.5v-336h-57z M291 236q-53 0 -87 -5.5t-54 -16t-27.5 -27t-7.5 -37.5q0 -40 21.5 -67t57.5 -27t67 16.5t75 57.5v106h-45zM293 662q0 26 -12.5 42.5t-45.5 16.5q-30 0 -43.5 -16.5t-13.5 -43.5q0 -26 12.5 -43t44.5 -17t45 17t13 44zM346 662q0 -45 -25.5 -74t-85.5 -29t-85 25.5 t-25 76.5q0 45 26 73.5t86 28.5q57 0 83 -25t26 -76z" />
<glyph unicode="&#xe6;" horiz-adv-x="753" d="M632 302q0 30 -5.5 58t-18.5 49.5t-34 34.5t-51 13q-32 0 -54 -14.5t-35.5 -38t-19.5 -52.5t-7 -58h225v8zM359 97q-45 -50 -87 -76.5t-99 -26.5q-28 0 -52 11t-41 31t-27 48t-10 61q0 72 59.5 110.5t194.5 38.5h39v20q0 33 -3.5 59.5t-15 45t-33 28.5t-57.5 10t-71.5 -9 t-75.5 -23l-14 54q45 17 87 27t84 10q58 0 95 -18t51 -67q18 38 55 61.5t91 23.5q41 0 73.5 -15.5t55 -44t34 -69t11.5 -89.5q0 -14 -0.5 -31.5t-2.5 -30.5h-293q0 -94 30 -137t96 -43q12 0 29.5 1.5t36.5 4.5t39 7.5t38 10.5l14 -50q-89 -35 -171 -35q-62 0 -101 24.5 t-59 77.5zM291 236q-53 0 -87 -5.5t-54 -16t-27.5 -27t-7.5 -37.5q0 -40 21 -67t56 -27t70 22t80 76q-3 19 -4.5 42t-1.5 40h-45z" />
<glyph unicode="&#xe7;" horiz-adv-x="374" d="M359 39q-28 -20 -61.5 -32t-74.5 -12q-33 0 -64.5 11t-56 39.5t-39 78t-14.5 126.5q0 68 13.5 118t38 83t59 49t75.5 16q33 0 63 -11t56 -30l-23 -54q-20 14 -42.5 23t-48.5 9t-47.5 -10t-37.5 -33.5t-25 -61.5t-9 -93q0 -56 9.5 -93.5t25 -60.5t36 -32.5t42.5 -9.5 q29 0 53 8.5t50 23.5zM183 -187h-58l48 138h75z" />
<glyph unicode="&#xe8;" horiz-adv-x="467" d="M346 302q0 30 -6 58t-19 49.5t-34 34.5t-51 13q-32 0 -53.5 -14.5t-35 -38t-20 -52.5t-7.5 -58h226v8zM403 30q-88 -35 -168 -35q-48 0 -83 14t-58 44.5t-34 79.5t-11 119q0 130 51 197t142 67q41 0 73.5 -15.5t55 -44t34 -69t11.5 -89.5q0 -14 -0.5 -31.5t-1.5 -30.5 h-294q0 -94 30 -137t95 -43q13 0 30.5 1.5t37 4.5t39.5 7.5t38 10.5zM224 571l-130 132l67 28l113 -141z" />
<glyph unicode="&#xe9;" horiz-adv-x="467" d="M346 302q0 30 -6 58t-19 49.5t-34 34.5t-51 13q-32 0 -53.5 -14.5t-35 -38t-20 -52.5t-7.5 -58h226v8zM403 30q-88 -35 -168 -35q-48 0 -83 14t-58 44.5t-34 79.5t-11 119q0 130 51 197t142 67q41 0 73.5 -15.5t55 -44t34 -69t11.5 -89.5q0 -14 -0.5 -31.5t-1.5 -30.5 h-294q0 -94 30 -137t95 -43q13 0 30.5 1.5t37 4.5t39.5 7.5t38 10.5zM248 571l-50 19l113 141l67 -28z" />
<glyph unicode="&#xea;" horiz-adv-x="467" d="M346 302q0 30 -6 58t-19 49.5t-34 34.5t-51 13q-32 0 -53.5 -14.5t-35 -38t-20 -52.5t-7.5 -58h226v8zM403 30q-88 -35 -168 -35q-48 0 -83 14t-58 44.5t-34 79.5t-11 119q0 130 51 197t142 67q41 0 73.5 -15.5t55 -44t34 -69t11.5 -89.5q0 -14 -0.5 -31.5t-1.5 -30.5 h-294q0 -94 30 -137t95 -43q13 0 30.5 1.5t37 4.5t39.5 7.5t38 10.5zM328 571l-96 82l-95 -82l-28 34l124 126l124 -125z" />
<glyph unicode="&#xeb;" horiz-adv-x="467" d="M346 302q0 30 -6 58t-19 49.5t-34 34.5t-51 13q-32 0 -53.5 -14.5t-35 -38t-20 -52.5t-7.5 -58h226v8zM403 30q-88 -35 -168 -35q-48 0 -83 14t-58 44.5t-34 79.5t-11 119q0 130 51 197t142 67q41 0 73.5 -15.5t55 -44t34 -69t11.5 -89.5q0 -14 -0.5 -31.5t-1.5 -30.5 h-294q0 -94 30 -137t95 -43q13 0 30.5 1.5t37 4.5t39.5 7.5t38 10.5zM113 631v85h65v-85h-65zM292 631v85h65v-85h-65z" />
<glyph unicode="&#xec;" horiz-adv-x="218" d="M74 0v510h70v-510h-70zM113 571l-130 132l67 28l113 -141z" />
<glyph unicode="&#xed;" horiz-adv-x="218" d="M74 0v510h70v-510h-70zM110 571l-50 19l113 141l67 -28z" />
<glyph unicode="&#xee;" horiz-adv-x="218" d="M74 0v510h70v-510h-70zM206 571l-96 82l-95 -82l-28 34l124 126l124 -125z" />
<glyph unicode="&#xef;" horiz-adv-x="218" d="M74 0v510h70v-510h-70zM-11 631v85h65v-85h-65zM168 631v85h65v-85h-65z" />
<glyph unicode="&#xf0;" horiz-adv-x="473" d="M354 273q0 10 -0.5 24t-2 29t-3.5 28l-2 23q-33 35 -66 54.5t-56 19.5t-42 -14.5t-33 -40.5t-21.5 -61.5t-7.5 -78.5q0 -38 5 -73.5t18 -63.5t36 -45t58 -17q64 0 90.5 52t26.5 164zM318 624q57 -74 81.5 -161t24.5 -179q0 -143 -46 -216q-44 -73 -141 -73h-3h-3 q-51 0 -85.5 20t-56 55.5t-31 82.5t-9.5 101q0 60 11.5 108t32.5 81.5t50 52t64 18.5h3q24 0 56.5 -16.5t62.5 -43.5q-25 80 -74 144l-99 -42l-28 46l90 38q-15 15 -34 30t-41 29l62 31q23 -15 42 -31t36 -33l103 44l28 -45z" />
<glyph unicode="&#xf1;" horiz-adv-x="499" d="M356 0v316q0 27 -5 51.5t-15 43t-25.5 30t-37.5 11.5q-53 0 -129 -72v-380h-70v510h57l8 -69q26 22 46.5 36.5t38.5 23t35 12t36 3.5q60 0 95.5 -48.5t35.5 -131.5v-336h-70zM398 717q2 -13 2 -25q0 -35 -18 -60q-24 -33 -69 -33q-26 0 -43.5 11t-31 24.5t-26 24.5 t-27.5 11q-44 0 -44 -64h-42q-2 13 -2 24q0 35 18 60q24 32 69 32q26 0 43.5 -11t30.5 -23l26 -24q13 -11 28 -11q44 0 44 64h42z" />
<glyph unicode="&#xf2;" horiz-adv-x="501" d="M381 255q0 44 -6.5 81t-22 63.5t-40.5 41t-61 14.5q-37 0 -62 -15t-40.5 -42t-22 -63.5t-6.5 -79.5q0 -44 6.5 -80.5t22 -63t40.5 -41t61 -14.5q37 0 62 15t40.5 41.5t22 63t6.5 79.5zM453 257q0 -57 -12 -105t-36.5 -83t-63 -54.5t-91.5 -19.5h-3q-104 0 -151 64 t-47 194q0 57 11.5 105.5t36.5 83.5t63.5 54.5t91.5 19.5h2q104 0 151.5 -64t47.5 -195zM242 571l-130 132l67 28l113 -141z" />
<glyph unicode="&#xf3;" horiz-adv-x="501" d="M381 255q0 44 -6.5 81t-22 63.5t-40.5 41t-61 14.5q-37 0 -62 -15t-40.5 -42t-22 -63.5t-6.5 -79.5q0 -44 6.5 -80.5t22 -63t40.5 -41t61 -14.5q37 0 62 15t40.5 41.5t22 63t6.5 79.5zM453 257q0 -57 -12 -105t-36.5 -83t-63 -54.5t-91.5 -19.5h-3q-104 0 -151 64 t-47 194q0 57 11.5 105.5t36.5 83.5t63.5 54.5t91.5 19.5h2q104 0 151.5 -64t47.5 -195zM263 571l-50 19l113 141l67 -28z" />
<glyph unicode="&#xf4;" horiz-adv-x="501" d="M381 255q0 44 -6.5 81t-22 63.5t-40.5 41t-61 14.5q-37 0 -62 -15t-40.5 -42t-22 -63.5t-6.5 -79.5q0 -44 6.5 -80.5t22 -63t40.5 -41t61 -14.5q37 0 62 15t40.5 41.5t22 63t6.5 79.5zM453 257q0 -57 -12 -105t-36.5 -83t-63 -54.5t-91.5 -19.5h-3q-104 0 -151 64 t-47 194q0 57 11.5 105.5t36.5 83.5t63.5 54.5t91.5 19.5h2q104 0 151.5 -64t47.5 -195zM348 571l-96 82l-95 -82l-28 34l124 126l124 -125z" />
<glyph unicode="&#xf5;" horiz-adv-x="501" d="M381 255q0 44 -6.5 81t-22 63.5t-40.5 41t-61 14.5q-37 0 -62 -15t-40.5 -42t-22 -63.5t-6.5 -79.5q0 -44 6.5 -80.5t22 -63t40.5 -41t61 -14.5q37 0 62 15t40.5 41.5t22 63t6.5 79.5zM453 257q0 -57 -12 -105t-36.5 -83t-63 -54.5t-91.5 -19.5h-3q-104 0 -151 64 t-47 194q0 57 11.5 105.5t36.5 83.5t63.5 54.5t91.5 19.5h2q104 0 151.5 -64t47.5 -195zM401 717q2 -13 2 -25q0 -35 -18 -60q-24 -33 -69 -33q-26 0 -43.5 11t-31 24.5t-26 24.5t-27.5 11q-44 0 -44 -64h-42q-2 13 -2 24q0 35 18 60q24 32 69 32q26 0 43.5 -11t30.5 -23 l26 -24q13 -11 28 -11q44 0 44 64h42z" />
<glyph unicode="&#xf6;" horiz-adv-x="501" d="M381 255q0 44 -6.5 81t-22 63.5t-40.5 41t-61 14.5q-37 0 -62 -15t-40.5 -42t-22 -63.5t-6.5 -79.5q0 -44 6.5 -80.5t22 -63t40.5 -41t61 -14.5q37 0 62 15t40.5 41.5t22 63t6.5 79.5zM453 257q0 -57 -12 -105t-36.5 -83t-63 -54.5t-91.5 -19.5h-3q-104 0 -151 64 t-47 194q0 57 11.5 105.5t36.5 83.5t63.5 54.5t91.5 19.5h2q104 0 151.5 -64t47.5 -195zM129 631v85h65v-85h-65zM308 631v85h65v-85h-65z" />
<glyph unicode="&#xf7;" d="M237 436v101h76v-101h-76zM237 59v100h76v-100h-76zM59 269v58h432v-58h-432z" />
<glyph unicode="&#xf8;" horiz-adv-x="506" d="M299 448q-21 7 -48 7q-37 0 -62 -15.5t-40.5 -42.5t-22.5 -64.5t-7 -80.5q0 -53 9 -95t34 -67zM208 63q10 -4 22.5 -5.5t25.5 -1.5q36 0 61.5 15.5t41 43t22.5 64.5t7 80q0 52 -9 94t-34 68zM371 488q46 -30 66.5 -88t20.5 -142q0 -56 -11.5 -104t-36 -83.5t-63 -55.5 t-92.5 -20h-3q-37 0 -66 8l-54 -139h-57l60 159q-46 29 -66 87t-20 143q0 56 11 104t35.5 83.5t63 55.5t93.5 20h2q38 0 67 -8l49 127h58z" />
<glyph unicode="&#xf9;" horiz-adv-x="499" d="M143 510v-316q0 -27 4.5 -51.5t14.5 -43t26 -30t38 -11.5q53 0 129 72v380h70v-510h-57l-9 69q-26 -22 -46.5 -36.5t-38.5 -23t-34.5 -12t-35.5 -3.5q-60 0 -95.5 48.5t-35.5 131.5v336h70zM234 571l-130 132l67 28l113 -141z" />
<glyph unicode="&#xfa;" horiz-adv-x="499" d="M143 510v-316q0 -27 4.5 -51.5t14.5 -43t26 -30t38 -11.5q53 0 129 72v380h70v-510h-57l-9 69q-26 -22 -46.5 -36.5t-38.5 -23t-34.5 -12t-35.5 -3.5q-60 0 -95.5 48.5t-35.5 131.5v336h70zM265 571l-50 19l113 141l67 -28z" />
<glyph unicode="&#xfb;" horiz-adv-x="499" d="M143 510v-316q0 -27 4.5 -51.5t14.5 -43t26 -30t38 -11.5q53 0 129 72v380h70v-510h-57l-9 69q-26 -22 -46.5 -36.5t-38.5 -23t-34.5 -12t-35.5 -3.5q-60 0 -95.5 48.5t-35.5 131.5v336h70zM344 571l-96 82l-95 -82l-28 34l124 126l124 -125z" />
<glyph unicode="&#xfc;" horiz-adv-x="499" d="M143 510v-316q0 -27 4.5 -51.5t14.5 -43t26 -30t38 -11.5q53 0 129 72v380h70v-510h-57l-9 69q-26 -22 -46.5 -36.5t-38.5 -23t-34.5 -12t-35.5 -3.5q-60 0 -95.5 48.5t-35.5 131.5v336h70zM123 631v85h65v-85h-65zM302 631v85h65v-85h-65z" />
<glyph unicode="&#xfd;" horiz-adv-x="394" d="M259 47q-14 -51 -30 -88.5t-35.5 -65.5t-44 -48.5t-55.5 -36.5l-32 52q34 19 59.5 46.5t42.5 81.5l-150 522h78l97 -359l15 -71h1l21 94l82 336h77zM224 571l-50 19l113 141l67 -28z" />
<glyph unicode="&#xfe;" horiz-adv-x="488" d="M369 255q0 88 -26 142.5t-73 54.5q-54 0 -126 -74v-246q42 -43 69.5 -58.5t50.5 -15.5q22 0 41.5 14t33.5 40t22 62.5t8 80.5zM287 516q36 0 64 -18.5t47.5 -52.5t30 -81.5t10.5 -105.5q0 -63 -12.5 -112.5t-35 -83t-53 -51t-67.5 -17.5q-14 0 -28 3t-29 11t-32 20.5 t-38 32.5v-245l-70 -9v913l70 10v-285q40 36 74 53.5t69 17.5z" />
<glyph unicode="&#xff;" horiz-adv-x="394" d="M259 47q-14 -51 -30 -88.5t-35.5 -65.5t-44 -48.5t-55.5 -36.5l-32 52q34 19 59.5 46.5t42.5 81.5l-150 522h78l97 -359l15 -71h1l21 94l82 336h77zM80 631v85h65v-85h-65zM259 631v85h65v-85h-65z" />
<glyph unicode="&#x131;" horiz-adv-x="218" d="M74 0v510h70v-510h-70z" />
<glyph unicode="&#x152;" horiz-adv-x="740" d="M391 609q-18 3 -37.5 5t-44.5 2q-99 0 -139 -71.5t-40 -207.5q0 -65 8.5 -116.5t29.5 -87.5t56 -55.5t88 -19.5q44 0 79 6v545zM403 0q-26 -2 -51 -3.5t-39 -1.5h-7q-69 0 -117 20t-78 61.5t-43 105.5t-13 152q0 345 254 345h6q23 0 45.5 -2t45.5 -3h290v-62h-232v-233 h210v-62h-210v-255h235v-62h-296z" />
<glyph unicode="&#x153;" horiz-adv-x="798" d="M677 302q0 30 -6 58t-19 49.5t-34 34.5t-51 13q-32 0 -53.5 -14.5t-35 -38t-20 -52.5t-7.5 -58h226v8zM381 255q0 44 -6.5 81t-22 63.5t-40.5 41t-61 14.5q-37 0 -62 -15t-40.5 -42t-22 -63.5t-6.5 -79.5q0 -44 6.5 -80.5t22 -63t40.5 -41t61 -14.5q37 0 62 15t40.5 41.5 t22 63t6.5 79.5zM419 418q23 50 63 74t91 24q41 0 73.5 -15.5t55 -44t34 -69t11.5 -89.5q0 -14 -0.5 -31.5t-1.5 -30.5h-294q0 -94 30 -137t95 -43q13 0 30.5 1.5t37 4.5t39.5 7.5t38 10.5l13 -50q-88 -35 -169 -35q-58 0 -97.5 22.5t-57.5 73.5q-18 -42 -59 -69t-101 -27 h-3q-104 0 -151 64t-47 194q0 57 11.5 105.5t36.5 83.5t63.5 54.5t91.5 19.5h2q123 0 165 -98z" />
<glyph unicode="&#x178;" horiz-adv-x="465" d="M360 739h-67v84h67v-84zM177 739h-67v84h67v-84zM269 283v-283h-71v283l-193 391h84l83 -175l64 -139l57 129l87 185h80z" />
<glyph unicode="&#x2c6;" horiz-adv-x="400" d="M295 571l-96 82l-95 -82l-28 34l124 126l124 -125z" />
<glyph unicode="&#x2da;" horiz-adv-x="400" d="M258 662q0 26 -12.5 42.5t-45.5 16.5q-30 0 -43.5 -16.5t-13.5 -43.5q0 -26 12.5 -43t44.5 -17t45 17t13 44zM311 662q0 -45 -25.5 -74t-85.5 -29t-85 25.5t-25 76.5q0 45 26 73.5t86 28.5q57 0 83 -25t26 -76z" />
<glyph unicode="&#x2dc;" horiz-adv-x="400" d="M352 717q2 -13 2 -25q0 -35 -18 -60q-24 -33 -69 -33q-26 0 -43.5 11t-31 24.5t-26 24.5t-27.5 11q-44 0 -44 -64h-42q-2 13 -2 24q0 35 18 60q24 32 69 32q26 0 43.5 -11t30.5 -23l26 -24q13 -11 28 -11q44 0 44 64h42z" />
<glyph unicode="&#x2000;" horiz-adv-x="430" />
<glyph unicode="&#x2001;" horiz-adv-x="860" />
<glyph unicode="&#x2002;" horiz-adv-x="430" />
<glyph unicode="&#x2003;" horiz-adv-x="860" />
<glyph unicode="&#x2004;" horiz-adv-x="286" />
<glyph unicode="&#x2005;" horiz-adv-x="215" />
<glyph unicode="&#x2006;" horiz-adv-x="143" />
<glyph unicode="&#x2007;" horiz-adv-x="143" />
<glyph unicode="&#x2008;" horiz-adv-x="107" />
<glyph unicode="&#x2009;" horiz-adv-x="172" />
<glyph unicode="&#x200a;" horiz-adv-x="47" />
<glyph unicode="&#x2010;" horiz-adv-x="258" d="M37 254v62h191v-62h-191z" />
<glyph unicode="&#x2011;" horiz-adv-x="258" d="M37 254v62h191v-62h-191z" />
<glyph unicode="&#x2013;" horiz-adv-x="500" d="M0 268v61h500v-61h-500z" />
<glyph unicode="&#x2014;" horiz-adv-x="1000" d="M100 268v61h800v-61h-800z" />
<glyph unicode="&#x2018;" horiz-adv-x="253" d="M164 769l55 -17l-87 -267l-82 25z" />
<glyph unicode="&#x2019;" horiz-adv-x="253" d="M106 485l-56 17l88 267l81 -24z" />
<glyph unicode="&#x201a;" horiz-adv-x="264" d="M87 -172l-55 16l87 267l81 -24z" />
<glyph unicode="&#x201c;" horiz-adv-x="450" d="M363 767l53 -16l-87 -265l-77 24zM164 767l53 -16l-89 -263l-78 24z" />
<glyph unicode="&#x201d;" horiz-adv-x="450" d="M103 487l-53 16l87 264l78 -23zM302 486l-52 17l89 263l77 -24z" />
<glyph unicode="&#x201e;" horiz-adv-x="463" d="M86 -169l-53 16l86 264l78 -24zM284 -170l-52 16l89 264l77 -24z" />
<glyph unicode="&#x2022;" d="M410 299q0 -29 -10.5 -53.5t-29 -42.5t-43 -28.5t-52.5 -10.5t-52.5 10.5t-43 28.5t-29 42.5t-10.5 53.5q0 28 10.5 52.5t29 42.5t43 28.5t52.5 10.5t52.5 -10.5t43 -28.5t29 -42.5t10.5 -52.5z" />
<glyph unicode="&#x2026;" horiz-adv-x="691" d="M88 0v97h77v-97h-77zM307 0v97h77v-97h-77zM526 0v97h77v-97h-77z" />
<glyph unicode="&#x202f;" horiz-adv-x="172" />
<glyph unicode="&#x2039;" horiz-adv-x="331" d="M194 78l-139 219l140 221l52 -19l-109 -200l109 -202z" />
<glyph unicode="&#x203a;" horiz-adv-x="331" d="M137 518l139 -219l-140 -221l-51 18l108 201l-108 202z" />
<glyph unicode="&#x205f;" horiz-adv-x="215" />
<glyph unicode="&#x20ac;" d="M98 430q17 112 76.5 168.5t159.5 56.5q36 0 80.5 -10.5t79.5 -26.5l-19 -55q-23 10 -62 20.5t-77 10.5q-75 0 -113.5 -43t-51.5 -121h200v-54h-205q-1 -11 -1.5 -24t-0.5 -27v-24q0 -12 1 -25h206v-53h-201q4 -41 14.5 -72t29.5 -52t48 -31.5t70 -10.5q14 0 33.5 2.5 t39.5 7t40 10.5t35 12l18 -54q-43 -19 -90.5 -29.5t-87.5 -10.5q-55 0 -94 13t-66 41t-42.5 71t-22.5 103h-76v53h72q-1 14 -1 24v22q0 11 0.5 25t1.5 29h-73v54h79z" />
<glyph unicode="&#x2122;" horiz-adv-x="623" d="M142 626v-234h-56v234h-78v48h211v-48h-77zM542 392l-33 221l-65 -221h-65l-58 221l-26 -221h-56l45 282h75l56 -218l65 218h73l47 -282h-58z" />
</font>
</defs>
</svg>
