<?xml version="1.0" standalone="no"?>
<!DOCTYPE svg PUBLIC "-//W3C//DTD SVG 1.1//EN" "http://www.w3.org/Graphics/SVG/1.1/DTD/svg11.dtd" >
<svg xmlns="http://www.w3.org/2000/svg">
<metadata>
This is a custom SVG webfont generated by Font Squirrel.
Copyright   : Copyright Lucas de Groot 2003 All rights reserved Published by LucasFonts wwwLucasFontscom
Designer    : Lucas de Groot
Foundry     : Lucas de Groot
Foundry URL : httpwwwLucasFontscom
</metadata>
<defs>
<font id="webfontiYCcirC0" horiz-adv-x="1126" >
<font-face units-per-em="2048" ascent="1638" descent="-410" />
<missing-glyph horiz-adv-x="438" />
<glyph unicode=" "  horiz-adv-x="438" />
<glyph unicode="&#x09;" horiz-adv-x="438" />
<glyph unicode="&#xa0;" horiz-adv-x="438" />
<glyph unicode="!" horiz-adv-x="616" d="M504 440h-348v940h348v-940zM506 0h-350v315h350v-315z" />
<glyph unicode="&#x22;" horiz-adv-x="1001" d="M858 936h-295v543h295v-543zM408 936h-295v543h295v-543z" />
<glyph unicode="#" horiz-adv-x="1200" d="M1143 823h-158l-24 -239h159v-238h-182l-33 -346h-282l34 346h-196l-33 -346h-281l33 346h-129v238h152l24 239h-153v236h176l31 321h282l-31 -321h195l31 321h280l-30 -321h135v-236zM705 823h-195l-25 -239h195z" />
<glyph unicode="$" horiz-adv-x="974" d="M918 399q0 -145 -79 -247.5t-227 -143.5v-246h-231v238q-166 16 -334 119l107 231q162 -86 286 -86q63 0 99 29t36 82q0 47 -37.5 85t-94 63.5t-123 64.5t-123 80t-94 115.5t-37.5 168.5q0 145 86 243.5t229 125.5v203h231v-199q156 -27 277 -106l-107 -224 q-162 82 -262 82q-123 0 -123 -102q0 -49 53.5 -91t130 -79t153.5 -83t130.5 -129t53.5 -194z" />
<glyph unicode="%" horiz-adv-x="1490" d="M698 1049q0 -350 -340 -351q-190 0 -252.5 80t-62.5 271q0 170 75 263t265 93q186 0 250.5 -87t64.5 -269zM1305 1380l-875 -1380h-252l873 1380h254zM465 1051q0 109 -19.5 150.5t-76.5 41.5q-55 0 -76 -44t-21 -148q0 -100 19.5 -142.5t75.5 -42.5q51 0 74.5 42.5 t23.5 142.5zM1440 328q0 -352 -342 -353q-193 0 -254.5 80t-61.5 271q0 170 75 263t265 93q188 0 253 -86t65 -268zM1204 330q0 106 -18.5 148t-75.5 42q-55 0 -75.5 -44t-20.5 -146.5t18.5 -144.5t73.5 -42q51 0 74.5 43.5t23.5 143.5z" />
<glyph unicode="&#x26;" horiz-adv-x="1525" d="M1442 883q-76 -29 -150 -64q106 -188 107 -323q0 -229 -173 -375t-511 -146q-328 0 -485.5 118t-157.5 327q0 117 59 203t160 114q-72 33 -115 108t-43 165q0 170 109.5 282.5t322.5 112.5q174 0 330 -74l-84 -235q-111 43 -221 43q-72 0 -106.5 -35t-34.5 -90 q0 -57 40.5 -90t112.5 -33h35v-285h-45q-82 0 -126 -41t-44 -108q0 -199 317 -199q156 0 236 58.5t80 150.5q0 84 -72 201q-61 -33 -143 -84l-113 233q279 176 602 297z" />
<glyph unicode="'" horiz-adv-x="532" d="M420 936h-307v543h307v-543z" />
<glyph unicode="(" horiz-adv-x="704" d="M127 651q0 485 258 928l287 -49q-213 -444 -213 -885q0 -416 211 -850l-295 -55q-248 448 -248 911z" />
<glyph unicode=")" horiz-adv-x="704" d="M578 668q0 -485 -256 -928l-287 51q213 444 213 883q0 418 -211 852l293 53q248 -440 248 -911z" />
<glyph unicode="*" horiz-adv-x="946" d="M897 963l-119 -207l-209 153l29 -258h-244l29 258l-209 -153l-121 207l240 104l-240 104l121 207l209 -153l-29 260h244l-29 -260l209 153l119 -207l-238 -102z" />
<glyph unicode="+" d="M1022 489h-324v-354h-270v354h-324v252h324v353h270v-353h324v-252z" />
<glyph unicode="," horiz-adv-x="567" d="M516 281l-258 -627l-258 67l170 650z" />
<glyph unicode="-" horiz-adv-x="577" d="M522 449h-461v276h461v-276z" />
<glyph unicode="." horiz-adv-x="559" d="M457 0h-355v348h355v-348z" />
<glyph unicode="/" horiz-adv-x="911" d="M926 1638l-611 -1935h-321l612 1935h320z" />
<glyph unicode="0" horiz-adv-x="1189" d="M1133 666q0 -141 -27 -258t-86 -218.5t-171 -158t-269 -56.5q-133 0 -230.5 41t-153 103.5t-87 159t-42 184.5t-10.5 203q0 145 28 263t88 217t171 154.5t266 55.5q131 0 228.5 -40t153 -102.5t88 -157.5t43 -185t10.5 -205zM774 665.5q0 198.5 -40 303t-140 104.5 t-139 -104.5t-39 -302.5q0 -201 39 -303.5t139 -102.5t140 103.5t40 302z" />
<glyph unicode="1" horiz-adv-x="710" d="M606 0h-348v995l-205 -92l-45 295l303 133h295v-1331z" />
<glyph unicode="2" horiz-adv-x="997" d="M934 0h-883v264l291 309q199 213 199 345q0 147 -148 147q-90 0 -241 -88l-105 235q211 143 430 144q211 0 317.5 -101.5t106.5 -283.5q0 -260 -242 -486l-204 -196h479v-289z" />
<glyph unicode="3" horiz-adv-x="997" d="M936 391q0 -201 -136 -308.5t-364 -107.5q-229 0 -418 121l97 228q141 -74 270 -74q84 0 126 39t42 96q0 78 -53.5 116t-202.5 38h-96v262h88q133 0 190.5 30.5t57.5 118.5q0 129 -142 129q-109 0 -260 -84l-94 226q217 135 440 135q211 0 314.5 -97.5t103.5 -259.5 q0 -115 -48 -193.5t-124 -105.5q100 -25 154.5 -105.5t54.5 -203.5z" />
<glyph unicode="4" horiz-adv-x="1069" d="M1044 233h-124v-233h-349v233h-544v259l383 839h510v-807h124v-291zM571 524v516h-2l-241 -516h243z" />
<glyph unicode="5" horiz-adv-x="993" d="M938 424q0 -227 -137 -338t-373 -111q-244 0 -414 117l90 234q143 -70 271 -70q94 0 140 37t46 119q0 92 -49 124.5t-203 32.5q-125 0 -217 -16l80 778h688l-18 -291h-412l-18 -204q164 8 271.5 -16.5t160.5 -85t73.5 -132.5t20.5 -178z" />
<glyph unicode="6" horiz-adv-x="1097" d="M1047 461q0 -236 -138.5 -361t-355.5 -125q-152 0 -250 39t-151.5 125t-74 198t-20.5 281q0 164 27 291t89.5 231.5t176 160t277.5 55.5q211 0 350 -70l-72 -244q-127 39 -266 39q-238 0 -238 -284v-2q129 76 261 75q201 0 293 -103t92 -306zM700 432q0 88 -27.5 128 t-113.5 40q-78 0 -156 -47q0 -166 33 -237.5t115 -71.5q80 0 114.5 46t34.5 142z" />
<glyph unicode="7" horiz-adv-x="905" d="M872 1069l-391 -1069h-379l410 1036h-471v295h831v-262z" />
<glyph unicode="8" horiz-adv-x="1107" d="M721 332q0 68 -45 114t-131 93q-78 -49 -118 -93.5t-40 -107.5q0 -115 168 -115q82 0 124 30t42 79zM1051 346q0 -170 -125 -270.5t-377 -100.5h-6q-485 0 -486 338q0 201 215 359q-184 119 -184 329q0 164 119 259.5t352 95.5h4q457 0 457 -322q0 -190 -186 -332 q217 -137 217 -356zM705 1008q0 104 -154 104q-72 0 -110 -27.5t-38 -70.5q0 -61 40 -103.5t118 -85.5q70 43 107 84.5t37 98.5z" />
<glyph unicode="9" horiz-adv-x="1097" d="M51 870q0 236 138.5 361t355.5 125q152 0 250 -39t151 -125t73.5 -197.5t20.5 -281.5q0 -164 -27.5 -291t-90 -231.5t-178 -160t-279.5 -55.5q-207 0 -356 72l71 244q135 -41 275 -41q242 0 241 287v2q-133 -78 -260 -78q-201 0 -293 103t-92 306zM397 899q0 -88 28 -128 t112 -40q78 0 157 49q0 166 -32.5 236.5t-114.5 70.5q-80 0 -115 -46t-35 -142z" />
<glyph unicode=":" horiz-adv-x="643" d="M510 0h-354v348h354v-348zM510 711h-354v348h354v-348z" />
<glyph unicode=";" horiz-adv-x="653" d="M510 711h-354v348h354v-348zM557 281l-258 -627l-258 67l170 650z" />
<glyph unicode="&#x37e;" horiz-adv-x="653" d="M510 711h-354v348h354v-348zM557 281l-258 -627l-258 67l170 650z" />
<glyph unicode="&#x3c;" d="M956 43l-843 436v264l843 439v-342l-510 -228l510 -223v-346z" />
<glyph unicode="=" d="M1018 715h-909v252h909v-252zM1018 262h-909v252h909v-252z" />
<glyph unicode="&#x3e;" d="M1014 479l-844 -436v342l510 225l-510 226v346l844 -439v-264z" />
<glyph unicode="?" horiz-adv-x="858" d="M797 1077q0 -98 -41 -175t-89.5 -120t-89 -108.5t-40.5 -141.5v-92h-334v86q0 94 22.5 166t56 114t66.5 75.5t55.5 70.5t22.5 80q0 96 -127 96q-78 0 -182 -38l-47 249q184 66 350 66q180 0 278.5 -87t98.5 -241zM545 0h-350v315h350v-315z" />
<glyph unicode="@" horiz-adv-x="2004" d="M1901 836q0 -348 -172.5 -513t-471.5 -165h-200l-2 96q-154 -117 -256 -117q-109 0 -171.5 78t-62.5 236q0 254 98.5 440t270.5 186q66 0 115 -28.5t112 -85.5l37 96h227l-106 -678q311 0 311 436q0 217 -114.5 319.5t-419.5 102.5q-344 0 -521.5 -211t-177.5 -606 q0 -252 115 -360.5t379 -108.5h379l-29 -205q-180 -29 -395 -29q-365 0 -544 161t-179 521q0 512 262 788.5t741 276.5q397 0 586 -167.5t189 -462.5zM1100 784q-57 63 -101 64q-82 0 -118 -129q-37 -125 -37 -238q0 -98 67 -98q49 0 136 70z" />
<glyph unicode="A" horiz-adv-x="1110" d="M1106 0h-356l-45 219h-324l-45 -219h-338l301 1380h510zM666 487l-121 586h-6l-119 -586h246z" />
<glyph unicode="B" horiz-adv-x="1099" d="M1055 426q0 -211 -146.5 -319.5t-392.5 -108.5q-70 0 -210 1t-210 1v1378q283 4 412 4q242 0 371 -85t129 -287q0 -217 -174 -283q104 -25 162.5 -106.5t58.5 -194.5zM684 979q0 72 -41 105.5t-160 33.5q-27 0 -59 -4v-283h51q125 0 167 38t42 110zM705 422 q0 76 -48.5 116t-183.5 40q-8 0 -23.5 -1.5t-25.5 -1.5v-309q23 -2 70 -2q129 0 170 43t41 115z" />
<glyph unicode="C" horiz-adv-x="935" d="M915 66q-170 -90 -360 -91q-260 0 -379 162t-119 549q0 354 137.5 536.5t387.5 182.5q180 0 327 -82l-71 -260q-106 53 -199 53q-113 0 -169 -95t-56 -331q0 -244 54 -332t163 -88q94 0 213 60z" />
<glyph unicode="D" horiz-adv-x="1218" d="M1159 700q0 -356 -160.5 -530t-500.5 -174q-180 0 -402 4v1380q279 4 426 4q342 0 489.5 -149.5t147.5 -534.5zM801 696q0 221 -60.5 319.5t-214.5 98.5q-57 0 -86 -2v-842q57 -4 88 -4q147 0 210 103.5t63 326.5z" />
<glyph unicode="E" horiz-adv-x="907" d="M852 0h-756v1380h750v-276h-404v-260h365v-275h-365v-290h410v-279z" />
<glyph unicode="F" horiz-adv-x="847" d="M807 1100h-365v-275h328v-278h-328v-547h-346v1380h711v-280z" />
<glyph unicode="G" horiz-adv-x="1146" d="M1069 88q-96 -53 -225 -83t-238 -30q-301 0 -425 156t-124 555q0 362 142.5 540.5t437.5 178.5q227 0 418 -127l-94 -244q-162 86 -273 86q-143 0 -208.5 -98t-65.5 -332q0 -248 48 -338t163 -90q55 0 104 19v430h340v-623z" />
<glyph unicode="H" horiz-adv-x="1243" d="M1147 0h-348v565h-355v-565h-348v1380h348v-526h355v526h348v-1380z" />
<glyph unicode="I" horiz-adv-x="540" d="M444 0h-348v1380h348v-1380z" />
<glyph unicode="J" horiz-adv-x="702" d="M606 440q0 -217 -112.5 -335.5t-296.5 -118.5q-117 0 -197 20l4 273q78 -12 121 -13q76 0 104.5 46t28.5 143v925h348v-940z" />
<glyph unicode="K" horiz-adv-x="1077" d="M1118 0h-407l-267 567h-6v-567h-342v1380h342v-534h6l240 534h381l-320 -637z" />
<glyph unicode="L" horiz-adv-x="763" d="M752 0h-656v1380h348v-1099h308v-281z" />
<glyph unicode="M" horiz-adv-x="1630" d="M1581 0h-336l-51 938h-2l-238 -938h-290l-238 938h-2l-53 -938h-322l101 1380h473l204 -786h2l203 786h449z" />
<glyph unicode="N" horiz-adv-x="1234" d="M1139 0h-371l-360 772v-772h-312v1380h385l346 -729v729h312v-1380z" />
<glyph unicode="O" horiz-adv-x="1292" d="M1235 694q0 -719 -586 -719h-14q-172 0 -287 46.5t-177 141.5t-88 219t-26 302q0 721 584 721h16q172 0 287 -46t177.5 -142.5t88 -220.5t25.5 -302zM872 692q0 229 -49 330.5t-176 101.5q-125 0 -176 -99t-51 -335q0 -229 49 -330.5t176 -101.5q123 0 175 100.5 t52 333.5z" />
<glyph unicode="P" horiz-adv-x="1091" d="M1071 932q0 -211 -132 -339t-400 -128h-95v-465h-348v1378q111 4 451 4q524 1 524 -450zM717 924q0 102 -38 147t-138 45q-68 0 -97 -2v-381q25 -2 93 -2q98 0 139 47.5t41 145.5z" />
<glyph unicode="Q" horiz-adv-x="1292" d="M1149 240l149 -152l-202 -203l-152 158q-117 -68 -295 -68h-14q-172 0 -287 46.5t-177 141.5t-88 219t-26 302q0 721 584 721h16q172 0 287 -46t177.5 -142.5t88 -220.5t25.5 -302q0 -282 -86 -454zM862 485q20 70 21 207q0 227 -52.5 329.5t-181.5 102.5 q-125 0 -177 -100t-52 -334q0 -246 45 -341t168 -95q61 0 96 27l-129 133l172 170z" />
<glyph unicode="R" horiz-adv-x="1130" d="M1106 0h-393l-187 555h-90v-555h-340v1378q123 4 459 4q506 0 506 -395q0 -125 -51.5 -217t-147.5 -135zM707 969q0 74 -37 111.5t-144 37.5q-29 0 -90 -4v-299h90q181 0 181 154z" />
<glyph unicode="S" horiz-adv-x="962" d="M934 410q0 -211 -132 -323t-335 -112q-219 0 -430 127l113 252q172 -94 292 -94q137 0 138 123q0 57 -55.5 101t-133.5 83t-155.5 88.5t-133 137.5t-55.5 206q0 190 124 298t327 108q207 0 395 -117l-113 -235q-160 78 -260 77q-129 0 -129 -108q0 -53 56.5 -96 t136.5 -82t158.5 -88t135 -138t56.5 -208z" />
<glyph unicode="T" horiz-adv-x="872" d="M860 1092h-250v-1092h-348v1092h-250v288h848v-288z" />
<glyph unicode="U" horiz-adv-x="1236" d="M1141 508q0 -526 -535 -526q-264 0 -387 117.5t-123 359.5v921h346v-903q0 -123 39 -173t139.5 -50t137.5 52t37 169v905h346v-872z" />
<glyph unicode="V" horiz-adv-x="1081" d="M1085 1380l-309 -1380h-481l-301 1380h354l174 -860l25 -190l24 190l166 860h348z" />
<glyph unicode="W" horiz-adv-x="1724" d="M1720 1380l-280 -1380h-445l-118 629l-29 211h-2l-27 -211l-117 -629h-456l-240 1380h354l123 -743l27 -254h2l35 252l125 745h389l133 -743l35 -254h2l29 254l114 743h346z" />
<glyph unicode="X" horiz-adv-x="1118" d="M1087 1380l-299 -651l330 -729h-397l-143 342l-37 119h-2l-35 -115l-135 -346h-373l319 719l-288 661h393l110 -303l31 -104h2l35 108l113 299h376z" />
<glyph unicode="Y" horiz-adv-x="995" d="M1036 1380l-370 -880v-500h-326v500l-381 880h381l104 -301l66 -188l61 184l105 305h360z" />
<glyph unicode="Z" horiz-adv-x="958" d="M911 0h-864v244l449 850h-428v286h809v-243l-437 -848h471v-289z" />
<glyph unicode="[" horiz-adv-x="763" d="M672 -352h-529v1990h523v-249h-215v-1489h221v-252z" />
<glyph unicode="\" horiz-adv-x="911" d="M918 -297h-322l-612 1935h321z" />
<glyph unicode="]" horiz-adv-x="763" d="M94 1638h527v-1990h-525v252h217v1489h-219v249z" />
<glyph unicode="^" d="M1073 803h-356l-162 405l-160 -405h-338l275 618h465z" />
<glyph unicode="_" horiz-adv-x="1024" d="M1024 -399h-1024v237h1024v-237z" />
<glyph unicode="`" horiz-adv-x="778" d="M563 1194l-227 -51l-270 289l288 65z" />
<glyph unicode="a" horiz-adv-x="1019" d="M614 436h-61q-111 0 -153 -25.5t-42 -76.5q0 -45 27 -76t66 -31q70 0 163 92v117zM645 102q-147 -129 -303 -129q-133 0 -219 96.5t-86 254t131 246.5t389 89h57v27q0 78 -29.5 115t-109.5 37q-129 0 -336 -68l-61 213q242 102 450 102q227 0 317.5 -81.5t90.5 -270.5 v-733h-268z" />
<glyph unicode="b" horiz-adv-x="1034" d="M985 545q0 -281 -103.5 -426.5t-260.5 -145.5q-66 0 -119 29t-127 98l-27 -100h-260v1436l322 51v-506q131 104 247 104q147 0 237.5 -136t90.5 -404zM657 537q0 254 -112 254q-57 0 -135 -72v-377q74 -74 129 -74q118 1 118 269z" />
<glyph unicode="c" horiz-adv-x="745" d="M670 317l65 -266q-129 -76 -282 -76q-203 0 -303.5 127t-100.5 422q0 274 113.5 417.5t314.5 143.5q131 0 250 -67l-65 -268q-66 39 -125 38q-74 0 -114 -56t-40 -204q0 -250 145 -249q48 -1 142 38z" />
<glyph unicode="d" horiz-adv-x="1036" d="M948 0h-268l-21 98q-158 -125 -280 -125q-150 0 -240 136.5t-90 404.5q0 279 103.5 425t263.5 146q102 0 211 -94v445l321 51v-1487zM627 340v381q-76 70 -129 70q-119 0 -119 -269q0 -254 110 -254q60 0 138 72z" />
<glyph unicode="e" horiz-adv-x="991" d="M928 63q-207 -88 -439 -88q-244 0 -342 133.5t-98 415.5q0 561 471 561q184 0 300 -117.5t116 -361.5q0 -104 -10 -178h-555q0 -104 37.5 -150.5t123.5 -46.5q152 0 338 50zM625 651v15q0 176 -127 176t-131 -191h258z" />
<glyph unicode="f" horiz-adv-x="581" d="M608 1470l-20 -227q-27 6 -72 6q-86 0 -86 -102v-88h139v-250h-137v-809h-321v809h-111v250h111v94q0 334 331 334q86 -1 166 -17z" />
<glyph unicode="g" horiz-adv-x="1032" d="M948 68q0 -438 -438 -439q-186 0 -287 19l-45 217h275q106 0 141 37t35 118v78q-127 -106 -250 -106q-150 0 -240 135t-90 397q0 272 104.5 416.5t262.5 144.5q63 0 116.5 -27.5t126.5 -96.5l25 98h264v-991zM627 354v365q-76 72 -129 72q-119 0 -119 -261 q0 -250 110 -249q60 -1 138 73z" />
<glyph unicode="h" horiz-adv-x="1044" d="M958 0h-321v639q0 152 -90 152q-61 0 -137 -70v-721h-322v1436l322 51v-506q131 104 270 104q129 0 203.5 -90t74.5 -272v-723z" />
<glyph unicode="i" horiz-adv-x="495" d="M410 1196h-322v283h322v-283zM410 0h-322v1059h322v-1059z" />
<glyph unicode="j" horiz-adv-x="499" d="M412 1196h-322v283h322v-283zM412 115q0 -168 -57.5 -276.5t-196.5 -209.5l-193 170q74 74 99.5 138.5t25.5 148.5v973h322v-944z" />
<glyph unicode="k" horiz-adv-x="962" d="M985 0h-369l-204 475h-2v-475h-322v1436l322 51v-834h2l180 406h342l-221 -449z" />
<glyph unicode="l" horiz-adv-x="495" d="M410 0h-322v1436l322 51v-1487z" />
<glyph unicode="m" horiz-adv-x="1585" d="M1499 0h-321v639q0 152 -88 152q-61 0 -138 -70v-721h-317v639q0 152 -88 152q-61 0 -137 -70v-721h-322v1059h266l23 -98q88 72 155.5 98t145.5 26q158 0 229 -131q96 76 165 103.5t149 27.5q129 0 203.5 -90t74.5 -272v-723z" />
<glyph unicode="n" horiz-adv-x="1044" d="M958 0h-321v639q0 152 -90 152q-61 0 -137 -70v-721h-322v1059h266l23 -98q88 72 155.5 98t147.5 26q129 0 203.5 -90t74.5 -272v-723z" />
<glyph unicode="o" horiz-adv-x="1040" d="M991 532q0 -262 -118.5 -409.5t-354.5 -147.5h-6q-236 0 -349.5 124t-113.5 425q0 266 118 413.5t355 147.5h6q236 0 349.5 -125t113.5 -428zM666 528q0 133 -33 202t-113 69q-145 0 -145 -271q0 -131 32.5 -198.5t110.5 -67.5q148 0 148 266z" />
<glyph unicode="p" horiz-adv-x="1032" d="M985 545q0 -281 -103.5 -426.5t-260.5 -145.5q-104 0 -211 95v-398l-322 -41v1430h266l23 -98q154 125 280 124q147 0 237.5 -136t90.5 -404zM657 537q0 254 -112 254q-57 0 -135 -72v-381q76 -70 129 -70q118 1 118 269z" />
<glyph unicode="q" horiz-adv-x="1032" d="M379 -27q-150 0 -240 136.5t-90 404.5q0 279 103.5 425t263.5 146q63 0 116.5 -27.5t126.5 -96.5l25 98h264v-1389l-321 -41v447q-133 -103 -248 -103zM498 791q-119 0 -119 -269q0 -254 110 -254q59 0 138 72v379q-76 72 -129 72z" />
<glyph unicode="r" horiz-adv-x="675" d="M653 745h-69q-86 0 -174 -73v-672h-322v1059h258l27 -123q86 92 130 120.5t107 28.5h43v-340z" />
<glyph unicode="s" horiz-adv-x="792" d="M754 319q0 -162 -106.5 -253t-272.5 -91q-178 0 -344 93l92 229q123 -66 211 -66q92 0 92 72q0 33 -27.5 57.5t-117.5 65.5q-242 100 -242 332q0 147 98.5 237t268.5 90q166 0 317 -84l-88 -217q-129 57 -201 58q-82 0 -82 -68q0 -35 29 -58.5t117 -62.5 q139 -55 197.5 -137t58.5 -197z" />
<glyph unicode="t" horiz-adv-x="641" d="M608 12q-123 -37 -233 -37q-119 0 -191.5 65.5t-72.5 238.5v530h-111v250h111v278l321 45v-323h176v-250h-176v-477q0 -45 14.5 -63.5t59.5 -18.5q27 0 84 10z" />
<glyph unicode="u" horiz-adv-x="1044" d="M86 1059h322v-639q0 -152 88 -152q68 0 139 66v725h321v-1059h-266l-22 98q-152 -123 -303 -123q-129 0 -204 89.5t-75 271.5v723z" />
<glyph unicode="v" horiz-adv-x="960" d="M963 1059l-254 -1059h-457l-254 1059h352l115 -608l24 -175h3l22 173l109 610h340z" />
<glyph unicode="w" horiz-adv-x="1507" d="M1495 1059l-225 -1059h-416l-111 510h-2l-110 -510h-391l-224 1059h357l104 -703h2l156 703h262l152 -703h2l106 703h338z" />
<glyph unicode="x" horiz-adv-x="993" d="M1006 0h-377l-142 367h-2l-137 -367h-356l244 565l-216 494h363l127 -338h2l123 338h338l-211 -486z" />
<glyph unicode="y" horiz-adv-x="954" d="M963 1059l-199 -817q-57 -244 -196.5 -386.5t-358.5 -226.5l-127 234q137 55 192 155l-280 1041h354l107 -481l39 -265h2l39 291l88 455h340z" />
<glyph unicode="z" horiz-adv-x="759" d="M727 0h-696v166l297 627h-285v266h672v-166l-295 -625h307v-268z" />
<glyph unicode="{" horiz-adv-x="819" d="M203 352q0 96 -34 135t-124 39v242q94 0 126 37t32 127v219q0 121 23.5 212t79.5 162.5t160.5 101.5t254.5 11v-249q-127 4 -170 -41t-43 -197v-176q0 -141 -34 -222t-132 -106q98 -35 132 -113.5t34 -211.5v-154q0 -121 21.5 -179.5t63.5 -75.5t126 -13v-250 q-154 -20 -259.5 5.5t-159.5 94t-75.5 151.5t-21.5 197v254z" />
<glyph unicode="|" horiz-adv-x="622" d="M461 -358h-299v1996h299v-1996z" />
<glyph unicode="}" horiz-adv-x="819" d="M616 940q0 -96 33 -134t125 -38v-242q-94 0 -126 -36.5t-32 -129.5v-223q0 -123 -23.5 -214t-79.5 -162.5t-160.5 -100.5t-254.5 -10v250q127 -6 170 40t43 203v174q0 141 34 223.5t132 106.5q-92 31 -129 112t-37 214v153q0 121 -22.5 178.5t-62.5 73t-126 11.5v249 q154 20 259.5 -6t159.5 -94t75.5 -150.5t21.5 -197.5v-250z" />
<glyph unicode="~" d="M1059 1370q16 -231 -82 -352t-232 -121q-78 0 -135 30.5t-84.5 68.5t-61.5 69t-69 31q-43 0 -62.5 -40t-29.5 -134h-221q-16 231 82 352t231 121q78 0 135.5 -31t85 -69t61.5 -68.5t66 -30.5q45 0 64.5 40t30.5 134h221z" />
<glyph unicode="&#xa1;" horiz-adv-x="616" d="M467 909h-358v316h358v-316zM463 -156h-350v940h350v-940z" />
<glyph unicode="&#xa2;" horiz-adv-x="860" d="M788 305q-80 -51 -180 -65v-166h-231v164q-143 23 -216 129t-73 333q0 387 289 461v170h231v-164q102 -14 176 -65l-73 -234q-63 43 -146 43q-74 0 -111.5 -43t-37.5 -163q0 -119 36.5 -162t106.5 -43q82 0 158 41z" />
<glyph unicode="&#xa3;" horiz-adv-x="1024" d="M926 0h-867v193l107 53v303h-115v244h115v112q0 221 110.5 336t296.5 115q250 0 377 -111l-102 -213q-102 51 -215 51q-68 0 -95.5 -36.5t-27.5 -124.5v-129h240v-244h-240v-268h416v-281z" />
<glyph unicode="&#xa4;" d="M207 303q-102 102 -103 348q0 233 103 342l-154 240l279 110l121 -229q43 18 112 19h4q57 0 109 -19l121 229l266 -108l-145 -225q102 -121 102 -348q0 -223 -102 -345l149 -231l-278 -111l-115 222q-55 -18 -109 -19h-4q-68 0 -114 19l-115 -222l-268 107zM700 655 q0 213 -135 213q-137 0 -137 -213q0 -106 32 -157.5t105 -51.5q135 0 135 209z" />
<glyph unicode="&#xa5;" d="M1071 1331l-299 -655h232v-209h-279v-131h279v-207h-279v-129h-309v129h-275v207h275v131h-275v209h232l-312 655h353l88 -239l76 -215l84 233l77 221h332z" />
<glyph unicode="&#xa6;" horiz-adv-x="604" d="M471 825h-321v852h321v-852zM471 -371h-321v867h321v-867z" />
<glyph unicode="&#xa7;" d="M1030 623q0 -180 -164 -299q90 -80 90 -213q0 -197 -131 -302.5t-331 -105.5q-203 0 -379 113l110 241q139 -68 242 -67q133 0 133 96q0 53 -54 94t-131 74t-154 75t-131 122.5t-54 193.5q0 90 41 156.5t133 136.5q-33 33 -58.5 88t-25.5 109q0 180 112.5 283.5 t307.5 103.5q193 0 350 -88l-109 -236q-98 49 -196 49q-123 0 -123 -90q0 -47 54 -87t131 -77t153 -81t130 -118.5t54 -170.5zM682 563q8 31 -2 57.5t-24.5 41t-51.5 41t-49 36.5q-66 -2 -133 -47q-8 -31 3 -57.5t27.5 -40.5t52.5 -40t48 -36q63 -2 129 45z" />
<glyph unicode="&#xa8;" horiz-adv-x="819" d="M735 1204h-250v250h250v-250zM334 1204h-250v250h250v-250z" />
<glyph unicode="&#xa9;" horiz-adv-x="1667" d="M1589 690q0 -332 -214 -559t-544 -227q-328 0 -541.5 228t-213.5 558t214 558.5t541 228.5q330 0 544 -227.5t214 -559.5zM1391 690q0 256 -158 432t-401.5 176t-400.5 -175t-157 -433q0 -256 157 -432t400 -176q246 0 403 175t157 433zM1108 268q-119 -72 -281 -71 q-199 0 -290 111.5t-91 381.5q0 250 105.5 374t302.5 124q137 0 252 -64l-74 -237q-70 33 -119 33q-72 0 -106.5 -48.5t-34.5 -177.5q0 -125 34 -172t97 -47q55 0 135 31z" />
<glyph unicode="&#xaa;" horiz-adv-x="823" d="M741 385h-622v199h622v-199zM498 977h-43q-127 0 -127 -68q0 -63 59 -63q45 0 111 67v64zM537 690l-13 68q-98 -84 -221 -84q-98 0 -157.5 61.5t-59.5 163.5q0 100 94 161.5t279 61.5h39v19q0 47 -20.5 65.5t-74.5 18.5q-104 0 -239 -43l-47 151q172 61 325 62 q170 0 234.5 -52.5t64.5 -177.5v-475h-204z" />
<glyph unicode="&#xab;" horiz-adv-x="1181" d="M1067 205l-256 -70l-264 479l268 480l252 -68l-184 -408zM614 170l-254 -66l-294 510l299 512l249 -69l-213 -439z" />
<glyph unicode="&#xac;" d="M999 182h-262v307h-633v252h895v-559z" />
<glyph unicode="&#xad;" horiz-adv-x="577" d="M522 449h-461v276h461v-276z" />
<glyph unicode="&#xae;" horiz-adv-x="1320" d="M1272 999q0 -250 -181.5 -431t-431.5 -181q-258 0 -434 177t-176 435q0 250 180.5 430.5t429.5 180.5q258 0 435.5 -177.5t177.5 -433.5zM1100 995.5q0 186.5 -128 319.5t-313 133q-186 0 -312 -130t-126 -317q0 -188 127 -320t313.5 -132t312.5 130t126 316.5zM717 678 l-62 194h-49v-194h-215v637h301q244 0 244 -211q0 -121 -84 -178l98 -248h-233zM633 1159h-27v-121h27q39 0 54 14.5t15 45.5q0 37 -15 49t-54 12z" />
<glyph unicode="&#xaf;" horiz-adv-x="819" d="M741 1198h-663v221h663v-221z" />
<glyph unicode="&#x2c9;" horiz-adv-x="819" d="M741 1198h-663v221h663v-221z" />
<glyph unicode="&#xb0;" horiz-adv-x="950" d="M834 1249q0 -143 -105.5 -246.5t-251.5 -103.5q-152 0 -255 101.5t-103 248.5q0 143 105.5 246.5t252.5 103.5q150 0 253.5 -101.5t103.5 -248.5zM612 1249q0 57 -40 98.5t-95 41.5q-57 0 -97 -41t-40 -98.5t40 -98.5t97 -41q55 0 95 40t40 99z" />
<glyph unicode="&#xb1;" d="M1008 705h-316v-332h-258v332h-315v229h315v328h258v-328h316v-229zM1008 0h-889v252h889v-252z" />
<glyph unicode="&#xb2;" horiz-adv-x="870" d="M139 1319q125 84 285 84q143 0 206.5 -59.5t63.5 -155.5q0 -129 -116 -215l-93 -70h238v-203h-584v193l119 98q70 59 92.5 90t22.5 66q0 57 -66 57q-41 0 -123 -41z" />
<glyph unicode="&#xb3;" horiz-adv-x="880" d="M380.5 684q-151.5 0 -257.5 61l53 129q94 -37 176 -36q90 0 90 61q0 23 -12 37t-58 23.5t-126 7.5v147q111 -2 151.5 15.5t40.5 56.5q0 63 -80 63q-76 0 -174 -51l-45 133q125 70 279 70q141 0 211.5 -52.5t70.5 -138.5q0 -55 -31.5 -95t-80.5 -54q129 -31 129 -158 q0 -109 -92.5 -164t-244 -55z" />
<glyph unicode="&#xb4;" horiz-adv-x="819" d="M754 1432l-271 -289l-227 51l209 303z" />
<glyph unicode="&#xb5;" d="M1036 20q-104 -45 -227 -45q-90 0 -127 28t-39 85q-137 -113 -229 -113q-66 0 -86 50l-72 -365h-322l275 1399h319l-125 -645q-29 -145 58 -146q57 0 157 74l140 717h321l-141 -717q-12 -70 0 -89.5t55 -19.5q35 0 82 15z" />
<glyph unicode="&#x3bc;" d="M1036 20q-104 -45 -227 -45q-90 0 -127 28t-39 85q-137 -113 -229 -113q-66 0 -86 50l-72 -365h-322l275 1399h319l-125 -645q-29 -145 58 -146q57 0 157 74l140 717h321l-141 -717q-12 -70 0 -89.5t55 -19.5q35 0 82 15z" />
<glyph unicode="&#xb6;" horiz-adv-x="1312" d="M1270 1257h-119v-1556h-283v1556h-129v-1196q0 -385 -301 -385q-84 0 -202 21v223q150 -29 186.5 -1t36.5 173v559q-168 0 -280.5 120t-112.5 292q0 168 113.5 294t346.5 126h744v-226z" />
<glyph unicode="&#xb7;" horiz-adv-x="483" d="M416 434h-344v363h344v-363z" />
<glyph unicode="&#x22c5;" horiz-adv-x="483" d="M416 434h-344v363h344v-363z" />
<glyph unicode="&#x2219;" horiz-adv-x="483" d="M416 434h-344v363h344v-363z" />
<glyph unicode="&#xb8;" horiz-adv-x="651" d="M506 -86l-154 -266h-215l90 266h279z" />
<glyph unicode="&#xb9;" horiz-adv-x="741" d="M246 700v455l-111 -35l-51 191l180 69h275v-680h-293z" />
<glyph unicode="&#xba;" horiz-adv-x="825" d="M721 385h-606v199h606v-199zM762 1038q0 -180 -91 -271t-257 -91h-6q-176 0 -258 79t-82 277q0 174 86 268.5t260 94.5h4q176 0 260 -80t84 -277zM508 1036q0 80 -20.5 120t-73.5 40q-51 0 -71.5 -39t-20.5 -123q0 -82 20 -121t71.5 -39t73 39t21.5 123z" />
<glyph unicode="&#xbb;" horiz-adv-x="1181" d="M117 1026l254 68l264 -480l-268 -479l-250 70l184 405zM567 1059l256 67l295 -512l-299 -510l-252 68l213 438z" />
<glyph unicode="&#xbc;" horiz-adv-x="1470" d="M219 700v455l-110 -35l-52 191l183 69h272v-680h-293zM154 0l872 1380h254l-874 -1380h-252zM1323 96v-96h-260v96h-326v172l197 412h389v-387h84v-197h-84zM1063 530l-117 -239h117v239z" />
<glyph unicode="&#xbd;" horiz-adv-x="1490" d="M219 700v455l-110 -35l-52 191l183 69h272v-680h-293zM154 0l872 1380h254l-874 -1380h-252zM850 621q127 82 285 81q270 0 270 -213q0 -133 -115 -215l-94 -69h238v-205h-584v193l119 98q72 59 94 91t22 67q0 55 -65 55q-49 0 -123 -39z" />
<glyph unicode="&#xbe;" horiz-adv-x="1480" d="M305.5 684q-151.5 0 -258.5 61l53 129q94 -37 176 -36q90 0 91 61q0 23 -12.5 37t-58.5 23.5t-126 7.5v147q111 -2 151.5 15.5t40.5 56.5q0 63 -79 63q-76 0 -174 -51l-46 133q125 70 277 70q141 0 213 -52.5t72 -138.5q0 -55 -32 -95t-81 -54q129 -31 129 -158 q0 -109 -92 -164t-243.5 -55zM1348 96v-96h-261v96h-325v172l199 412h387v-387h84v-197h-84zM1087 530l-116 -239h116v239zM178 0l873 1380h254l-875 -1380h-252z" />
<glyph unicode="&#xbf;" horiz-adv-x="858" d="M59 147q0 98 41 175t90.5 120t90.5 108.5t41 141.5v92h331v-86q0 -94 -22.5 -165.5t-56 -113.5t-66.5 -76t-55.5 -70.5t-22.5 -79.5q0 -96 127 -97q86 0 184 37l47 -248q-184 -66 -352 -65q-180 0 -278.5 86.5t-98.5 240.5zM311 1225h353v-316h-353v316z" />
<glyph unicode="&#xc0;" horiz-adv-x="1110" d="M1106 0h-356l-45 219h-324l-45 -219h-338l301 1380h510zM666 487l-121 586h-6l-119 -586h246zM672 1468h-232l-264 273h332z" />
<glyph unicode="&#xc1;" horiz-adv-x="1110" d="M1106 0h-356l-45 219h-324l-45 -219h-338l301 1380h510zM666 487l-121 586h-6l-119 -586h246zM414 1468l164 273h331l-264 -273h-231z" />
<glyph unicode="&#xc2;" horiz-adv-x="1110" d="M1106 0h-356l-45 219h-324l-45 -219h-338l301 1380h510zM666 487l-121 586h-6l-119 -586h246zM539 1542l-244 -86l-59 139l305 158l305 -156l-60 -141z" />
<glyph unicode="&#xc3;" horiz-adv-x="1110" d="M1106 0h-356l-45 219h-324l-45 -219h-338l301 1380h510zM666 487l-121 586h-6l-119 -586h246zM672 1460q-63 0 -111.5 25.5t-81.5 51.5t-57 26q-61 0 -62 -86h-155q-20 121 33 198.5t176 77.5q63 0 111 -25.5t81 -51t58 -25.5q61 0 61 86h156q20 -121 -33 -199t-176 -78z " />
<glyph unicode="&#xc4;" horiz-adv-x="1110" d="M1106 0h-356l-45 219h-324l-45 -219h-338l301 1380h510zM666 487l-121 586h-6l-119 -586h246zM467 1718v-239h-250v239h250zM872 1718v-239h-249v239h249z" />
<glyph unicode="&#xc5;" horiz-adv-x="1110" d="M1106 0h-356l-45 219h-324l-45 -219h-338l301 1380h510zM666 487l-121 586h-6l-119 -586h246zM821 1558q0 -102 -70.5 -155.5t-201.5 -53.5q-137 0 -203 47.5t-66 159.5q0 96 67.5 151.5t205 55.5t203 -47t65.5 -158zM626 1558q0 39 -16 57.5t-59 18.5q-76 0 -76 -77.5 t75.5 -78t75.5 79.5z" />
<glyph unicode="&#xc6;" horiz-adv-x="1427" d="M623 0v219h-285l-76 -219h-340l488 1380h956v-276h-403v-260h364v-275h-364v-290h409v-279h-749zM623 487v596h-5l-206 -596h211z" />
<glyph unicode="&#xc7;" horiz-adv-x="935" d="M915 66q-170 -90 -360 -91q-260 0 -379 162t-119 549q0 354 137.5 536.5t387.5 182.5q180 0 327 -82l-71 -260q-106 53 -199 53q-113 0 -169 -95t-56 -331q0 -244 54 -332t163 -88q94 0 213 60zM658 -86l-154 -266h-215l90 266h279z" />
<glyph unicode="&#xc8;" horiz-adv-x="907" d="M852 0h-756v1380h750v-276h-404v-260h365v-275h-365v-290h410v-279zM621 1468h-232l-264 273h332z" />
<glyph unicode="&#xc9;" horiz-adv-x="907" d="M852 0h-756v1380h750v-276h-404v-260h365v-275h-365v-290h410v-279zM319 1468l164 273h332l-264 -273h-232z" />
<glyph unicode="&#xca;" horiz-adv-x="907" d="M852 0h-756v1380h750v-276h-404v-260h365v-275h-365v-290h410v-279zM471 1542l-244 -86l-59 139l305 158l305 -156l-59 -141z" />
<glyph unicode="&#xcb;" horiz-adv-x="907" d="M852 0h-756v1380h750v-276h-404v-260h365v-275h-365v-290h410v-279zM387 1718v-239h-250v239h250zM793 1718v-239h-250v239h250z" />
<glyph unicode="&#xcc;" horiz-adv-x="540" d="M444 0h-348v1380h348v-1380zM387 1468h-231l-265 273h332z" />
<glyph unicode="&#xcd;" horiz-adv-x="540" d="M444 0h-348v1380h348v-1380zM150 1468l163 273h332l-264 -273h-231z" />
<glyph unicode="&#xce;" horiz-adv-x="540" d="M444 0h-348v1380h348v-1380zM268 1542l-243 -86l-60 139l305 158l305 -156l-59 -141z" />
<glyph unicode="&#xcf;" horiz-adv-x="540" d="M444 0h-348v1380h348v-1380zM188 1718v-239h-249v239h249zM594 1718v-239h-250v239h250z" />
<glyph unicode="&#xd0;" horiz-adv-x="1239" d="M117 571h-97v271h97v538q279 4 426 4q342 0 489.5 -149.5t147.5 -534.5q0 -356 -161 -530t-501 -174q-176 0 -401 4v571zM612 571h-151v-301q57 -4 88 -4q147 0 209.5 103.5t62.5 326.5q0 221 -60.5 319.5t-213.5 98.5q-57 0 -86 -2v-270h151v-271z" />
<glyph unicode="&#xd1;" horiz-adv-x="1234" d="M1139 0h-371l-360 772v-772h-312v1380h385l346 -729v729h312v-1380zM739 1460q-63 0 -111 25.5t-81 51.5t-58 26q-61 0 -61 -86h-156q-20 121 33 198.5t176 77.5q63 0 111.5 -25.5t81.5 -51t57 -25.5q61 0 62 86h155q20 -121 -33 -199t-176 -78z" />
<glyph unicode="&#xd2;" horiz-adv-x="1292" d="M1235 694q0 -719 -586 -719h-14q-172 0 -287 46.5t-177 141.5t-88 219t-26 302q0 721 584 721h16q172 0 287 -46t177.5 -142.5t88 -220.5t25.5 -302zM872 692q0 229 -49 330.5t-176 101.5q-125 0 -176 -99t-51 -335q0 -229 49 -330.5t176 -101.5q123 0 175 100.5 t52 333.5zM776 1468h-231l-264 273h331z" />
<glyph unicode="&#xd3;" horiz-adv-x="1292" d="M1235 694q0 -719 -586 -719h-14q-172 0 -287 46.5t-177 141.5t-88 219t-26 302q0 721 584 721h16q172 0 287 -46t177.5 -142.5t88 -220.5t25.5 -302zM872 692q0 229 -49 330.5t-176 101.5q-125 0 -176 -99t-51 -335q0 -229 49 -330.5t176 -101.5q123 0 175 100.5 t52 333.5zM520 1468l164 273h332l-264 -273h-232z" />
<glyph unicode="&#xd4;" horiz-adv-x="1292" d="M1235 694q0 -719 -586 -719h-14q-172 0 -287 46.5t-177 141.5t-88 219t-26 302q0 721 584 721h16q172 0 287 -46t177.5 -142.5t88 -220.5t25.5 -302zM872 692q0 229 -49 330.5t-176 101.5q-125 0 -176 -99t-51 -335q0 -229 49 -330.5t176 -101.5q123 0 175 100.5 t52 333.5zM645 1542l-244 -86l-59 139l305 158l305 -156l-59 -141z" />
<glyph unicode="&#xd5;" horiz-adv-x="1292" d="M1235 694q0 -719 -586 -719h-14q-172 0 -287 46.5t-177 141.5t-88 219t-26 302q0 721 584 721h16q172 0 287 -46t177.5 -142.5t88 -220.5t25.5 -302zM872 692q0 229 -49 330.5t-176 101.5q-125 0 -176 -99t-51 -335q0 -229 49 -330.5t176 -101.5q123 0 175 100.5 t52 333.5zM776 1460q-63 0 -111.5 25.5t-81 51.5t-57.5 26q-61 0 -61 -86h-156q-20 121 33 198.5t176 77.5q63 0 111.5 -25.5t81 -51t57.5 -25.5q61 0 61 86h156q20 -121 -33 -199t-176 -78z" />
<glyph unicode="&#xd6;" horiz-adv-x="1292" d="M1235 694q0 -719 -586 -719h-14q-172 0 -287 46.5t-177 141.5t-88 219t-26 302q0 721 584 721h16q172 0 287 -46t177.5 -142.5t88 -220.5t25.5 -302zM872 692q0 229 -49 330.5t-176 101.5q-125 0 -176 -99t-51 -335q0 -229 49 -330.5t176 -101.5q123 0 175 100.5 t52 333.5zM565 1718v-239h-250v239h250zM971 1718v-239h-250v239h250z" />
<glyph unicode="&#xd7;" d="M1044 313l-176 -178l-307 309l-307 -309l-170 172l305 307l-305 308l176 176l307 -305l307 305l170 -170l-307 -307z" />
<glyph unicode="&#xd8;" horiz-adv-x="1347" d="M1026 1337q147 -74 206.5 -230.5t59.5 -412.5q0 -719 -612 -719h-14q-78 0 -134 11l-96 -267h-229l119 324q-141 72 -203 224.5t-62 416.5q0 721 611 721h16q76 0 133 -10l94 262h230zM893 1001l-264 -741q31 -10 61 -10q135 0 198.5 113.5t63.5 345t-59 292.5zM461 387 l264 737q-35 10 -70 11q-254 0 -254 -453q1 -236 60 -295z" />
<glyph unicode="&#xd9;" horiz-adv-x="1236" d="M1141 508q0 -526 -535 -526q-264 0 -387 117.5t-123 359.5v921h346v-903q0 -123 39 -173t139.5 -50t137.5 52t37 169v905h346v-872zM737 1468h-231l-264 273h331z" />
<glyph unicode="&#xda;" horiz-adv-x="1236" d="M1141 508q0 -526 -535 -526q-264 0 -387 117.5t-123 359.5v921h346v-903q0 -123 39 -173t139.5 -50t137.5 52t37 169v905h346v-872zM489 1468l164 273h332l-264 -273h-232z" />
<glyph unicode="&#xdb;" horiz-adv-x="1236" d="M1141 508q0 -526 -535 -526q-264 0 -387 117.5t-123 359.5v921h346v-903q0 -123 39 -173t139.5 -50t137.5 52t37 169v905h346v-872zM618 1542l-243 -86l-60 139l306 158l305 -156l-60 -141z" />
<glyph unicode="&#xdc;" horiz-adv-x="1236" d="M1141 508q0 -526 -535 -526q-264 0 -387 117.5t-123 359.5v921h346v-903q0 -123 39 -173t139.5 -50t137.5 52t37 169v905h346v-872zM541 1718v-239h-250v239h250zM946 1718v-239h-250v239h250z" />
<glyph unicode="&#xdd;" horiz-adv-x="995" d="M1036 1380l-370 -880v-500h-326v500l-381 880h381l104 -301l66 -188l61 184l105 305h360zM360 1468l164 273h332l-264 -273h-232z" />
<glyph unicode="&#xde;" horiz-adv-x="1091" d="M444 1167h103q524 0 524 -452q0 -213 -132 -342t-400 -129h-95v-244h-348v1380h348v-213zM717 705q0 102 -38 149t-138 47q-68 0 -97 -2v-387q25 -2 93 -2q98 0 139 48.5t41 146.5z" />
<glyph unicode="&#xdf;" horiz-adv-x="1099" d="M1081 315q0 -164 -101 -252t-265 -88q-131 0 -221 39l41 244q72 -27 127 -27q88 0 88 74q0 39 -26 74t-62.5 65.5t-73.5 68.5t-62.5 100.5t-25.5 142.5t36.5 147.5t74.5 119.5t38 95q0 104 -110 105q-63 0 -96 -46.5t-33 -123.5v-1053h-322v1040q0 217 118 328t339 111 q57 0 111.5 -7.5t114.5 -31t104.5 -59t74 -99t29.5 -145.5q0 -76 -25.5 -134.5t-55.5 -89t-55.5 -67.5t-25.5 -72q0 -43 41 -90t91 -86t91 -114t41 -169z" />
<glyph unicode="&#xe0;" horiz-adv-x="1019" d="M614 436h-61q-111 0 -153 -25.5t-42 -76.5q0 -45 27 -76t66 -31q70 0 163 92v117zM645 102q-147 -129 -303 -129q-133 0 -219 96.5t-86 254t131 246.5t389 89h57v27q0 78 -29.5 115t-109.5 37q-129 0 -336 -68l-61 213q242 102 450 102q227 0 317.5 -81.5t90.5 -270.5 v-733h-268zM647 1194l-227 -51l-270 289l288 65z" />
<glyph unicode="&#xe1;" horiz-adv-x="1019" d="M614 436h-61q-111 0 -153 -25.5t-42 -76.5q0 -45 27 -76t66 -31q70 0 163 92v117zM645 102q-147 -129 -303 -129q-133 0 -219 96.5t-86 254t131 246.5t389 89h57v27q0 78 -29.5 115t-109.5 37q-129 0 -336 -68l-61 213q242 102 450 102q227 0 317.5 -81.5t90.5 -270.5 v-733h-268zM881 1432l-271 -289l-227 51l209 303z" />
<glyph unicode="&#xe2;" horiz-adv-x="1019" d="M614 436h-61q-111 0 -153 -25.5t-42 -76.5q0 -45 27 -76t66 -31q70 0 163 92v117zM645 102q-147 -129 -303 -129q-133 0 -219 96.5t-86 254t131 246.5t389 89h57v27q0 78 -29.5 115t-109.5 37q-129 0 -336 -68l-61 213q242 102 450 102q227 0 317.5 -81.5t90.5 -270.5 v-733h-268zM821 1296l-86 -153l-225 110l-226 -110l-82 149l310 205z" />
<glyph unicode="&#xe3;" horiz-adv-x="1019" d="M614 436h-61q-111 0 -153 -25.5t-42 -76.5q0 -45 27 -76t66 -31q70 0 163 92v117zM645 102q-147 -129 -303 -129q-133 0 -219 96.5t-86 254t131 246.5t389 89h57v27q0 78 -29.5 115t-109.5 37q-129 0 -336 -68l-61 213q242 102 450 102q227 0 317.5 -81.5t90.5 -270.5 v-733h-268zM854 1454q20 -123 -33 -205t-176 -82q-63 0 -111.5 25t-81.5 50.5t-57 25.5q-35 0 -48.5 -19.5t-13.5 -62.5h-155q-20 123 33 203.5t176 80.5q63 0 111 -24.5t81 -50t57 -25.5q35 0 48.5 20.5t13.5 63.5h156z" />
<glyph unicode="&#xe4;" horiz-adv-x="1019" d="M614 436h-61q-111 0 -153 -25.5t-42 -76.5q0 -45 27 -76t66 -31q70 0 163 92v117zM645 102q-147 -129 -303 -129q-133 0 -219 96.5t-86 254t131 246.5t389 89h57v27q0 78 -29.5 115t-109.5 37q-129 0 -336 -68l-61 213q242 102 450 102q227 0 317.5 -81.5t90.5 -270.5 v-733h-268zM835 1204h-250v250h250v-250zM434 1204h-250v250h250v-250z" />
<glyph unicode="&#xe5;" horiz-adv-x="1019" d="M614 436h-61q-111 0 -153 -25.5t-42 -76.5q0 -45 27 -76t66 -31q70 0 163 92v117zM645 102q-147 -129 -303 -129q-133 0 -219 96.5t-86 254t131 246.5t389 89h57v27q0 78 -29.5 115t-109.5 37q-129 0 -336 -68l-61 213q242 102 450 102q227 0 317.5 -81.5t90.5 -270.5 v-733h-268zM778 1339q0 -102 -70.5 -155.5t-201.5 -53.5q-137 0 -203 47.5t-66 159.5q0 96 67.5 151.5t205 55.5t203 -47t65.5 -158zM583 1339q0 39 -16 57.5t-59 18.5q-76 0 -76 -77.5t75.5 -78t75.5 79.5z" />
<glyph unicode="&#xe6;" horiz-adv-x="1546" d="M612 436h-59q-111 0 -153 -25.5t-42 -76.5q0 -45 27 -76t66 -31q74 0 170 103q-9 61 -9 106zM694 137q-168 -164 -352 -164q-133 0 -219 96.5t-86 254t131 246.5t389 89h57v27q0 78 -29.5 115t-109.5 37q-129 0 -336 -68l-61 213q242 102 450 102q219 0 281 -96 q80 96 264 96q186 0 301 -117.5t115 -361.5q0 -98 -8 -178h-557q0 -104 38.5 -150.5t124.5 -46.5q150 0 336 50l60 -218q-209 -88 -439 -88q-256 0 -350 162zM1180 651v15q0 176 -127 176q-129 0 -133 -191h260z" />
<glyph unicode="&#xe7;" horiz-adv-x="745" d="M670 317l65 -266q-129 -76 -282 -76q-203 0 -303.5 127t-100.5 422q0 274 113.5 417.5t314.5 143.5q131 0 250 -67l-65 -268q-66 39 -125 38q-74 0 -114 -56t-40 -204q0 -250 145 -249q48 -1 142 38zM547 -86l-154 -266h-215l90 266h279z" />
<glyph unicode="&#xe8;" horiz-adv-x="991" d="M928 63q-207 -88 -439 -88q-244 0 -342 133.5t-98 415.5q0 561 471 561q184 0 300 -117.5t116 -361.5q0 -104 -10 -178h-555q0 -104 37.5 -150.5t123.5 -46.5q152 0 338 50zM625 651v15q0 176 -127 176t-131 -191h258zM626 1194l-227 -51l-270 289l288 65z" />
<glyph unicode="&#xe9;" horiz-adv-x="991" d="M928 63q-207 -88 -439 -88q-244 0 -342 133.5t-98 415.5q0 561 471 561q184 0 300 -117.5t116 -361.5q0 -104 -10 -178h-555q0 -104 37.5 -150.5t123.5 -46.5q152 0 338 50zM625 651v15q0 176 -127 176t-131 -191h258zM877 1432l-271 -289l-227 51l209 303z" />
<glyph unicode="&#xea;" horiz-adv-x="991" d="M928 63q-207 -88 -439 -88q-244 0 -342 133.5t-98 415.5q0 561 471 561q184 0 300 -117.5t116 -361.5q0 -104 -10 -178h-555q0 -104 37.5 -150.5t123.5 -46.5q152 0 338 50zM625 651v15q0 176 -127 176t-131 -191h258zM809 1296l-86 -153l-225 110l-226 -110l-82 149 l310 205z" />
<glyph unicode="&#xeb;" horiz-adv-x="991" d="M928 63q-207 -88 -439 -88q-244 0 -342 133.5t-98 415.5q0 561 471 561q184 0 300 -117.5t116 -361.5q0 -104 -10 -178h-555q0 -104 37.5 -150.5t123.5 -46.5q152 0 338 50zM625 651v15q0 176 -127 176t-131 -191h258zM829 1204h-250v250h250v-250zM428 1204h-250v250 h250v-250z" />
<glyph unicode="&#xec;" horiz-adv-x="495" d="M410 0h-322v1059h322v-1059zM395 1194l-227 -51l-270 289l288 65z" />
<glyph unicode="&#xed;" horiz-adv-x="495" d="M410 0h-322v1059h322v-1059zM607 1432l-271 -289l-227 51l209 303z" />
<glyph unicode="&#xee;" horiz-adv-x="495" d="M410 0h-322v1059h322v-1059zM559 1296l-86 -153l-225 110l-226 -110l-82 149l310 205z" />
<glyph unicode="&#xef;" horiz-adv-x="495" d="M410 0h-322v1059h322v-1059zM573 1204h-250v250h250v-250zM172 1204h-250v250h250v-250z" />
<glyph unicode="&#xf0;" horiz-adv-x="1015" d="M797 1235q170 -260 170 -610q0 -334 -107.5 -492t-363.5 -158h-7q-223 0 -331.5 132.5t-108.5 414.5q0 240 87 392.5t241 152.5h14q86 0 170 -68q-27 86 -84 172l-186 -47l-115 164l180 43q-55 59 -96 92l330 64q47 -39 92 -90l145 43l115 -164zM641 547q0 92 -12 170 q-27 33 -66 54.5t-67 21.5q-119 0 -119 -263q0 -127 27.5 -195.5t103.5 -68.5q74 0 103.5 65.5t29.5 215.5z" />
<glyph unicode="&#xf1;" horiz-adv-x="1044" d="M958 0h-321v639q0 152 -90 152q-61 0 -137 -70v-721h-322v1059h266l23 -98q88 72 155.5 98t147.5 26q129 0 203.5 -90t74.5 -272v-723zM859 1454q20 -123 -33 -205t-176 -82q-63 0 -111.5 25t-81.5 50.5t-57 25.5q-35 0 -48.5 -19.5t-13.5 -62.5h-155q-20 123 33 203.5 t176 80.5q63 0 111 -24.5t81 -50t57 -25.5q35 0 48.5 20.5t13.5 63.5h156z" />
<glyph unicode="&#xf2;" horiz-adv-x="1040" d="M991 532q0 -262 -118.5 -409.5t-354.5 -147.5h-6q-236 0 -349.5 124t-113.5 425q0 266 118 413.5t355 147.5h6q236 0 349.5 -125t113.5 -428zM666 528q0 133 -33 202t-113 69q-145 0 -145 -271q0 -131 32.5 -198.5t110.5 -67.5q148 0 148 266zM645 1194l-227 -51 l-270 289l288 65z" />
<glyph unicode="&#xf3;" horiz-adv-x="1040" d="M991 532q0 -262 -118.5 -409.5t-354.5 -147.5h-6q-236 0 -349.5 124t-113.5 425q0 266 118 413.5t355 147.5h6q236 0 349.5 -125t113.5 -428zM666 528q0 133 -33 202t-113 69q-145 0 -145 -271q0 -131 32.5 -198.5t110.5 -67.5q148 0 148 266zM883 1432l-271 -289 l-227 51l209 303z" />
<glyph unicode="&#xf4;" horiz-adv-x="1040" d="M991 532q0 -262 -118.5 -409.5t-354.5 -147.5h-6q-236 0 -349.5 124t-113.5 425q0 266 118 413.5t355 147.5h6q236 0 349.5 -125t113.5 -428zM666 528q0 133 -33 202t-113 69q-145 0 -145 -271q0 -131 32.5 -198.5t110.5 -67.5q148 0 148 266zM832 1296l-86 -153 l-225 110l-226 -110l-82 149l310 205z" />
<glyph unicode="&#xf5;" horiz-adv-x="1040" d="M991 532q0 -262 -118.5 -409.5t-354.5 -147.5h-6q-236 0 -349.5 124t-113.5 425q0 266 118 413.5t355 147.5h6q236 0 349.5 -125t113.5 -428zM666 528q0 133 -33 202t-113 69q-145 0 -145 -271q0 -131 32.5 -198.5t110.5 -67.5q148 0 148 266zM859 1454q20 -123 -33 -205 t-176 -82q-63 0 -111.5 25t-81.5 50.5t-57 25.5q-35 0 -48.5 -19.5t-13.5 -62.5h-155q-20 123 33 203.5t176 80.5q63 0 111 -24.5t81 -50t57 -25.5q35 0 48.5 20.5t13.5 63.5h156z" />
<glyph unicode="&#xf6;" horiz-adv-x="1040" d="M991 532q0 -262 -118.5 -409.5t-354.5 -147.5h-6q-236 0 -349.5 124t-113.5 425q0 266 118 413.5t355 147.5h6q236 0 349.5 -125t113.5 -428zM666 528q0 133 -33 202t-113 69q-145 0 -145 -271q0 -131 32.5 -198.5t110.5 -67.5q148 0 148 266zM848 1204h-250v250h250 v-250zM447 1204h-250v250h250v-250z" />
<glyph unicode="&#xf7;" d="M1022 489h-918v252h918v-252zM727 51h-328v303h328v-303zM727 877h-328v303h328v-303z" />
<glyph unicode="&#xf8;" horiz-adv-x="1095" d="M840 1030q207 -111 207 -495q0 -262 -122 -411t-374 -149h-6q-66 0 -92 7l-99 -263h-213l117 312q-209 109 -209 493q0 264 122 412.5t374 148.5h6q57 0 94 -6l84 228h213zM717 721l-174 -471q12 -2 41 -2q82 0 124 85t42 214t-33 174zM379 340l174 469q-14 4 -41 4 q-82 0 -124 -82t-42 -227q0 -123 33 -164z" />
<glyph unicode="&#xf9;" horiz-adv-x="1044" d="M86 1059h322v-639q0 -152 88 -152q68 0 139 66v725h321v-1059h-266l-22 98q-152 -123 -303 -123q-129 0 -204 89.5t-75 271.5v723zM624 1194l-227 -51l-270 289l288 65z" />
<glyph unicode="&#xfa;" horiz-adv-x="1044" d="M86 1059h322v-639q0 -152 88 -152q68 0 139 66v725h321v-1059h-266l-22 98q-152 -123 -303 -123q-129 0 -204 89.5t-75 271.5v723zM883 1432l-271 -289l-227 51l209 303z" />
<glyph unicode="&#xfb;" horiz-adv-x="1044" d="M86 1059h322v-639q0 -152 88 -152q68 0 139 66v725h321v-1059h-266l-22 98q-152 -123 -303 -123q-129 0 -204 89.5t-75 271.5v723zM830 1296l-86 -153l-225 110l-226 -110l-82 149l310 205z" />
<glyph unicode="&#xfc;" horiz-adv-x="1044" d="M86 1059h322v-639q0 -152 88 -152q68 0 139 66v725h321v-1059h-266l-22 98q-152 -123 -303 -123q-129 0 -204 89.5t-75 271.5v723zM841 1204h-250v250h250v-250zM440 1204h-250v250h250v-250z" />
<glyph unicode="&#xfd;" horiz-adv-x="954" d="M963 1059l-199 -817q-57 -244 -196.5 -386.5t-358.5 -226.5l-127 234q137 55 192 155l-280 1041h354l107 -481l39 -265h2l39 291l88 455h340zM860 1432l-271 -289l-227 51l209 303z" />
<glyph unicode="&#xfe;" horiz-adv-x="1032" d="M657 1085q147 0 237.5 -136t90.5 -404q0 -281 -103.5 -426.5t-260.5 -145.5q-104 0 -211 95v-398l-322 -41v1807l322 51v-506q130 104 247 104zM657 537q0 254 -112 254q-57 0 -135 -72v-381q76 -70 129 -70q118 1 118 269z" />
<glyph unicode="&#xff;" horiz-adv-x="954" d="M963 1059l-199 -817q-57 -244 -196.5 -386.5t-358.5 -226.5l-127 234q137 55 192 155l-280 1041h354l107 -481l39 -265h2l39 291l88 455h340zM817 1204h-250v250h250v-250zM416 1204h-250v250h250v-250z" />
<glyph unicode="&#x131;" horiz-adv-x="495" d="M410 0h-322v1059h322v-1059z" />
<glyph unicode="&#x152;" horiz-adv-x="1583" d="M1528 0h-649q-139 -25 -230 -25h-14q-172 0 -287 46.5t-177 141.5t-88 219t-26 302q0 721 584 721h16q80 0 242 -25h623v-276h-406v-260h365v-275h-365v-290h412v-279zM774 276v824q-59 25 -127 24q-125 0 -176 -99t-51 -335q0 -229 49 -330.5t176 -101.5q63 0 129 18z " />
<glyph unicode="&#x153;" horiz-adv-x="1603" d="M838 975q104 111 292 110q186 0 301 -117.5t115 -361.5q0 -104 -10 -178h-555q0 -104 38 -150.5t126 -46.5q150 0 336 50l57 -218q-207 -88 -438 -88q-201 0 -291 113q-102 -113 -291 -113h-6q-236 0 -349.5 124t-113.5 425q0 266 118 413.5t355 147.5h6q201 1 310 -110z M666 528q0 133 -33 202t-113 69q-145 0 -145 -271q0 -131 32.5 -198.5t110.5 -67.5q148 0 148 266zM1235 651v15q0 176 -125 176q-129 0 -133 -191h258z" />
<glyph unicode="&#x178;" horiz-adv-x="995" d="M1036 1380l-370 -880v-500h-326v500l-381 880h381l104 -301l66 -188l61 184l105 305h360zM426 1718v-239h-250v239h250zM831 1718v-239h-249v239h249z" />
<glyph unicode="&#x2c6;" horiz-adv-x="819" d="M719 1296l-86 -153l-225 110l-226 -110l-82 149l310 205z" />
<glyph unicode="&#x2da;" horiz-adv-x="819" d="M680 1339q0 -102 -70.5 -155.5t-201.5 -53.5q-137 0 -203 47.5t-66 159.5q0 96 67.5 151.5t205 55.5t203 -47t65.5 -158zM485 1339q0 39 -16 57.5t-59 18.5q-76 0 -76 -77.5t75.5 -78t75.5 79.5z" />
<glyph unicode="&#x2dc;" horiz-adv-x="819" d="M750 1454q20 -123 -33 -205t-176 -82q-63 0 -111.5 25t-81.5 50.5t-57 25.5q-35 0 -48.5 -19.5t-13.5 -62.5h-155q-20 123 33 203.5t176 80.5q63 0 111 -24.5t81 -50t57 -25.5q35 0 48.5 20.5t13.5 63.5h156z" />
<glyph unicode="&#x2000;" horiz-adv-x="880" />
<glyph unicode="&#x2001;" horiz-adv-x="1763" />
<glyph unicode="&#x2002;" horiz-adv-x="880" />
<glyph unicode="&#x2003;" horiz-adv-x="1763" />
<glyph unicode="&#x2004;" horiz-adv-x="587" />
<glyph unicode="&#x2005;" horiz-adv-x="440" />
<glyph unicode="&#x2006;" horiz-adv-x="292" />
<glyph unicode="&#x2007;" horiz-adv-x="292" />
<glyph unicode="&#x2008;" horiz-adv-x="219" />
<glyph unicode="&#x2009;" horiz-adv-x="352" />
<glyph unicode="&#x200a;" horiz-adv-x="96" />
<glyph unicode="&#x2010;" horiz-adv-x="577" d="M522 449h-461v276h461v-276z" />
<glyph unicode="&#x2011;" horiz-adv-x="577" d="M522 449h-461v276h461v-276z" />
<glyph unicode="&#x2012;" horiz-adv-x="577" d="M522 449h-461v276h461v-276z" />
<glyph unicode="&#x2013;" horiz-adv-x="1024" d="M1024 481h-1024v269h1024v-269z" />
<glyph unicode="&#x2014;" horiz-adv-x="2048" d="M1843 481h-1638v269h1638v-269z" />
<glyph unicode="&#x2018;" horiz-adv-x="589" d="M43 952l260 627l258 -68l-172 -649z" />
<glyph unicode="&#x2019;" horiz-adv-x="589" d="M561 1491l-258 -629l-260 68l172 649z" />
<glyph unicode="&#x201a;" horiz-adv-x="567" d="M516 281l-258 -627l-258 67l170 650z" />
<glyph unicode="&#x201c;" horiz-adv-x="1021" d="M43 971l264 598l234 -66l-183 -618zM516 956l242 607l235 -66l-162 -627z" />
<glyph unicode="&#x201d;" horiz-adv-x="1021" d="M993 1468l-262 -598l-233 66l182 618zM520 1483l-244 -606l-233 65l164 627z" />
<glyph unicode="&#x201e;" horiz-adv-x="1013" d="M958 270l-264 -596l-233 66l182 616zM485 285l-243 -604l-234 63l162 627z" />
<glyph unicode="&#x2022;" d="M999 612.5q0 -182.5 -127 -309.5t-309 -127t-309 127t-127 309q0 184 127 311.5t309 127.5t309 -128t127 -310.5z" />
<glyph unicode="&#x2026;" horiz-adv-x="1531" d="M1430 0h-326v342h326v-342zM928 0h-324v342h324v-342zM426 0h-324v342h324v-342z" />
<glyph unicode="&#x202f;" horiz-adv-x="352" />
<glyph unicode="&#x2039;" horiz-adv-x="743" d="M637 170l-268 -66l-303 510l305 512l266 -69l-207 -443z" />
<glyph unicode="&#x203a;" horiz-adv-x="743" d="M109 1059l266 67l303 -512l-305 -510l-264 68l204 442z" />
<glyph unicode="&#x205f;" horiz-adv-x="440" />
<glyph unicode="&#x20ac;" d="M176 934q90 422 516 422q186 0 344 -76l-73 -215q-106 45 -234 45q-188 0 -227 -176h299v-205h-324q0 -6 -1 -24.5t-1 -30.5q0 -43 2 -66h324v-202h-303q16 -94 68 -135.5t149 -41.5q139 0 260 56l74 -222q-172 -88 -379 -88q-227 0 -346 94.5t-160 336.5h-127v202h110 v51q0 45 3 70h-113v205h139z" />
<glyph unicode="&#x2122;" horiz-adv-x="1312" d="M1296 788h-221l-35 291l-82 -291h-188l-74 291l-28 -291h-209l92 592h250l71 -280l82 280h250zM461 1196h-113v-408h-219v408h-115v184h447v-184z" />
<glyph unicode="&#xe000;" horiz-adv-x="1060" d="M0 1060h1060v-1060h-1060v1060z" />
<glyph unicode="&#xf001;" horiz-adv-x="1064" d="M977 1196h-311v283h311v-283zM977 0h-322v809h-223v-809h-321v809h-111v250h111v94q0 168 79.5 251t247.5 83q82 0 142 -12l-5 -232q-23 6 -63 6q-82 0 -82 -102v-88h547v-1059z" />
<glyph unicode="&#xfb01;" horiz-adv-x="1064" d="M977 1196h-311v283h311v-283zM977 0h-322v809h-223v-809h-321v809h-111v250h111v94q0 168 79.5 251t247.5 83q82 0 142 -12l-5 -232q-23 6 -63 6q-82 0 -82 -102v-88h547v-1059z" />
<glyph unicode="&#xf002;" horiz-adv-x="1064" d="M977 0h-322v1237q-49 12 -110 12q-66 0 -90.5 -25.5t-24.5 -86.5v-78h115v-250h-113v-809h-321v809h-111v250h111v88q0 340 378 340q119 0 271 -35l217 35v-1487z" />
<glyph unicode="&#xfb02;" horiz-adv-x="1064" d="M977 0h-322v1237q-49 12 -110 12q-66 0 -90.5 -25.5t-24.5 -86.5v-78h115v-250h-113v-809h-321v809h-111v250h111v88q0 340 378 340q119 0 271 -35l217 35v-1487z" />
<glyph unicode="&#xfb03;" horiz-adv-x="1628" d="M1540 1196h-311v283h311v-283zM1540 0h-321v809h-224v-809h-321v809h-242v-809h-321v809h-111v250h111v94q0 334 331 334q88 0 160 -17l-20 -227q-18 6 -65.5 6t-67 -24.5t-19.5 -77.5v-88h244v94q0 334 330 334q82 0 139 -12l-4 -232q-20 6 -64 6q-82 0 -82 -102v-88 h547v-1059z" />
<glyph unicode="&#xfb04;" horiz-adv-x="1628" d="M1540 0h-321v1237q-49 12 -111 12q-66 0 -90.5 -25.5t-24.5 -86.5v-78h115v-250h-113v-809h-321v809h-242v-809h-321v809h-111v250h111v94q0 334 331 334q88 0 160 -17l-20 -227q-18 6 -65.5 6t-67 -24.5t-19.5 -77.5v-88h244v88q0 340 377 340q121 0 272 -35l217 35 v-1487z" />
</font>
</defs>
</svg>
