<svg xmlns="http://www.w3.org/2000/svg" id="Ebene_1" width="64" height="64" viewBox="0 0 64 64">
    <style>
        .st3{fill:none;stroke:#4a4a4a;stroke-width:2;stroke-miterlimit:10}
    </style>
    <path d="M32.077 32.077a9.339 9.339 0 0 1 0-13.207l3.551-3.551a9.339 9.339 0 0 1 13.207 13.207l-3.551 3.551a9.339 9.339 0 0 1-13.207 0z" class="st3"/>
    <path d="M15.166 48.68a9.339 9.339 0 0 1 0-13.207l3.551-3.551a9.339 9.339 0 0 1 13.207 13.207l-3.551 3.551a9.339 9.339 0 0 1-13.207 0zM23.252 40.905L40.15 24.007" class="st3"/>
</svg>
