<?xml version="1.0" encoding="utf-8"?>
<!-- Generator: Adobe Illustrator 22.1.0, SVG Export Plug-In . SVG Version: 6.00 Build 0)  -->
<svg version="1.1" id="Ebene_1" xmlns="http://www.w3.org/2000/svg" xmlns:xlink="http://www.w3.org/1999/xlink" x="0px" y="0px"
	 width="64px" height="64px" viewBox="0 0 64 64" style="enable-background:new 0 0 64 64;" xml:space="preserve">
<style type="text/css">
	.st0{fill-rule:evenodd;clip-rule:evenodd;fill:#F2F2F2;}
	.st1{fill:#4A4A4A;}
	.st2{fill:#B3B3B3;}
	.st3{fill:none;stroke:#4A4A4A;stroke-width:2;stroke-miterlimit:10;}
	.st4{fill-rule:evenodd;clip-rule:evenodd;fill:none;stroke:#4A4A4A;stroke-width:2;stroke-miterlimit:10;}
	.st5{fill:none;stroke:#4A4A4A;stroke-width:2;stroke-linecap:round;stroke-linejoin:round;stroke-miterlimit:10;}
	.st6{fill:none;stroke:#4A4A4A;stroke-width:2;stroke-linecap:round;stroke-miterlimit:10;}
	.st7{fill:none;stroke:#4A4A4A;stroke-width:2;stroke-linecap:square;stroke-miterlimit:10;}
</style>
<g>
	<path class="st3" d="M32.077,32.077L32.077,32.077c-3.647-3.647-3.647-9.56,0-13.207l3.551-3.551c3.647-3.647,9.56-3.647,13.207,0
		l0,0c3.647,3.647,3.647,9.56,0,13.207l-3.551,3.551C41.637,35.724,35.724,35.724,32.077,32.077z"/>
	<path class="st3" d="M15.166,48.68L15.166,48.68c-3.647-3.647-3.647-9.56,0-13.207l3.551-3.551c3.647-3.647,9.56-3.647,13.207,0
		l0,0c3.647,3.647,3.647,9.56,0,13.207l-3.551,3.551C24.726,52.327,18.813,52.327,15.166,48.68z"/>
	<line class="st3" x1="23.252" y1="40.905" x2="40.15" y2="24.007"/>
</g>
</svg>
