<svg version="1.1" id="Ebene_1" xmlns="http://www.w3.org/2000/svg" xmlns:xlink="http://www.w3.org/1999/xlink" x="0px" y="0px"
	 viewBox="0 0 512 512" style="enable-background:new 0 0 512 512;" xml:space="preserve">
<style type="text/css">
	.st0{fill:#FFCD1C;}
	.st1{fill:#1D2362;}
	.st2{display:none;fill:#1D2362;}
</style>
<path class="st0" d="M204.4,153.7H-0.2V358h145.5c-2.6-0.7-5.1-1.4-7.6-2.2l1.5-13.5c7.5,3.1,12.7,4.5,20.2,4.9
	c11.1,0.6,20.8-6.2,20.8-16.7c0.1-22-43.4-16.1-43.7-47.8c-0.1-15.9,12.9-26.8,31.2-27.1c9.4-0.1,17.9,1.5,23.1,3.6l-2.1,13.2
	c-7.7-3.4-12.9-4.3-20.1-4.2c-10.7,0.1-16.8,5.2-16.7,13.2c0.2,20.4,44.2,14.1,43.7,49.7c-0.2,14.1-9.3,23-21.5,26.7h30.3V153.7z"/>
<path class="st1" d="M195.6,331.3c0.6-35.6-43.4-29.3-43.7-49.7c-0.1-8,6-13.1,16.7-13.2c7.2-0.1,12.4,0.8,20.1,4.2l2.1-13.2
	c-5.2-2.1-13.7-3.7-23.1-3.6c-18.3,0.2-31.4,11.2-31.2,27.1c0.2,31.7,43.8,25.8,43.7,47.8c0,10.4-9.7,17.3-20.8,16.7
	c-7.5-0.4-12.7-1.7-20.2-4.9l-1.5,13.5c2.6,0.8,5.1,1.6,7.6,2.2h28.8C186.3,354.3,195.4,345.4,195.6,331.3z"/>
<path class="st2" d="M190.7,245.2H130v-10.9h-2.3v10.9H13.8v2.3h113.9V358h2.3V247.5h60.7V245.2z"/>
<path class="st1" d="M13.7,257.4h14.6V358H13.7V257.4z M104.8,257.4v42.1H56.2v-42.1H41.6V358h14.6v-45.9h48.6V358h14.6V257.4H104.8
	z"/>
<g>
	<path class="st1" d="M269.8,190l-1.7-25.7l-0.2-4.5h-0.1l-1.3,4.7l-7.8,25.5h-2.7l-7.9-25.7l-1.3-4.5h0l-0.3,4.5l-1.7,25.7h-3.4
		l2.4-33.7h5.6l6.8,22.3l1.3,4.7h0.1l1.3-4.7l6.8-22.3h5.5l2.4,33.7H269.8z"/>
	<path class="st1" d="M294.6,190l-0.5-3.4c-3.4,2.9-5.2,3.7-7.7,3.7c-3.9,0-6.5-3.5-6.5-9v-16.8h3.5v15.8c0,3.5,1.2,6.8,4.1,6.8
		c1.8,0,3.8-1.1,6.4-3.6v-19h3.5V190H294.6z"/>
	<path class="st1" d="M318.9,190v-15.8c0-3.5-1.2-6.8-4.1-6.8c-1.8,0-3.9,1.2-6.4,3.6v19h-3.5v-25.5h2.8l0.4,3.4
		c3.5-2.9,5.3-3.7,7.8-3.7c3.9,0,6.5,3.5,6.5,9V190H318.9z"/>
	<path class="st1" d="M329.8,158.6V154h3.5v4.6H329.8z M329.8,190v-25.5h3.5V190H329.8z"/>
	<path class="st1" d="M354.9,188.1c-1.9,1.3-4.1,2.2-6.8,2.2c-4.4,0-8.7-2.5-8.7-12.7c0-9.1,3.8-13.3,9.3-13.3c2.2,0,4.2,0.8,5.9,2
		l-1.1,2.7c-1.4-1-2.9-1.6-4.6-1.6c-3.4,0-5.9,2.5-5.9,9.9c0,7.4,2.7,9.8,5.6,9.8c1.9,0,3.5-0.6,5.1-1.6L354.9,188.1z"/>
	<path class="st1" d="M373.5,190v-15.8c0-3.5-1.2-6.8-4.1-6.8c-1.8,0-3.8,1.2-6.4,3.6v19h-3.5v-36l3.5-0.5v14.2
		c3.2-2.7,5-3.5,7.5-3.5c3.9,0,6.5,3.5,6.5,9V190H373.5z"/>
	<path class="st1" d="M242.2,228.2c2.3,1.2,4.6,2,7.1,2c4.1,0,6.3-2.1,6.3-5.6c0-7.9-15-6.9-15-16.9c0-5,3.5-8.4,9.4-8.4
		c2.8,0,5.7,0.8,8,2.1l-1.3,2.6c-1.9-0.9-4.4-1.7-6.6-1.7c-3.9,0-5.9,2.1-5.9,5c0,7.6,15,6.5,15,16.9c0,5.8-3.8,9.2-9.9,9.2
		c-2.7,0-5.7-0.7-8.5-2.4L242.2,228.2z"/>
	<path class="st1" d="M279.2,231.1c-1.8,1.4-4.1,2.2-6.8,2.2c-4.4,0-8.7-2.5-8.7-12.7c0-9.1,3.8-13.3,9.3-13.3c2.2,0,4.2,0.8,5.9,2
		l-1.2,2.7c-1.4-1-2.8-1.6-4.5-1.6c-3.4,0-5.9,2.5-5.9,9.9c0,7.4,2.7,9.8,5.6,9.8c1.9,0,3.4-0.6,5.1-1.6L279.2,231.1z"/>
	<path class="st1" d="M297.8,233.1v-15.8c0-3.5-1.2-6.8-4.1-6.8c-1.8,0-3.8,1.2-6.4,3.6v19h-3.5v-36l3.5-0.5v14.2
		c3.2-2.8,5-3.6,7.5-3.6c3.9,0,6.5,3.5,6.5,9v16.8H297.8z"/>
	<path class="st1" d="M317.4,233.3h-0.2c-6.9,0-9.9-4.3-9.9-12.9c0-7.6,3-13.1,10.1-13.1h0.1c6.9,0,9.9,4.3,9.9,12.9
		C327.6,227.9,324.5,233.3,317.4,233.3z M317.5,210.4c-4.9,0-6.5,4.2-6.5,10c0,5.8,1.6,9.9,6.5,9.9c4.9,0,6.5-4.2,6.5-9.9
		C324,214.5,322.3,210.4,317.5,210.4z"/>
	<path class="st1" d="M342.5,233.3h-0.1c-6.9,0-9.9-4.3-9.9-12.9c0-7.6,3.1-13.1,10.1-13.1h0.1c6.9,0,9.9,4.3,9.9,12.9
		C352.6,227.9,349.5,233.3,342.5,233.3z M342.5,210.4c-4.9,0-6.5,4.2-6.5,10c0,5.8,1.7,9.9,6.5,9.9c4.9,0,6.5-4.2,6.5-9.9
		C349,214.5,347.4,210.4,342.5,210.4z"/>
	<path class="st1" d="M358.7,233.1v-36l3.5-0.5v36.5H358.7z"/>
	<path class="st1" d="M389.1,233.3H389c-6.9,0-9.9-4.3-9.9-12.9c0-7.6,3.1-13.1,10.1-13.1h0.1c6.9,0,9.9,4.3,9.9,12.9
		C399.3,227.9,396.2,233.3,389.1,233.3z M389.2,210.4c-4.9,0-6.5,4.2-6.5,10c0,5.8,1.6,9.9,6.5,9.9c4.9,0,6.5-4.2,6.5-9.9
		C395.7,214.5,394,210.4,389.2,210.4z"/>
	<path class="st1" d="M405.8,233.1v-22.6h-4.1v-2.8h4.1v-3.5c0-4.9,2.1-7.5,6.6-7.5c1.3,0,2.2,0.2,3.1,0.4l-0.3,2.7
		c-0.7-0.1-1.8-0.2-2.5-0.2c-2.6,0-3.4,1.6-3.4,4.5v3.6h5.1v2.8h-5.1v22.6H405.8z"/>
	<path class="st1" d="M242.3,352.3v-33.6c2.6-0.1,5.8-0.1,8.4-0.1c7.8,0,10.9,3.8,10.9,10.4c0,6.3-3.8,10.6-11.5,10.6
		c-1.4,0-2.8,0-4.2-0.1v12.7H242.3z M246,336.5c1,0.1,2.2,0.2,4.2,0.2c5.7,0,7.6-3,7.6-7.4c0-4.6-1.5-7.5-7.5-7.5
		c-1.3,0-3.2,0.1-4.3,0.1V336.5z"/>
	<path class="st1" d="M281.2,352.3v-15.8c0-3.6-1.3-6.8-4.1-6.8c-1.8,0-3.8,1.2-6.4,3.6v19h-3.5v-36l3.5-0.5v14.2
		c3.2-2.7,5-3.5,7.5-3.5c3.9,0,6.5,3.5,6.5,9v16.8H281.2z"/>
	<path class="st1" d="M292.1,320.9v-4.6h3.5v4.6H292.1z M292.1,352.3v-25.5h3.5v25.5H292.1z"/>
	<path class="st1" d="M302.9,352.3v-36l3.5-0.5v36.5H302.9z"/>
	<path class="st1" d="M322.6,352.6h-0.2c-6.9,0-9.9-4.3-9.9-12.9c0-7.6,3-13.1,10.1-13.1h0.1c6.9,0,9.9,4.3,9.9,12.9
		C332.8,347.1,329.7,352.6,322.6,352.6z M322.7,329.6c-4.9,0-6.5,4.2-6.5,10c0,5.8,1.7,9.9,6.5,9.9c4.9,0,6.5-4.2,6.5-9.9
		C329.2,333.7,327.5,329.6,322.7,329.6z"/>
	<path class="st1" d="M338.2,348.1c1.8,1,3.4,1.4,5.1,1.4c3,0,4.2-1.6,4.2-3.6c0-5.5-10.4-5.2-10.4-12.9c0-3.8,3-6.4,7.1-6.4
		c2.2,0,4.3,0.7,6,1.6l-1.1,2.6c-1.4-0.6-3.1-1.3-4.8-1.3c-2.6,0-3.8,1.5-3.8,3.3c0,5.3,10.4,5,10.4,12.9c0,4.3-2.9,6.8-7.6,6.8
		c-2.5,0-4.5-0.6-6.4-1.7L338.2,348.1z"/>
	<path class="st1" d="M365.1,352.6H365c-6.9,0-9.9-4.3-9.9-12.9c0-7.6,3.1-13.1,10.1-13.1h0.1c6.9,0,9.9,4.3,9.9,12.9
		C375.3,347.1,372.2,352.6,365.1,352.6z M365.2,329.6c-4.9,0-6.5,4.2-6.5,10c0,5.8,1.6,9.9,6.5,9.9c4.9,0,6.5-4.2,6.5-9.9
		C371.7,333.7,370,329.6,365.2,329.6z"/>
	<path class="st1" d="M381.4,361.9v-35.1h2.8l0.4,3.5c3.4-2.9,5.3-3.8,7.5-3.8c4.6,0,7.5,5.1,7.5,12.9c0,8.4-3.5,13.2-8.3,13.2
		c-1.7,0-3.6-0.8-6.4-3.3v12.1L381.4,361.9z M384.9,345.8c2.6,2.4,4.5,3.6,6,3.6c3,0,5.2-3.9,5.2-9.8c0-5.8-1.9-9.8-4.9-9.8
		c-1.7,0-3.7,1.2-6.3,3.6V345.8z"/>
	<path class="st1" d="M419.9,352.3v-15.8c0-3.6-1.2-6.8-4.1-6.8c-1.8,0-3.8,1.2-6.4,3.6v19h-3.5v-36l3.5-0.5v14.2
		c3.2-2.7,5-3.5,7.5-3.5c3.9,0,6.5,3.5,6.5,9v16.8H419.9z"/>
	<path class="st1" d="M429.2,359.3c2.3-1.3,4-2.8,5.1-6.4l-7.5-26.1h3.9l4.8,17.9l0.8,3.5h0l1.1-4.7l4.1-16.8h3.8l-6.3,23.1
		c-1.9,6.8-4.1,9.7-8.2,11.9L429.2,359.3z"/>
</g>
</svg>
