<?xml version="1.0" encoding="utf-8"?><svg xmlns="http://www.w3.org/2000/svg" xmlns:xlink="http://www.w3.org/1999/xlink"><symbol viewBox="0 0 430.117 430.117" id="brand--facebook" xmlns="http://www.w3.org/2000/svg"><path d="M158.081 83.3v59.218h-43.385v72.412h43.385v215.183h89.122V214.936h59.805s5.601-34.721 8.316-72.685H247.54V92.74c0-7.4 9.717-17.354 19.321-17.354h48.557V.001h-66.021C155.878-.004 158.081 72.48 158.081 83.3z"/></symbol><symbol viewBox="0 0 512 512" id="brand--linkedin" xmlns="http://www.w3.org/2000/svg"><path d="M470.117 301.543V460.56h-92.188V312.193c0-37.271-13.334-62.707-46.703-62.707-25.473 0-40.632 17.142-47.301 33.724-2.432 5.928-3.058 14.179-3.058 22.477V460.56h-92.219s1.242-251.285 0-277.32h92.21v39.309c-.187.294-.43.611-.606.896h.606v-.896c12.251-18.869 34.13-45.824 83.102-45.824 60.673-.001 106.157 39.636 106.157 124.818zM92.183 49.558C60.635 49.558 40 70.251 40 97.463c0 26.619 20.038 47.94 50.959 47.94h.616c32.159 0 52.159-21.317 52.159-47.94-.606-27.212-20-47.905-51.551-47.905zM45.477 460.56h92.184V183.24H45.477v277.32z"/></symbol><symbol viewBox="0 0 512 512" id="brand--twitter" xmlns="http://www.w3.org/2000/svg"><path d="M492 109.5c-17.4 7.7-36 12.9-55.6 15.3 20-12 35.4-31 42.6-53.6-18.7 11.1-39.4 19.2-61.5 23.5C399.8 75.8 374.6 64 346.8 64c-53.5 0-96.8 43.4-96.8 96.9 0 7.6.8 15 2.5 22.1-80.5-4-151.9-42.6-199.6-101.3-8.3 14.3-13.1 31-13.1 48.7 0 33.6 17.2 63.3 43.2 80.7-16-.4-31-4.8-44-12.1v1.2c0 47 33.4 86.1 77.7 95-8.1 2.2-16.7 3.4-25.5 3.4-6.2 0-12.3-.6-18.2-1.8 12.3 38.5 48.1 66.5 90.5 67.3-33.1 26-74.9 41.5-120.3 41.5-7.8 0-15.5-.5-23.1-1.4C62.8 432 113.7 448 168.3 448 346.6 448 444 300.3 444 172.2c0-4.2-.1-8.4-.3-12.5C462.6 146 479 129 492 109.5z"/></symbol><symbol class="adicon--xing" viewBox="0 0 512 512" id="brand--xing" xmlns="http://www.w3.org/2000/svg"><path d="M313.8 303.9L469 32H365L209.4 303.8c-.4.7-.4 1.1 0 1.7l98.9 173.8c.4.7.8.7 1.6.7H413l-99.3-174.7c-.2-.3-.1-1 .1-1.4zm-91.9-87.7L163 113c-.5-.8-1-1-2-1H65l58.9 104.4c.1.2.2.6.1.8L43 352h96.8c.8 0 1.2-.2 1.6-.9l80.5-133.7c.1-.3.1-.9 0-1.2z"/></symbol><symbol viewBox="0 0 485.2 485.2" id="content--calendar-clock" xmlns="http://www.w3.org/2000/svg"><path d="M60.7 75.8V15.2C60.7 6.8 67.4 0 75.8 0 84.2 0 91 6.8 91 15.2v60.7C91 84.2 84.2 91 75.8 91c-8.4 0-15.1-6.8-15.1-15.2zM318.4 91c8.4 0 15.2-6.8 15.2-15.2V15.2c0-8.4-6.8-15.2-15.2-15.2-8.4 0-15.2 6.8-15.2 15.2v60.7c.1 8.3 6.8 15.1 15.2 15.1zm166.8 272.9c0 67-54.3 121.3-121.3 121.3s-121.3-54.3-121.3-121.3 54.3-121.3 121.3-121.3 121.3 54.3 121.3 121.3zm-30.3 0c0-50.2-40.8-91-91-91s-91 40.8-91 91 40.8 91 91 91 91-40.8 91-91zM121.3 182H60.7v60.7h60.7V182zM60.7 333.6h60.7v-60.7H60.7v60.7zm90.9-91h60.7V182h-60.7v60.6zm0 91h60.7v-60.7h-60.7v60.7zM30.3 360.9V151.6h333.6v60.7h30.3V94c0-18.4-14.7-33.3-32.8-33.3h-12.6v15.2c0 16.7-13.6 30.3-30.3 30.3-16.7 0-30.3-13.6-30.3-30.3V60.7h-182v15.2c0 16.7-13.6 30.3-30.3 30.3-16.7 0-30.3-13.6-30.3-30.3V60.7H32.9C14.7 60.7 0 75.6 0 94v266.9c0 18.4 14.7 33.3 32.9 33.3h179.4v-30.3H32.9c-1.4 0-2.6-1.4-2.6-3zm273-118.3V182h-60.6v60.7h60.6zm106.1 121.3h-45.5v-45.5c0-8.4-6.8-15.2-15.2-15.2s-15.2 6.8-15.2 15.2v60.7c0 8.4 6.8 15.2 15.2 15.2h60.7c8.4 0 15.2-6.8 15.2-15.2 0-8.4-6.8-15.2-15.2-15.2z"/></symbol><symbol viewBox="0 0 512 512" id="content--classroom" xmlns="http://www.w3.org/2000/svg"><path d="M467.3 16.8H221.5c-6.1 0-11.1 5-11.1 11.1v86.5l12.3-7.6c3.1-1.9 6.5-3.3 9.9-4V39h223.7v160H232.5v-25.9l-22.2 13.8v23.2c0 6.1 5 11.1 11.1 11.1h245.9c6.1 0 11.1-5 11.1-11.1V27.9c0-6.2-5-11.1-11.1-11.1z"/><path d="M306 78.4c-2.9-3.7-8.3-4.3-12-1.4l-38.2 30.1c3.6 2.4 6.8 5.6 9.3 9.5.7 1.1 1.3 2.3 1.8 3.4l37.7-29.7c3.7-2.9 4.3-8.2 1.4-11.9z"/><circle cx="121.5" cy="31.9" r="31.9"/><path d="M252 124.7c-4.5-7.2-14-9.5-21.2-5l-31.2 19.4c-.1-25.9-.1-12.1-.1-28.8C199.3 90.3 183 74 163 74h-15.2c-13 33.6-8.8 21.1-19.8 49.6l4.6-20.1c.3-1.5.1-3.1-.7-4.4l-6.3-11.4 5.6-10.1c.8-1.5-.3-3.4-2-3.4h-15.3c-1.7 0-2.8 1.8-2 3.4l5.6 10.1-6.3 11.4c-.7 1.3-1 2.9-.7 4.3l4 20.2C112.3 118 97.4 79.3 95.4 74H80.1c-20 0-36.4 16.3-36.5 36.3L43 223.5c0 8.5 6.8 15.4 15.3 15.5h.1c8.5 0 15.4-6.8 15.4-15.3l.6-113.2v-.1c0-1.7 1.4-3 3.1-3 1.7 0 3 1.4 3 3.1v160.4c14.1-.6 27.2 4.5 37 13.4v-62.6h8v71.8c5.6 8.3 8.9 18.2 8.9 29 0 9.8-2.7 18.9-7.5 26.7 4.9 0 9.6.7 14.1 1.9 6.1-5.3 13.4-9.2 21.4-11.1 0-279.3-.3-106.6-.3-229.4 0-1.8 1.4-3.2 3.2-3.2 1.8 0 3.2 1.4 3.2 3.2.1 10.8.2 44.6.3 56.4 0 5.6 3.1 10.7 8 13.4 4.9 2.7 10.8 2.6 15.6-.4l54.6-33.9c7.3-4.6 9.5-14.1 5-21.4z"/><circle cx="429.2" cy="322.8" r="33.8"/><path d="M511.5 405.8c-.1-21.2-17.4-38.4-38.6-38.4h-84.8c3.6 7.1 5.7 15.1 5.7 23.5 0 9-2.4 18.4-7.5 26.8 18.9.8 35.5 10.9 45.1 25.9H472v-37.4c0-1.8 1.5-3.4 3.3-3.4s3.4 1.3 3.5 3.2l.2 37.7h32.6l-.1-37.9zm-221-14.8c0-8.6 2.1-16.8 5.9-23.9h-75.3c3.5 6.9 5.4 14.8 5.4 23 0 9.7-2.7 18.9-7.5 26.7 15.6.1 29.9 6.5 40.3 17.3 10.1-9.8 23.8-15.9 38.8-16-5.2-8.5-7.6-18-7.6-27.1zm-25.7-102.3c-18.7 0-33.8 15.1-33.8 33.8 0 18.6 15.1 33.8 33.8 33.8 18.5 0 33.8-15 33.8-33.8 0-18.7-15.1-33.8-33.8-33.8zM123.2 390.1c0-8.3 2-16.1 5.4-23-1.5-.1 4.7 0-89.5 0C18 367.1.6 384.2.5 405.5l-.2 38.2h32.6l.2-38c0-1.9 1.5-3.4 3.4-3.4s3.4 1.5 3.4 3.4v38h45.7c9.9-15.8 26.8-25.6 45.2-26.4-4.8-8.1-7.6-17.4-7.6-27.2zM82.8 288.7c-18.7 0-33.8 15.1-33.8 33.8 0 18.6 15 33.8 33.8 33.8 18.5 0 33.8-15 33.8-33.8 0-18.7-15.1-33.8-33.8-33.8zm339.7 185.1c-.1-21.2-17.4-38.4-38.6-38.4h-85.5c-21.2 0-39.6 17.2-39.7 38.4l-.3-.9c-.1-21.1-17.3-38.4-38.6-38.4h-85.5c-21.2 0-39.6 17.2-39.7 38.4l-.2 39.1H127l.2-38.9c0-1.6 1.3-2.9 2.9-2.9s2.9 1.3 2.9 2.9V512h86.4v-38.9c0-1.7 1.4-3.1 3.1-3.1 1.7 0 3.1 1.4 3.2 3.1l.3 38.9h65.1l.2-38c0-1.6 1.3-2.9 2.9-2.9s2.9 1.3 2.9 2.9v38h86.4v-38c0-1.7 1.4-3.1 3.1-3.1 1.7 0 3.1 1.4 3.2 3.1l.2 38h32.6l-.1-38.2z"/><circle cx="175.9" cy="389.9" r="34.2"/><circle cx="342.1" cy="390.8" r="34.2"/></symbol><symbol viewBox="0 0 96.5 93.6" id="content--counseling" xmlns="http://www.w3.org/2000/svg"><path d="M88.4 5.5H68.9V3c0-1.4-1.1-2.5-2.5-2.5S63.9 1.6 63.9 3v2.5H44.4c-3.9 0-7.2 3.2-7.2 7.2v14.7c.5.6 1 1.3 1.4 1.8.3.4.9 1.2 1.3 1.7.6.2 1.4.3 2.3.5V12.6c0-1.2.9-2.1 2.1-2.1h44c1.2 0 2.1.9 2.1 2.1v36.2c0 1.2-.9 2.1-2.1 2.1h-44c-1.2 0-2.1-1-2.1-2.1v-1.3c-1.5-.2-3.3-.5-5-.9v2.2c0 3.9 3.2 7.2 7.2 7.2h19.5v24.2L54.3 88c-1.1.9-1.2 2.5-.4 3.5.5.6 1.2.9 2 .9.6 0 1.1-.2 1.6-.6l9-7.3 9 7.3c.5.4 1 .6 1.6.6.7 0 1.5-.3 2-.9.9-1.1.7-2.7-.4-3.5l-9.6-7.8V55.9h19.5c3.9 0 7.2-3.2 7.2-7.2V12.6c-.2-3.9-3.4-7.1-7.4-7.1z"/><path d="M29.3 36.2c1.7 2.2 3.2 4.2 5.2 5 4 1.8 11.1 2.3 11.9 2.4 2.1.1 3.9-1.4 4.1-3.5.2-2.1-1.4-3.9-3.5-4.1-2.5-.2-7.3-.9-9.3-1.7-.5-.3-1.6-1.8-2.4-2.8-2.6-3.5-5.9-7.8-10.7-7.8H14.4C7 23.7 2.8 33.1 1.9 36.4 1.2 39 .7 47.4.6 49.9c-.1 2.1 1.5 3.9 3.6 4h.2c2 0 3.7-1.6 3.8-3.6.2-4.8.7-10.6 1.1-11.9.3-1 .9-2.3 1.6-3.5l.2 18.4-4.8 34.8c-.3 2.4 1.3 4.6 3.8 5 2.4.3 4.6-1.3 5-3.8l4.5-32 4.5 32c.3 2.2 2.2 3.8 4.4 3.8h.6c2.4-.3 4.1-2.6 3.8-5L28 53.3l.2-18.5c.4.5.8 1.1 1.1 1.4z"/><circle cx="19.5" cy="12.2" r="8.8"/><path d="M63.7 33.5L56 31.2v5.2c0 1 .6 1.8 1.5 2.1l3.4 1c3.7 1.1 7.6 1.1 11.3 0l3.4-1c.9-.3 1.5-1.1 1.5-2.1v-5.3l-7.9 2.4c-.9.3-1.8.4-2.7.4-1 0-1.9-.1-2.8-.4z"/><path d="M82 27.3c.9-.3.9-1.6 0-1.9l-13.5-4c-1.4-.4-2.8-.4-4.1 0l-13.5 4c-.9.3-.9 1.6 0 1.9l13.5 4c1.4.4 2.8.4 4.1 0l11.6-3.5v3.1c-.2.1-.4.4-.4.7v.8c0 .3.2.6.4.7l-.7 1.7c-.1.2.1.5.3.5l.7.1h.5l.7-.1c.2 0 .4-.3.3-.5l-.7-1.7c.3-.1.4-.4.4-.7v-.8c0-.3-.2-.5-.4-.7v-3.4l.8-.2z"/></symbol><symbol viewBox="0 0 52.8 52.8" id="content--download-action" xmlns="http://www.w3.org/2000/svg"><path d="M26.1 29.1l10.5-10.5c1-1 .8-1.7-.6-1.7h-5.9V4.1c0-2.2-1.8-4-4-4s-4 1.8-4 4v12.8h-5.9c-1.5 0-1.7.7-.6 1.7l10.5 10.5z"/><path d="M49 25.8h-6c-.6 0-1 .4-1 1v17.9H10.8V26.8c0-.6-.4-1-1-1h-6c-.6 0-1 .4-1 1v20.5c0 3 2.5 5.5 5.5 5.5h36.2c3 0 5.5-2.5 5.5-5.5V26.8c0-.6-.4-1-1-1z"/></symbol><symbol id="content--icon-forschungsprojekte" viewBox="0 0 485.2 485.2" xmlns="http://www.w3.org/2000/svg"><style>.aist0{fill:#1d2362}</style><g id="ai_x30_8"><path class="aist0" d="M148.8 278.2c-8 0-15.9-3.2-21.8-9.3-2.1-2.2-4-4.8-5.4-7.5l-35.9-74.1c-1.6-3.5-2.4-6.5-2.7-9.5-1.8-12.6 4.9-25.2 16.7-30.9l83.7-40.6c3-1.5 6.5-1.4 9.4.2 2.9 1.6 4.9 4.4 5.4 7.7.2 1.1.5 2.1.9 3.1l47.7 98.3c.6 1.1 1.1 1.8 1.4 2.1 2.5 2.4 3.6 5.8 3.1 9.1-.5 3.4-2.7 6.3-5.7 7.7l-83.7 40.6c-4.2 2.1-8.7 3.1-13.1 3.1zm33.5-148.1l-73.4 35.6c-3.6 1.8-5.8 5.7-5.2 9.7.1 1.2.4 2.1.9 3.2l35.6 73.5c.4.7 1 1.7 1.8 2.4 2.8 2.9 7.2 3.7 10.9 2l73.4-35.6-44-90.8z"/><path class="aist0" d="M67.2 285.3c-3.4 0-6.7-.6-10-1.7-7.7-2.7-13.8-8.1-17.3-15.4l-10-21.6c-7.2-14.8-.9-33 14.1-40.3l48.5-23c5.2-2.5 11.4-.2 13.8 4.9 2.5 5.2.2 11.4-4.9 13.8L53 224.9c-2.2 1.1-3.9 3-4.7 5.4s-.7 5 .4 7.2l10.1 21.6c1 2.1 2.9 3.8 5.3 4.6 2.4.8 5 .7 7.2-.4l48.5-23.6c5.2-2.5 11.4-.4 13.9 4.8s.4 11.4-4.8 13.9L80.3 282c-4.2 2.3-8.6 3.3-13.1 3.3zm188.3-43.5c-8 0-16-3.2-21.8-9.3-1.9-1.8-3.9-4.5-5.4-7.6l-47.8-98.6c-1.4-3-2.2-5.9-2.7-9-1.7-13.1 5-25.7 16.7-31.4L355.6 7.7c7.2-3.5 15.4-4 23-1.4 7.7 2.6 13.9 8.1 17.4 15.4l47.7 98.5c3.5 7.2 4 15.5 1.3 23.1-2.7 7.6-8.1 13.8-15.4 17.3l-161.1 78.1c-4.1 2.1-8.6 3.1-13 3.1zM368.8 25.5c-1.4 0-2.8.3-4 .9l-161.2 78.1c-3.7 1.8-5.7 5.7-5.2 9.9.1 1 .4 2.1.9 3l47.7 98.3c.6 1.1 1.1 1.8 1.4 2.1 3.2 3.3 7.6 4.1 11.3 2.3L420.8 142c2.3-1.1 4-3 4.8-5.4.8-2.4.7-5-.4-7.2l-47.7-98.5c-1.1-2.3-3-4-5.5-4.8-1.1-.5-2.2-.6-3.2-.6zm56.4 125.8z"/><path class="aist0" d="M213.3 282.4c-16.6 0-33-5.3-46.8-15.7-2.9-2.2-4.4-5.7-4.1-9.3.4-3.6 2.6-6.8 5.8-8.3l68.3-33.1c4-2 8.9-1.1 12 2.1 2.9 3 7.3 3.8 11 2l14.4-7c3.7-1.8 8-1.2 11.2 1.4 3.1 2.6 4.5 6.8 3.4 10.8-6 21.7-21 39.7-41.2 49.4-10.8 5.1-22.4 7.7-34 7.7zm-17.5-23.6c13.8 4.5 28.9 3.6 42.5-2.9 7.1-3.4 13.4-8.3 18.4-14.1-5.9.2-11.7-1.3-16.8-4.3l-44.1 21.3z"/><path class="aist0" d="M174.7 478.4c-.9 0-1.8-.1-2.8-.4-5.5-1.5-8.8-7.2-7.3-12.8L218 270.3c1.5-5.5 7.2-8.8 12.8-7.3 5.5 1.5 8.8 7.2 7.3 12.8l-53.4 194.9c-1.3 4.6-5.5 7.7-10 7.7z"/><path class="aist0" d="M282 478.6c-4.6 0-8.8-3-10-7.6l-53.4-194.8c-1.5-5.5 1.7-11.3 7.3-12.8 5.5-1.5 11.3 1.7 12.8 7.3L292 465.5c1.5 5.5-1.7 11.3-7.3 12.8-.9.2-1.8.3-2.7.3zm-53.7.1c-5.7 0-10.4-4.7-10.4-10.4V407c0-5.7 4.7-10.4 10.4-10.4s10.4 4.7 10.4 10.4v61.3c0 5.7-4.6 10.4-10.4 10.4z"/></g></symbol><symbol id="content--icon-lehrende" viewBox="0 0 485.2 485.2" xmlns="http://www.w3.org/2000/svg"><style>.ajst0{fill:#1d2362}</style><g id="aj_x30_7"><path class="ajst0" d="M311.1 453.8H41.3c-17.5 0-31.8-14.3-31.8-31.8V152.2c0-17.5 14.3-31.8 31.8-31.8h269.8c17.5 0 31.8 14.3 31.8 31.8V422c0 5.1-1.2 10-3.6 14.5-5.2 10.5-16.3 17.3-28.2 17.3zM41.3 137c-8.4 0-15.2 6.8-15.2 15.2V422c0 8.4 6.8 15.2 15.2 15.2h269.8c5.6 0 10.9-3.2 13.4-8.3 1.2-2.2 1.7-4.5 1.7-6.9V152.2c0-8.4-6.8-15.2-15.1-15.2H41.3z"/><path class="ajst0" d="M176.2 335.8c-48.5 0-88-39.5-88-88s39.5-88 88-88 88 39.5 88 88-39.5 88-88 88zm0-159.3c-39.3 0-71.3 32-71.3 71.3s32 71.3 71.3 71.3 71.3-32 71.3-71.3-31.9-71.3-71.3-71.3z"/><path class="ajst0" d="M254.3 453.8H98.1c-4.6 0-8.3-3.7-8.3-8.3v-27.1c0-47.7 38.8-86.4 86.4-86.4s86.4 38.8 86.4 86.4v27.1c.1 4.6-3.7 8.3-8.3 8.3zm-147.9-16.7H246v-18.8c0-38.5-31.3-69.8-69.8-69.8s-69.8 31.3-69.8 69.8v18.8zM377 408.4c-2.7 0-5.4-.3-8.2-1.1-4.4-1.2-7.1-5.7-5.9-10.2 1.2-4.4 5.7-7.1 10.2-5.9 8.1 2.1 16.4-2.7 18.5-10.8l69.2-260.7c1-3.9.5-8-1.6-11.5-2-3.5-5.3-6-9.2-7L189.4 32c-3.9-1-8-.5-11.5 1.6-3.5 2-6 5.3-7 9.2l-13.8 51.9c-1.2 4.4-5.7 7.1-10.2 5.9-4.4-1.2-7.1-5.7-5.9-10.2l13.8-51.9c2.2-8.2 7.4-15 14.8-19.3 7.4-4.3 15.9-5.4 24.1-3.3l260.8 69.2c8.2 2.2 15 7.4 19.3 14.8 4.3 7.4 5.4 15.9 3.3 24.1l-69.2 260.7c-3.9 14.3-16.8 23.7-30.9 23.7z"/></g></symbol><symbol id="content--icon-semestertermine" viewBox="0 0 485.2 485.2" xmlns="http://www.w3.org/2000/svg"><style>.akst0{fill:#1d2362}</style><g id="ak_x30_4"><path class="akst0" d="M260 399.3H32.1c-16.4 0-29.8-13.4-29.8-29.8V137c0-16.4 13.4-29.8 29.8-29.8h392.4c16.4 0 29.8 13.4 29.8 29.8v57.7c0 5.2-4.2 9.4-9.4 9.4s-9.4-4.2-9.4-9.4V137c0-6.1-4.9-11-11-11H32.1c-6.1 0-11 4.9-11 11v232.4c0 6.1 4.9 11 11 11H260c5.2 0 9.4 4.2 9.4 9.4s-4.2 9.5-9.4 9.5z"/><path class="akst0" d="M52.8 126c-5.2 0-9.4-4.2-9.4-9.4V72.8c0-5.2 4.2-9.4 9.4-9.4s9.4 4.2 9.4 9.4v43.8c0 5.2-4.2 9.4-9.4 9.4zm350.3 0c-5.2 0-9.4-4.2-9.4-9.4V72.8c0-5.2 4.2-9.4 9.4-9.4s9.4 4.2 9.4 9.4v43.8c0 5.2-4.2 9.4-9.4 9.4zm-14.3 294.6c-23.1 0-45.2-8.4-62.4-23.8-19.9-17.8-31.3-43.3-31.3-69.9 0-51.7 42-93.7 93.7-93.7 23.1 0 45.3 8.5 62.4 23.8 19.9 17.7 31.3 43.2 31.3 69.9 0 51.7-42 93.7-93.7 93.7zm0-168.6c-41.3 0-74.9 33.6-74.9 74.9 0 21.3 9.1 41.7 25 55.9 13.7 12.3 31.4 19 49.8 19 41.3 0 74.9-33.6 74.9-74.9 0-21.3-9.1-41.7-25-55.9-13.7-12.2-31.4-19-49.8-19z"/><path class="akst0" d="M388.8 339.5c-5.2 0-9.4-4.2-9.4-9.4v-54.9c0-5.2 4.2-9.4 9.4-9.4s9.4 4.2 9.4 9.4V330c0 5.2-4.2 9.5-9.4 9.5z"/><path class="akst0" d="M435.8 339.5h-47c-5.2 0-9.4-4.2-9.4-9.4s4.2-9.4 9.4-9.4h47c5.2 0 9.4 4.2 9.4 9.4 0 5.1-4.2 9.4-9.4 9.4zM165.6 190.7h-36.5c-1.1 0-2-.9-2-2v-36.5c0-1.1.9-2 2-2h36.5c1.1 0 2 .9 2 2v36.5c0 1.1-.9 2-2 2zm161.1 0h-36.5c-1.1 0-2-.9-2-2v-36.5c0-1.1.9-2 2-2h36.5c1.1 0 2 .9 2 2v36.5c0 1.1-.9 2-2 2zm-80.6 0h-36.5c-1.1 0-2-.9-2-2v-36.5c0-1.1.9-2 2-2h36.5c1.1 0 2 .9 2 2v36.5c0 1.1-.9 2-2 2zM85 272.3H48.5c-1.1 0-2-.9-2-2v-36.5c0-1.1.9-2 2-2H85c1.1 0 2 .9 2 2v36.5c0 1.1-.9 2-2 2zm80.6 0h-36.5c-1.1 0-2-.9-2-2v-36.5c0-1.1.9-2 2-2h36.5c1.1 0 2 .9 2 2v36.5c0 1.1-.9 2-2 2zm80.5 0h-36.5c-1.1 0-2-.9-2-2v-36.5c0-1.1.9-2 2-2h36.5c1.1 0 2 .9 2 2v36.5c0 1.1-.9 2-2 2zM85 353.9H48.5c-1.1 0-2-.9-2-2v-36.5c0-1.1.9-2 2-2H85c1.1 0 2 .9 2 2v36.5c0 1.1-.9 2-2 2zm80.6 0h-36.5c-1.1 0-2-.9-2-2v-36.5c0-1.1.9-2 2-2h36.5c1.1 0 2 .9 2 2v36.5c0 1.1-.9 2-2 2zm241.7-163.2h-36.5c-1.1 0-2-.9-2-2v-36.5c0-1.1.9-2 2-2h36.5c1.1 0 2 .9 2 2v36.5c0 1.1-.9 2-2 2z"/></g></symbol><symbol id="content--icon-studienberatung" viewBox="0 0 485.2 485.2" xmlns="http://www.w3.org/2000/svg"><style>.alst0{fill:#1d2362}</style><g id="al_x30_1"><path class="alst0" d="M475.4 448c-1.1 0-2.1-.2-3.2-.6l-108.7-39.5c-25.5 9-52.7 13.5-80.9 13.5-47.9 0-93.9-13.6-129.7-38.2-1.2-.8-2.5-1.8-3.8-2.7l-1.5-1.1c-5.1-3.8-9.3-7.2-12.9-10.6-3.3-3-4-7.9-1.7-11.7 2.3-3.8 6.9-5.5 11.1-4 26.8 9.4 55.4 14.2 84.9 14.2 50.4 0 98.9-14.2 136.6-40.1 1.8-1.3 3.6-2.6 5.5-4 40.3-29.8 62.6-69.8 62.6-112.7 0-7-.6-13.9-1.8-20.5-.8-4.2 1.4-8.4 5.3-10.1 3.9-1.8 8.5-.7 11.1 2.6 20.4 24.9 31.2 53.9 31.2 83.8 0 35.5-15.4 69.8-43.4 97.2l46.9 69.8c2.3 3.4 2.1 7.8-.4 11-1.6 2.5-4.4 3.7-7.2 3.7zm-111.9-59.3c1.1 0 2.2.2 3.2.6l84.9 30.9-35.4-52.6c-2.6-3.9-2-9.1 1.5-12.2 27.8-24.7 43.1-56.2 43.1-88.8 0-14.7-3.1-29.1-9.1-42.9-4 44-28.3 84.4-69.6 114.8-2 1.5-4 2.9-5.9 4.3-40.8 28.1-93.1 43.5-147.3 43.5-12.7 0-25.2-.8-37.5-2.5 27.3 12.4 58.7 19.1 91 19.1 27.1 0 53.2-4.6 77.6-13.6 1.3-.4 2.4-.6 3.5-.6z"/><path class="alst0" d="M9.3 416.4c-2.8 0-5.6-1.3-7.4-3.6-2.5-3.2-2.7-7.6-.4-11l54.2-80.4c-32.3-31.1-50-70.1-50-110.6 0-55.9 32.7-107.2 89.7-140.6 3.4-2 6.9-4 10.6-5.9 36.5-18.9 79-29 123-29 111.4 0 206.5 65.3 221.3 151.8 1.4 7.5 2.1 15.5 2.1 23.7 0 49-24.9 94.3-70.1 127.7-2 1.5-4 2.9-5.9 4.3-40.8 28.1-93.1 43.5-147.3 43.5-31.6 0-62.3-5.1-91.1-15.3-.3-.1-.7-.2-1-.3L12.5 415.8c-1 .4-2.1.6-3.2.6zM229.1 53.9c-41 0-80.6 9.3-114.4 26.9-3.3 1.7-6.5 3.5-9.6 5.4-51.2 30-80.6 75.4-80.6 124.6 0 37.5 17.6 73.8 49.7 102.2 3.5 3.1 4.2 8.3 1.6 12.2l-42.6 63.3 100.6-36.6c2.1-.7 4.3-.8 6.4 0 1.2.5 2.6.9 3.8 1.3 27.1 9.5 55.7 14.3 85.2 14.3 50.4 0 98.9-14.2 136.6-40.1 1.8-1.3 3.6-2.6 5.5-4 40.3-29.8 62.6-69.8 62.6-112.7 0-7-.6-13.9-1.8-20.5-13.4-77.7-100.6-136.3-203-136.3z"/></g></symbol><symbol id="content--icon-studiendownloads" viewBox="0 0 485.2 485.2" xmlns="http://www.w3.org/2000/svg"><style>.amst0{fill:#1d2362}</style><g id="am_x30_6"><path class="amst0" d="M295.9 457.3H92.1c-17.9 0-32.4-14.5-32.4-32.4V38.7c0-17.9 14.5-32.4 32.4-32.4h298c17.9 0 32.4 14.5 32.4 32.4v170.7c0 5.5-4.5 9.9-9.9 9.9-5.5 0-9.9-4.5-9.9-9.9V38.7c0-6.9-5.6-12.5-12.5-12.5h-298c-6.9 0-12.5 5.6-12.5 12.5V425c0 6.9 5.6 12.5 12.5 12.5H296c5.5 0 9.9 4.5 9.9 9.9s-4.5 9.9-10 9.9z"/><path class="amst0" d="M295.2 356.9h-168c-5.5 0-9.9-4.5-9.9-9.9s4.5-9.9 9.9-9.9h168c5.5 0 9.9 4.5 9.9 9.9s-4.5 9.9-9.9 9.9zm0-76.8h-168c-5.5 0-9.9-4.5-9.9-9.9s4.5-9.9 9.9-9.9h168c5.5 0 9.9 4.5 9.9 9.9s-4.5 9.9-9.9 9.9zm59.8-76.7H127.2c-5.5 0-9.9-4.5-9.9-9.9 0-5.5 4.5-9.9 9.9-9.9H355c5.5 0 9.9 4.5 9.9 9.9 0 5.5-4.4 9.9-9.9 9.9zm0-76.7H127.2c-5.5 0-9.9-4.5-9.9-9.9s4.5-9.9 9.9-9.9H355c5.5 0 9.9 4.5 9.9 9.9s-4.4 9.9-9.9 9.9zm29.4 352.9c-.5 0-1 0-1.5-.1-3 .4-6.2-.5-8.5-2.8l-41.1-41.1c-3.9-3.9-3.9-10.2 0-14.1 3.9-3.9 10.2-3.9 14.1 0l27 27V263.9c0-5.5 4.5-9.9 9.9-9.9s9.9 4.5 9.9 9.9V444l24.3-22.7c4-3.7 10.2-3.5 13.9.4 3.8 3.9 3.7 10.1-.1 13.9l-41.1 41.1c-1.6 1.9-4.2 2.9-6.8 2.9z"/></g></symbol><symbol id="content--icon-studium" viewBox="0 0 485.2 485.2" xmlns="http://www.w3.org/2000/svg"><style>.anst0{fill:#1d2362}</style><g id="an_x30_2"><path class="anst0" d="M241.3 326.5c-1 0-1.9-.1-2.8-.4L151 297.8c-2.8-.9-4.9-3-5.9-5.8s-.5-5.8 1.1-8.2c21.4-31.5 57-50.4 95-50.4 38.1 0 73.6 18.8 95 50.3 1.6 2.4 2 5.4 1.1 8.2s-3.1 4.9-5.9 5.8L244.1 326c-.9.3-1.9.5-2.8.5zm-72.1-42.2l72.1 23.3 72.1-23.3c-18.2-20.5-44.3-32.4-72.1-32.4-27.8 0-53.9 12-72.1 32.4z"/><path class="anst0" d="M241.3 234.7c-64.4 0-116.9-52.4-116.9-116.9S176.9.9 241.3.9s116.9 52.4 116.9 116.9-52.4 116.9-116.9 116.9zm0-215.4c-54.3 0-98.5 44.2-98.5 98.5s44.2 98.5 98.5 98.5 98.5-44.2 98.5-98.5-44.2-98.5-98.5-98.5zm203.8 465.1c-5.1 0-9.2-4.1-9.2-9.2V285.6c0-8.7-6.8-15.9-15.4-16.6l-89 28.7c-4.8 1.6-10-1.1-11.6-5.9-1.6-4.8 1.1-10 5.9-11.6l90.5-29.2c.9-.3 1.9-.4 2.8-.4 19.3 0 35.1 15.7 35.1 35v189.6c.1 5.1-4 9.2-9.1 9.2zm-407.5 0c-5.1 0-9.2-4.1-9.2-9.2V285.6c0-19.3 15.7-35 35.1-35 1 0 1.9.1 2.8.4l90.4 29.2c4.8 1.6 7.5 6.7 5.9 11.6-1.6 4.8-6.7 7.5-11.6 5.9L62.1 269c-8.6.7-15.4 7.8-15.4 16.6v189.6c.1 5.1-4.1 9.2-9.1 9.2z"/><path class="anst0" d="M293.6 370c-4 0-7.7-2.6-8.8-6.6-1.4-4.9 1.4-10 6.3-11.4l114.6-33.4c4.9-1.4 10 1.4 11.4 6.3 1.4 4.9-1.4 10-6.3 11.4l-114.6 33.4c-.9.2-1.7.3-2.6.3zm0 96.9c-4.1 0-7.9-2.8-8.9-6.9-1.2-4.9 1.7-9.9 6.7-11.2l114.6-29c4.9-1.3 9.9 1.7 11.2 6.7 1.2 4.9-1.7 9.9-6.7 11.2l-114.6 28.9c-.8.2-1.5.3-2.3.3zm0-48.5c-4 0-7.8-2.7-8.9-6.8-1.3-4.9 1.6-10 6.5-11.3l114.6-31.1c4.9-1.3 10 1.6 11.3 6.5 1.3 4.9-1.6 10-6.5 11.3L296 418.1c-.8.2-1.6.3-2.4.3zM187.2 370c-.9 0-1.7-.1-2.6-.4L70 336.2c-4.9-1.4-7.7-6.5-6.3-11.4 1.4-4.9 6.5-7.7 11.4-6.3l114.6 33.4c4.9 1.4 7.7 6.5 6.3 11.4-1.2 4.1-4.9 6.7-8.8 6.7zm0 96.9c-.7 0-1.5-.1-2.3-.3l-114.6-29c-4.9-1.2-7.9-6.2-6.7-11.2 1.2-4.9 6.2-7.9 11.2-6.7l114.6 28.9c4.9 1.2 7.9 6.2 6.7 11.2-1.1 4.3-4.8 7.1-8.9 7.1zm0-48.5c-.8 0-1.6-.1-2.4-.3L70.1 386.9c-4.9-1.3-7.8-6.4-6.5-11.3 1.3-4.9 6.4-7.8 11.3-6.5l114.6 31.1c4.9 1.3 7.8 6.4 6.5 11.3-1.1 4.2-4.8 6.9-8.8 6.9z"/></g></symbol><symbol id="content--icon-vorlesungsverzeichnis" viewBox="0 0 485.2 485.2" xmlns="http://www.w3.org/2000/svg"><style>.aost0{fill:#1d2362}</style><path class="aost0" d="M471.9 404.6H106.2c-5.9 0-10.6-4.8-10.6-10.6s4.8-10.6 10.6-10.6h365.6c5.9 0 10.6 4.8 10.6 10.6s-4.7 10.6-10.5 10.6zm0-105.4H106.2c-5.9 0-10.6-4.8-10.6-10.6s4.8-10.6 10.6-10.6h365.6c5.9 0 10.6 4.8 10.6 10.6s-4.7 10.6-10.5 10.6zm0-105.4H106.2c-5.9 0-10.6-4.8-10.6-10.6s4.8-10.6 10.6-10.6h365.6c5.9 0 10.6 4.8 10.6 10.6s-4.7 10.6-10.5 10.6zm0-105.4H106.2c-5.9 0-10.6-4.8-10.6-10.6 0-5.9 4.8-10.6 10.6-10.6h365.6c5.9 0 10.6 4.8 10.6 10.6.1 5.9-4.7 10.6-10.5 10.6zM39.4 404.6H14.1c-5.9 0-10.6-4.8-10.6-10.6s4.8-10.6 10.6-10.6h25.3c5.9 0 10.6 4.8 10.6 10.6s-4.8 10.6-10.6 10.6zm0-105.4H14.1c-5.9 0-10.6-4.8-10.6-10.6S8.3 278 14.1 278h25.3c5.9 0 10.6 4.8 10.6 10.6s-4.8 10.6-10.6 10.6zm0-105.4H14.1c-5.9 0-10.6-4.8-10.6-10.6s4.8-10.6 10.6-10.6h25.3c5.9 0 10.6 4.8 10.6 10.6s-4.8 10.6-10.6 10.6zm0-105.4H14.1c-5.9 0-10.6-4.8-10.6-10.6 0-5.9 4.8-10.6 10.6-10.6h25.3C45.3 67.2 50 72 50 77.8c0 5.9-4.8 10.6-10.6 10.6z" id="ao_x30_5"/></symbol><symbol id="content--icon-weiterbildung" viewBox="0 0 485.2 485.2" xmlns="http://www.w3.org/2000/svg"><style>.apst0{fill:#1d2362}</style><g id="ap_x30_3"><path class="apst0" d="M224.9 410.1c-.3 0-.6 0-.9-.1-78-8.4-140.8-71.2-149.2-149.2-.3-2.8.8-5.5 2.8-7.3 2.1-1.8 4.9-2.5 7.6-1.9l114.6 27c3.2.7 5.6 3.2 6.4 6.4l4.2 17.6 22.9 97c.6 2.7-.1 5.5-1.9 7.6-1.7 1.8-4 2.9-6.5 2.9zm-131.3-139c11.6 60.4 59.7 108.5 120.1 120.1L190.8 294l-97.2-22.9zm-10.3-37.4c-2.1 0-4.1-.7-5.7-2.1-2.1-1.8-3.1-4.6-2.8-7.3C83.2 146.2 146 83.4 224 75c2.7-.3 5.5.8 7.3 2.8 1.8 2.1 2.6 4.9 1.9 7.6l-27 114.6c-.7 3.2-3.2 5.6-6.4 6.4l-114.6 27c-.6.2-1.3.3-1.9.3zM213.7 93.8c-60.4 11.6-108.5 59.7-120.1 120.1l97.2-22.9 22.9-97.2zm28.6 167.3c-10.3 0-18.6-8.3-18.6-18.6s8.3-18.6 18.6-18.6c10.2 0 18.5 8.3 18.5 18.6s-8.3 18.6-18.5 18.6zm0-20.1c-.8 0-1.5.7-1.5 1.5 0 1.6 2.9 1.6 2.9 0 0-.8-.6-1.5-1.4-1.5zm17.3 169.1c-2.4 0-4.8-1-6.4-2.9-1.8-2.1-2.6-4.9-1.9-7.6l27-114.6c.7-3.2 3.2-5.6 6.4-6.4l17.6-4.2 97-22.9c2.7-.6 5.5.1 7.6 1.9 2.1 1.8 3.1 4.6 2.8 7.3-8.4 78.1-71.2 140.8-149.3 149.3-.2.1-.5.1-.8.1zM293.8 294l-22.9 97.2c60.4-11.6 108.5-59.7 120.1-120.1L293.8 294zm107.5-60.3c-.7 0-1.3-.1-2-.2l-114.6-27c-3.2-.7-5.6-3.2-6.4-6.4l-27-114.6c-.6-2.7.1-5.5 1.9-7.6s4.6-3.1 7.3-2.8c78.1 8.4 140.8 71.2 149.3 149.3.3 2.8-.8 5.5-2.8 7.3-1.6 1.3-3.6 2-5.7 2zM293.8 191l97.2 22.9c-11.6-60.4-59.7-108.5-120.1-120.1l20 84.6 2.9 12.6z"/><path class="apst0" d="M144.9 348.4c-2.2 0-4.4-.9-6.1-2.5-2.8-2.8-3.3-7.2-1.2-10.6l35.3-57.1c1.9-3.1 5.7-4.7 9.2-3.8l17.7 4.2c3.2.7 5.6 3.2 6.4 6.4l4.2 17.6c.8 3.6-.7 7.3-3.8 9.3l-57.2 35.3c-1.4.8-3 1.2-4.5 1.2zm39.3-55.9l-13 21 21.1-13-1.5-6.5-6.6-1.5zm-4-81.7c-2.9 0-5.7-1.5-7.3-4.1l-35.3-57.1c-2.1-3.4-1.6-7.7 1.2-10.6 2.8-2.8 7.2-3.3 10.5-1.2l57.2 35.3c3.1 1.9 4.7 5.7 3.8 9.3l-4.2 17.6c-.7 3.2-3.2 5.6-6.4 6.4l-17.7 4.2c-.5.2-1.1.2-1.8.2zm-9-39.3l13 21 6.5-1.5 1.5-6.5-21-13zm71.1 89.6c-10.3 0-18.6-8.3-18.6-18.6s8.3-18.6 18.6-18.6c10.2 0 18.5 8.3 18.5 18.6s-8.3 18.6-18.5 18.6zm0-20.1c-.8 0-1.5.7-1.5 1.5 0 1.6 2.9 1.6 2.9 0 0-.8-.6-1.5-1.4-1.5zm97.3 107.4c-1.5 0-3.1-.4-4.5-1.3L278 311.9c-3.1-1.9-4.7-5.7-3.8-9.2l4.2-17.7c.7-3.2 3.2-5.6 6.4-6.4l17.6-4.2c3.6-.8 7.3.7 9.2 3.8l35.3 57.1c2.1 3.4 1.6 7.7-1.2 10.6-1.7 1.6-3.9 2.5-6.1 2.5zm-47.4-47.9l21 13-13-21-6.5 1.5-1.5 6.5zm12.1-89.7c-.7 0-1.3-.1-2-.2l-17.6-4.2c-3.2-.7-5.6-3.2-6.4-6.4l-4.2-17.7c-.8-3.6.7-7.3 3.8-9.2l57.1-35.3c3.4-2.1 7.8-1.6 10.5 1.2 2.8 2.8 3.3 7.2 1.2 10.6l-35.3 57.1c-1.4 2.6-4.2 4.1-7.1 4.1zM293.8 191l6.5 1.5 13-21-21 13 1.5 6.5z"/><path class="apst0" d="M242.3 483.5c-4 0-7.4-2.7-8.3-6.6L190.8 294 7.9 250.8c-3.9-.9-6.6-4.4-6.6-8.3s2.7-7.4 6.6-8.3L190.8 191 234 8.1c.9-3.9 4.4-6.6 8.3-6.6s7.4 2.7 8.3 6.6L293.8 191l109.5 25.8 73.4 17.3c3.9.9 6.6 4.4 6.6 8.3s-2.7 7.4-6.6 8.3L293.8 294l-43.2 182.9c-.9 3.9-4.4 6.6-8.3 6.6zm-195.2-241l152.8 36.1c3.2.7 5.6 3.2 6.4 6.4l36.1 152.8L278.5 285c.7-3.2 3.2-5.6 6.4-6.4l152.8-36.1-152.8-36.1c-3.2-.7-5.6-3.2-6.4-6.4L242.3 47.3l-36.1 152.8c-.7 3.2-3.2 5.6-6.4 6.4l-152.7 36zm195.2 18.6c-10.3 0-18.6-8.3-18.6-18.6s8.3-18.6 18.6-18.6c10.2 0 18.5 8.3 18.5 18.6s-8.3 18.6-18.5 18.6zm0-20.1c-.8 0-1.5.7-1.5 1.5 0 1.6 2.9 1.6 2.9 0 0-.8-.6-1.5-1.4-1.5z"/><path class="apst0" d="M242.3 261.1c-10.3 0-18.6-8.3-18.6-18.6s8.3-18.6 18.6-18.6c10.2 0 18.5 8.3 18.5 18.6s-8.3 18.6-18.5 18.6zm0-20.1c-.8 0-1.5.7-1.5 1.5 0 1.6 2.9 1.6 2.9 0 0-.8-.6-1.5-1.4-1.5z"/><path class="apst0" d="M242.3 261.1c-10.3 0-18.6-8.3-18.6-18.6s8.3-18.6 18.6-18.6c10.2 0 18.5 8.3 18.5 18.6s-8.3 18.6-18.5 18.6zm0-20.1c-.8 0-1.5.7-1.5 1.5 0 1.6 2.9 1.6 2.9 0 0-.8-.6-1.5-1.4-1.5z"/></g></symbol><symbol viewBox="0 0 100 92.1" id="content--research" xmlns="http://www.w3.org/2000/svg"><path d="M99.3 5.7v59.4c0 8.1-5.8 15-13.7 16.5l-57.4 9.3c-1.5 0-2.9-.7-3.8-1.8-.7-.9-1.1-2-1.1-3.2V74.8c0-.4.4-.8.8-.8h.1c2.6.4 5.3.4 7.9 0 .4-.1.8.2.9.7v3.6l35.4-17.6c2.4-1.2 5.3-.2 6.5 2.2.3.7.5 1.4.5 2.2 0 3.9 3.2 7 7.1 7h.6c3.7-.4 6.4-3.6 6.4-7.3V10.6H33v10.3c0 .4-.3.8-.8.8h-.1c-2.6-.4-5.3-.4-7.9 0-.4.1-.8-.2-.9-.7V5.7C23.3 3 25.5.9 28.2.9h66.2c2.7 0 4.8 2.1 4.9 4.8zM2.2 73.8c-1.9-2-1.9-5.1 0-7.1l9.1-9.1C5.9 48.3 9.1 36.4 18.4 31s21.2-2.2 26.6 7.1c4.4 7.6 3.2 17.3-3.1 23.5-6.2 6.2-15.9 7.5-23.5 3.1l-9.1 9.1c-2 1.9-5.1 1.9-7.1 0zm19.2-19.3a9.476 9.476 0 1 0 13.4-13.402A9.476 9.476 0 0 0 21.4 54.5zm56.9-35.2h-34c-2 0-3.7 1.7-3.7 3.7s1.7 3.7 3.7 3.7h34c2 0 3.7-1.7 3.7-3.7s-1.7-3.7-3.7-3.7zm0 14.4H54.9c-2 0-3.7 1.7-3.7 3.7s1.7 3.7 3.7 3.7h23.4c2 0 3.7-1.7 3.7-3.7s-1.7-3.7-3.7-3.7zm0 14.4H56.8c-2 0-3.7 1.7-3.7 3.7s1.7 3.7 3.7 3.7h21.5c2 0 3.7-1.7 3.7-3.7s-1.7-3.7-3.7-3.7z"/></symbol><symbol viewBox="0 0 489.4 489.4" id="content--teacher" xmlns="http://www.w3.org/2000/svg"><path d="M473.7 5.7H213.6c-8.7 0-15.7 7-15.7 15.7v110.5l11.3-13.2c5.4-6.3 12.5-10.2 20-11.8V37H458v204.5H229.2v-34.2l-7.1 8.2c-6.2 7.2-14.9 11.6-24.3 12.5v29.1c0 8.6 7 15.7 15.7 15.7H298l-42.9 194.9c-1.9 8.7 3.6 17.4 12.3 19.3 8.7 1.9 17.4-3.6 19.3-12.3l44.5-201.9H357l44.5 201.9c1.7 7.6 8.4 12.7 15.8 12.7 1.2 0 2.3-.1 3.5-.4 8.7-1.9 14.3-10.6 12.3-19.3l-42.9-194.9h83.5c8.6 0 15.7-7 15.7-15.7V21.3c0-8.6-7-15.6-15.7-15.6z"/><path d="M349.4 97.1c-1.2-3.1-4.7-4.6-7.8-3.4l-92.2 32.6c-8.5-6.6-20.7-5.4-27.7 2.8l-29.3 34.2-26-22.2c.2 1.8.6 3.6.6 5.5v48.3l14.4 12.4c8.6 7.3 21.4 6.2 28.5-2.2l34.8-40.7 28.1-16.4 74-43.3c2.5-1.6 3.7-4.8 2.6-7.6zm-239.5 8.7H92.5c-13.3 0-25 6.5-32.4 16.3L6.7 171.2c-8.3 7.4-9.1 20.2-1.6 28.6l43.5 48.6c7.4 8.3 20.3 9 28.6 1.6 8.3-7.5 9-20.3 1.6-28.6l-30-33.5 42.6-38.1-24.8 33.7 24.3 27.1c13.4 15 12.2 38-2.8 51.5-10.2 9.2-24.2 11.3-36.3 7.1 0 0 .2 93.7.2 194 0 13.4 10.9 24.3 24.3 24.3s24.3-10.9 24.3-24.3V318.4h16.2v144.8c0 7-2 13.5-5.1 19.2 4.1 3.1 9.1 5.1 14.7 5.1 13.4 0 24.3-10.9 24.3-24.3V146.6c0-22.6-18.3-40.8-40.8-40.8zM79.6 91.2c6.5 3.4 13.8 5.5 21.6 5.5 7.9 0 15.1-2.1 21.7-5.5 15.2-7.9 25.7-23.6 25.7-41.9 0-26.1-21.2-47.3-47.3-47.3-26.2 0-47.4 21.2-47.4 47.3 0 18.3 10.5 34 25.7 41.9z"/></symbol><symbol viewBox="0 0 18 14" id="icon-check" xmlns="http://www.w3.org/2000/svg"><path fill="none" stroke="#FFF" stroke-width="2" d="M1 7.644l4.7 4.73L17 1"/></symbol><symbol viewBox="0 0 36 36" id="icon-dots" xmlns="http://www.w3.org/2000/svg"><path d="M8 16c-1.103 0-2 .897-2 2s.897 2 2 2 2-.897 2-2-.897-2-2-2m0 6c-2.206 0-4-1.794-4-4s1.794-4 4-4 4 1.794 4 4-1.794 4-4 4m10-6c-1.103 0-2 .897-2 2s.897 2 2 2 2-.897 2-2-.897-2-2-2m0 6c-2.206 0-4-1.794-4-4s1.794-4 4-4 4 1.794 4 4-1.794 4-4 4m10-6c-1.103 0-2 .897-2 2s.897 2 2 2 2-.897 2-2-.897-2-2-2m0 6c-2.206 0-4-1.794-4-4s1.794-4 4-4 4 1.794 4 4-1.794 4-4 4M8 26c-1.103 0-2 .897-2 2s.897 2 2 2 2-.897 2-2-.897-2-2-2m0 6c-2.206 0-4-1.794-4-4s1.794-4 4-4 4 1.794 4 4-1.794 4-4 4m10-6c-1.103 0-2 .897-2 2s.897 2 2 2 2-.897 2-2-.897-2-2-2m0 6c-2.206 0-4-1.794-4-4s1.794-4 4-4 4 1.794 4 4-1.794 4-4 4m10-6c-1.103 0-2 .897-2 2s.897 2 2 2 2-.897 2-2-.897-2-2-2m0 6c-2.206 0-4-1.794-4-4s1.794-4 4-4 4 1.794 4 4-1.794 4-4 4M8 6c-1.103 0-2 .897-2 2s.897 2 2 2 2-.897 2-2-.897-2-2-2m0 6c-2.206 0-4-1.794-4-4s1.794-4 4-4 4 1.794 4 4-1.794 4-4 4m10-6c-1.103 0-2 .897-2 2s.897 2 2 2 2-.897 2-2-.897-2-2-2m0 6c-2.206 0-4-1.794-4-4s1.794-4 4-4 4 1.794 4 4-1.794 4-4 4m10-6c-1.103 0-2 .897-2 2s.897 2 2 2 2-.897 2-2-.897-2-2-2m0 6c-2.206 0-4-1.794-4-4s1.794-4 4-4 4 1.794 4 4-1.794 4-4 4" fill-rule="evenodd"/></symbol><symbol viewBox="0 0 36 36" id="icon-menu" xmlns="http://www.w3.org/2000/svg"><path d="M6 7a1 1 0 0 0 0 2h24a1 1 0 0 0 0-2H6zm24 4H6c-1.654 0-3-1.346-3-3s1.346-3 3-3h24c1.654 0 3 1.346 3 3s-1.346 3-3 3zM6 17a1 1 0 0 0 0 2h24a1 1 0 0 0 0-2H6zm24 4H6c-1.654 0-3-1.346-3-3s1.346-3 3-3h24c1.654 0 3 1.346 3 3s-1.346 3-3 3zM6 27a1 1 0 0 0 0 2h24a1 1 0 0 0 0-2H6zm24 4H6c-1.654 0-3-1.346-3-3s1.346-3 3-3h24c1.654 0 3 1.346 3 3s-1.346 3-3 3z" fill-rule="evenodd"/></symbol><symbol viewBox="0 0 36 36" id="icon-plone" xmlns="http://www.w3.org/2000/svg"><g fill-rule="evenodd"><path d="M18.5 30C12.159 30 7 24.841 7 18.5S12.159 7 18.5 7 30 12.159 30 18.5 24.841 30 18.5 30m0-26C10.505 4 4 10.505 4 18.5S10.505 33 18.5 33 33 26.495 33 18.5 26.495 4 18.5 4"/><path d="M16.5 15.5a3 3 0 1 0 0-6 3 3 0 0 0 0 6m0 6a3 3 0 1 0 0 6 3 3 0 0 0 0-6m6-6a3 3 0 1 0 0 6 3 3 0 0 0 0-6"/></g></symbol><symbol id="icon-ui-hide" viewBox="0 0 64 64" xmlns="http://www.w3.org/2000/svg"><style>.awst3{fill:none;stroke:#4a4a4a;stroke-width:2;stroke-miterlimit:10}</style><path d="M54.094 32S44.202 45.824 32 45.824 9.906 32 9.906 32 19.798 18.176 32 18.176 54.094 32 54.094 32z" class="awst3"/><circle cx="32" cy="32" r="13.824" class="awst3"/><circle cx="32" cy="32" r="3.206" fill="#4a4a4a"/><path d="M11.02 47.437l41.96-30.874" class="awst3"/></symbol><symbol viewBox="0 0 512 512" id="icon-ui-link" xmlns="http://www.w3.org/2000/svg"><path d="M280 341.1l-1.2.1c-3.6.4-7 2-9.6 4.5l-64.6 64.6c-13.7 13.7-32 21.2-51.5 21.2s-37.8-7.5-51.5-21.2c-13.7-13.7-21.2-32-21.2-51.5s7.5-37.8 21.2-51.5l68.6-68.6c3.5-3.5 7.3-6.6 11.4-9.3 4.6-3 9.6-5.6 14.8-7.5 4.8-1.8 9.9-3 15-3.7 3.4-.5 6.9-.7 10.2-.7 1.4 0 2.8.1 4.6.2 17.7 1.1 34.4 8.6 46.8 21 7.7 7.7 13.6 17.1 17.1 27.3 2.8 8 11.2 12.5 19.3 10.1.1 0 .2-.1.3-.1.1 0 .2 0 .2-.1 8.1-2.5 12.8-11 10.5-19.1-4.4-15.6-12.2-28.7-24.6-41-15.6-15.6-35.9-25.8-57.6-29.3-1.9-.3-3.8-.6-5.7-.8-3.7-.4-7.4-.6-11.1-.6-2.6 0-5.2.1-7.7.3-5.4.4-10.8 1.2-16.2 2.5-1.1.2-2.1.5-3.2.8-6.7 1.8-13.3 4.2-19.5 7.3-10.3 5.1-19.6 11.7-27.7 19.9l-68.6 68.6C58.9 304.4 48 330.8 48 359c0 28.2 10.9 54.6 30.7 74.4C98.5 453.1 124.9 464 153 464c28.2 0 54.6-10.9 74.4-30.7l65.3-65.3c10.4-10.5 2-28.3-12.7-26.9z"/><path d="M433.3 78.7C413.5 58.9 387.1 48 359 48s-54.6 10.9-74.4 30.7l-63.7 63.7c-9.7 9.7-3.6 26.3 10.1 27.4 4.7.4 9.3-1.3 12.7-4.6l63.8-63.6c13.7-13.7 32-21.2 51.5-21.2s37.8 7.5 51.5 21.2c13.7 13.7 21.2 32 21.2 51.5s-7.5 37.8-21.2 51.5l-68.6 68.6c-3.5 3.5-7.3 6.6-11.4 9.3-4.6 3-9.6 5.6-14.8 7.5-4.8 1.8-9.9 3-15 3.7-3.4.5-6.9.7-10.2.7-1.4 0-2.9-.1-4.6-.2-17.7-1.1-34.4-8.6-46.8-21-7.3-7.3-12.8-16-16.4-25.5-2.9-7.7-11.1-11.9-19.1-9.8-8.9 2.3-14.1 11.7-11.3 20.5 4.5 14 12.1 25.9 23.7 37.5l.2.2c16.9 16.9 39.4 27.6 63.3 30.1 3.7.4 7.4.6 11.1.6 2.6 0 5.2-.1 7.8-.3 6.5-.5 13-1.6 19.3-3.2 6.7-1.8 13.3-4.2 19.5-7.3 10.3-5.1 19.6-11.7 27.7-19.9l68.6-68.6c19.8-19.8 30.7-46.2 30.7-74.4s-11.1-54.6-30.9-74.4z"/></symbol><symbol id="icon-ui-pen" viewBox="0 0 64 64" xmlns="http://www.w3.org/2000/svg"><style>.ayst7{fill-rule:evenodd;clip-rule:evenodd;fill:none;stroke:currentColor;stroke-width:2;stroke-miterlimit:10}</style><path d="M27.925 46.229L17.771 36.075m27.047-6.739L34.664 19.182l4.979-4.979a4.22 4.22 0 0 1 5.966 0l4.188 4.188a4.22 4.22 0 0 1 0 5.966l-4.979 4.979z" class="ayst7"/><path d="M27.925 46.229l-14.957 4.803 4.803-14.957 16.893-16.893 10.154 10.154-16.893 16.893zm-12.316-3.423l5.585 5.585" class="ayst7"/></symbol><symbol id="icon-ui-plus" viewBox="0 0 64 64" xmlns="http://www.w3.org/2000/svg"><style>.azst3{fill:none;stroke:#4a4a4a;stroke-width:2;stroke-miterlimit:10}</style><path d="M14.157 32h35.686M32 14.157v35.686" class="azst3"/></symbol><symbol id="icon-ui-plus-sign" viewBox="0 0 64 64" xmlns="http://www.w3.org/2000/svg"><style>.bast4{fill-rule:evenodd;clip-rule:evenodd;fill:none;stroke:#4a4a4a;stroke-width:2;stroke-miterlimit:10}</style><circle cx="32" cy="32" r="19.677" fill="none" stroke="#4a4a4a" stroke-miterlimit="10" stroke-width="2"/><path d="M23.337 32h17.326M32 23.337v17.326" class="bast4"/></symbol><symbol id="icon-ui-see" viewBox="0 0 64 64" xmlns="http://www.w3.org/2000/svg"><style>.bbst3{fill:none;stroke:#4a4a4a;stroke-width:2;stroke-miterlimit:10}</style><path d="M54.094 32S44.202 45.824 32 45.824 9.906 32 9.906 32 19.798 18.176 32 18.176 54.094 32 54.094 32z" class="bbst3"/><circle cx="32" cy="32" r="13.824" class="bbst3"/><circle cx="32" cy="32" r="3.206" fill="#4a4a4a"/></symbol><symbol viewBox="0 0 64 64" id="icon-widget-text-block" xmlns="http://www.w3.org/2000/svg"><path fill="none" stroke="currentColor" stroke-linecap="round" stroke-miterlimit="10" stroke-width="2" d="M49.29 11.052H14.71v7.773h13.728v34.123h7.772V18.825h13.08z"/></symbol><symbol class="bdicon--add" viewBox="0 0 512 512" id="ui--add" xmlns="http://www.w3.org/2000/svg"><path d="M368.5 240H272v-96.5c0-8.8-7.2-16-16-16s-16 7.2-16 16V240h-96.5c-8.8 0-16 7.2-16 16 0 4.4 1.8 8.4 4.7 11.3 2.9 2.9 6.9 4.7 11.3 4.7H240v96.5c0 4.4 1.8 8.4 4.7 11.3 2.9 2.9 6.9 4.7 11.3 4.7 8.8 0 16-7.2 16-16V272h96.5c8.8 0 16-7.2 16-16s-7.2-16-16-16z"/></symbol><symbol class="beicon--alert" viewBox="0 0 512 512" id="ui--alert" xmlns="http://www.w3.org/2000/svg"><path d="M256 48C141.1 48 48 141.1 48 256s93.1 208 208 208 208-93.1 208-208S370.9 48 256 48zm17.2 109.6l-3.1 115.1c-.2 8.2-5.9 14.8-14.1 14.8s-13.9-6.6-14.1-14.8l-3.1-115.1c-.2-9.6 7.5-17.6 17.2-17.6 9.6 0 17.4 7.9 17.2 17.6zM256 354c-10.7 0-19.1-8.1-19.1-18.4s8.4-18.4 19.1-18.4c10.7 0 19.1 8.1 19.1 18.4S266.7 354 256 354z"/></symbol><symbol viewBox="0 0 512 512" id="ui--calendar" xmlns="http://www.w3.org/2000/svg"><path d="M424 96h-40v24c0 4.4-3.6 8-8 8h-16c-4.4 0-8-3.6-8-8V96H160v24c0 4.4-3.6 8-8 8h-16c-4.4 0-8-3.6-8-8V96H88c-22 0-40 18-40 40v272c0 22 18 40 40 40h336c22 0 40-18 40-40V136c0-22-18-40-40-40zm8 300c0 11-9 20-20 20H100c-11 0-20-9-20-20V216c0-4.4 3.6-8 8-8h336c4.4 0 8 3.6 8 8v180zM160 72c0-4.4-3.6-8-8-8h-16c-4.4 0-8 3.6-8 8v24h32V72zm224 0c0-4.4-3.6-8-8-8h-16c-4.4 0-8 3.6-8 8v24h32V72z"/></symbol><symbol viewBox="0 0 512 512" id="ui--check" xmlns="http://www.w3.org/2000/svg"><path d="M362.6 192.9L345 174.8c-.7-.8-1.8-1.2-2.8-1.2-1.1 0-2.1.4-2.8 1.2l-122 122.9-44.4-44.4c-.8-.8-1.8-1.2-2.8-1.2-1 0-2 .4-2.8 1.2l-17.8 17.8c-1.6 1.6-1.6 4.1 0 5.7l56 56c3.6 3.6 8 5.7 11.7 5.7 5.3 0 9.9-3.9 11.6-5.5h.1l133.7-134.4c1.4-1.7 1.4-4.2-.1-5.7z"/><path d="M256 76c48.1 0 93.3 18.7 127.3 52.7S436 207.9 436 256s-18.7 93.3-52.7 127.3S304.1 436 256 436c-48.1 0-93.3-18.7-127.3-52.7S76 304.1 76 256s18.7-93.3 52.7-127.3S207.9 76 256 76m0-28C141.1 48 48 141.1 48 256s93.1 208 208 208 208-93.1 208-208S370.9 48 256 48z"/></symbol><symbol class="bhicon--chevron" viewBox="0 0 36 36" id="ui--chevron" xmlns="http://www.w3.org/2000/svg"><path fill-rule="evenodd" d="M14.707 26.707l-1.414-1.414L20.586 18l-7.293-7.293 1.414-1.414L23.414 18z"/></symbol><symbol class="biicon--chevron-left" viewBox="0 0 512 512" id="ui--chevron-left" xmlns="http://www.w3.org/2000/svg"><path d="M217.9 256L345 129c9.4-9.4 9.4-24.6 0-33.9-9.4-9.4-24.6-9.3-34 0L167 239c-9.1 9.1-9.3 23.7-.7 33.1L310.9 417c4.7 4.7 10.9 7 17 7s12.3-2.3 17-7c9.4-9.4 9.4-24.6 0-33.9L217.9 256z"/></symbol><symbol class="bjapp-nav__toggle-icon" viewBox="0 0 36 36" id="ui--close" xmlns="http://www.w3.org/2000/svg"><path fill-rule="evenodd" d="M27.899 9.515l-1.414-1.414L18 16.586 9.514 8.101 8.1 9.515 16.586 18 8.1 26.486 9.514 27.9 18 19.414l8.485 8.486 1.414-1.414L19.414 18z"/></symbol><symbol viewBox="0 0 36 36" id="ui--dots" xmlns="http://www.w3.org/2000/svg"><path d="M8 16c-1.103 0-2 .897-2 2s.897 2 2 2 2-.897 2-2-.897-2-2-2m0 6c-2.206 0-4-1.794-4-4s1.794-4 4-4 4 1.794 4 4-1.794 4-4 4m10-6c-1.103 0-2 .897-2 2s.897 2 2 2 2-.897 2-2-.897-2-2-2m0 6c-2.206 0-4-1.794-4-4s1.794-4 4-4 4 1.794 4 4-1.794 4-4 4m10-6c-1.103 0-2 .897-2 2s.897 2 2 2 2-.897 2-2-.897-2-2-2m0 6c-2.206 0-4-1.794-4-4s1.794-4 4-4 4 1.794 4 4-1.794 4-4 4M8 26c-1.103 0-2 .897-2 2s.897 2 2 2 2-.897 2-2-.897-2-2-2m0 6c-2.206 0-4-1.794-4-4s1.794-4 4-4 4 1.794 4 4-1.794 4-4 4m10-6c-1.103 0-2 .897-2 2s.897 2 2 2 2-.897 2-2-.897-2-2-2m0 6c-2.206 0-4-1.794-4-4s1.794-4 4-4 4 1.794 4 4-1.794 4-4 4m10-6c-1.103 0-2 .897-2 2s.897 2 2 2 2-.897 2-2-.897-2-2-2m0 6c-2.206 0-4-1.794-4-4s1.794-4 4-4 4 1.794 4 4-1.794 4-4 4M8 6c-1.103 0-2 .897-2 2s.897 2 2 2 2-.897 2-2-.897-2-2-2m0 6c-2.206 0-4-1.794-4-4s1.794-4 4-4 4 1.794 4 4-1.794 4-4 4m10-6c-1.103 0-2 .897-2 2s.897 2 2 2 2-.897 2-2-.897-2-2-2m0 6c-2.206 0-4-1.794-4-4s1.794-4 4-4 4 1.794 4 4-1.794 4-4 4m10-6c-1.103 0-2 .897-2 2s.897 2 2 2 2-.897 2-2-.897-2-2-2m0 6c-2.206 0-4-1.794-4-4s1.794-4 4-4 4 1.794 4 4-1.794 4-4 4" fill-rule="evenodd"/></symbol><symbol class="blicon--globe" viewBox="0 0 512 512" id="ui--globe" xmlns="http://www.w3.org/2000/svg"><path d="M256 48h-.7c-55.4.2-107.4 21.9-146.6 61.1C69.6 148.4 48 200.5 48 256s21.6 107.6 60.8 146.9c39.1 39.2 91.2 60.9 146.6 61.1h.7c114.7 0 208-93.3 208-208S370.7 48 256 48zm180.2 194h-77.6c-.9-26.7-4.2-52.2-9.8-76.2 17.1-5.5 33.7-12.5 49.7-21 22 28.2 35 61.6 37.7 97.2zM242 242h-61.8c.8-24.5 3.8-47.7 8.8-69.1 17.4 3.9 35.1 6.3 53 7.1v62zm0 28v61.9c-17.8.8-35.6 3.2-53 7.1-5-21.4-8-44.6-8.8-69H242zm28 0h61.3c-.8 24.4-3.8 47.6-8.8 68.9-17.2-3.9-34.8-6.2-52.5-7V270zm0-28v-62c17.8-.8 35.4-3.2 52.5-7 5 21.4 8 44.5 8.8 69H270zm109.4-117.9c-12.3 6.1-25 11.3-38 15.5-7.1-21.4-16.1-39.9-26.5-54.5 24 8.3 45.9 21.6 64.5 39zM315 146.8c-14.7 3.2-29.8 5.2-45 6V79.4c17 9.2 33.6 33.9 45 67.4zM242 79v73.7c-15.4-.8-30.6-2.8-45.5-6.1 11.6-33.8 28.4-58.5 45.5-67.6zm-45.6 6.4c-10.3 14.5-19.2 32.9-26.3 54.1-12.8-4.2-25.4-9.4-37.5-15.4 18.4-17.3 40.1-30.5 63.8-38.7zm-82.9 59.5c15.8 8.4 32.3 15.4 49.2 20.8-5.7 23.9-9 49.5-9.8 76.2h-77c2.6-35.4 15.6-68.8 37.6-97zM75.8 270h77c.9 26.7 4.2 52.3 9.8 76.2-16.9 5.5-33.4 12.5-49.2 20.8-21.9-28.1-34.9-61.5-37.6-97zm56.7 117.9c12.1-6 24.7-11.2 37.6-15.4 7.1 21.3 16 39.6 26.3 54.2-23.7-8.4-45.4-21.5-63.9-38.8zm64-22.6c14.9-3.3 30.2-5.3 45.5-6.1V433c-17.2-9.1-33.9-33.9-45.5-67.7zm73.5 67.3v-73.5c15.2.8 30.3 2.8 45 6-11.4 33.6-28 58.3-45 67.5zm45-5.7c10.4-14.6 19.4-33.1 26.5-54.5 13 4.2 25.8 9.5 38 15.6-18.6 17.3-40.6 30.6-64.5 38.9zm83.5-59.8c-16-8.5-32.6-15.5-49.7-21 5.6-23.9 8.9-49.4 9.8-76.1h77.6c-2.7 35.5-15.6 68.9-37.7 97.1z"/></symbol><symbol class="bmicon--information" viewBox="0 0 512 512" id="ui--information" xmlns="http://www.w3.org/2000/svg"><path d="M235.4 176c0-11.4 9.3-19.9 20.5-19.9 11.4 0 20.7 8.5 20.7 19.9s-9.3 20-20.7 20c-11.2.1-20.5-8.6-20.5-20zm1.4 35.8H275v144.1h-38.2V211.8z"/></symbol><symbol class="bnicon--minus" id="ui--minus" viewBox="0 0 64 64" xmlns="http://www.w3.org/2000/svg"><style/><path fill="none" stroke="currentColor" stroke-miterlimit="10" stroke-width="2" d="M14.157 32h35.686"/></symbol><symbol class="boicon--more-horizontal" viewBox="0 0 512 512" id="ui--more-horizontal" xmlns="http://www.w3.org/2000/svg"><path d="M255.8 218c-21 0-38 17-38 38s17 38 38 38 38-17 38-38-17-38-38-38zM102 218c-21 0-38 17-38 38s17 38 38 38 38-17 38-38-17-38-38-38zm308 0c-21 0-38 17-38 38s17 38 38 38 38-17 38-38-17-38-38-38z"/></symbol><symbol class="bpicon--more" viewBox="0 0 512 512" id="ui--more-vertical" xmlns="http://www.w3.org/2000/svg"><path d="M296 136c0-22.002-17.998-40-40-40s-40 17.998-40 40 17.998 40 40 40 40-17.998 40-40zm0 240c0-22.002-17.998-40-40-40s-40 17.998-40 40 17.998 40 40 40 40-17.998 40-40zm0-120c0-22.002-17.998-40-40-40s-40 17.998-40 40 17.998 40 40 40 40-17.998 40-40z"/></symbol><symbol viewBox="0 0 36 36" id="ui--pen" xmlns="http://www.w3.org/2000/svg"><path fill-rule="evenodd" d="M11.934 27H9v-2.723l10.931-10.879 2.855 2.776L11.934 27zm14.45-20.001l2.828 2.828-4.985 4.986-2.829-2.829 4.986-4.985zm2.551 5.933l1.691-1.691c.78-.78.78-2.048 0-2.828l-2.829-2.829c-.755-.755-2.125-.756-2.88 0L7 23.449v4.031l-1.76 1.813 1.441 1.361L8.31 29h4.453l14.76-14.706 1.48 1.507-4.588 4.6 1.414 1.421 4.587-4.584c.377-.377.585-.877.585-1.412 0-.536-.208-1.037-.585-1.414l-1.48-1.48z"/></symbol><symbol class="bricon--people" viewBox="0 0 512 512" id="ui--people" xmlns="http://www.w3.org/2000/svg"><path d="M349.1 334.7c-11.2-4-29.5-4.2-37.6-7.3-5.6-2.2-14.5-4.6-17.4-8.1-2.9-3.5-2.9-28.5-2.9-28.5s7-6.6 9.9-14c2.9-7.3 4.8-27.5 4.8-27.5s6.6 2.8 9.2-10.4c2.2-11.4 6.4-17.4 5.3-25.8-1.2-8.4-5.8-6.4-5.8-6.4s5.8-8.5 5.8-37.4c0-29.8-22.5-59.1-64.6-59.1-42 0-64.7 29.4-64.7 59.1 0 28.9 5.7 37.4 5.7 37.4s-4.7-2-5.8 6.4c-1.2 8.4 3 14.4 5.3 25.8 2.6 13.3 9.2 10.4 9.2 10.4s1.9 20.1 4.8 27.5c2.9 7.4 9.9 14 9.9 14s0 25-2.9 28.5-11.8 5.9-17.4 8c-8 3.1-26.3 3.5-37.6 7.5-11.2 4-45.8 22.2-45.8 67.2h278.3c.1-45.1-34.5-63.3-45.7-67.3z"/><path d="M140 286s23.9-.8 33.4-9.3c-15.5-23.5-7.1-50.9-10.3-76.5-3.2-25.5-17.7-40.8-46.7-40.8h-.4c-28 0-43.1 15.2-46.3 40.8-3.2 25.5 5.7 56-10.2 76.5C69 285.3 93 285 93 285s1 14.4-1 16.8c-2 2.4-7.9 4.7-12 5.5-8.8 1.9-18.1 4.5-25.9 7.2-7.8 2.7-22.6 17.2-22.6 37.2h80.3c2.2-8 17.3-22.3 32-29.8 9-4.6 17.9-4.3 24.7-5.2 0 0 3.8-6-8.7-8.3 0 0-17.2-4.3-19.2-6.7-1.9-2.2-.6-15.7-.6-15.7zm232 0s-23.9-.8-33.4-9.3c15.5-23.5 7.1-50.9 10.3-76.5 3.2-25.5 17.7-40.8 46.7-40.8h.4c28 0 43.1 15.2 46.3 40.8 3.2 25.5-5.7 56 10.2 76.5-9.5 8.6-33.5 8.3-33.5 8.3s-1 14.4 1 16.8c2 2.4 7.9 4.7 12 5.5 8.8 1.9 18.1 4.5 25.9 7.2 7.8 2.7 22.6 17.2 22.6 37.2h-80.3c-2.2-8-17.3-22.3-32-29.8-9-4.6-17.9-4.3-24.7-5.2 0 0-3.8-6 8.7-8.3 0 0 17.2-4.3 19.2-6.7 1.9-2.2.6-15.7.6-15.7z"/></symbol><symbol class="bsicon--plus" id="ui--plus" viewBox="0 0 64 64" xmlns="http://www.w3.org/2000/svg"><style>.bsicon-plus__path{fill:currentColor;stroke:currentColor;stroke-width:2;stroke-miterlimit:10}</style><path d="M14.157 32h35.686M32 14.157v35.686" class="bsicon-plus__path"/></symbol><symbol class="bticon--print" viewBox="0 0 512 512" id="ui--print" xmlns="http://www.w3.org/2000/svg"><path d="M128 248v200c0 8.8 7.2 16 16 16h224c8.8 0 16-7.2 16-16V248c0-8.8-7.2-16-16-16H144c-8.8 0-16 7.2-16 16zM384 48H128c-8.8 0-16 7.2-16 16v20c0 2.2 1.8 4 4 4h280c2.2 0 4-1.8 4-4V64c0-8.8-7.2-16-16-16z"/><path d="M432.5 112h-352C62.9 112 48 125.8 48 143.3v174.4c0 17.5 14.9 32.3 32.5 32.3H96c4.4 0 8-3.6 8-8V236c0-15.5 12.5-28 28-28h248c15.5 0 28 12.5 28 28v106c0 4.4 3.6 8 8 8h16.5c17.6 0 31.5-14.8 31.5-32.3V143.3c0-17.5-13.9-31.3-31.5-31.3z"/></symbol><symbol class="buicon--remove" viewBox="0 0 512 512" id="ui--remove" xmlns="http://www.w3.org/2000/svg"><path d="M368.5 240h-225c-8.8 0-16 7.2-16 16 0 4.4 1.8 8.4 4.7 11.3 2.9 2.9 6.9 4.7 11.3 4.7h225c8.8 0 16-7.2 16-16s-7.2-16-16-16z"/></symbol><symbol class="bvicon--reorder" viewBox="0 0 512 512" id="ui--reorder" xmlns="http://www.w3.org/2000/svg"><path d="M80 304h352v16H80zm0-56h352v16H80zm0-56h352v16H80z"/></symbol><symbol viewBox="0 0 512 512" id="ui--timer" xmlns="http://www.w3.org/2000/svg"><path d="M256 456c-110.3 0-200-89.7-200-200 0-54.8 21.7-105.9 61.2-144 6.4-6.2 16.6-6 22.7.4 6.2 6.4 6 16.6-.4 22.7-33.1 32-51.3 74.9-51.3 120.9 0 92.5 75.3 167.8 167.8 167.8S423.8 348.5 423.8 256c0-87.1-66.7-159-151.8-167.1v62.6c0 8.9-7.2 16.1-16.1 16.1s-16.1-7.2-16.1-16.1V72.1c0-8.9 7.2-16.1 16.1-16.1 110.3 0 200 89.7 200 200S366.3 456 256 456z"/><path d="M175.9 161.9l99.5 71.5c13.5 9.7 16.7 28.5 7 42s-28.5 16.7-42 7c-2.8-2-5.2-4.4-7-7l-71.5-99.5c-3.2-4.5-2.2-10.8 2.3-14 3.6-2.6 8.3-2.4 11.7 0z"/></symbol><symbol class="bxicon--trash" viewBox="0 0 512 512" id="ui--trash" xmlns="http://www.w3.org/2000/svg"><path d="M133.1 128l23.6 290.7c0 16.2 13.1 29.3 29.3 29.3h141c16.2 0 29.3-13.1 29.3-29.3L379.6 128H133.1zm61.6 265L188 160h18.5l6.9 233h-18.7zm70.3 0h-18V160h18v233zm52.3 0h-18.6l6.8-233H324l-6.7 233zM364 92h-36l-26.3-23c-3.7-3.2-8.4-5-13.2-5h-64.8c-4.9 0-9.7 1.8-13.4 5L184 92h-36c-17.6 0-30 8.4-30 26h276c0-17.6-12.4-26-30-26z"/></symbol><symbol viewBox="0 0 36 36" id="ui--warning" xmlns="http://www.w3.org/2000/svg"><g fill-rule="evenodd"><path d="M6.714 29h22.572L18 9.032 6.714 29zm26 2H3.286L18 4.968 32.714 31z"/><path d="M19.5 26a1.5 1.5 0 1 1-3.001-.001A1.5 1.5 0 0 1 19.5 26zM17 23h2v-9h-2z"/></g></symbol><symbol viewBox="0 0 512 512" id="widget--hph-image-poster" xmlns="http://www.w3.org/2000/svg"><path d="M112.6 312.3h190.7c4.5 0 7.1-5.1 4.5-8.8l-95.4-153.4c-2.2-3.2-6.9-3.2-9.1 0L108 303.5c-2.6 3.7.1 8.8 4.6 8.8zm194.1-58l35 55.7c1 1.5 2.7 2.4 4.5 2.4h53.2c4.5 0 7.1-5.1 4.5-8.8l-61.6-87.7c-2.2-3.2-6.9-3.2-9.1 0L306.6 248c-1.2 1.8-1.2 4.3.1 6.3zm44.4-86.4c13.1-1.3 23.7-11.9 25-25 1.8-17.7-13-32.5-30.7-30.7-13.1 1.3-23.7 11.9-25 25-1.7 17.7 13 32.5 30.7 30.7z"/><path d="M432 48H80c-17.7 0-32 14.3-32 32v352c0 17.7 14.3 32 32 32h352c17.7 0 32-14.3 32-32V80c0-17.7-14.3-32-32-32zm-2.7 280c0 4.4-3.6 8-8 8H90.7c-4.4 0-8-3.6-8-8V90.7c0-4.4 3.6-8 8-8h330.7c4.4 0 8 3.6 8 8V328z"/></symbol><symbol viewBox="0 0 512 512" id="widget--hph-teaser-links" xmlns="http://www.w3.org/2000/svg"><path d="M280 341.1l-1.2.1c-3.6.4-7 2-9.6 4.5l-64.6 64.6c-13.7 13.7-32 21.2-51.5 21.2s-37.8-7.5-51.5-21.2c-13.7-13.7-21.2-32-21.2-51.5s7.5-37.8 21.2-51.5l68.6-68.6c3.5-3.5 7.3-6.6 11.4-9.3 4.6-3 9.6-5.6 14.8-7.5 4.8-1.8 9.9-3 15-3.7 3.4-.5 6.9-.7 10.2-.7 1.4 0 2.8.1 4.6.2 17.7 1.1 34.4 8.6 46.8 21 7.7 7.7 13.6 17.1 17.1 27.3 2.8 8 11.2 12.5 19.3 10.1.1 0 .2-.1.3-.1.1 0 .2 0 .2-.1 8.1-2.5 12.8-11 10.5-19.1-4.4-15.6-12.2-28.7-24.6-41-15.6-15.6-35.9-25.8-57.6-29.3-1.9-.3-3.8-.6-5.7-.8-3.7-.4-7.4-.6-11.1-.6-2.6 0-5.2.1-7.7.3-5.4.4-10.8 1.2-16.2 2.5-1.1.2-2.1.5-3.2.8-6.7 1.8-13.3 4.2-19.5 7.3-10.3 5.1-19.6 11.7-27.7 19.9l-68.6 68.6C58.9 304.4 48 330.8 48 359c0 28.2 10.9 54.6 30.7 74.4C98.5 453.1 124.9 464 153 464c28.2 0 54.6-10.9 74.4-30.7l65.3-65.3c10.4-10.5 2-28.3-12.7-26.9z"/><path d="M433.3 78.7C413.5 58.9 387.1 48 359 48s-54.6 10.9-74.4 30.7l-63.7 63.7c-9.7 9.7-3.6 26.3 10.1 27.4 4.7.4 9.3-1.3 12.7-4.6l63.8-63.6c13.7-13.7 32-21.2 51.5-21.2s37.8 7.5 51.5 21.2c13.7 13.7 21.2 32 21.2 51.5s-7.5 37.8-21.2 51.5l-68.6 68.6c-3.5 3.5-7.3 6.6-11.4 9.3-4.6 3-9.6 5.6-14.8 7.5-4.8 1.8-9.9 3-15 3.7-3.4.5-6.9.7-10.2.7-1.4 0-2.9-.1-4.6-.2-17.7-1.1-34.4-8.6-46.8-21-7.3-7.3-12.8-16-16.4-25.5-2.9-7.7-11.1-11.9-19.1-9.8-8.9 2.3-14.1 11.7-11.3 20.5 4.5 14 12.1 25.9 23.7 37.5l.2.2c16.9 16.9 39.4 27.6 63.3 30.1 3.7.4 7.4.6 11.1.6 2.6 0 5.2-.1 7.8-.3 6.5-.5 13-1.6 19.3-3.2 6.7-1.8 13.3-4.2 19.5-7.3 10.3-5.1 19.6-11.7 27.7-19.9l68.6-68.6c19.8-19.8 30.7-46.2 30.7-74.4s-11.1-54.6-30.9-74.4z"/></symbol><symbol viewBox="0 0 512 512" id="widget--hph-teaser-links-external" xmlns="http://www.w3.org/2000/svg"><path d="M280 341.1l-1.2.1c-3.6.4-7 2-9.6 4.5l-64.6 64.6c-13.7 13.7-32 21.2-51.5 21.2s-37.8-7.5-51.5-21.2c-13.7-13.7-21.2-32-21.2-51.5s7.5-37.8 21.2-51.5l68.6-68.6c3.5-3.5 7.3-6.6 11.4-9.3 4.6-3 9.6-5.6 14.8-7.5 4.8-1.8 9.9-3 15-3.7 3.4-.5 6.9-.7 10.2-.7 1.4 0 2.8.1 4.6.2 17.7 1.1 34.4 8.6 46.8 21 7.7 7.7 13.6 17.1 17.1 27.3 2.8 8 11.2 12.5 19.3 10.1.1 0 .2-.1.3-.1.1 0 .2 0 .2-.1 8.1-2.5 12.8-11 10.5-19.1-4.4-15.6-12.2-28.7-24.6-41-15.6-15.6-35.9-25.8-57.6-29.3-1.9-.3-3.8-.6-5.7-.8-3.7-.4-7.4-.6-11.1-.6-2.6 0-5.2.1-7.7.3-5.4.4-10.8 1.2-16.2 2.5-1.1.2-2.1.5-3.2.8-6.7 1.8-13.3 4.2-19.5 7.3-10.3 5.1-19.6 11.7-27.7 19.9l-68.6 68.6C58.9 304.4 48 330.8 48 359c0 28.2 10.9 54.6 30.7 74.4C98.5 453.1 124.9 464 153 464c28.2 0 54.6-10.9 74.4-30.7l65.3-65.3c10.4-10.5 2-28.3-12.7-26.9z"/><path d="M433.3 78.7C413.5 58.9 387.1 48 359 48s-54.6 10.9-74.4 30.7l-63.7 63.7c-9.7 9.7-3.6 26.3 10.1 27.4 4.7.4 9.3-1.3 12.7-4.6l63.8-63.6c13.7-13.7 32-21.2 51.5-21.2s37.8 7.5 51.5 21.2c13.7 13.7 21.2 32 21.2 51.5s-7.5 37.8-21.2 51.5l-68.6 68.6c-3.5 3.5-7.3 6.6-11.4 9.3-4.6 3-9.6 5.6-14.8 7.5-4.8 1.8-9.9 3-15 3.7-3.4.5-6.9.7-10.2.7-1.4 0-2.9-.1-4.6-.2-17.7-1.1-34.4-8.6-46.8-21-7.3-7.3-12.8-16-16.4-25.5-2.9-7.7-11.1-11.9-19.1-9.8-8.9 2.3-14.1 11.7-11.3 20.5 4.5 14 12.1 25.9 23.7 37.5l.2.2c16.9 16.9 39.4 27.6 63.3 30.1 3.7.4 7.4.6 11.1.6 2.6 0 5.2-.1 7.8-.3 6.5-.5 13-1.6 19.3-3.2 6.7-1.8 13.3-4.2 19.5-7.3 10.3-5.1 19.6-11.7 27.7-19.9l68.6-68.6c19.8-19.8 30.7-46.2 30.7-74.4s-11.1-54.6-30.9-74.4z"/></symbol><symbol class="ccicon-image" viewBox="0 0 512 512" id="widget--image" xmlns="http://www.w3.org/2000/svg"><path d="M112.6 312.3h190.7c4.5 0 7.1-5.1 4.5-8.8l-95.4-153.4c-2.2-3.2-6.9-3.2-9.1 0L108 303.5c-2.6 3.7.1 8.8 4.6 8.8zm194.1-58l35 55.7c1 1.5 2.7 2.4 4.5 2.4h53.2c4.5 0 7.1-5.1 4.5-8.8l-61.6-87.7c-2.2-3.2-6.9-3.2-9.1 0L306.6 248c-1.2 1.8-1.2 4.3.1 6.3zm44.4-86.4c13.1-1.3 23.7-11.9 25-25 1.8-17.7-13-32.5-30.7-30.7-13.1 1.3-23.7 11.9-25 25-1.7 17.7 13 32.5 30.7 30.7z"/><path d="M432 48H80c-17.7 0-32 14.3-32 32v352c0 17.7 14.3 32 32 32h352c17.7 0 32-14.3 32-32V80c0-17.7-14.3-32-32-32zm-2.7 280c0 4.4-3.6 8-8 8H90.7c-4.4 0-8-3.6-8-8V90.7c0-4.4 3.6-8 8-8h330.7c4.4 0 8 3.6 8 8V328z"/></symbol><symbol viewBox="0 0 24 24" id="widget--separator" xmlns="http://www.w3.org/2000/svg"><path fill="none" d="M0 0h24v24H0z"/><path d="M2 11h2v2H2v-2zm4 0h12v2H6v-2zm14 0h2v2h-2v-2z"/></symbol><symbol viewBox="0 0 512 512" id="widget--teaser-events" xmlns="http://www.w3.org/2000/svg"><path d="M424 96h-40v24c0 4.4-3.6 8-8 8h-16c-4.4 0-8-3.6-8-8V96H160v24c0 4.4-3.6 8-8 8h-16c-4.4 0-8-3.6-8-8V96H88c-22 0-40 18-40 40v272c0 22 18 40 40 40h336c22 0 40-18 40-40V136c0-22-18-40-40-40zm8 300c0 11-9 20-20 20H100c-11 0-20-9-20-20V216c0-4.4 3.6-8 8-8h336c4.4 0 8 3.6 8 8v180zM160 72c0-4.4-3.6-8-8-8h-16c-4.4 0-8 3.6-8 8v24h32V72zm224 0c0-4.4-3.6-8-8-8h-16c-4.4 0-8 3.6-8 8v24h32V72z"/></symbol><symbol viewBox="0 0 64 64" id="widget--text-block" xmlns="http://www.w3.org/2000/svg"><path fill="none" stroke="currentColor" stroke-linecap="round" stroke-miterlimit="10" stroke-width="2" d="M49.29 11.052H14.71v7.773h13.728v34.123h7.772V18.825h13.08z"/></symbol><symbol viewBox="0 0 64 64" id="widget--text-formatted" xmlns="http://www.w3.org/2000/svg"><path fill="none" stroke="currentColor" stroke-linecap="round" stroke-miterlimit="10" stroke-width="2" d="M49.29 11.052H14.71v7.773h13.728v34.123h7.772V18.825h13.08z"/></symbol><symbol class="cho-icon--svg" id="widget--tile" viewBox="0 0 64 64" xmlns="http://www.w3.org/2000/svg"><style>.cho-icon__tile--path{fill:none;stroke:currentColor;stroke-width:2;stroke-miterlimit:10}</style><path d="M13 13h16.215v16.858H13zm21.785 0H51v16.858H34.785zM13 34.142h16.215V51H13zm21.785 0H51V51H34.785z" class="cho-icon__tile--path"/></symbol></svg>