<?xml version="1.0" standalone="no"?>
<!DOCTYPE svg PUBLIC "-//W3C//DTD SVG 20010904//EN"
 "http://www.w3.org/TR/2001/REC-SVG-20010904/DTD/svg10.dtd">
<svg version="1.0" xmlns="http://www.w3.org/2000/svg"
 width="512.000000pt" height="512.000000pt" viewBox="0 0 512.000000 512.000000"
 preserveAspectRatio="xMidYMid meet">
<metadata>
Created by potrace 1.14, written by Peter Selinger 2001-2017
</metadata>
<g transform="translate(0.000000,512.000000) scale(0.100000,-0.100000)"
fill="#000000" stroke="none">
<path d="M2090 2505 l0 -555 95 0 95 0 0 245 0 245 255 0 255 0 0 -245 0 -245
95 0 95 0 0 555 0 555 -95 0 -95 0 0 -225 0 -225 -255 0 -255 0 0 225 0 225
-95 0 -95 0 0 -555z"/>
<path d="M3840 2505 l0 -555 90 0 90 0 0 220 0 220 250 0 250 0 0 80 0 80
-247 2 -248 3 0 170 0 170 268 3 267 2 0 80 0 80 -360 0 -360 0 0 -555z"/>
<path d="M2090 1025 l0 -555 95 0 95 0 0 205 0 205 118 0 c269 1 392 51 459
188 25 51 28 67 28 162 0 95 -3 111 -28 162 -33 66 -80 112 -153 145 -78 35
-146 43 -391 43 l-223 0 0 -555z m512 367 c67 -33 92 -78 92 -162 0 -81 -26
-130 -88 -163 -35 -19 -60 -22 -183 -25 l-143 -4 0 192 0 192 138 -4 c118 -3
144 -7 184 -26z"/>
<path d="M3140 1025 l0 -555 90 0 90 0 0 245 0 245 260 0 260 0 0 -245 0 -245
90 0 90 0 0 555 0 555 -90 0 -90 0 0 -225 0 -225 -260 0 -260 0 0 225 0 225
-90 0 -90 0 0 -555z"/>
</g>
</svg>
